M48
;Layer_Color=9474304
;FILE_FORMAT=2:5
INCH,TZ
;TYPE=PLATED
T01F00S00C0.02800
T02F00S00C0.03000
T03F00S00C0.03543
T04F00S00C0.04000
T05F00S00C0.12598
%
T01
X145000Y25000
X195000Y45000
X230000Y60000
X222500Y70000
X230000Y80000
X260000Y50000
X181995Y44495
X172500Y52500
X142500Y55000
X112500Y87500
Y112500
X110000Y142500
X120000
X110000Y152500
X140000
Y142500
X170000Y140000
X169598Y153447
X170000Y117500
X150000
T02
X110000Y10000
X120000
X130000
X140000
X150000
X160000
X170000
X180000
X200000
X210000
X220000
X230000
X240000
X250000
X190000Y200000
X180000
X164000
X154000
X144000
X134000
X124000
X114000
X104000
X94000
X84000
X74000
X200000
X210000
X220000
X230000
X240000
X250000
T03
X250551Y99803
Y109803
Y119803
X260551
Y109803
Y99803
T04
X240000Y50000
X250000
Y60000
X240000
Y70000
Y80000
X250000
Y70000
T05
X55000Y10000
X260000Y30000
Y140000
X60000Y200000
M30
