G04*
G04 #@! TF.GenerationSoftware,Altium Limited,Altium Designer,26.2.0 (7)*
G04*
G04 Layer_Physical_Order=2*
G04 Layer_Color=16711680*
%FSLAX44Y44*%
%MOMM*%
G71*
G04*
G04 #@! TF.SameCoordinates,138AD885-AACF-4A89-911C-20B3B9BD5497*
G04*
G04*
G04 #@! TF.FilePolarity,Positive*
G04*
G01*
G75*
%ADD31C,0.3810*%
%ADD32C,3.2000*%
%ADD33C,1.5240*%
%ADD34R,1.5240X1.5240*%
%ADD35C,1.7780*%
%ADD36C,1.2700*%
G36*
X644209Y519430D02*
X643683Y518160D01*
X624840D01*
Y497840D01*
X645160D01*
Y516683D01*
X646430Y517209D01*
X657033Y506605D01*
Y406400D01*
X657290Y405112D01*
X658019Y404019D01*
X682433Y379605D01*
Y215636D01*
X681163Y215146D01*
X647025Y249284D01*
X647536Y250516D01*
X647929Y253500D01*
X647536Y256484D01*
X646384Y259265D01*
X644552Y261652D01*
X642164Y263484D01*
X639384Y264636D01*
X636400Y265029D01*
X633416Y264636D01*
X630636Y263484D01*
X628248Y261652D01*
X626416Y259265D01*
X625264Y256484D01*
X624871Y253500D01*
X625264Y250516D01*
X626416Y247736D01*
X628248Y245348D01*
X630636Y243516D01*
X633416Y242364D01*
X636400Y241971D01*
X639384Y242364D01*
X640616Y242875D01*
X673773Y209718D01*
Y172496D01*
X672600Y172010D01*
X644653Y199956D01*
X644899Y200548D01*
X645248Y203200D01*
X644899Y205852D01*
X643875Y208324D01*
X642246Y210446D01*
X640124Y212075D01*
X637652Y213099D01*
X635000Y213448D01*
X632348Y213099D01*
X629876Y212075D01*
X627754Y210446D01*
X626125Y208324D01*
X625102Y205852D01*
X624752Y203200D01*
X625102Y200548D01*
X626125Y198076D01*
X627754Y195954D01*
X629876Y194325D01*
X632348Y193302D01*
X635000Y192952D01*
X637652Y193302D01*
X638244Y193547D01*
X666663Y165128D01*
Y134836D01*
X665524Y134274D01*
X664883Y134765D01*
X662721Y135661D01*
X660400Y135967D01*
X658079Y135661D01*
X655917Y134765D01*
X654060Y133340D01*
X652672Y131532D01*
X644120D01*
X643875Y132124D01*
X642246Y134246D01*
X640124Y135875D01*
X637652Y136898D01*
X635000Y137248D01*
X632348Y136898D01*
X629876Y135875D01*
X627754Y134246D01*
X626125Y132124D01*
X625102Y129652D01*
X624752Y127000D01*
X625102Y124348D01*
X626125Y121876D01*
X627754Y119754D01*
X629876Y118125D01*
X632348Y117101D01*
X635000Y116752D01*
X637652Y117101D01*
X640124Y118125D01*
X642246Y119754D01*
X643875Y121876D01*
X644120Y122468D01*
X652672D01*
X654060Y120660D01*
X655917Y119235D01*
X658079Y118339D01*
X658880Y118233D01*
X659288Y117031D01*
X623252Y80995D01*
X592800D01*
X591066Y80650D01*
X589596Y79668D01*
X589596Y79668D01*
X543530Y33602D01*
X542592Y32197D01*
X542492Y32071D01*
X541301Y31793D01*
X540646Y32646D01*
X538524Y34275D01*
X536052Y35299D01*
X533400Y35648D01*
X530748Y35299D01*
X528276Y34275D01*
X526154Y32646D01*
X524525Y30524D01*
X523502Y28052D01*
X523152Y25400D01*
X523502Y22748D01*
X524525Y20276D01*
X525399Y19137D01*
X524773Y17867D01*
X518160D01*
Y35560D01*
X497840D01*
Y17867D01*
X467360D01*
Y35560D01*
X447040D01*
Y17867D01*
X445742D01*
X441453Y22156D01*
X441698Y22748D01*
X442048Y25400D01*
X441698Y28052D01*
X440675Y30524D01*
X439046Y32646D01*
X436924Y34275D01*
X434452Y35299D01*
X431800Y35648D01*
X429148Y35299D01*
X426676Y34275D01*
X424554Y32646D01*
X422925Y30524D01*
X421902Y28052D01*
X421552Y25400D01*
X421902Y22748D01*
X422925Y20276D01*
X424554Y18154D01*
X426676Y16525D01*
X429148Y15502D01*
X431800Y15152D01*
X434452Y15502D01*
X435044Y15747D01*
X438100Y12690D01*
X437614Y11517D01*
X350492D01*
X339853Y22156D01*
X340098Y22748D01*
X340448Y25400D01*
X340098Y28052D01*
X339075Y30524D01*
X337446Y32646D01*
X335324Y34275D01*
X332852Y35299D01*
X330200Y35648D01*
X327548Y35299D01*
X325076Y34275D01*
X322954Y32646D01*
X321325Y30524D01*
X320302Y28052D01*
X319952Y25400D01*
X320302Y22748D01*
X321325Y20276D01*
X322954Y18154D01*
X325076Y16525D01*
X327548Y15502D01*
X330200Y15152D01*
X332852Y15502D01*
X333444Y15747D01*
X344554Y4637D01*
X344028Y3367D01*
X3367D01*
Y530033D01*
X633605D01*
X644209Y519430D01*
D02*
G37*
G36*
X673773Y117038D02*
Y87128D01*
X672503Y86673D01*
X671768Y87569D01*
X669332Y89568D01*
X666553Y91054D01*
X663537Y91968D01*
X660400Y92277D01*
X657263Y91968D01*
X654247Y91054D01*
X651468Y89568D01*
X649032Y87569D01*
X647032Y85132D01*
X645546Y82353D01*
X644632Y79337D01*
X644323Y76200D01*
X644632Y73064D01*
X645546Y70047D01*
X647032Y67268D01*
X649032Y64832D01*
X651468Y62832D01*
X654247Y61346D01*
X657263Y60431D01*
X660400Y60123D01*
X663537Y60431D01*
X666553Y61346D01*
X669332Y62832D01*
X671768Y64832D01*
X672503Y65726D01*
X673773Y65272D01*
Y53520D01*
X646427Y26174D01*
X645086Y26629D01*
X644899Y28052D01*
X643875Y30524D01*
X642246Y32646D01*
X640124Y34275D01*
X637652Y35299D01*
X635000Y35648D01*
X632348Y35299D01*
X629876Y34275D01*
X627754Y32646D01*
X626125Y30524D01*
X625102Y28052D01*
X624752Y25400D01*
X625102Y22748D01*
X626125Y20276D01*
X626999Y19137D01*
X626373Y17867D01*
X618227D01*
X617601Y19137D01*
X618475Y20276D01*
X619498Y22748D01*
X619848Y25400D01*
X619498Y28052D01*
X618475Y30524D01*
X616846Y32646D01*
X614724Y34275D01*
X612252Y35299D01*
X609600Y35648D01*
X606948Y35299D01*
X604476Y34275D01*
X602354Y32646D01*
X600725Y30524D01*
X599701Y28052D01*
X599352Y25400D01*
X599701Y22748D01*
X600725Y20276D01*
X601599Y19137D01*
X600973Y17867D01*
X592827D01*
X592201Y19137D01*
X593075Y20276D01*
X594099Y22748D01*
X594448Y25400D01*
X594099Y28052D01*
X593075Y30524D01*
X591446Y32646D01*
X589324Y34275D01*
X586852Y35299D01*
X584200Y35648D01*
X581548Y35299D01*
X579076Y34275D01*
X576954Y32646D01*
X575325Y30524D01*
X574301Y28052D01*
X573952Y25400D01*
X574301Y22748D01*
X575325Y20276D01*
X576199Y19137D01*
X575573Y17867D01*
X567427D01*
X566801Y19137D01*
X567675Y20276D01*
X568699Y22748D01*
X569048Y25400D01*
X568699Y28052D01*
X567675Y30524D01*
X566046Y32646D01*
X563924Y34275D01*
X561452Y35299D01*
X560029Y35486D01*
X559574Y36827D01*
X594678Y71931D01*
X625129D01*
X626864Y72276D01*
X628334Y73258D01*
X672600Y117524D01*
X673773Y117038D01*
D02*
G37*
G36*
X682433Y47602D02*
Y39495D01*
X658019Y15081D01*
X657290Y13988D01*
X657033Y12700D01*
Y3367D01*
X545615D01*
X545089Y4637D01*
X549255Y8803D01*
X639997D01*
X641732Y9148D01*
X643202Y10130D01*
X681163Y48092D01*
X682433Y47602D01*
D02*
G37*
%LPC*%
G36*
X426720Y518160D02*
X406400D01*
Y497840D01*
X426720D01*
Y518160D01*
D02*
G37*
G36*
X609600Y518248D02*
X606948Y517898D01*
X604476Y516875D01*
X602354Y515246D01*
X600725Y513124D01*
X599701Y510652D01*
X599352Y508000D01*
X599701Y505348D01*
X599947Y504756D01*
X547155Y451964D01*
X415682D01*
X413948Y451619D01*
X412477Y450637D01*
X357860Y396019D01*
X355600Y396317D01*
X353279Y396011D01*
X351117Y395115D01*
X349260Y393690D01*
X347835Y391833D01*
X346939Y389671D01*
X346633Y387350D01*
X346939Y385029D01*
X347835Y382867D01*
X349260Y381010D01*
X351068Y379622D01*
Y369678D01*
X349260Y368290D01*
X347835Y366433D01*
X346939Y364271D01*
X346633Y361950D01*
X346939Y359629D01*
X347835Y357467D01*
X349260Y355610D01*
X351117Y354185D01*
X353279Y353289D01*
X355600Y352983D01*
X357921Y353289D01*
X360083Y354185D01*
X361940Y355610D01*
X363365Y357467D01*
X364261Y359629D01*
X364567Y361950D01*
X364261Y364271D01*
X363365Y366433D01*
X361940Y368290D01*
X360132Y369678D01*
Y379622D01*
X361940Y381010D01*
X363365Y382867D01*
X364261Y385029D01*
X364567Y387350D01*
X364269Y389610D01*
X417559Y442900D01*
X549032D01*
X550766Y443245D01*
X552237Y444227D01*
X606356Y498347D01*
X606948Y498102D01*
X609600Y497752D01*
X612252Y498102D01*
X614724Y499125D01*
X616846Y500754D01*
X618475Y502876D01*
X619498Y505348D01*
X619848Y508000D01*
X619498Y510652D01*
X618475Y513124D01*
X616846Y515246D01*
X614724Y516875D01*
X612252Y517898D01*
X609600Y518248D01*
D02*
G37*
G36*
X584200D02*
X581548Y517898D01*
X579076Y516875D01*
X576954Y515246D01*
X575325Y513124D01*
X574301Y510652D01*
X573952Y508000D01*
X574301Y505348D01*
X575325Y502876D01*
X576954Y500754D01*
X579076Y499125D01*
X581548Y498102D01*
X584200Y497752D01*
X586852Y498102D01*
X589324Y499125D01*
X591446Y500754D01*
X593075Y502876D01*
X594099Y505348D01*
X594448Y508000D01*
X594099Y510652D01*
X593075Y513124D01*
X591446Y515246D01*
X589324Y516875D01*
X586852Y517898D01*
X584200Y518248D01*
D02*
G37*
G36*
X558800D02*
X556148Y517898D01*
X553676Y516875D01*
X551554Y515246D01*
X549925Y513124D01*
X548901Y510652D01*
X548552Y508000D01*
X548901Y505348D01*
X549925Y502876D01*
X551554Y500754D01*
X553676Y499125D01*
X556148Y498102D01*
X558800Y497752D01*
X561452Y498102D01*
X563924Y499125D01*
X566046Y500754D01*
X567675Y502876D01*
X568699Y505348D01*
X569048Y508000D01*
X568699Y510652D01*
X567675Y513124D01*
X566046Y515246D01*
X563924Y516875D01*
X561452Y517898D01*
X558800Y518248D01*
D02*
G37*
G36*
X533400D02*
X530748Y517898D01*
X528276Y516875D01*
X526154Y515246D01*
X524525Y513124D01*
X523502Y510652D01*
X523152Y508000D01*
X523502Y505348D01*
X524525Y502876D01*
X526154Y500754D01*
X528276Y499125D01*
X530748Y498102D01*
X533400Y497752D01*
X536052Y498102D01*
X538524Y499125D01*
X540646Y500754D01*
X542275Y502876D01*
X543298Y505348D01*
X543648Y508000D01*
X543298Y510652D01*
X542275Y513124D01*
X540646Y515246D01*
X538524Y516875D01*
X536052Y517898D01*
X533400Y518248D01*
D02*
G37*
G36*
X508000D02*
X505348Y517898D01*
X502876Y516875D01*
X500754Y515246D01*
X499125Y513124D01*
X498102Y510652D01*
X497752Y508000D01*
X498102Y505348D01*
X499125Y502876D01*
X500754Y500754D01*
X502876Y499125D01*
X505348Y498102D01*
X508000Y497752D01*
X510652Y498102D01*
X513124Y499125D01*
X515246Y500754D01*
X516875Y502876D01*
X517898Y505348D01*
X518248Y508000D01*
X517898Y510652D01*
X516875Y513124D01*
X515246Y515246D01*
X513124Y516875D01*
X510652Y517898D01*
X508000Y518248D01*
D02*
G37*
G36*
X482600D02*
X479948Y517898D01*
X477476Y516875D01*
X475354Y515246D01*
X473725Y513124D01*
X472701Y510652D01*
X472352Y508000D01*
X472701Y505348D01*
X473725Y502876D01*
X475354Y500754D01*
X477476Y499125D01*
X479948Y498102D01*
X482600Y497752D01*
X485252Y498102D01*
X487724Y499125D01*
X489846Y500754D01*
X491475Y502876D01*
X492499Y505348D01*
X492848Y508000D01*
X492499Y510652D01*
X491475Y513124D01*
X489846Y515246D01*
X487724Y516875D01*
X485252Y517898D01*
X482600Y518248D01*
D02*
G37*
G36*
X457200D02*
X454548Y517898D01*
X452076Y516875D01*
X449954Y515246D01*
X448325Y513124D01*
X447301Y510652D01*
X446952Y508000D01*
X447301Y505348D01*
X448325Y502876D01*
X449954Y500754D01*
X452076Y499125D01*
X454548Y498102D01*
X457200Y497752D01*
X459852Y498102D01*
X462324Y499125D01*
X464446Y500754D01*
X466075Y502876D01*
X467099Y505348D01*
X467448Y508000D01*
X467099Y510652D01*
X466075Y513124D01*
X464446Y515246D01*
X462324Y516875D01*
X459852Y517898D01*
X457200Y518248D01*
D02*
G37*
G36*
X391160D02*
X388508Y517898D01*
X386036Y516875D01*
X383914Y515246D01*
X382285Y513124D01*
X381261Y510652D01*
X380912Y508000D01*
X381261Y505348D01*
X382285Y502876D01*
X383914Y500754D01*
X386036Y499125D01*
X388508Y498102D01*
X391160Y497752D01*
X393812Y498102D01*
X396284Y499125D01*
X398406Y500754D01*
X400035Y502876D01*
X401059Y505348D01*
X401408Y508000D01*
X401059Y510652D01*
X400035Y513124D01*
X398406Y515246D01*
X396284Y516875D01*
X393812Y517898D01*
X391160Y518248D01*
D02*
G37*
G36*
X365760D02*
X363108Y517898D01*
X360636Y516875D01*
X358514Y515246D01*
X356885Y513124D01*
X355862Y510652D01*
X355512Y508000D01*
X355862Y505348D01*
X356885Y502876D01*
X358514Y500754D01*
X360636Y499125D01*
X363108Y498102D01*
X365760Y497752D01*
X368412Y498102D01*
X370884Y499125D01*
X373006Y500754D01*
X374635Y502876D01*
X375658Y505348D01*
X376008Y508000D01*
X375658Y510652D01*
X374635Y513124D01*
X373006Y515246D01*
X370884Y516875D01*
X368412Y517898D01*
X365760Y518248D01*
D02*
G37*
G36*
X340360D02*
X337708Y517898D01*
X335236Y516875D01*
X333114Y515246D01*
X331485Y513124D01*
X330462Y510652D01*
X330112Y508000D01*
X330462Y505348D01*
X331485Y502876D01*
X333114Y500754D01*
X335236Y499125D01*
X337708Y498102D01*
X340360Y497752D01*
X343012Y498102D01*
X345484Y499125D01*
X347606Y500754D01*
X349235Y502876D01*
X350258Y505348D01*
X350608Y508000D01*
X350258Y510652D01*
X349235Y513124D01*
X347606Y515246D01*
X345484Y516875D01*
X343012Y517898D01*
X340360Y518248D01*
D02*
G37*
G36*
X314960D02*
X312308Y517898D01*
X309836Y516875D01*
X307714Y515246D01*
X306085Y513124D01*
X305061Y510652D01*
X304712Y508000D01*
X305061Y505348D01*
X306085Y502876D01*
X307714Y500754D01*
X309836Y499125D01*
X312308Y498102D01*
X314960Y497752D01*
X317612Y498102D01*
X320084Y499125D01*
X322206Y500754D01*
X323835Y502876D01*
X324859Y505348D01*
X325208Y508000D01*
X324859Y510652D01*
X323835Y513124D01*
X322206Y515246D01*
X320084Y516875D01*
X317612Y517898D01*
X314960Y518248D01*
D02*
G37*
G36*
X289560D02*
X286908Y517898D01*
X284436Y516875D01*
X282314Y515246D01*
X280685Y513124D01*
X279662Y510652D01*
X279312Y508000D01*
X279662Y505348D01*
X280685Y502876D01*
X282314Y500754D01*
X284436Y499125D01*
X286908Y498102D01*
X289560Y497752D01*
X292212Y498102D01*
X294684Y499125D01*
X296806Y500754D01*
X298435Y502876D01*
X299459Y505348D01*
X299808Y508000D01*
X299459Y510652D01*
X298435Y513124D01*
X296806Y515246D01*
X294684Y516875D01*
X292212Y517898D01*
X289560Y518248D01*
D02*
G37*
G36*
X264160D02*
X261508Y517898D01*
X259036Y516875D01*
X256914Y515246D01*
X255285Y513124D01*
X254261Y510652D01*
X253912Y508000D01*
X254261Y505348D01*
X255285Y502876D01*
X256914Y500754D01*
X259036Y499125D01*
X261508Y498102D01*
X264160Y497752D01*
X266812Y498102D01*
X269284Y499125D01*
X271406Y500754D01*
X273035Y502876D01*
X274058Y505348D01*
X274408Y508000D01*
X274058Y510652D01*
X273035Y513124D01*
X271406Y515246D01*
X269284Y516875D01*
X266812Y517898D01*
X264160Y518248D01*
D02*
G37*
G36*
X238760D02*
X236108Y517898D01*
X233636Y516875D01*
X231514Y515246D01*
X229885Y513124D01*
X228862Y510652D01*
X228512Y508000D01*
X228862Y505348D01*
X229885Y502876D01*
X231514Y500754D01*
X233636Y499125D01*
X236108Y498102D01*
X238760Y497752D01*
X241412Y498102D01*
X243884Y499125D01*
X246006Y500754D01*
X247635Y502876D01*
X248659Y505348D01*
X249008Y508000D01*
X248659Y510652D01*
X247635Y513124D01*
X246006Y515246D01*
X243884Y516875D01*
X241412Y517898D01*
X238760Y518248D01*
D02*
G37*
G36*
X213360D02*
X210708Y517898D01*
X208236Y516875D01*
X206114Y515246D01*
X204485Y513124D01*
X203461Y510652D01*
X203112Y508000D01*
X203461Y505348D01*
X204485Y502876D01*
X206114Y500754D01*
X208236Y499125D01*
X210708Y498102D01*
X213360Y497752D01*
X216012Y498102D01*
X218484Y499125D01*
X220606Y500754D01*
X222235Y502876D01*
X223258Y505348D01*
X223608Y508000D01*
X223258Y510652D01*
X222235Y513124D01*
X220606Y515246D01*
X218484Y516875D01*
X216012Y517898D01*
X213360Y518248D01*
D02*
G37*
G36*
X187960D02*
X185308Y517898D01*
X182836Y516875D01*
X180714Y515246D01*
X179085Y513124D01*
X178062Y510652D01*
X177712Y508000D01*
X178062Y505348D01*
X179085Y502876D01*
X180714Y500754D01*
X182836Y499125D01*
X185308Y498102D01*
X187960Y497752D01*
X190612Y498102D01*
X193084Y499125D01*
X195206Y500754D01*
X196835Y502876D01*
X197859Y505348D01*
X198208Y508000D01*
X197859Y510652D01*
X196835Y513124D01*
X195206Y515246D01*
X193084Y516875D01*
X190612Y517898D01*
X187960Y518248D01*
D02*
G37*
G36*
X152400Y524077D02*
X149263Y523769D01*
X146247Y522854D01*
X143468Y521368D01*
X141032Y519369D01*
X139032Y516932D01*
X137546Y514153D01*
X136631Y511137D01*
X136323Y508000D01*
X136631Y504864D01*
X137546Y501847D01*
X139032Y499068D01*
X141032Y496632D01*
X143468Y494632D01*
X146247Y493146D01*
X149263Y492231D01*
X152400Y491923D01*
X155536Y492231D01*
X158553Y493146D01*
X161332Y494632D01*
X163769Y496632D01*
X165768Y499068D01*
X167254Y501847D01*
X168169Y504864D01*
X168477Y508000D01*
X168169Y511137D01*
X167254Y514153D01*
X165768Y516932D01*
X163769Y519369D01*
X161332Y521368D01*
X158553Y522854D01*
X155536Y523769D01*
X152400Y524077D01*
D02*
G37*
G36*
X279400Y396317D02*
X277079Y396011D01*
X274917Y395115D01*
X273060Y393690D01*
X271635Y391833D01*
X270739Y389671D01*
X270433Y387350D01*
X270739Y385029D01*
X271635Y382867D01*
X273060Y381010D01*
X274868Y379622D01*
Y369678D01*
X273060Y368290D01*
X271635Y366433D01*
X270739Y364271D01*
X270433Y361950D01*
X270739Y359629D01*
X271635Y357467D01*
X273060Y355610D01*
X274917Y354185D01*
X277079Y353289D01*
X279400Y352983D01*
X281721Y353289D01*
X283883Y354185D01*
X285740Y355610D01*
X287165Y357467D01*
X288061Y359629D01*
X288367Y361950D01*
X288061Y364271D01*
X287165Y366433D01*
X285740Y368290D01*
X283932Y369678D01*
Y379622D01*
X285740Y381010D01*
X287165Y382867D01*
X288061Y385029D01*
X288367Y387350D01*
X288061Y389671D01*
X287165Y391833D01*
X285740Y393690D01*
X283883Y395115D01*
X281721Y396011D01*
X279400Y396317D01*
D02*
G37*
G36*
X430780Y398723D02*
X428459Y398417D01*
X426296Y397522D01*
X424439Y396097D01*
X423014Y394240D01*
X422119Y392077D01*
X421813Y389756D01*
X422119Y387435D01*
X423014Y385273D01*
X424439Y383416D01*
X426296Y381991D01*
X427268Y381588D01*
Y363328D01*
X425460Y361940D01*
X424035Y360083D01*
X423139Y357921D01*
X422833Y355600D01*
X423139Y353279D01*
X424035Y351117D01*
X425460Y349260D01*
X427317Y347835D01*
X429479Y346939D01*
X431800Y346633D01*
X434121Y346939D01*
X436283Y347835D01*
X438140Y349260D01*
X439565Y351117D01*
X440461Y353279D01*
X440767Y355600D01*
X440461Y357921D01*
X439565Y360083D01*
X438140Y361940D01*
X436332Y363328D01*
Y382811D01*
X437120Y383416D01*
X438545Y385273D01*
X439441Y387435D01*
X439746Y389756D01*
X439441Y392077D01*
X438545Y394240D01*
X437120Y396097D01*
X435263Y397522D01*
X433101Y398417D01*
X430780Y398723D01*
D02*
G37*
G36*
X660400Y371677D02*
X657263Y371368D01*
X654247Y370454D01*
X651468Y368968D01*
X649032Y366968D01*
X647032Y364532D01*
X645546Y361753D01*
X644632Y358736D01*
X644323Y355600D01*
X644632Y352463D01*
X645546Y349447D01*
X647032Y346668D01*
X649032Y344231D01*
X651468Y342232D01*
X654247Y340746D01*
X657263Y339832D01*
X660400Y339523D01*
X663537Y339832D01*
X666553Y340746D01*
X669332Y342232D01*
X671768Y344231D01*
X673768Y346668D01*
X675254Y349447D01*
X676169Y352463D01*
X676477Y355600D01*
X676169Y358736D01*
X675254Y361753D01*
X673768Y364532D01*
X671768Y366968D01*
X669332Y368968D01*
X666553Y370454D01*
X663537Y371368D01*
X660400Y371677D01*
D02*
G37*
G36*
X431800Y307417D02*
X429479Y307111D01*
X427317Y306215D01*
X425460Y304790D01*
X424072Y302982D01*
X388728D01*
X387340Y304790D01*
X385483Y306215D01*
X383321Y307111D01*
X381000Y307417D01*
X378679Y307111D01*
X376517Y306215D01*
X374660Y304790D01*
X373235Y302933D01*
X372339Y300771D01*
X372033Y298450D01*
X372339Y296129D01*
X373235Y293967D01*
X374660Y292110D01*
X376517Y290685D01*
X378679Y289789D01*
X381000Y289483D01*
X383321Y289789D01*
X385483Y290685D01*
X387340Y292110D01*
X388728Y293918D01*
X424072D01*
X425460Y292110D01*
X427317Y290685D01*
X429479Y289789D01*
X431800Y289483D01*
X434121Y289789D01*
X436283Y290685D01*
X438140Y292110D01*
X439565Y293967D01*
X440461Y296129D01*
X440767Y298450D01*
X440461Y300771D01*
X439565Y302933D01*
X438140Y304790D01*
X436283Y306215D01*
X434121Y307111D01*
X431800Y307417D01*
D02*
G37*
G36*
X661800Y315829D02*
X658816Y315436D01*
X656036Y314284D01*
X653648Y312452D01*
X651816Y310065D01*
X650664Y307284D01*
X650271Y304300D01*
X650664Y301316D01*
X651816Y298536D01*
X653648Y296148D01*
X656036Y294316D01*
X658816Y293164D01*
X661800Y292771D01*
X664784Y293164D01*
X667564Y294316D01*
X669952Y296148D01*
X671784Y298536D01*
X672936Y301316D01*
X673329Y304300D01*
X672936Y307284D01*
X671784Y310065D01*
X669952Y312452D01*
X667564Y314284D01*
X664784Y315436D01*
X661800Y315829D01*
D02*
G37*
G36*
X636400D02*
X633416Y315436D01*
X630636Y314284D01*
X628248Y312452D01*
X626416Y310065D01*
X625264Y307284D01*
X624871Y304300D01*
X625264Y301316D01*
X626416Y298536D01*
X628248Y296148D01*
X630636Y294316D01*
X633416Y293164D01*
X636400Y292771D01*
X639384Y293164D01*
X642164Y294316D01*
X644552Y296148D01*
X646384Y298536D01*
X647536Y301316D01*
X647929Y304300D01*
X647536Y307284D01*
X646384Y310065D01*
X644552Y312452D01*
X642164Y314284D01*
X639384Y315436D01*
X636400Y315829D01*
D02*
G37*
G36*
X661800Y290429D02*
X658816Y290036D01*
X656036Y288884D01*
X653648Y287052D01*
X651816Y284664D01*
X650664Y281884D01*
X650271Y278900D01*
X650664Y275916D01*
X651816Y273136D01*
X653648Y270748D01*
X656036Y268916D01*
X658816Y267764D01*
X661800Y267372D01*
X664784Y267764D01*
X667564Y268916D01*
X669952Y270748D01*
X671784Y273136D01*
X672936Y275916D01*
X673329Y278900D01*
X672936Y281884D01*
X671784Y284664D01*
X669952Y287052D01*
X667564Y288884D01*
X664784Y290036D01*
X661800Y290429D01*
D02*
G37*
G36*
X636400D02*
X633416Y290036D01*
X630636Y288884D01*
X628248Y287052D01*
X626416Y284664D01*
X625264Y281884D01*
X624871Y278900D01*
X625264Y275916D01*
X626416Y273136D01*
X628248Y270748D01*
X630636Y268916D01*
X633416Y267764D01*
X636400Y267372D01*
X639384Y267764D01*
X642164Y268916D01*
X644552Y270748D01*
X646384Y273136D01*
X647536Y275916D01*
X647929Y278900D01*
X647536Y281884D01*
X646384Y284664D01*
X644552Y287052D01*
X642164Y288884D01*
X639384Y290036D01*
X636400Y290429D01*
D02*
G37*
G36*
X661800Y265029D02*
X658816Y264636D01*
X656036Y263484D01*
X653648Y261652D01*
X651816Y259265D01*
X650664Y256484D01*
X650271Y253500D01*
X650664Y250516D01*
X651816Y247736D01*
X653648Y245348D01*
X656036Y243516D01*
X658816Y242364D01*
X661800Y241971D01*
X664784Y242364D01*
X667564Y243516D01*
X669952Y245348D01*
X671784Y247736D01*
X672936Y250516D01*
X673329Y253500D01*
X672936Y256484D01*
X671784Y259265D01*
X669952Y261652D01*
X667564Y263484D01*
X664784Y264636D01*
X661800Y265029D01*
D02*
G37*
G36*
X285750Y294717D02*
X283429Y294411D01*
X281267Y293515D01*
X279410Y292090D01*
X277985Y290233D01*
X277089Y288071D01*
X276783Y285750D01*
X277089Y283429D01*
X277985Y281267D01*
X279410Y279410D01*
X281218Y278022D01*
Y229978D01*
X279410Y228590D01*
X277985Y226733D01*
X277089Y224571D01*
X276783Y222250D01*
X277089Y219929D01*
X277985Y217767D01*
X279410Y215910D01*
X281267Y214485D01*
X283429Y213589D01*
X285750Y213283D01*
X288071Y213589D01*
X290233Y214485D01*
X292090Y215910D01*
X293515Y217767D01*
X294411Y219929D01*
X294717Y222250D01*
X294411Y224571D01*
X293515Y226733D01*
X292090Y228590D01*
X290282Y229978D01*
Y278022D01*
X292090Y279410D01*
X293515Y281267D01*
X294411Y283429D01*
X294717Y285750D01*
X294411Y288071D01*
X293515Y290233D01*
X292090Y292090D01*
X290233Y293515D01*
X288071Y294411D01*
X285750Y294717D01*
D02*
G37*
G36*
X609600Y213448D02*
X606948Y213099D01*
X604476Y212075D01*
X602354Y210446D01*
X600725Y208324D01*
X600480Y207732D01*
X591928D01*
X590540Y209540D01*
X588683Y210965D01*
X586521Y211861D01*
X584200Y212167D01*
X581879Y211861D01*
X579717Y210965D01*
X577860Y209540D01*
X576435Y207683D01*
X575539Y205521D01*
X575233Y203200D01*
X575539Y200879D01*
X576435Y198717D01*
X577860Y196860D01*
X579717Y195435D01*
X581879Y194539D01*
X584200Y194233D01*
X586521Y194539D01*
X588683Y195435D01*
X590540Y196860D01*
X591928Y198668D01*
X600480D01*
X600725Y198076D01*
X602354Y195954D01*
X604476Y194325D01*
X606948Y193302D01*
X609600Y192952D01*
X612252Y193302D01*
X614724Y194325D01*
X616846Y195954D01*
X618475Y198076D01*
X619498Y200548D01*
X619848Y203200D01*
X619498Y205852D01*
X618475Y208324D01*
X616846Y210446D01*
X614724Y212075D01*
X612252Y213099D01*
X609600Y213448D01*
D02*
G37*
G36*
Y188048D02*
X606948Y187698D01*
X604476Y186675D01*
X602354Y185046D01*
X600725Y182924D01*
X600480Y182332D01*
X572878D01*
X571490Y184140D01*
X569633Y185565D01*
X567471Y186461D01*
X565150Y186767D01*
X562829Y186461D01*
X560667Y185565D01*
X558810Y184140D01*
X557385Y182283D01*
X556489Y180121D01*
X556183Y177800D01*
X556489Y175479D01*
X557385Y173317D01*
X558810Y171460D01*
X560667Y170035D01*
X562829Y169139D01*
X565150Y168833D01*
X567471Y169139D01*
X569633Y170035D01*
X571490Y171460D01*
X572878Y173268D01*
X600480D01*
X600725Y172676D01*
X602354Y170554D01*
X604476Y168925D01*
X606948Y167901D01*
X609600Y167552D01*
X612252Y167901D01*
X614724Y168925D01*
X616846Y170554D01*
X618475Y172676D01*
X619498Y175148D01*
X619848Y177800D01*
X619498Y180452D01*
X618475Y182924D01*
X616846Y185046D01*
X614724Y186675D01*
X612252Y187698D01*
X609600Y188048D01*
D02*
G37*
G36*
X635000D02*
X632348Y187698D01*
X629876Y186675D01*
X627754Y185046D01*
X626125Y182924D01*
X625102Y180452D01*
X624752Y177800D01*
X625102Y175148D01*
X626125Y172676D01*
X627754Y170554D01*
X629876Y168925D01*
X632348Y167901D01*
X635000Y167552D01*
X637652Y167901D01*
X640124Y168925D01*
X642246Y170554D01*
X643875Y172676D01*
X644899Y175148D01*
X645248Y177800D01*
X644899Y180452D01*
X643875Y182924D01*
X642246Y185046D01*
X640124Y186675D01*
X637652Y187698D01*
X635000Y188048D01*
D02*
G37*
G36*
X609600Y162648D02*
X606948Y162299D01*
X604476Y161275D01*
X602354Y159646D01*
X600725Y157524D01*
X600480Y156932D01*
X591928D01*
X590540Y158740D01*
X588683Y160165D01*
X586521Y161061D01*
X584200Y161367D01*
X581879Y161061D01*
X579717Y160165D01*
X577860Y158740D01*
X576435Y156883D01*
X575539Y154721D01*
X575233Y152400D01*
X575539Y150079D01*
X576435Y147917D01*
X577860Y146060D01*
X579717Y144635D01*
X581879Y143739D01*
X584200Y143433D01*
X586521Y143739D01*
X588683Y144635D01*
X590540Y146060D01*
X591928Y147868D01*
X600480D01*
X600725Y147276D01*
X602354Y145154D01*
X604476Y143525D01*
X606948Y142501D01*
X609600Y142152D01*
X612252Y142501D01*
X614724Y143525D01*
X616846Y145154D01*
X618475Y147276D01*
X619498Y149748D01*
X619848Y152400D01*
X619498Y155052D01*
X618475Y157524D01*
X616846Y159646D01*
X614724Y161275D01*
X612252Y162299D01*
X609600Y162648D01*
D02*
G37*
G36*
X635000D02*
X632348Y162299D01*
X629876Y161275D01*
X627754Y159646D01*
X626125Y157524D01*
X625102Y155052D01*
X624752Y152400D01*
X625102Y149748D01*
X626125Y147276D01*
X627754Y145154D01*
X629876Y143525D01*
X632348Y142501D01*
X635000Y142152D01*
X637652Y142501D01*
X640124Y143525D01*
X642246Y145154D01*
X643875Y147276D01*
X644899Y149748D01*
X645248Y152400D01*
X644899Y155052D01*
X643875Y157524D01*
X642246Y159646D01*
X640124Y161275D01*
X637652Y162299D01*
X635000Y162648D01*
D02*
G37*
G36*
X609600Y137248D02*
X606948Y136898D01*
X604476Y135875D01*
X602354Y134246D01*
X600725Y132124D01*
X600480Y131532D01*
X476250D01*
X476250Y131532D01*
X474516Y131187D01*
X473045Y130205D01*
X464527Y121686D01*
X462267Y121983D01*
X459946Y121678D01*
X457783Y120782D01*
X455926Y119357D01*
X454501Y117500D01*
X453606Y115337D01*
X453300Y113017D01*
X453606Y110696D01*
X454501Y108533D01*
X455926Y106676D01*
X457783Y105251D01*
X459946Y104356D01*
X462267Y104050D01*
X464588Y104356D01*
X466750Y105251D01*
X468607Y106676D01*
X470032Y108533D01*
X470928Y110696D01*
X471233Y113017D01*
X470936Y115277D01*
X478127Y122468D01*
X489255D01*
X489686Y121198D01*
X488960Y120640D01*
X487535Y118783D01*
X486639Y116621D01*
X486333Y114300D01*
X486631Y112040D01*
X442623Y68032D01*
X376028D01*
X374640Y69840D01*
X372783Y71265D01*
X370621Y72161D01*
X368300Y72467D01*
X365979Y72161D01*
X363817Y71265D01*
X361960Y69840D01*
X360535Y67983D01*
X359639Y65821D01*
X359333Y63500D01*
X359639Y61179D01*
X360535Y59017D01*
X361960Y57160D01*
X363817Y55735D01*
X365979Y54839D01*
X368300Y54533D01*
X370621Y54839D01*
X372783Y55735D01*
X374640Y57160D01*
X376028Y58968D01*
X444500D01*
X446234Y59313D01*
X447705Y60295D01*
X493040Y105631D01*
X495300Y105333D01*
X497621Y105639D01*
X499783Y106535D01*
X501640Y107960D01*
X503065Y109817D01*
X503961Y111979D01*
X504267Y114300D01*
X503961Y116621D01*
X503065Y118783D01*
X501640Y120640D01*
X500914Y121198D01*
X501345Y122468D01*
X600480D01*
X600725Y121876D01*
X602354Y119754D01*
X604476Y118125D01*
X606948Y117101D01*
X609600Y116752D01*
X612252Y117101D01*
X614724Y118125D01*
X616846Y119754D01*
X618475Y121876D01*
X619498Y124348D01*
X619848Y127000D01*
X619498Y129652D01*
X618475Y132124D01*
X616846Y134246D01*
X614724Y135875D01*
X612252Y136898D01*
X609600Y137248D01*
D02*
G37*
G36*
X361950Y148667D02*
X359629Y148361D01*
X357467Y147465D01*
X355610Y146040D01*
X354185Y144183D01*
X353289Y142021D01*
X352983Y139700D01*
X353289Y137379D01*
X354185Y135217D01*
X355610Y133360D01*
X357467Y131935D01*
X359629Y131039D01*
X361950Y130733D01*
X364271Y131039D01*
X366433Y131935D01*
X368290Y133360D01*
X369678Y135168D01*
X428460D01*
X429297Y134213D01*
X429183Y133350D01*
X429489Y131029D01*
X430385Y128867D01*
X431810Y127010D01*
X433667Y125585D01*
X435829Y124689D01*
X438150Y124383D01*
X440471Y124689D01*
X442633Y125585D01*
X444490Y127010D01*
X445915Y128867D01*
X446811Y131029D01*
X447117Y133350D01*
X446811Y135671D01*
X445915Y137833D01*
X444490Y139690D01*
X442633Y141115D01*
X440471Y142011D01*
X438150Y142317D01*
X435890Y142019D01*
X435005Y142905D01*
X433534Y143887D01*
X431800Y144232D01*
X369678D01*
X368290Y146040D01*
X366433Y147465D01*
X364271Y148361D01*
X361950Y148667D01*
D02*
G37*
G36*
X406400Y35648D02*
X403748Y35299D01*
X401276Y34275D01*
X399154Y32646D01*
X397525Y30524D01*
X396502Y28052D01*
X396152Y25400D01*
X396502Y22748D01*
X397525Y20276D01*
X399154Y18154D01*
X401276Y16525D01*
X403748Y15502D01*
X406400Y15152D01*
X409052Y15502D01*
X411524Y16525D01*
X413646Y18154D01*
X415275Y20276D01*
X416298Y22748D01*
X416648Y25400D01*
X416298Y28052D01*
X415275Y30524D01*
X413646Y32646D01*
X411524Y34275D01*
X409052Y35299D01*
X406400Y35648D01*
D02*
G37*
G36*
X381000D02*
X378348Y35299D01*
X375876Y34275D01*
X373754Y32646D01*
X372125Y30524D01*
X371101Y28052D01*
X370752Y25400D01*
X371101Y22748D01*
X372125Y20276D01*
X373754Y18154D01*
X375876Y16525D01*
X378348Y15502D01*
X381000Y15152D01*
X383652Y15502D01*
X386124Y16525D01*
X388246Y18154D01*
X389875Y20276D01*
X390899Y22748D01*
X391248Y25400D01*
X390899Y28052D01*
X389875Y30524D01*
X388246Y32646D01*
X386124Y34275D01*
X383652Y35299D01*
X381000Y35648D01*
D02*
G37*
G36*
X355600D02*
X352948Y35299D01*
X350476Y34275D01*
X348354Y32646D01*
X346725Y30524D01*
X345701Y28052D01*
X345352Y25400D01*
X345701Y22748D01*
X346725Y20276D01*
X348354Y18154D01*
X350476Y16525D01*
X352948Y15502D01*
X355600Y15152D01*
X358252Y15502D01*
X360724Y16525D01*
X362846Y18154D01*
X364475Y20276D01*
X365499Y22748D01*
X365848Y25400D01*
X365499Y28052D01*
X364475Y30524D01*
X362846Y32646D01*
X360724Y34275D01*
X358252Y35299D01*
X355600Y35648D01*
D02*
G37*
G36*
X304800Y370917D02*
X302479Y370611D01*
X300317Y369715D01*
X298460Y368290D01*
X297035Y366433D01*
X296139Y364271D01*
X295833Y361950D01*
X296139Y359629D01*
X297035Y357467D01*
X298460Y355610D01*
X300268Y354222D01*
Y34520D01*
X299676Y34275D01*
X297554Y32646D01*
X295925Y30524D01*
X294902Y28052D01*
X294552Y25400D01*
X294902Y22748D01*
X295925Y20276D01*
X297554Y18154D01*
X299676Y16525D01*
X302148Y15502D01*
X304800Y15152D01*
X307452Y15502D01*
X309924Y16525D01*
X312046Y18154D01*
X313675Y20276D01*
X314699Y22748D01*
X315048Y25400D01*
X314699Y28052D01*
X313675Y30524D01*
X312046Y32646D01*
X309924Y34275D01*
X309332Y34520D01*
Y354222D01*
X311140Y355610D01*
X312565Y357467D01*
X313461Y359629D01*
X313767Y361950D01*
X313461Y364271D01*
X312565Y366433D01*
X311140Y368290D01*
X309283Y369715D01*
X307121Y370611D01*
X304800Y370917D01*
D02*
G37*
G36*
X279400Y35648D02*
X276748Y35299D01*
X274276Y34275D01*
X272154Y32646D01*
X270525Y30524D01*
X269501Y28052D01*
X269152Y25400D01*
X269501Y22748D01*
X270525Y20276D01*
X272154Y18154D01*
X274276Y16525D01*
X276748Y15502D01*
X279400Y15152D01*
X282052Y15502D01*
X284524Y16525D01*
X286646Y18154D01*
X288275Y20276D01*
X289298Y22748D01*
X289648Y25400D01*
X289298Y28052D01*
X288275Y30524D01*
X286646Y32646D01*
X284524Y34275D01*
X282052Y35299D01*
X279400Y35648D01*
D02*
G37*
G36*
X139700Y41477D02*
X136564Y41168D01*
X133547Y40254D01*
X130768Y38768D01*
X128331Y36769D01*
X126332Y34332D01*
X124846Y31553D01*
X123932Y28537D01*
X123623Y25400D01*
X123932Y22264D01*
X124846Y19247D01*
X126332Y16468D01*
X128331Y14031D01*
X130768Y12032D01*
X133547Y10546D01*
X136564Y9632D01*
X139700Y9323D01*
X142837Y9632D01*
X145853Y10546D01*
X148632Y12032D01*
X151068Y14031D01*
X153068Y16468D01*
X154554Y19247D01*
X155469Y22264D01*
X155777Y25400D01*
X155469Y28537D01*
X154554Y31553D01*
X153068Y34332D01*
X151068Y36769D01*
X148632Y38768D01*
X145853Y40254D01*
X142837Y41168D01*
X139700Y41477D01*
D02*
G37*
%LPD*%
D31*
X462267Y113017D02*
X476250Y127000D01*
X444500Y63500D02*
X495300Y114300D01*
X476250Y127000D02*
X609600D01*
X584200Y152400D02*
X609600D01*
X431800Y25400D02*
X443865Y13335D01*
X538397D01*
X546735Y21672D01*
Y30398D01*
X592800Y76463D01*
X625129D01*
X671195Y122529D01*
Y167005D01*
X635000Y203200D02*
X671195Y167005D01*
X330200Y25400D02*
X348615Y6985D01*
X547378Y13335D02*
X639997D01*
X541028Y6985D02*
X547378Y13335D01*
X348615Y6985D02*
X541028D01*
X635000Y127000D02*
X660400D01*
X285750Y222250D02*
Y285750D01*
X678305Y51642D02*
Y211595D01*
X549032Y447432D02*
X609600Y508000D01*
X355600Y387350D02*
X415682Y447432D01*
X549032D01*
X304800Y25400D02*
Y361950D01*
X639997Y13335D02*
X678305Y51642D01*
X636400Y253500D02*
X678305Y211595D01*
X381000Y298450D02*
X431800D01*
X584200Y203200D02*
X609600D01*
X279400Y361950D02*
Y387350D01*
X368300Y63500D02*
X444500D01*
X431800Y139700D02*
X438150Y133350D01*
X361950Y139700D02*
X431800D01*
X565150Y177800D02*
X609600D01*
X355600Y361950D02*
Y387350D01*
X430780Y388370D02*
Y389756D01*
Y388370D02*
X431800Y387350D01*
Y355600D02*
Y387350D01*
D32*
X660400Y355600D02*
D03*
X139700Y25400D02*
D03*
X152400Y508000D02*
D03*
X660400Y76200D02*
D03*
D33*
X609600Y127000D02*
D03*
Y203200D02*
D03*
X635000Y127000D02*
D03*
X355600Y25400D02*
D03*
X609600Y177800D02*
D03*
Y152400D02*
D03*
X635000Y203200D02*
D03*
Y177800D02*
D03*
Y152400D02*
D03*
X533400Y25400D02*
D03*
X558800D02*
D03*
X584200D02*
D03*
X609600D02*
D03*
X635000D02*
D03*
X391160Y508000D02*
D03*
X365760D02*
D03*
X340360D02*
D03*
X314960D02*
D03*
X289560D02*
D03*
X264160D02*
D03*
X238760D02*
D03*
X213360D02*
D03*
X187960D02*
D03*
X558800D02*
D03*
X533400D02*
D03*
X508000D02*
D03*
X482600D02*
D03*
X457200D02*
D03*
X609600D02*
D03*
X584200D02*
D03*
X381000Y25400D02*
D03*
X330200D02*
D03*
X304800D02*
D03*
X279400D02*
D03*
X431800D02*
D03*
X406400D02*
D03*
D34*
X508000D02*
D03*
X416560Y508000D02*
D03*
X635000D02*
D03*
X457200Y25400D02*
D03*
D35*
X636400Y304300D02*
D03*
X661800D02*
D03*
X636400Y278900D02*
D03*
X661800D02*
D03*
X636400Y253500D02*
D03*
X661800D02*
D03*
D36*
X462267Y113017D02*
D03*
X495300Y114300D02*
D03*
X584200Y152400D02*
D03*
X660400Y127000D02*
D03*
X285750Y222250D02*
D03*
Y285750D02*
D03*
X304800Y361950D02*
D03*
X431800Y298450D02*
D03*
X584200Y203200D02*
D03*
X381000Y298450D02*
D03*
X279400Y361950D02*
D03*
X368300Y63500D02*
D03*
X438150Y133350D02*
D03*
X361950Y139700D02*
D03*
X565150Y177800D02*
D03*
X279400Y387350D02*
D03*
X355600D02*
D03*
Y361950D02*
D03*
X430780Y389756D02*
D03*
X431800Y355600D02*
D03*
M02*
