G04*
G04 #@! TF.GenerationSoftware,Altium Limited,Altium Designer,26.2.0 (7)*
G04*
G04 Layer_Color=65535*
%FSLAX44Y44*%
%MOMM*%
G71*
G04*
G04 #@! TF.SameCoordinates,138AD885-AACF-4A89-911C-20B3B9BD5497*
G04*
G04*
G04 #@! TF.FilePolarity,Positive*
G04*
G01*
G75*
%ADD10C,0.2000*%
%ADD11C,0.1270*%
%ADD12C,0.2540*%
G36*
X156183Y133524D02*
X156654D01*
Y133288D01*
X156890D01*
Y133052D01*
X157125D01*
Y132345D01*
X156183D01*
Y132581D01*
X155711D01*
Y132817D01*
X153355D01*
Y133052D01*
Y133288D01*
Y133524D01*
X153826D01*
Y133759D01*
X156183D01*
Y133524D01*
D02*
G37*
G36*
X149113Y133288D02*
X149349D01*
Y132817D01*
X149113D01*
Y132581D01*
X146757D01*
Y132345D01*
X145814D01*
Y132581D01*
X145579D01*
Y132817D01*
X145814D01*
Y133288D01*
X146757D01*
Y133524D01*
X149113D01*
Y133288D01*
D02*
G37*
G36*
X155711Y149312D02*
X155947D01*
Y148134D01*
X156183D01*
Y147427D01*
X156418D01*
Y146955D01*
X156654D01*
Y146013D01*
X156890D01*
Y145777D01*
X157125D01*
Y145306D01*
X157361D01*
Y145070D01*
X157597D01*
Y144599D01*
X157832D01*
Y144363D01*
X158068D01*
Y144128D01*
X158303D01*
Y143892D01*
X158539D01*
Y143656D01*
X158775D01*
Y143185D01*
X159010D01*
Y142949D01*
X159246D01*
Y142714D01*
X159482D01*
Y142242D01*
X159717D01*
Y142007D01*
X159953D01*
Y141771D01*
X160189D01*
Y141536D01*
X160424D01*
Y141300D01*
X160660D01*
Y141064D01*
X160896D01*
Y140829D01*
X161131D01*
Y140357D01*
X161367D01*
Y139886D01*
X161602D01*
Y138472D01*
X161367D01*
Y137765D01*
X161131D01*
Y137294D01*
X160896D01*
Y136823D01*
X160660D01*
Y136351D01*
X160424D01*
Y135880D01*
X160189D01*
Y135409D01*
X159953D01*
Y134937D01*
X159717D01*
Y134702D01*
X159482D01*
Y133052D01*
X159246D01*
Y132345D01*
X159010D01*
Y132110D01*
X158775D01*
Y131874D01*
X157832D01*
Y132110D01*
X157597D01*
Y132581D01*
X157832D01*
Y132817D01*
X158303D01*
Y133052D01*
X158539D01*
Y135173D01*
X158775D01*
Y135409D01*
X159010D01*
Y135644D01*
X159246D01*
Y136116D01*
X159482D01*
Y136587D01*
X159717D01*
Y137294D01*
X159953D01*
Y137765D01*
X160189D01*
Y138472D01*
X160424D01*
Y139886D01*
X160189D01*
Y140357D01*
X159953D01*
Y140593D01*
X159717D01*
Y140829D01*
X159482D01*
Y141064D01*
X159246D01*
Y141536D01*
X159010D01*
Y141771D01*
X158775D01*
Y142007D01*
X158539D01*
Y142242D01*
X158303D01*
Y142478D01*
X158068D01*
Y142949D01*
X157832D01*
Y143185D01*
X157597D01*
Y143421D01*
X157361D01*
Y143656D01*
X157125D01*
Y143892D01*
X156890D01*
Y144128D01*
X156654D01*
Y144363D01*
X156418D01*
Y144835D01*
X156183D01*
Y145070D01*
X155947D01*
Y145777D01*
X155711D01*
Y146484D01*
X155476D01*
Y146955D01*
X155240D01*
Y147898D01*
X155005D01*
Y149312D01*
X154769D01*
Y150490D01*
X155005D01*
Y150726D01*
X155711D01*
Y149312D01*
D02*
G37*
G36*
X146757Y150961D02*
X146993D01*
Y150726D01*
X147228D01*
Y148369D01*
X146993D01*
Y146720D01*
X146757D01*
Y146013D01*
X146521D01*
Y145541D01*
X146286D01*
Y145070D01*
X146050D01*
Y144599D01*
X145814D01*
Y144128D01*
X145579D01*
Y143892D01*
X145343D01*
Y143421D01*
X145107D01*
Y143185D01*
X144872D01*
Y142949D01*
X144636D01*
Y142714D01*
X144401D01*
Y142478D01*
X144165D01*
Y142242D01*
X143929D01*
Y142007D01*
X143694D01*
Y141771D01*
X143458D01*
Y141536D01*
X143222D01*
Y141300D01*
X142987D01*
Y140829D01*
X142751D01*
Y140593D01*
X142515D01*
Y140357D01*
X142280D01*
Y140122D01*
Y139886D01*
X142044D01*
Y139650D01*
X141808D01*
Y138944D01*
X141573D01*
Y137530D01*
X141808D01*
Y136823D01*
X142044D01*
Y136351D01*
X142280D01*
Y135644D01*
X142515D01*
Y134466D01*
X142751D01*
Y134231D01*
X142987D01*
Y133759D01*
X143222D01*
Y133524D01*
X143458D01*
Y133288D01*
X143694D01*
Y133052D01*
X143929D01*
Y132817D01*
X144636D01*
Y132581D01*
X144872D01*
Y132345D01*
X144636D01*
Y131874D01*
X143694D01*
Y132110D01*
X143222D01*
Y132345D01*
X142987D01*
Y132581D01*
X142751D01*
Y132817D01*
X142515D01*
Y133052D01*
X142280D01*
Y133288D01*
X142044D01*
Y133759D01*
X141808D01*
Y134231D01*
X141573D01*
Y134937D01*
X141337D01*
Y135880D01*
X141102D01*
Y136587D01*
X140866D01*
Y137058D01*
X140630D01*
Y139415D01*
X140866D01*
Y139886D01*
X141102D01*
Y140357D01*
X141337D01*
Y140593D01*
X141573D01*
Y140829D01*
X141808D01*
Y141300D01*
X142044D01*
Y141536D01*
X142280D01*
Y141771D01*
X142515D01*
Y142007D01*
X142751D01*
Y142242D01*
X142987D01*
Y142478D01*
X143222D01*
Y142714D01*
X143458D01*
Y142949D01*
X143694D01*
Y143185D01*
X143929D01*
Y143421D01*
X144165D01*
Y143892D01*
X144401D01*
Y144363D01*
X144636D01*
Y144599D01*
X144872D01*
Y145070D01*
X145107D01*
Y145541D01*
X145343D01*
Y146013D01*
X145579D01*
Y146720D01*
X145814D01*
Y147662D01*
X146050D01*
Y150019D01*
X146286D01*
Y150961D01*
X146521D01*
Y151197D01*
X146757D01*
Y150961D01*
D02*
G37*
G36*
X142280Y124098D02*
X143222D01*
Y123862D01*
X144636D01*
Y123627D01*
X145814D01*
Y123391D01*
X147228D01*
Y123155D01*
X148642D01*
Y122920D01*
X154298D01*
Y123155D01*
X156418D01*
Y123391D01*
X159246D01*
Y123627D01*
X161367D01*
Y123391D01*
X161602D01*
Y123155D01*
X161838D01*
Y122920D01*
X162074D01*
Y122684D01*
X162309D01*
Y121506D01*
X161838D01*
Y121741D01*
X161367D01*
Y122213D01*
X161131D01*
Y122448D01*
X160896D01*
Y122684D01*
X159717D01*
Y122448D01*
X156890D01*
Y122213D01*
X154298D01*
Y121977D01*
X148171D01*
Y122213D01*
X146757D01*
Y122448D01*
X145579D01*
Y122684D01*
X144401D01*
Y122920D01*
X142515D01*
Y123155D01*
X141102D01*
Y122920D01*
X140394D01*
Y122684D01*
X139216D01*
Y123391D01*
X139452D01*
Y123627D01*
X139923D01*
Y123862D01*
X140394D01*
Y124098D01*
X141102D01*
Y124333D01*
X142280D01*
Y124098D01*
D02*
G37*
G36*
X170321Y110666D02*
X170086D01*
Y110902D01*
X170321D01*
Y110666D01*
D02*
G37*
G36*
X166080Y113258D02*
X165844D01*
Y112787D01*
X165609D01*
Y112080D01*
X165373D01*
Y111609D01*
X165137D01*
Y111373D01*
X164902D01*
Y110902D01*
X164666D01*
Y110430D01*
X164430D01*
Y110195D01*
X164195D01*
Y109724D01*
X163959D01*
Y109488D01*
X163723D01*
Y109252D01*
X163488D01*
Y108781D01*
X163252D01*
Y108545D01*
X163016D01*
Y108310D01*
X162781D01*
Y108074D01*
X162545D01*
Y107603D01*
X162309D01*
Y107367D01*
X162074D01*
Y107131D01*
X161838D01*
Y106896D01*
X161602D01*
Y106660D01*
X161367D01*
Y106425D01*
X160896D01*
Y106189D01*
X160660D01*
Y105953D01*
X160424D01*
Y105718D01*
X160189D01*
Y105482D01*
X159717D01*
Y105246D01*
X159246D01*
Y105011D01*
X158775D01*
Y104775D01*
X158068D01*
Y104539D01*
X157361D01*
Y104304D01*
X156418D01*
Y104068D01*
X155240D01*
Y103832D01*
X153355D01*
Y103597D01*
X148171D01*
Y103832D01*
X145579D01*
Y104068D01*
X143929D01*
Y104304D01*
X142987D01*
Y104539D01*
X142280D01*
Y104775D01*
X141573D01*
Y105011D01*
X140866D01*
Y105246D01*
X140394D01*
Y105482D01*
X139923D01*
Y105718D01*
X139688D01*
Y105953D01*
X139216D01*
Y106189D01*
X138981D01*
Y106425D01*
X138745D01*
Y106660D01*
X138509D01*
Y106896D01*
X138274D01*
Y107131D01*
X138038D01*
Y107367D01*
X137802D01*
Y107603D01*
X137567D01*
Y107838D01*
X137331D01*
Y108074D01*
X137095D01*
Y108310D01*
X136860D01*
Y108545D01*
X136624D01*
Y108781D01*
X136389D01*
Y109017D01*
X136153D01*
Y109488D01*
X135917D01*
Y109724D01*
X135682D01*
Y110195D01*
X135446D01*
Y110430D01*
X135210D01*
Y110902D01*
X134975D01*
Y111137D01*
X134739D01*
Y111609D01*
X134503D01*
Y112080D01*
X134975D01*
Y111844D01*
X135210D01*
Y111609D01*
X135446D01*
Y111373D01*
X135682D01*
Y111137D01*
X135917D01*
Y110902D01*
X136153D01*
Y110430D01*
X136389D01*
Y110195D01*
X136624D01*
Y109959D01*
X136860D01*
Y109724D01*
X137095D01*
Y109252D01*
X137331D01*
Y109017D01*
X137567D01*
Y108781D01*
X137802D01*
Y108545D01*
X138038D01*
Y108074D01*
X138274D01*
Y107838D01*
X138509D01*
Y107603D01*
X138981D01*
Y107367D01*
X139216D01*
Y107131D01*
X139452D01*
Y106896D01*
X139923D01*
Y106660D01*
X140159D01*
Y106425D01*
X140630D01*
Y106189D01*
X141102D01*
Y105953D01*
X141808D01*
Y105718D01*
X142515D01*
Y105482D01*
X143222D01*
Y105246D01*
X144165D01*
Y105011D01*
X145814D01*
Y104775D01*
X147935D01*
Y104539D01*
X153355D01*
Y104775D01*
X155005D01*
Y105011D01*
X156183D01*
Y105246D01*
X156890D01*
Y105482D01*
X157832D01*
Y105718D01*
X158303D01*
Y105953D01*
X159010D01*
Y106189D01*
X159246D01*
Y106425D01*
X159717D01*
Y106660D01*
X159953D01*
Y106896D01*
X160424D01*
Y107131D01*
X160660D01*
Y107367D01*
X160896D01*
Y107603D01*
X161131D01*
Y107838D01*
X161367D01*
Y108074D01*
X161602D01*
Y108310D01*
X161838D01*
Y108545D01*
X162074D01*
Y109017D01*
X162309D01*
Y109252D01*
X162545D01*
Y109488D01*
X162781D01*
Y109724D01*
X163016D01*
Y109959D01*
X163252D01*
Y110195D01*
X163488D01*
Y110666D01*
X163723D01*
Y110902D01*
X163959D01*
Y111137D01*
X164195D01*
Y111609D01*
X164430D01*
Y111844D01*
X164666D01*
Y112080D01*
X164902D01*
Y112551D01*
X165137D01*
Y113023D01*
X165373D01*
Y113258D01*
X165609D01*
Y113494D01*
X165844D01*
Y113729D01*
X166080D01*
Y113258D01*
D02*
G37*
G36*
X134268Y102654D02*
X134032D01*
Y102419D01*
X133561D01*
Y102183D01*
X133090D01*
Y101947D01*
X132618D01*
Y101712D01*
X132383D01*
Y101476D01*
X131911D01*
Y101240D01*
X131676D01*
Y101005D01*
X131204D01*
Y100769D01*
X130969D01*
Y100533D01*
X130733D01*
Y100298D01*
X130498D01*
Y99826D01*
X130262D01*
Y99355D01*
X130026D01*
Y98884D01*
X129790D01*
Y98413D01*
X129555D01*
Y97941D01*
X129319D01*
Y97706D01*
X129084D01*
Y97234D01*
X128848D01*
Y96999D01*
X128612D01*
Y96763D01*
X128377D01*
Y96527D01*
X128141D01*
Y96292D01*
X127905D01*
Y96056D01*
X127670D01*
Y95821D01*
X127434D01*
Y95585D01*
X126727D01*
Y95349D01*
X126256D01*
Y95585D01*
X126020D01*
Y96056D01*
X126727D01*
Y96292D01*
X127198D01*
Y96527D01*
X127434D01*
Y96763D01*
X127670D01*
Y96999D01*
X127905D01*
Y97234D01*
X128141D01*
Y97470D01*
X128377D01*
Y97941D01*
X128612D01*
Y98177D01*
X128848D01*
Y98648D01*
X129084D01*
Y99120D01*
X129319D01*
Y99355D01*
X129555D01*
Y100062D01*
X129790D01*
Y100298D01*
X130026D01*
Y100769D01*
X130262D01*
Y101005D01*
X130498D01*
Y101240D01*
X130733D01*
Y101476D01*
X130969D01*
Y101712D01*
X131440D01*
Y101947D01*
X131676D01*
Y102183D01*
X132147D01*
Y102419D01*
X132618D01*
Y102654D01*
X133090D01*
Y102890D01*
X133561D01*
Y103125D01*
X134268D01*
Y102654D01*
D02*
G37*
G36*
X170086Y101476D02*
X170321D01*
Y101005D01*
X170557D01*
Y100062D01*
X170793D01*
Y99355D01*
X171028D01*
Y98884D01*
X171264D01*
Y98648D01*
X171500D01*
Y98413D01*
X171971D01*
Y98177D01*
X172442D01*
Y97941D01*
X172913D01*
Y97706D01*
X173385D01*
Y97470D01*
X173856D01*
Y97234D01*
X174327D01*
Y96999D01*
X174563D01*
Y96763D01*
X174799D01*
Y96527D01*
X175034D01*
Y96292D01*
X175270D01*
Y96056D01*
X175506D01*
Y95821D01*
X175741D01*
Y95349D01*
X175977D01*
Y94878D01*
X175506D01*
Y95114D01*
X175034D01*
Y95585D01*
X174799D01*
Y95821D01*
X174563D01*
Y96056D01*
X174327D01*
Y96292D01*
X174092D01*
Y96527D01*
X173856D01*
Y96763D01*
X173385D01*
Y96999D01*
X172913D01*
Y97234D01*
X172442D01*
Y97470D01*
X171971D01*
Y97706D01*
X171500D01*
Y97941D01*
X171028D01*
Y98177D01*
X170793D01*
Y98413D01*
X170557D01*
Y98884D01*
X170321D01*
Y99355D01*
X170086D01*
Y100533D01*
X169850D01*
Y101476D01*
X169614D01*
Y102183D01*
X170086D01*
Y101476D01*
D02*
G37*
G36*
X159246Y90165D02*
X159482D01*
Y89929D01*
X157597D01*
Y89694D01*
X156890D01*
Y89458D01*
X156418D01*
Y89222D01*
X155947D01*
Y88987D01*
X155240D01*
Y88751D01*
X154769D01*
Y88516D01*
X154533D01*
Y88280D01*
X154062D01*
Y87809D01*
X153826D01*
Y87337D01*
X153591D01*
Y86866D01*
X153355D01*
Y86630D01*
X152884D01*
Y86395D01*
X149585D01*
Y86630D01*
X148642D01*
Y87102D01*
X148406D01*
Y87573D01*
X148171D01*
Y88044D01*
X147935D01*
Y88280D01*
X147699D01*
Y88516D01*
X147228D01*
Y88751D01*
X146757D01*
Y88987D01*
X146521D01*
Y89222D01*
X145814D01*
Y89458D01*
X145343D01*
Y89694D01*
X143929D01*
Y89929D01*
X142751D01*
Y90401D01*
X145107D01*
Y90165D01*
X145814D01*
Y89929D01*
X146286D01*
Y89694D01*
X146757D01*
Y89458D01*
X147228D01*
Y89222D01*
X147464D01*
Y88987D01*
X147699D01*
Y88751D01*
X148171D01*
Y88516D01*
X148406D01*
Y88044D01*
X148642D01*
Y87573D01*
X148878D01*
Y87337D01*
X149113D01*
Y87102D01*
X149820D01*
Y86866D01*
X152177D01*
Y87102D01*
X153119D01*
Y87337D01*
X153355D01*
Y88044D01*
X153591D01*
Y88516D01*
X154062D01*
Y88751D01*
X154298D01*
Y88987D01*
X154533D01*
Y89222D01*
X155005D01*
Y89458D01*
X155476D01*
Y89694D01*
X155947D01*
Y89929D01*
X156418D01*
Y90165D01*
X157125D01*
Y90401D01*
X159246D01*
Y90165D01*
D02*
G37*
G36*
X136389Y251817D02*
X155240D01*
Y251581D01*
X158303D01*
Y251346D01*
X160189D01*
Y251110D01*
X161838D01*
Y250875D01*
X163959D01*
Y250639D01*
X166080D01*
Y250403D01*
X168201D01*
Y250168D01*
X169850D01*
Y249932D01*
X171500D01*
Y249696D01*
X172913D01*
Y249461D01*
X173856D01*
Y249225D01*
X174799D01*
Y248989D01*
X175506D01*
Y248754D01*
X176448D01*
Y248518D01*
X176919D01*
Y248283D01*
X177626D01*
Y248047D01*
X178098D01*
Y247811D01*
X179040D01*
Y247576D01*
X179747D01*
Y247340D01*
X180454D01*
Y247104D01*
X181161D01*
Y246869D01*
X181632D01*
Y246633D01*
X182339D01*
Y246397D01*
X182811D01*
Y246162D01*
X183282D01*
Y245926D01*
X183753D01*
Y245690D01*
X184224D01*
Y245455D01*
X184696D01*
Y245219D01*
X184931D01*
Y244984D01*
X185403D01*
Y244748D01*
X185874D01*
Y244512D01*
X186345D01*
Y244277D01*
X186817D01*
Y244041D01*
X187288D01*
Y243805D01*
X187759D01*
Y243570D01*
X188230D01*
Y243334D01*
X188702D01*
Y243098D01*
X189173D01*
Y242863D01*
X189644D01*
Y242627D01*
X190116D01*
Y242391D01*
X190587D01*
Y242156D01*
X191058D01*
Y241920D01*
X191529D01*
Y241684D01*
X191765D01*
Y241449D01*
X192236D01*
Y241213D01*
X192708D01*
Y240977D01*
X192943D01*
Y240742D01*
X193414D01*
Y240506D01*
X193650D01*
Y240271D01*
X194121D01*
Y240035D01*
X194357D01*
Y239799D01*
X194828D01*
Y239564D01*
X195300D01*
Y239328D01*
X195535D01*
Y239092D01*
X196007D01*
Y238857D01*
X196478D01*
Y238621D01*
X196714D01*
Y238386D01*
X197185D01*
Y238150D01*
X197656D01*
Y237914D01*
X197892D01*
Y237679D01*
X198363D01*
Y237443D01*
X198834D01*
Y237207D01*
X199070D01*
Y236972D01*
X199541D01*
Y236736D01*
X199777D01*
Y236500D01*
X200248D01*
Y236265D01*
X200720D01*
Y236029D01*
X200955D01*
Y235793D01*
X201427D01*
Y235558D01*
X201662D01*
Y235322D01*
X202133D01*
Y235086D01*
X202369D01*
Y234851D01*
X202605D01*
Y234615D01*
X203076D01*
Y234380D01*
X203312D01*
Y234144D01*
X203547D01*
Y233908D01*
X204019D01*
Y233673D01*
X204254D01*
Y233437D01*
X204490D01*
Y233201D01*
X204961D01*
Y232966D01*
X205197D01*
Y232730D01*
X205432D01*
Y232494D01*
X205904D01*
Y232259D01*
X206139D01*
Y232023D01*
X206375D01*
Y231787D01*
X206611D01*
Y231552D01*
X206846D01*
Y231316D01*
X207082D01*
Y231080D01*
X207553D01*
Y230845D01*
X207789D01*
Y230609D01*
X208025D01*
Y230373D01*
X208260D01*
Y230138D01*
X208496D01*
Y229902D01*
X208731D01*
Y229667D01*
X208967D01*
Y229431D01*
X209203D01*
Y229195D01*
X209438D01*
Y228960D01*
X209674D01*
Y228724D01*
X210145D01*
Y228488D01*
X210381D01*
Y228253D01*
X210617D01*
Y228017D01*
X210852D01*
Y227781D01*
X211088D01*
Y227546D01*
X211324D01*
Y227310D01*
X211559D01*
Y227075D01*
X211795D01*
Y226839D01*
X212031D01*
Y226603D01*
X212266D01*
Y226368D01*
X212502D01*
Y226132D01*
X212737D01*
Y225896D01*
X212973D01*
Y225661D01*
X213209D01*
Y225425D01*
X213444D01*
Y225189D01*
X213680D01*
Y224954D01*
X213916D01*
Y224718D01*
X214151D01*
Y224482D01*
X214387D01*
Y224247D01*
X214623D01*
Y224011D01*
X214858D01*
Y223776D01*
X215094D01*
Y223540D01*
X215329D01*
Y223304D01*
X215565D01*
Y223069D01*
X215801D01*
Y222833D01*
X216036D01*
Y222597D01*
X216272D01*
Y222362D01*
X216508D01*
Y222126D01*
X216743D01*
Y221655D01*
X216979D01*
Y221183D01*
X217215D01*
Y220948D01*
X217450D01*
Y220712D01*
X217686D01*
Y220241D01*
X217922D01*
Y220005D01*
X218157D01*
Y219769D01*
X218393D01*
Y219534D01*
X218629D01*
Y219063D01*
X218864D01*
Y218827D01*
X219100D01*
Y218591D01*
X219335D01*
Y218356D01*
X219571D01*
Y218120D01*
X219807D01*
Y217649D01*
X220042D01*
Y217413D01*
X220278D01*
Y217177D01*
X220514D01*
Y216706D01*
X220749D01*
Y216471D01*
X220985D01*
Y216235D01*
X221221D01*
Y215764D01*
X221456D01*
Y215292D01*
X221692D01*
Y215057D01*
X221928D01*
Y214585D01*
X222163D01*
Y214114D01*
X222399D01*
Y213643D01*
X222635D01*
Y213172D01*
X222870D01*
Y212700D01*
X223106D01*
Y212229D01*
X223341D01*
Y211758D01*
X223577D01*
Y211286D01*
X223813D01*
Y210579D01*
X224048D01*
Y210108D01*
X224284D01*
Y209637D01*
X224520D01*
Y209401D01*
X224755D01*
Y208930D01*
X224991D01*
Y208459D01*
X225227D01*
Y207987D01*
X225462D01*
Y207752D01*
X225698D01*
Y207280D01*
X225933D01*
Y206809D01*
X226169D01*
Y206338D01*
X226405D01*
Y206102D01*
X226640D01*
Y205631D01*
X226876D01*
Y205160D01*
X227112D01*
Y204924D01*
X227347D01*
Y204453D01*
X227583D01*
Y204217D01*
X227819D01*
Y203746D01*
X228054D01*
Y203510D01*
X228290D01*
Y203039D01*
X228526D01*
Y202568D01*
X228761D01*
Y202096D01*
X228997D01*
Y201861D01*
X229233D01*
Y201389D01*
X229468D01*
Y200918D01*
X229704D01*
Y200447D01*
X229939D01*
Y199975D01*
X230175D01*
Y199504D01*
X230411D01*
Y199033D01*
X230646D01*
Y198561D01*
X230882D01*
Y198090D01*
X231118D01*
Y197383D01*
X231353D01*
Y196676D01*
X231589D01*
Y195734D01*
X231825D01*
Y195027D01*
X232060D01*
Y193613D01*
X232296D01*
Y191964D01*
X232532D01*
Y190550D01*
X232767D01*
Y189136D01*
X233003D01*
Y187957D01*
X233239D01*
Y186544D01*
X233474D01*
Y184894D01*
X233710D01*
Y183716D01*
X233945D01*
Y182538D01*
X234181D01*
Y181595D01*
X234417D01*
Y180653D01*
X234652D01*
Y179474D01*
X234888D01*
Y178296D01*
X235124D01*
Y177353D01*
X235359D01*
Y176411D01*
X235595D01*
Y175468D01*
X235831D01*
Y174526D01*
X236066D01*
Y173583D01*
X236302D01*
Y172641D01*
X236537D01*
Y171698D01*
X236773D01*
Y170756D01*
X237009D01*
Y169813D01*
X237244D01*
Y168870D01*
X237480D01*
Y167692D01*
X237716D01*
Y166514D01*
X237951D01*
Y165571D01*
X238187D01*
Y164393D01*
X238423D01*
Y163215D01*
X238658D01*
Y162272D01*
X238894D01*
Y161094D01*
X239130D01*
Y159680D01*
X239365D01*
Y153553D01*
X239601D01*
Y150961D01*
X239837D01*
Y139415D01*
X239601D01*
Y136823D01*
X239365D01*
Y135409D01*
X239130D01*
Y134231D01*
X238894D01*
Y132581D01*
X238658D01*
Y131403D01*
X238423D01*
Y130225D01*
X238187D01*
Y128811D01*
X237951D01*
Y127633D01*
X237716D01*
Y126219D01*
X237480D01*
Y125040D01*
X237244D01*
Y124098D01*
X237009D01*
Y122920D01*
X236773D01*
Y122213D01*
X236537D01*
Y121270D01*
X236302D01*
Y120563D01*
X236066D01*
Y119856D01*
X235831D01*
Y119149D01*
X235595D01*
Y118442D01*
X235359D01*
Y117971D01*
X235124D01*
Y117264D01*
X234888D01*
Y116793D01*
X234652D01*
Y116322D01*
X234417D01*
Y115615D01*
X234181D01*
Y115143D01*
X233945D01*
Y114672D01*
X233710D01*
Y114201D01*
X233474D01*
Y113494D01*
X233239D01*
Y113023D01*
X233003D01*
Y112316D01*
X232767D01*
Y111844D01*
X232532D01*
Y111609D01*
X232296D01*
Y111137D01*
X232060D01*
Y110902D01*
X231825D01*
Y110430D01*
X231589D01*
Y110195D01*
X231353D01*
Y109959D01*
X231118D01*
Y109724D01*
X230882D01*
Y109488D01*
X230646D01*
Y109017D01*
X230411D01*
Y108781D01*
X230175D01*
Y108545D01*
X229939D01*
Y108310D01*
X229704D01*
Y107838D01*
X229468D01*
Y107603D01*
X229233D01*
Y107367D01*
X228997D01*
Y107131D01*
X228761D01*
Y106660D01*
X228526D01*
Y106425D01*
X228290D01*
Y106189D01*
X228054D01*
Y105953D01*
X227819D01*
Y105718D01*
X227583D01*
Y105482D01*
X227347D01*
Y105246D01*
X227112D01*
Y105011D01*
X226640D01*
Y104775D01*
X226405D01*
Y104539D01*
X225933D01*
Y104304D01*
X225698D01*
Y104068D01*
X225227D01*
Y103832D01*
X224755D01*
Y103597D01*
X224520D01*
Y103361D01*
X224048D01*
Y103125D01*
X223577D01*
Y102890D01*
X223106D01*
Y102654D01*
X222635D01*
Y102419D01*
X222399D01*
Y102183D01*
X221928D01*
Y101947D01*
X221456D01*
Y101712D01*
X220985D01*
Y101476D01*
X220514D01*
Y101240D01*
X220042D01*
Y101005D01*
X219571D01*
Y100769D01*
X219100D01*
Y100533D01*
X218629D01*
Y100298D01*
X218393D01*
Y100062D01*
X217922D01*
Y99826D01*
X217450D01*
Y99591D01*
X216979D01*
Y99355D01*
X216508D01*
Y99120D01*
X216036D01*
Y98884D01*
X215801D01*
Y98648D01*
X215329D01*
Y98413D01*
X214858D01*
Y98177D01*
X214623D01*
Y97941D01*
X214151D01*
Y97706D01*
X213916D01*
Y97470D01*
X213444D01*
Y97234D01*
X212973D01*
Y96999D01*
X212502D01*
Y96763D01*
X212266D01*
Y96527D01*
X212502D01*
Y96292D01*
X212973D01*
Y96056D01*
X213680D01*
Y95821D01*
X214387D01*
Y95585D01*
X215094D01*
Y95349D01*
X215801D01*
Y95114D01*
X216508D01*
Y94878D01*
X216979D01*
Y94642D01*
X217686D01*
Y94407D01*
X218157D01*
Y94171D01*
X218629D01*
Y93935D01*
X219100D01*
Y93700D01*
X219571D01*
Y93464D01*
X220042D01*
Y93228D01*
X220514D01*
Y92993D01*
X220985D01*
Y92757D01*
X221221D01*
Y92521D01*
X221692D01*
Y92286D01*
X221928D01*
Y92050D01*
X222163D01*
Y91579D01*
X221928D01*
Y91343D01*
X222163D01*
Y91108D01*
X222870D01*
Y90872D01*
X223341D01*
Y90636D01*
X224048D01*
Y90401D01*
X224520D01*
Y90165D01*
X224991D01*
Y89929D01*
X225462D01*
Y89694D01*
X225933D01*
Y89458D01*
X226405D01*
Y89222D01*
X226876D01*
Y88987D01*
X227347D01*
Y88751D01*
X227583D01*
Y88516D01*
X228054D01*
Y88280D01*
X228290D01*
Y88044D01*
X228526D01*
Y87809D01*
X228997D01*
Y87573D01*
X229233D01*
Y87337D01*
X229468D01*
Y87102D01*
X229939D01*
Y86866D01*
X230411D01*
Y86630D01*
X230646D01*
Y86395D01*
X231118D01*
Y86159D01*
X231353D01*
Y85923D01*
X231825D01*
Y85688D01*
X232060D01*
Y85452D01*
X232296D01*
Y85217D01*
X232767D01*
Y84981D01*
X233003D01*
Y84745D01*
X233474D01*
Y84510D01*
X233710D01*
Y84274D01*
X234181D01*
Y84038D01*
X234417D01*
Y83803D01*
X234652D01*
Y83567D01*
X235124D01*
Y83331D01*
X235359D01*
Y83096D01*
X235595D01*
Y82860D01*
X236066D01*
Y82624D01*
X236302D01*
Y82389D01*
X236537D01*
Y82153D01*
X236773D01*
Y81917D01*
X237009D01*
Y81682D01*
X237480D01*
Y81446D01*
X237716D01*
Y81211D01*
X237951D01*
Y80975D01*
X238187D01*
Y80739D01*
X238423D01*
Y80504D01*
X238894D01*
Y80268D01*
X239130D01*
Y80032D01*
X239365D01*
Y79797D01*
X239601D01*
Y79561D01*
X239837D01*
Y79325D01*
X240072D01*
Y79090D01*
X240543D01*
Y78854D01*
X240779D01*
Y78618D01*
X241015D01*
Y78383D01*
X241250D01*
Y78147D01*
X241486D01*
Y77912D01*
X241722D01*
Y77676D01*
X241957D01*
Y77440D01*
X242193D01*
Y77205D01*
X242429D01*
Y76969D01*
X242664D01*
Y76498D01*
X242900D01*
Y76262D01*
X243136D01*
Y76026D01*
X243371D01*
Y75791D01*
X243607D01*
Y75555D01*
X243843D01*
Y75084D01*
X244078D01*
Y74848D01*
X244314D01*
Y74612D01*
X244549D01*
Y74141D01*
X244785D01*
Y73906D01*
X245021D01*
Y73670D01*
X245256D01*
Y73199D01*
X245492D01*
Y72963D01*
X245728D01*
Y72727D01*
X245963D01*
Y72492D01*
X246199D01*
Y72256D01*
X246435D01*
Y71785D01*
X246670D01*
Y71549D01*
X246906D01*
Y71314D01*
X247141D01*
Y71078D01*
X247377D01*
Y70606D01*
X247613D01*
Y70371D01*
X247848D01*
Y70135D01*
X248084D01*
Y69900D01*
X248320D01*
Y69664D01*
X248555D01*
Y69193D01*
X248791D01*
Y68957D01*
X249027D01*
Y68486D01*
X249262D01*
Y68250D01*
X249498D01*
Y67779D01*
X249734D01*
Y67543D01*
X249969D01*
Y67072D01*
X250205D01*
Y66836D01*
X250441D01*
Y66365D01*
X250676D01*
Y65894D01*
X250912D01*
Y65422D01*
X251147D01*
Y64951D01*
X251383D01*
Y64480D01*
X251619D01*
Y64008D01*
X251854D01*
Y63537D01*
X252090D01*
Y63066D01*
X252326D01*
Y62595D01*
X252561D01*
Y61888D01*
X252797D01*
Y61416D01*
X253033D01*
Y60710D01*
X253268D01*
Y60238D01*
X253033D01*
Y60002D01*
X253504D01*
Y59531D01*
X253739D01*
Y59060D01*
X253975D01*
Y58589D01*
X254211D01*
Y58117D01*
X254447D01*
Y57882D01*
Y57646D01*
X254682D01*
Y57175D01*
X254918D01*
Y56939D01*
X254682D01*
Y57175D01*
X254447D01*
Y57646D01*
X253739D01*
Y57882D01*
X253504D01*
Y58353D01*
X253739D01*
Y58117D01*
X253975D01*
Y58589D01*
X253739D01*
Y58824D01*
Y59060D01*
X253504D01*
Y58589D01*
X253268D01*
Y58824D01*
X253033D01*
Y59296D01*
X252797D01*
Y59531D01*
X253268D01*
Y59296D01*
X253504D01*
Y59531D01*
X253268D01*
Y59767D01*
X253033D01*
Y60002D01*
X252797D01*
Y59767D01*
X252561D01*
Y60002D01*
X252326D01*
Y60474D01*
X252090D01*
Y60945D01*
X251854D01*
Y61652D01*
X251619D01*
Y62123D01*
X251383D01*
Y62595D01*
X251147D01*
Y63066D01*
X250912D01*
Y63773D01*
X250676D01*
Y64244D01*
X250441D01*
Y64715D01*
X250205D01*
Y65187D01*
X249969D01*
Y65658D01*
X249734D01*
Y66129D01*
X249498D01*
Y66601D01*
X249262D01*
Y66836D01*
X249027D01*
Y67308D01*
X248791D01*
Y67779D01*
X248555D01*
Y68014D01*
X248320D01*
Y68250D01*
X248084D01*
Y68721D01*
X247848D01*
Y68957D01*
X247613D01*
Y69193D01*
X247377D01*
Y69428D01*
X247141D01*
Y69664D01*
X246906D01*
Y69900D01*
X246670D01*
Y70371D01*
X246435D01*
Y70606D01*
X246199D01*
Y70842D01*
X245963D01*
Y71314D01*
X245728D01*
Y71549D01*
X245492D01*
Y71785D01*
X245256D01*
Y72020D01*
X245021D01*
Y72492D01*
X244785D01*
Y72727D01*
X244549D01*
Y72963D01*
X244314D01*
Y73434D01*
X244078D01*
Y73670D01*
X243843D01*
Y73906D01*
X243607D01*
Y74141D01*
X243371D01*
Y74612D01*
X243136D01*
Y74848D01*
X242900D01*
Y75084D01*
X242664D01*
Y75555D01*
X242429D01*
Y75791D01*
X242193D01*
Y76026D01*
X241957D01*
Y76262D01*
X241722D01*
Y76498D01*
X241486D01*
Y76733D01*
X241250D01*
Y76969D01*
X241015D01*
Y77205D01*
X240779D01*
Y77440D01*
X240543D01*
Y77676D01*
X240308D01*
Y77912D01*
X240072D01*
Y78147D01*
X239837D01*
Y78383D01*
X239601D01*
Y78618D01*
X239365D01*
Y78854D01*
X238894D01*
Y79090D01*
X238658D01*
Y79325D01*
X238423D01*
Y79561D01*
X238187D01*
Y79797D01*
X237951D01*
Y80032D01*
X237716D01*
Y80268D01*
X237480D01*
Y80504D01*
X237009D01*
Y80739D01*
X236773D01*
Y80975D01*
X236537D01*
Y81211D01*
X236302D01*
Y81446D01*
X236066D01*
Y81682D01*
X235595D01*
Y81917D01*
X235359D01*
Y82153D01*
X235124D01*
Y82389D01*
X234888D01*
Y82624D01*
X234652D01*
Y82860D01*
X234181D01*
Y83096D01*
X233945D01*
Y83331D01*
X233474D01*
Y83567D01*
X233239D01*
Y83803D01*
X232767D01*
Y84038D01*
X232296D01*
Y84274D01*
X232060D01*
Y84510D01*
X231589D01*
Y84745D01*
X231353D01*
Y84981D01*
X231118D01*
Y85217D01*
X230646D01*
Y85452D01*
X230411D01*
Y85688D01*
X229939D01*
Y85923D01*
X229704D01*
Y86159D01*
X229233D01*
Y86395D01*
X228997D01*
Y86630D01*
X228761D01*
Y86866D01*
X228290D01*
Y87102D01*
X228054D01*
Y87337D01*
X227819D01*
Y87573D01*
X227347D01*
Y87809D01*
X227112D01*
Y88044D01*
X226640D01*
Y88280D01*
X226169D01*
Y88516D01*
X225698D01*
Y88751D01*
X225227D01*
Y88987D01*
X224755D01*
Y89222D01*
X224284D01*
Y89458D01*
X223577D01*
Y89694D01*
X223106D01*
Y89929D01*
X222399D01*
Y90165D01*
X221928D01*
Y90401D01*
X221456D01*
Y90636D01*
X220514D01*
Y90401D01*
X219807D01*
Y90165D01*
X219335D01*
Y89929D01*
X218629D01*
Y89694D01*
X218157D01*
Y89458D01*
X217686D01*
Y89222D01*
X217215D01*
Y88987D01*
X216508D01*
Y88751D01*
X216036D01*
Y88516D01*
X215801D01*
Y88280D01*
X215329D01*
Y88044D01*
X214858D01*
Y87809D01*
X214387D01*
Y87573D01*
X213916D01*
Y87337D01*
X213209D01*
Y87102D01*
X212502D01*
Y86866D01*
X211795D01*
Y86630D01*
X211324D01*
Y86395D01*
X210617D01*
Y86159D01*
X209910D01*
Y85923D01*
X209203D01*
Y85688D01*
X208496D01*
Y85452D01*
X207789D01*
Y85217D01*
X207082D01*
Y84981D01*
X206611D01*
Y84745D01*
X205904D01*
Y84510D01*
X205432D01*
Y84274D01*
X204961D01*
Y84038D01*
X204725D01*
Y83567D01*
X204961D01*
Y83096D01*
X205197D01*
Y80975D01*
X204961D01*
Y80268D01*
X204725D01*
Y79797D01*
X204490D01*
Y79325D01*
X204254D01*
Y79090D01*
X204019D01*
Y78618D01*
X203783D01*
Y78383D01*
X203547D01*
Y78147D01*
X203312D01*
Y77912D01*
X203076D01*
Y77676D01*
X202840D01*
Y77440D01*
X202605D01*
Y77205D01*
X202369D01*
Y76969D01*
X202133D01*
Y76733D01*
X201662D01*
Y76498D01*
X201427D01*
Y76262D01*
X200955D01*
Y76026D01*
X200720D01*
Y75791D01*
X200248D01*
Y75555D01*
X200013D01*
Y75319D01*
X199777D01*
Y75084D01*
X199541D01*
Y74848D01*
X199306D01*
Y74612D01*
X199070D01*
Y74377D01*
X198834D01*
Y74141D01*
X198599D01*
Y73906D01*
X198363D01*
Y73670D01*
X198127D01*
Y73434D01*
X197892D01*
Y73199D01*
X197656D01*
Y72963D01*
X197421D01*
Y72727D01*
X197185D01*
Y72256D01*
X196949D01*
Y72020D01*
X196714D01*
Y71785D01*
X196478D01*
Y71549D01*
X196242D01*
Y71314D01*
X196007D01*
Y71078D01*
X195771D01*
Y70606D01*
X195535D01*
Y70371D01*
X195300D01*
Y70135D01*
X195064D01*
Y69900D01*
X194828D01*
Y69664D01*
X194593D01*
Y69428D01*
X194357D01*
Y68957D01*
X194121D01*
Y68721D01*
X193886D01*
Y68486D01*
X193650D01*
Y68250D01*
X193414D01*
Y68014D01*
X193179D01*
Y67779D01*
X192943D01*
Y67543D01*
X192708D01*
Y67308D01*
X192472D01*
Y67072D01*
X192236D01*
Y66836D01*
X192001D01*
Y66365D01*
X191765D01*
Y66129D01*
X191529D01*
Y65894D01*
X191294D01*
Y65658D01*
X191058D01*
Y65422D01*
X190823D01*
Y65187D01*
X190587D01*
Y64951D01*
X190351D01*
Y64715D01*
X190116D01*
Y64480D01*
X189880D01*
Y64244D01*
X189644D01*
Y64008D01*
X189409D01*
Y63773D01*
X189173D01*
Y63537D01*
X188937D01*
Y63066D01*
X188702D01*
Y62830D01*
X188466D01*
Y62595D01*
X188230D01*
Y62359D01*
X187995D01*
Y62123D01*
X187759D01*
Y61888D01*
X187523D01*
Y61652D01*
X187288D01*
Y61181D01*
X187052D01*
Y60945D01*
X186817D01*
Y60710D01*
X186581D01*
Y60474D01*
X186345D01*
Y60238D01*
X186110D01*
Y60002D01*
X185874D01*
Y59767D01*
X185638D01*
Y59531D01*
X185403D01*
Y59296D01*
X185167D01*
Y59060D01*
X184931D01*
Y58589D01*
X184696D01*
Y58353D01*
X184460D01*
Y58117D01*
X184224D01*
Y57882D01*
X183989D01*
Y57646D01*
X183753D01*
Y57410D01*
X183517D01*
Y57175D01*
X183282D01*
Y56939D01*
X183046D01*
Y56704D01*
X182811D01*
Y56468D01*
X182575D01*
Y56232D01*
X182339D01*
Y55997D01*
X182104D01*
Y55761D01*
X181868D01*
Y55525D01*
X181632D01*
Y55290D01*
X181397D01*
Y55054D01*
X181161D01*
Y54818D01*
X180925D01*
Y54583D01*
X180690D01*
Y54347D01*
X180454D01*
Y54111D01*
X180219D01*
Y53876D01*
X179983D01*
Y53640D01*
X179747D01*
Y53404D01*
X179512D01*
Y52462D01*
X179276D01*
Y51284D01*
X179040D01*
Y50812D01*
X178805D01*
Y50341D01*
X179040D01*
Y47513D01*
X178805D01*
Y47042D01*
X178569D01*
Y46806D01*
X178333D01*
Y46335D01*
X178098D01*
Y46100D01*
X177862D01*
Y44450D01*
X177391D01*
Y45393D01*
X177155D01*
Y46100D01*
X176919D01*
Y46335D01*
X176684D01*
Y46571D01*
X176448D01*
Y46806D01*
X175977D01*
Y47042D01*
X174799D01*
Y46806D01*
X174092D01*
Y47042D01*
X173620D01*
Y47513D01*
X173385D01*
Y48220D01*
X173620D01*
Y48692D01*
X173856D01*
Y49163D01*
X174092D01*
Y49398D01*
X174327D01*
Y49634D01*
X174092D01*
Y49870D01*
X173856D01*
Y50106D01*
X173385D01*
Y49870D01*
X173149D01*
Y49398D01*
X172913D01*
Y49163D01*
X172678D01*
Y48456D01*
X172442D01*
Y47513D01*
X172206D01*
Y46806D01*
X172442D01*
Y46335D01*
X172678D01*
Y46100D01*
X172913D01*
Y45864D01*
X173149D01*
Y45628D01*
X173385D01*
Y45393D01*
X174799D01*
Y45864D01*
X175270D01*
Y45393D01*
X175506D01*
Y44921D01*
X175741D01*
Y44686D01*
X175506D01*
Y44450D01*
X175034D01*
Y44686D01*
X173149D01*
Y45157D01*
X172913D01*
Y45393D01*
X171971D01*
Y45157D01*
X171735D01*
Y44450D01*
X171028D01*
Y45157D01*
X171264D01*
Y45628D01*
X171735D01*
Y45864D01*
X171971D01*
Y46335D01*
X171735D01*
Y48220D01*
X171971D01*
Y48927D01*
X172206D01*
Y49398D01*
X172442D01*
Y49870D01*
X172678D01*
Y50106D01*
X172913D01*
Y50577D01*
X173149D01*
Y51284D01*
X172913D01*
Y52933D01*
X173149D01*
Y53640D01*
X173385D01*
Y53876D01*
X173620D01*
Y54347D01*
X173856D01*
Y54583D01*
X174092D01*
Y55525D01*
X173856D01*
Y57410D01*
X174092D01*
Y58117D01*
X174327D01*
Y58589D01*
X174563D01*
Y58824D01*
X174799D01*
Y61652D01*
X175034D01*
Y62123D01*
X175270D01*
Y62595D01*
X175506D01*
Y62830D01*
X175741D01*
Y63302D01*
X175506D01*
Y64715D01*
X175741D01*
Y65658D01*
X175977D01*
Y65894D01*
X176213D01*
Y66365D01*
X176448D01*
Y68957D01*
X176684D01*
Y69428D01*
X176919D01*
Y69900D01*
X177155D01*
Y70371D01*
X177391D01*
Y70606D01*
X177626D01*
Y70842D01*
X177862D01*
Y73199D01*
X178098D01*
Y73670D01*
X178333D01*
Y74141D01*
X178569D01*
Y74377D01*
X178805D01*
Y74612D01*
X178569D01*
Y77440D01*
X178805D01*
Y77912D01*
X179040D01*
Y78147D01*
X179276D01*
Y78854D01*
X179040D01*
Y80268D01*
X178569D01*
Y80032D01*
X178333D01*
Y79561D01*
X178098D01*
Y79325D01*
X177862D01*
Y79090D01*
X177626D01*
Y78618D01*
X177391D01*
Y78383D01*
X177155D01*
Y77912D01*
X176919D01*
Y77676D01*
X176684D01*
Y77440D01*
X176448D01*
Y76969D01*
X176213D01*
Y76733D01*
X175977D01*
Y76498D01*
X175741D01*
Y76026D01*
X175506D01*
Y75791D01*
X175270D01*
Y75555D01*
X175034D01*
Y75319D01*
X174799D01*
Y74848D01*
X174563D01*
Y74612D01*
X174327D01*
Y74377D01*
X174092D01*
Y74141D01*
X173856D01*
Y73670D01*
X173620D01*
Y73434D01*
X173385D01*
Y73199D01*
X173149D01*
Y72963D01*
X172913D01*
Y72492D01*
X172678D01*
Y72256D01*
X172442D01*
Y72020D01*
X172206D01*
Y71549D01*
X171971D01*
Y71314D01*
X171735D01*
Y70842D01*
X171500D01*
Y70606D01*
X171264D01*
Y70135D01*
X171028D01*
Y69900D01*
X170793D01*
Y69428D01*
X170557D01*
Y68957D01*
X170321D01*
Y68486D01*
X170086D01*
Y68014D01*
X169850D01*
Y67779D01*
X169614D01*
Y67308D01*
X169379D01*
Y66836D01*
X169143D01*
Y66365D01*
X168908D01*
Y66129D01*
X168672D01*
Y65658D01*
X168436D01*
Y65187D01*
X168201D01*
Y64715D01*
X167965D01*
Y64244D01*
X167729D01*
Y63773D01*
X167494D01*
Y63302D01*
X167258D01*
Y62830D01*
X167022D01*
Y62359D01*
X166787D01*
Y61888D01*
X166551D01*
Y61416D01*
X166315D01*
Y60945D01*
X166080D01*
Y60474D01*
X165844D01*
Y60002D01*
X165609D01*
Y59767D01*
X165373D01*
Y59296D01*
X165137D01*
Y58824D01*
X164902D01*
Y58353D01*
X164666D01*
Y57882D01*
X164430D01*
Y57410D01*
X164195D01*
Y56939D01*
X163959D01*
Y56232D01*
X163723D01*
Y55525D01*
X163488D01*
Y54818D01*
X163252D01*
Y54111D01*
X163016D01*
Y53404D01*
X162781D01*
Y52933D01*
X162545D01*
Y51991D01*
X162309D01*
Y51519D01*
X162074D01*
Y50812D01*
X161838D01*
Y50106D01*
X161602D01*
Y49398D01*
X161367D01*
Y48927D01*
X161131D01*
Y48220D01*
X160896D01*
Y47749D01*
X160660D01*
Y47042D01*
X160424D01*
Y46335D01*
X160189D01*
Y45864D01*
X159953D01*
Y45157D01*
X159717D01*
Y44450D01*
X158775D01*
Y44921D01*
X159010D01*
Y45628D01*
X159246D01*
Y46335D01*
X159482D01*
Y47042D01*
X159717D01*
Y47749D01*
X159953D01*
Y48692D01*
X160189D01*
Y49163D01*
X160424D01*
Y49870D01*
X160660D01*
Y50577D01*
X160896D01*
Y51048D01*
X161131D01*
Y51755D01*
X161367D01*
Y52462D01*
X161602D01*
Y52933D01*
X161838D01*
Y53640D01*
X162074D01*
Y54347D01*
X162309D01*
Y54818D01*
X162545D01*
Y55525D01*
X162781D01*
Y56232D01*
X163016D01*
Y56939D01*
X163252D01*
Y57410D01*
X163488D01*
Y58117D01*
X163723D01*
Y58589D01*
X163959D01*
Y59060D01*
X164195D01*
Y59531D01*
X164430D01*
Y60002D01*
X164666D01*
Y60474D01*
X164902D01*
Y60945D01*
X165137D01*
Y61416D01*
X165373D01*
Y61888D01*
X165609D01*
Y62359D01*
X165844D01*
Y62595D01*
X166080D01*
Y63066D01*
X166315D01*
Y63537D01*
X166551D01*
Y64008D01*
X166787D01*
Y64480D01*
X167022D01*
Y64951D01*
X167258D01*
Y65422D01*
X167494D01*
Y65894D01*
X167729D01*
Y66129D01*
X167965D01*
Y66601D01*
X168201D01*
Y67072D01*
X168436D01*
Y67308D01*
X168672D01*
Y67779D01*
X168908D01*
Y68250D01*
X169143D01*
Y68721D01*
X169379D01*
Y69193D01*
X169614D01*
Y69664D01*
X169850D01*
Y70135D01*
X170086D01*
Y70606D01*
X170321D01*
Y70842D01*
X170557D01*
Y71314D01*
X170793D01*
Y71549D01*
X171028D01*
Y71785D01*
X171264D01*
Y72256D01*
X171500D01*
Y72492D01*
X171735D01*
Y72727D01*
X171971D01*
Y73199D01*
X172206D01*
Y73434D01*
X172442D01*
Y73670D01*
X172678D01*
Y74141D01*
X172913D01*
Y74377D01*
X173149D01*
Y74612D01*
X173385D01*
Y74848D01*
X173620D01*
Y75319D01*
X173856D01*
Y75555D01*
X174092D01*
Y75791D01*
X174327D01*
Y76026D01*
X174563D01*
Y76498D01*
X174799D01*
Y76733D01*
X175034D01*
Y76969D01*
X175270D01*
Y77440D01*
X175506D01*
Y77676D01*
X175741D01*
Y77912D01*
X175977D01*
Y78383D01*
X176213D01*
Y78618D01*
X176448D01*
Y78854D01*
X176684D01*
Y79325D01*
X176919D01*
Y79561D01*
X177155D01*
Y79797D01*
X177391D01*
Y80268D01*
X177626D01*
Y80739D01*
X177862D01*
Y80975D01*
X178098D01*
Y81446D01*
X178333D01*
Y81917D01*
X178569D01*
Y82389D01*
X178805D01*
Y82860D01*
X179040D01*
Y83331D01*
X179276D01*
Y83803D01*
X179512D01*
Y85923D01*
X179747D01*
Y86395D01*
X179983D01*
Y87102D01*
X179747D01*
Y88987D01*
X179983D01*
Y89694D01*
X180219D01*
Y90401D01*
X179983D01*
Y92521D01*
X180219D01*
Y92757D01*
X180454D01*
Y92993D01*
X180690D01*
Y93700D01*
X180454D01*
Y94171D01*
X180219D01*
Y95349D01*
X180454D01*
Y95821D01*
X179983D01*
Y96056D01*
X179747D01*
Y96292D01*
X179276D01*
Y96527D01*
X178805D01*
Y96763D01*
X178333D01*
Y96999D01*
X178098D01*
Y97234D01*
X177862D01*
Y97470D01*
X177626D01*
Y97706D01*
X177391D01*
Y97941D01*
X177155D01*
Y98177D01*
X176919D01*
Y98413D01*
X176684D01*
Y98648D01*
X176213D01*
Y98884D01*
X175741D01*
Y99120D01*
X175506D01*
Y99355D01*
X175270D01*
Y99826D01*
X175034D01*
Y100298D01*
X174799D01*
Y101947D01*
X174563D01*
Y102890D01*
X174327D01*
Y103597D01*
X174092D01*
Y104539D01*
X174327D01*
Y105011D01*
X174563D01*
Y105718D01*
X174799D01*
Y108781D01*
X175034D01*
Y109488D01*
X175270D01*
Y109959D01*
X175506D01*
Y110430D01*
X175741D01*
Y110902D01*
X175977D01*
Y112551D01*
X176213D01*
Y113258D01*
X176448D01*
Y113729D01*
X176684D01*
Y114436D01*
X176919D01*
Y115615D01*
X177155D01*
Y115850D01*
X177391D01*
Y116086D01*
X177626D01*
Y116322D01*
X177862D01*
Y116793D01*
X178098D01*
Y117500D01*
X177862D01*
Y117264D01*
X177626D01*
Y117029D01*
X177391D01*
Y116793D01*
X177155D01*
Y116322D01*
X176919D01*
Y116086D01*
X176684D01*
Y115850D01*
X176448D01*
Y115615D01*
X176213D01*
Y115379D01*
X175977D01*
Y114908D01*
X175506D01*
Y114672D01*
X175270D01*
Y114436D01*
X175034D01*
Y114201D01*
X174799D01*
Y113965D01*
X174563D01*
Y113729D01*
X174327D01*
Y113494D01*
X174092D01*
Y113258D01*
X173856D01*
Y113023D01*
X173620D01*
Y112787D01*
X173385D01*
Y112551D01*
X172913D01*
Y112316D01*
X172678D01*
Y112080D01*
X172206D01*
Y111844D01*
X171971D01*
Y111609D01*
X171500D01*
Y111373D01*
X171264D01*
Y111137D01*
X170793D01*
Y110902D01*
X170321D01*
Y111137D01*
X170557D01*
Y111373D01*
X170793D01*
Y111609D01*
X171028D01*
Y111844D01*
X171264D01*
Y112080D01*
X171500D01*
Y112316D01*
X171735D01*
Y112551D01*
X171971D01*
Y112787D01*
X172206D01*
Y113023D01*
X172442D01*
Y113258D01*
X172913D01*
Y113494D01*
X173149D01*
Y113729D01*
X173385D01*
Y113965D01*
X173620D01*
Y114201D01*
X173856D01*
Y114436D01*
X174092D01*
Y114672D01*
X174327D01*
Y114908D01*
X174563D01*
Y115143D01*
X174799D01*
Y115379D01*
X175034D01*
Y115850D01*
X175270D01*
Y116086D01*
X175506D01*
Y116322D01*
X175741D01*
Y116557D01*
X175977D01*
Y116793D01*
X176213D01*
Y117029D01*
X176448D01*
Y117264D01*
X176684D01*
Y117500D01*
X176919D01*
Y117971D01*
X177155D01*
Y118207D01*
X177391D01*
Y118442D01*
X177626D01*
Y118678D01*
X177862D01*
Y119149D01*
X178098D01*
Y119385D01*
X178333D01*
Y119856D01*
X178569D01*
Y120092D01*
X178805D01*
Y120328D01*
X179040D01*
Y120799D01*
X179276D01*
Y121270D01*
X179512D01*
Y121741D01*
X179747D01*
Y122213D01*
X179983D01*
Y122684D01*
X180219D01*
Y123391D01*
X180454D01*
Y124098D01*
X180690D01*
Y124805D01*
X180925D01*
Y125512D01*
Y125747D01*
X181161D01*
Y127161D01*
X181397D01*
Y128575D01*
X181632D01*
Y129753D01*
X181868D01*
Y130460D01*
X182104D01*
Y131167D01*
X182339D01*
Y132110D01*
X182575D01*
Y133288D01*
X182811D01*
Y135880D01*
X182575D01*
Y136823D01*
X182339D01*
Y138708D01*
X182575D01*
Y140829D01*
X182339D01*
Y141771D01*
X182104D01*
Y145070D01*
X182339D01*
Y146720D01*
X182104D01*
Y147427D01*
X181868D01*
Y147898D01*
X181632D01*
Y152375D01*
X181868D01*
Y153318D01*
X182104D01*
Y153789D01*
X181868D01*
Y155439D01*
X181632D01*
Y155910D01*
X181397D01*
Y156381D01*
X181161D01*
Y157324D01*
X180925D01*
Y158973D01*
X181161D01*
Y160152D01*
X181397D01*
Y160623D01*
X180454D01*
Y160387D01*
X179512D01*
Y158738D01*
X179276D01*
Y157088D01*
X179040D01*
Y155674D01*
X178805D01*
Y154732D01*
X178569D01*
Y154025D01*
X178333D01*
Y153553D01*
X178098D01*
Y152846D01*
X177862D01*
Y152375D01*
X177626D01*
Y152140D01*
X177155D01*
Y151904D01*
X176684D01*
Y151668D01*
X176213D01*
Y151433D01*
X175506D01*
Y151197D01*
X174563D01*
Y150961D01*
X173149D01*
Y150726D01*
X171028D01*
Y150490D01*
X163723D01*
Y150726D01*
X162074D01*
Y150961D01*
X160896D01*
Y151197D01*
X159953D01*
Y151433D01*
X159010D01*
Y151668D01*
X158303D01*
Y151904D01*
X158068D01*
Y152140D01*
X157597D01*
Y152375D01*
X157361D01*
Y152611D01*
X157125D01*
Y153082D01*
X156890D01*
Y153553D01*
X156654D01*
Y154025D01*
X156418D01*
Y154732D01*
X156183D01*
Y155203D01*
X155947D01*
Y155910D01*
X155711D01*
Y156617D01*
X155476D01*
Y157559D01*
X155240D01*
Y158738D01*
X155005D01*
Y159916D01*
X154769D01*
Y160152D01*
X153826D01*
Y160387D01*
X153119D01*
Y160623D01*
X151706D01*
Y160858D01*
X148878D01*
Y160623D01*
X147935D01*
Y160387D01*
X147228D01*
Y160152D01*
X146757D01*
Y159916D01*
X146521D01*
Y159445D01*
X146286D01*
Y158266D01*
X146050D01*
Y157324D01*
X145814D01*
Y156381D01*
X145579D01*
Y155674D01*
X145343D01*
Y154967D01*
X145107D01*
Y154260D01*
X144872D01*
Y153553D01*
X144636D01*
Y153082D01*
X144401D01*
Y152846D01*
X144165D01*
Y152375D01*
X143929D01*
Y152140D01*
X143694D01*
Y151904D01*
X143458D01*
Y151668D01*
X143222D01*
Y151433D01*
X142751D01*
Y151197D01*
X142044D01*
Y150961D01*
X140866D01*
Y150726D01*
X139452D01*
Y150490D01*
X138038D01*
Y150254D01*
X134739D01*
Y150019D01*
X133090D01*
Y150254D01*
X129084D01*
Y150490D01*
X127670D01*
Y150726D01*
X126256D01*
Y150961D01*
X125313D01*
Y151197D01*
X124606D01*
Y151433D01*
X124135D01*
Y151668D01*
X123899D01*
Y151904D01*
X123664D01*
Y152375D01*
X123428D01*
Y152611D01*
X123193D01*
Y153082D01*
X122957D01*
Y153789D01*
X122721D01*
Y154496D01*
X122486D01*
Y155439D01*
X122250D01*
Y156381D01*
X122014D01*
Y158266D01*
X121779D01*
Y159916D01*
X120129D01*
Y159680D01*
X120365D01*
Y158973D01*
X120600D01*
Y156381D01*
X120365D01*
Y155674D01*
X120129D01*
Y155203D01*
X119894D01*
Y154025D01*
X120129D01*
Y153318D01*
X120365D01*
Y152375D01*
X120600D01*
Y151197D01*
X120365D01*
Y150254D01*
X120129D01*
Y149548D01*
X119894D01*
Y149076D01*
X119658D01*
Y148134D01*
X119894D01*
Y145777D01*
X120129D01*
Y145070D01*
X120365D01*
Y144363D01*
X120600D01*
Y143421D01*
X120836D01*
Y141300D01*
X120600D01*
Y140357D01*
X120365D01*
Y139886D01*
X120129D01*
Y139179D01*
X119894D01*
Y138472D01*
X120129D01*
Y136351D01*
X119894D01*
Y135409D01*
X119658D01*
Y134466D01*
X119894D01*
Y133759D01*
X120129D01*
Y133052D01*
X120365D01*
Y130932D01*
X120129D01*
Y129518D01*
X120365D01*
Y129282D01*
X120600D01*
Y128811D01*
X120836D01*
Y128575D01*
X121072D01*
Y128104D01*
X121307D01*
Y127633D01*
X121543D01*
Y127397D01*
X121779D01*
Y126926D01*
X122014D01*
Y126454D01*
X122250D01*
Y126219D01*
X122486D01*
Y125747D01*
X122721D01*
Y125040D01*
X122957D01*
Y124098D01*
X123193D01*
Y122920D01*
X123428D01*
Y120799D01*
X123664D01*
Y119856D01*
X123899D01*
Y117736D01*
X124135D01*
Y117500D01*
X124371D01*
Y117264D01*
X124606D01*
Y117029D01*
X124842D01*
Y116793D01*
X125078D01*
Y116557D01*
X125313D01*
Y116322D01*
X125549D01*
Y116086D01*
X125785D01*
Y115850D01*
X126020D01*
Y115615D01*
X126256D01*
Y115143D01*
X126491D01*
Y114908D01*
X126727D01*
Y114672D01*
X126963D01*
Y114436D01*
X127198D01*
Y114201D01*
X127434D01*
Y113965D01*
X127670D01*
Y113729D01*
X127905D01*
Y113494D01*
X128141D01*
Y113258D01*
X128377D01*
Y113023D01*
X128612D01*
Y112787D01*
X128848D01*
Y112551D01*
X129084D01*
Y112316D01*
X129319D01*
Y112080D01*
X129555D01*
Y111609D01*
X129319D01*
Y111844D01*
X128848D01*
Y112080D01*
X128612D01*
Y112316D01*
X128141D01*
Y112551D01*
X127905D01*
Y112787D01*
X127670D01*
Y113023D01*
X127198D01*
Y113258D01*
X126963D01*
Y113494D01*
X126727D01*
Y113729D01*
X126491D01*
Y113965D01*
X126256D01*
Y114201D01*
X126020D01*
Y114436D01*
X125785D01*
Y114672D01*
X125549D01*
Y114908D01*
X125313D01*
Y115143D01*
X125078D01*
Y115379D01*
X124842D01*
Y115615D01*
X124606D01*
Y116086D01*
X124371D01*
Y116322D01*
X124135D01*
Y116557D01*
X123899D01*
Y116793D01*
X123664D01*
Y115850D01*
X123899D01*
Y115379D01*
X124135D01*
Y114908D01*
X124371D01*
Y114672D01*
X124606D01*
Y114436D01*
X124842D01*
Y113965D01*
X125078D01*
Y113729D01*
X125313D01*
Y113258D01*
X125549D01*
Y112787D01*
X125785D01*
Y112316D01*
X126020D01*
Y109252D01*
X126256D01*
Y108310D01*
X126491D01*
Y107603D01*
X126727D01*
Y105011D01*
X126491D01*
Y103832D01*
X126256D01*
Y102654D01*
X126020D01*
Y101712D01*
X125785D01*
Y101240D01*
X125549D01*
Y100533D01*
X125313D01*
Y99826D01*
X125078D01*
Y99355D01*
X124842D01*
Y98884D01*
X124606D01*
Y98413D01*
X124371D01*
Y97941D01*
X124135D01*
Y97706D01*
X123899D01*
Y97470D01*
X123664D01*
Y97234D01*
X123428D01*
Y96999D01*
X123193D01*
Y96763D01*
X122721D01*
Y96527D01*
X122250D01*
Y96292D01*
X121779D01*
Y96056D01*
X120600D01*
Y95821D01*
X120129D01*
Y95585D01*
X119894D01*
Y95349D01*
X119658D01*
Y95114D01*
X119186D01*
Y94878D01*
X118951D01*
Y94642D01*
X118480D01*
Y94407D01*
X118244D01*
Y93935D01*
X118480D01*
Y93228D01*
X118715D01*
Y92286D01*
X118480D01*
Y92050D01*
X118715D01*
Y91814D01*
X118951D01*
Y91579D01*
X119186D01*
Y91108D01*
X119422D01*
Y90872D01*
X119658D01*
Y90401D01*
X119894D01*
Y88987D01*
X120129D01*
Y88751D01*
X120600D01*
Y88516D01*
X120836D01*
Y88044D01*
X121072D01*
Y87809D01*
X121307D01*
Y87337D01*
X121543D01*
Y86866D01*
X121779D01*
Y86159D01*
X122014D01*
Y84981D01*
X122250D01*
Y84745D01*
X122486D01*
Y84510D01*
X122721D01*
Y84038D01*
X122957D01*
Y83803D01*
X123193D01*
Y83331D01*
X123428D01*
Y82860D01*
X123664D01*
Y80975D01*
X123899D01*
Y80739D01*
X124135D01*
Y80504D01*
X124371D01*
Y80268D01*
X124606D01*
Y80032D01*
X124842D01*
Y79797D01*
X125078D01*
Y79561D01*
X125313D01*
Y79090D01*
X125549D01*
Y78383D01*
X125785D01*
Y76733D01*
X126020D01*
Y76498D01*
X126256D01*
Y76262D01*
X126491D01*
Y76026D01*
X126727D01*
Y75555D01*
X126963D01*
Y74848D01*
X127198D01*
Y72963D01*
X127434D01*
Y72727D01*
X127670D01*
Y72492D01*
X127905D01*
Y72256D01*
X128141D01*
Y72020D01*
X128377D01*
Y71785D01*
X128612D01*
Y71314D01*
X128848D01*
Y70371D01*
X129084D01*
Y68957D01*
X129319D01*
Y68721D01*
X129555D01*
Y68486D01*
X129790D01*
Y68250D01*
X130026D01*
Y68014D01*
X130262D01*
Y67543D01*
X130498D01*
Y67072D01*
X130733D01*
Y65894D01*
X130969D01*
Y65187D01*
X131204D01*
Y64715D01*
X131440D01*
Y64480D01*
X131676D01*
Y64244D01*
X131911D01*
Y64008D01*
X132147D01*
Y63537D01*
X132383D01*
Y63302D01*
X132618D01*
Y63066D01*
X132854D01*
Y62830D01*
X133090D01*
Y62359D01*
X133325D01*
Y62123D01*
X133561D01*
Y61888D01*
X133797D01*
Y61652D01*
X134032D01*
Y61416D01*
X134268D01*
Y61181D01*
X134503D01*
Y60945D01*
X134739D01*
Y60710D01*
X134975D01*
Y60474D01*
X135210D01*
Y60238D01*
X135446D01*
Y60002D01*
X135682D01*
Y59767D01*
X135917D01*
Y59296D01*
X136153D01*
Y59060D01*
X136389D01*
Y58824D01*
X136624D01*
Y58589D01*
X136860D01*
Y58353D01*
X137095D01*
Y58117D01*
X137331D01*
Y57646D01*
X137567D01*
Y57410D01*
X137802D01*
Y57175D01*
X138038D01*
Y56704D01*
X138274D01*
Y56468D01*
X138509D01*
Y56232D01*
X138745D01*
Y55997D01*
X138981D01*
Y55525D01*
X139216D01*
Y55290D01*
X139452D01*
Y55054D01*
X139688D01*
Y54818D01*
X139923D01*
Y54583D01*
X140159D01*
Y54347D01*
X140394D01*
Y54111D01*
X140630D01*
Y53876D01*
X140866D01*
Y53640D01*
X141102D01*
Y53404D01*
X141337D01*
Y53169D01*
X141573D01*
Y52698D01*
X141808D01*
Y52462D01*
X142044D01*
Y52226D01*
X142280D01*
Y51991D01*
X142515D01*
Y51755D01*
X142751D01*
Y51519D01*
X142987D01*
Y51284D01*
X143222D01*
Y51048D01*
X143458D01*
Y50812D01*
X143694D01*
Y50577D01*
X143929D01*
Y50106D01*
X144165D01*
Y49870D01*
X144401D01*
Y49634D01*
X144636D01*
Y49398D01*
X144872D01*
Y49163D01*
X145107D01*
Y48692D01*
X145343D01*
Y48456D01*
X145579D01*
Y48220D01*
X145814D01*
Y47985D01*
X146050D01*
Y47513D01*
X146286D01*
Y47278D01*
X146521D01*
Y47042D01*
X146757D01*
Y46806D01*
X146993D01*
Y46571D01*
X147228D01*
Y46100D01*
X147464D01*
Y45864D01*
X147699D01*
Y45628D01*
X147935D01*
Y44921D01*
X148171D01*
Y44450D01*
X147228D01*
Y44921D01*
X146993D01*
Y45157D01*
X146757D01*
Y45628D01*
X146521D01*
Y45864D01*
X146286D01*
Y46100D01*
X146050D01*
Y46335D01*
X145814D01*
Y46806D01*
X145579D01*
Y47042D01*
X145343D01*
Y47278D01*
X145107D01*
Y47513D01*
X144872D01*
Y47985D01*
X144636D01*
Y48220D01*
X144401D01*
Y48456D01*
X144165D01*
Y48692D01*
X143929D01*
Y49163D01*
X143694D01*
Y49398D01*
X143458D01*
Y49634D01*
X143222D01*
Y49870D01*
X142987D01*
Y50106D01*
X142751D01*
Y50341D01*
X142515D01*
Y50577D01*
X142280D01*
Y50812D01*
X142044D01*
Y51284D01*
X141808D01*
Y51519D01*
X141573D01*
Y51755D01*
X141337D01*
Y51991D01*
X141102D01*
Y52226D01*
X140866D01*
Y52462D01*
X140630D01*
Y52698D01*
X140394D01*
Y52933D01*
X140159D01*
Y53169D01*
X139923D01*
Y53404D01*
X139688D01*
Y53640D01*
X139452D01*
Y54111D01*
X139216D01*
Y54347D01*
X138981D01*
Y54583D01*
X138745D01*
Y54818D01*
X138509D01*
Y55054D01*
X138274D01*
Y55290D01*
X138038D01*
Y55761D01*
X137802D01*
Y55997D01*
X137567D01*
Y56232D01*
X137331D01*
Y56704D01*
X137095D01*
Y56939D01*
X136860D01*
Y57175D01*
X136624D01*
Y57410D01*
X136389D01*
Y57646D01*
X136153D01*
Y57882D01*
X135917D01*
Y58117D01*
X135682D01*
Y58589D01*
X135446D01*
Y58824D01*
X135210D01*
Y59060D01*
X134975D01*
Y59296D01*
X134739D01*
Y59531D01*
X134503D01*
Y59767D01*
X134268D01*
Y60002D01*
X134032D01*
Y60474D01*
X133797D01*
Y60710D01*
X133561D01*
Y60945D01*
X133325D01*
Y61181D01*
X133090D01*
Y61416D01*
X132854D01*
Y61181D01*
X132618D01*
Y60945D01*
X132854D01*
Y60474D01*
X133090D01*
Y60238D01*
X133325D01*
Y60002D01*
X133561D01*
Y59767D01*
X133797D01*
Y59531D01*
X134032D01*
Y59060D01*
X134268D01*
Y58353D01*
X134503D01*
Y56939D01*
X134739D01*
Y56704D01*
X134975D01*
Y56468D01*
X135210D01*
Y56232D01*
X135446D01*
Y55997D01*
X135682D01*
Y55761D01*
X135917D01*
Y55290D01*
X136153D01*
Y54583D01*
X136389D01*
Y52933D01*
X136860D01*
Y52698D01*
X137095D01*
Y52462D01*
X137331D01*
Y52226D01*
X137567D01*
Y51991D01*
X137802D01*
Y51519D01*
X138038D01*
Y51284D01*
X138274D01*
Y50812D01*
X138509D01*
Y50341D01*
X138745D01*
Y48927D01*
X138981D01*
Y48692D01*
X139216D01*
Y48456D01*
X139452D01*
Y48220D01*
X139688D01*
Y47985D01*
X139923D01*
Y47513D01*
X140159D01*
Y47278D01*
X140394D01*
Y46806D01*
X140630D01*
Y46100D01*
X140866D01*
Y45157D01*
X141102D01*
Y44921D01*
X141337D01*
Y44686D01*
X141573D01*
Y44450D01*
X140866D01*
Y44686D01*
X140630D01*
Y44921D01*
X139688D01*
Y45157D01*
X138274D01*
Y44921D01*
X137802D01*
Y44686D01*
X137567D01*
Y44450D01*
X135917D01*
Y44686D01*
X135682D01*
Y44921D01*
X135446D01*
Y45157D01*
X135210D01*
Y45393D01*
X134739D01*
Y45628D01*
X134268D01*
Y44450D01*
X134032D01*
Y44921D01*
X133797D01*
Y45157D01*
X133561D01*
Y45393D01*
X133090D01*
Y45628D01*
X132854D01*
Y45864D01*
X132618D01*
Y46100D01*
X132383D01*
Y46335D01*
X132147D01*
Y46571D01*
X131676D01*
Y46806D01*
X131440D01*
Y47042D01*
X131204D01*
Y47278D01*
X130969D01*
Y47513D01*
X130733D01*
Y47749D01*
X130262D01*
Y47985D01*
X130026D01*
Y48220D01*
X129790D01*
Y48456D01*
X129319D01*
Y48692D01*
X128848D01*
Y48927D01*
X128612D01*
Y49163D01*
X128141D01*
Y49398D01*
X127670D01*
Y49634D01*
X127198D01*
Y49870D01*
X126727D01*
Y50106D01*
X126491D01*
Y50341D01*
X126020D01*
Y50577D01*
X125785D01*
Y50812D01*
X125313D01*
Y51048D01*
X124842D01*
Y51284D01*
X124606D01*
Y51519D01*
X124371D01*
Y51755D01*
X124135D01*
Y51991D01*
X123664D01*
Y52226D01*
X123428D01*
Y52462D01*
X123193D01*
Y52698D01*
X122957D01*
Y52933D01*
X122486D01*
Y53169D01*
X122250D01*
Y53404D01*
X121779D01*
Y53640D01*
X121307D01*
Y53876D01*
X121072D01*
Y54111D01*
X120600D01*
Y54347D01*
X120365D01*
Y54583D01*
X120129D01*
Y54818D01*
X119658D01*
Y55054D01*
X119422D01*
Y55290D01*
X119186D01*
Y55525D01*
X118715D01*
Y55761D01*
X118480D01*
Y55997D01*
X118008D01*
Y56232D01*
X117537D01*
Y56468D01*
X117301D01*
Y56704D01*
X116830D01*
Y56939D01*
X116359D01*
Y57175D01*
X115887D01*
Y57410D01*
X115652D01*
Y57646D01*
X115181D01*
Y57882D01*
X114945D01*
Y58117D01*
X114474D01*
Y58353D01*
X114238D01*
Y58589D01*
X113767D01*
Y58824D01*
X113531D01*
Y59060D01*
X113295D01*
Y59296D01*
X113060D01*
Y59531D01*
X112589D01*
Y59767D01*
X112353D01*
Y60002D01*
X112117D01*
Y60238D01*
X111882D01*
Y60474D01*
X111646D01*
Y60710D01*
X111175D01*
Y60945D01*
X110939D01*
Y61181D01*
X110703D01*
Y61416D01*
X110232D01*
Y61652D01*
X109996D01*
Y61888D01*
X109761D01*
Y62123D01*
X109289D01*
Y62359D01*
X109054D01*
Y62595D01*
X108582D01*
Y62830D01*
X108347D01*
Y63066D01*
X107876D01*
Y63302D01*
X107404D01*
Y63537D01*
X107169D01*
Y63773D01*
X106697D01*
Y64008D01*
X106226D01*
Y64244D01*
X105755D01*
Y64480D01*
X105519D01*
Y64715D01*
X105048D01*
Y64951D01*
X104812D01*
Y65187D01*
X104341D01*
Y65422D01*
X104105D01*
Y65658D01*
X103634D01*
Y65894D01*
X103398D01*
Y66129D01*
X102927D01*
Y66365D01*
X102691D01*
Y66601D01*
X102456D01*
Y66836D01*
X102220D01*
Y67072D01*
X101749D01*
Y67308D01*
X101513D01*
Y67543D01*
X101278D01*
Y67779D01*
X101042D01*
Y68014D01*
X100806D01*
Y68250D01*
X100335D01*
Y68486D01*
X100099D01*
Y68721D01*
X99157D01*
Y68957D01*
X98450D01*
Y69193D01*
X97743D01*
Y69428D01*
X97036D01*
Y69664D01*
X96565D01*
Y69900D01*
X96093D01*
Y70135D01*
X95386D01*
Y70371D01*
X94915D01*
Y70606D01*
X94444D01*
Y70842D01*
X93973D01*
Y71078D01*
X93501D01*
Y71314D01*
X93266D01*
Y71549D01*
X92794D01*
Y71785D01*
X92559D01*
Y72020D01*
X92323D01*
Y72256D01*
X92087D01*
Y72492D01*
X91852D01*
Y72963D01*
X91616D01*
Y73199D01*
X91381D01*
Y73906D01*
X91145D01*
Y76262D01*
X91381D01*
Y76969D01*
X90438D01*
Y77205D01*
X88081D01*
Y77440D01*
X86432D01*
Y77676D01*
X84782D01*
Y77912D01*
X83604D01*
Y78147D01*
X82426D01*
Y78383D01*
X81483D01*
Y78618D01*
X80541D01*
Y78854D01*
X79598D01*
Y79090D01*
X78656D01*
Y79325D01*
X77949D01*
Y79561D01*
X77006D01*
Y79797D01*
X76064D01*
Y80032D01*
X75357D01*
Y80268D01*
X74414D01*
Y80504D01*
X73707D01*
Y80739D01*
X73000D01*
Y80975D01*
X72058D01*
Y81211D01*
X71351D01*
Y81446D01*
X70408D01*
Y81682D01*
X69701D01*
Y81917D01*
X68759D01*
Y82153D01*
X68052D01*
Y82389D01*
X67345D01*
Y82624D01*
X66873D01*
Y82860D01*
X66638D01*
Y83096D01*
X66402D01*
Y83803D01*
X66638D01*
Y84038D01*
X66873D01*
Y84274D01*
X67345D01*
Y84510D01*
X67580D01*
Y84745D01*
X68052D01*
Y84981D01*
X68523D01*
Y85217D01*
X68994D01*
Y85452D01*
X69230D01*
Y85688D01*
X69701D01*
Y85923D01*
X70173D01*
Y86159D01*
X70644D01*
Y86395D01*
X71115D01*
Y86630D01*
X71586D01*
Y86866D01*
X71822D01*
Y87102D01*
X72293D01*
Y87337D01*
X72765D01*
Y87573D01*
X73236D01*
Y87809D01*
X73707D01*
Y88044D01*
X73943D01*
Y88280D01*
X74414D01*
Y88516D01*
X74885D01*
Y88751D01*
X75121D01*
Y88987D01*
X75592D01*
Y89222D01*
X76064D01*
Y89458D01*
X76535D01*
Y89694D01*
X76771D01*
Y89929D01*
X77242D01*
Y90165D01*
X77713D01*
Y90401D01*
X77949D01*
Y90636D01*
X78420D01*
Y90872D01*
X78891D01*
Y91108D01*
X79127D01*
Y91343D01*
X79598D01*
Y91579D01*
X80070D01*
Y91814D01*
X80541D01*
Y92050D01*
X80777D01*
Y92286D01*
X81248D01*
Y92521D01*
X81719D01*
Y92757D01*
X81955D01*
Y92993D01*
X82426D01*
Y93228D01*
X82190D01*
Y93464D01*
X81483D01*
Y93700D01*
X81012D01*
Y93935D01*
X80070D01*
Y93700D01*
X79363D01*
Y93464D01*
X78656D01*
Y93228D01*
X78184D01*
Y92993D01*
X77477D01*
Y92757D01*
X77006D01*
Y92521D01*
X76535D01*
Y92286D01*
X76064D01*
Y92050D01*
X75592D01*
Y91814D01*
X75121D01*
Y91579D01*
X74650D01*
Y91343D01*
X73943D01*
Y91108D01*
X73471D01*
Y90872D01*
X73000D01*
Y90636D01*
X72293D01*
Y90401D01*
X71822D01*
Y90165D01*
X71115D01*
Y89929D01*
X70644D01*
Y89694D01*
X69937D01*
Y89458D01*
X69465D01*
Y89222D01*
X68759D01*
Y88987D01*
X68287D01*
Y88751D01*
X67580D01*
Y88516D01*
X66873D01*
Y88280D01*
X66402D01*
Y88044D01*
X65931D01*
Y87809D01*
X65460D01*
Y87573D01*
X64988D01*
Y87337D01*
X64517D01*
Y87102D01*
X64046D01*
Y86866D01*
X63574D01*
Y86630D01*
X63103D01*
Y86395D01*
X62632D01*
Y86159D01*
X62396D01*
Y85923D01*
X61925D01*
Y85688D01*
X61689D01*
Y85452D01*
X61454D01*
Y85217D01*
X61218D01*
Y84981D01*
X60747D01*
Y84745D01*
X60511D01*
Y84510D01*
X60275D01*
Y84274D01*
X60040D01*
Y84038D01*
X59804D01*
Y83803D01*
X59569D01*
Y83567D01*
X59333D01*
Y83331D01*
X58861D01*
Y83096D01*
X58626D01*
Y82860D01*
X58390D01*
Y82624D01*
X58155D01*
Y82389D01*
X57919D01*
Y82153D01*
X57683D01*
Y81917D01*
X57448D01*
Y81682D01*
X57212D01*
Y81211D01*
X56976D01*
Y80975D01*
X56741D01*
Y80739D01*
X56505D01*
Y80504D01*
X56269D01*
Y80268D01*
X56034D01*
Y80032D01*
X55798D01*
Y79561D01*
X55563D01*
Y79325D01*
X55327D01*
Y79090D01*
X54856D01*
Y78854D01*
X54620D01*
Y78618D01*
X54384D01*
Y78383D01*
X54149D01*
Y78147D01*
X53913D01*
Y77912D01*
X53677D01*
Y77676D01*
X53442D01*
Y77440D01*
X53206D01*
Y77205D01*
X52970D01*
Y76969D01*
X52735D01*
Y76733D01*
X52499D01*
Y76498D01*
X52263D01*
Y76262D01*
X52028D01*
Y76026D01*
X51792D01*
Y75791D01*
X51557D01*
Y75555D01*
X51321D01*
Y75319D01*
X51085D01*
Y75084D01*
X50850D01*
Y74848D01*
X50614D01*
Y74612D01*
X50378D01*
Y74377D01*
X50143D01*
Y74141D01*
X49907D01*
Y73906D01*
X49671D01*
Y73670D01*
X49436D01*
Y73434D01*
X49200D01*
Y73199D01*
X48964D01*
Y72963D01*
X48729D01*
Y72727D01*
X48493D01*
Y72492D01*
X48257D01*
Y72020D01*
X48022D01*
Y71785D01*
X47786D01*
Y71549D01*
X47551D01*
Y71314D01*
X47315D01*
Y71078D01*
X47079D01*
Y70842D01*
X46844D01*
Y70606D01*
X46608D01*
Y70135D01*
X46372D01*
Y69900D01*
X46137D01*
Y69664D01*
X45901D01*
Y69428D01*
X45665D01*
Y69193D01*
X45430D01*
Y68721D01*
X45194D01*
Y68486D01*
X44959D01*
Y68250D01*
X44723D01*
Y68014D01*
X44487D01*
Y67779D01*
X44252D01*
Y67308D01*
X44016D01*
Y67072D01*
X43780D01*
Y66601D01*
X43545D01*
Y66365D01*
X43309D01*
Y65894D01*
X43073D01*
Y65658D01*
X42838D01*
Y65187D01*
X42602D01*
Y64715D01*
X42366D01*
Y64480D01*
X42131D01*
Y64008D01*
X41895D01*
Y63537D01*
X41659D01*
Y63066D01*
X41424D01*
Y62595D01*
X41188D01*
Y62123D01*
X40953D01*
Y61652D01*
X40717D01*
Y61181D01*
X40481D01*
Y60945D01*
X40246D01*
Y60474D01*
X40010D01*
Y60002D01*
X39774D01*
Y59531D01*
X39539D01*
Y59296D01*
X39303D01*
Y58824D01*
X39067D01*
Y58353D01*
X38832D01*
Y57882D01*
X38596D01*
Y57646D01*
X38361D01*
Y57175D01*
X38125D01*
Y56704D01*
X37889D01*
Y56468D01*
X37654D01*
Y55997D01*
X37418D01*
Y55525D01*
X37182D01*
Y55054D01*
X36947D01*
Y54583D01*
X36711D01*
Y54111D01*
X36475D01*
Y53640D01*
X36240D01*
Y53169D01*
X36004D01*
Y52698D01*
X35768D01*
Y52226D01*
X35533D01*
Y51755D01*
X35297D01*
Y51284D01*
X35061D01*
Y50812D01*
X34826D01*
Y50577D01*
X34590D01*
Y50106D01*
X34355D01*
Y49634D01*
X34119D01*
Y49163D01*
X33883D01*
Y48927D01*
X33648D01*
Y48456D01*
X33412D01*
Y47749D01*
X33176D01*
Y47278D01*
X32941D01*
Y46806D01*
X32705D01*
Y46335D01*
X32469D01*
Y45628D01*
X32234D01*
Y45157D01*
X31998D01*
Y44686D01*
X31762D01*
Y44450D01*
X31056D01*
Y44921D01*
X31291D01*
Y45864D01*
X31527D01*
Y46571D01*
X31762D01*
Y47042D01*
X31998D01*
Y47513D01*
X32234D01*
Y47985D01*
X32469D01*
Y48456D01*
X32705D01*
Y48927D01*
X32941D01*
Y49398D01*
X33176D01*
Y49870D01*
X33412D01*
Y50341D01*
X33648D01*
Y50812D01*
X33883D01*
Y51284D01*
X34119D01*
Y51755D01*
X34355D01*
Y52226D01*
X34590D01*
Y52698D01*
X34826D01*
Y53169D01*
X35061D01*
Y53640D01*
X35297D01*
Y54111D01*
X35533D01*
Y54583D01*
X35768D01*
Y54818D01*
X36004D01*
Y55290D01*
X36240D01*
Y55761D01*
X36475D01*
Y56232D01*
X36711D01*
Y56704D01*
X36947D01*
Y56939D01*
X37182D01*
Y57410D01*
X37418D01*
Y57882D01*
X37654D01*
Y58353D01*
X37889D01*
Y58589D01*
X38125D01*
Y59060D01*
X38361D01*
Y59531D01*
X38596D01*
Y60002D01*
X38832D01*
Y60474D01*
X39067D01*
Y60710D01*
X39303D01*
Y61181D01*
X39539D01*
Y61652D01*
X39774D01*
Y62123D01*
X40010D01*
Y62595D01*
X40246D01*
Y63066D01*
X40481D01*
Y63537D01*
X40717D01*
Y63773D01*
X40953D01*
Y64244D01*
X41188D01*
Y64715D01*
X41424D01*
Y64951D01*
X41659D01*
Y65422D01*
X41895D01*
Y65894D01*
X42131D01*
Y66129D01*
X42366D01*
Y66601D01*
X42602D01*
Y66836D01*
X42838D01*
Y67308D01*
X43073D01*
Y67779D01*
X43309D01*
Y68014D01*
X43545D01*
Y68250D01*
X43780D01*
Y68721D01*
X44016D01*
Y68957D01*
X44252D01*
Y69428D01*
X44487D01*
Y69664D01*
X44723D01*
Y69900D01*
X44959D01*
Y70135D01*
X45194D01*
Y70606D01*
X45430D01*
Y70842D01*
X45665D01*
Y71078D01*
X45901D01*
Y71314D01*
X46137D01*
Y71549D01*
X46372D01*
Y71785D01*
X46608D01*
Y72020D01*
X46844D01*
Y72256D01*
X47079D01*
Y72492D01*
X47315D01*
Y72727D01*
X47551D01*
Y72963D01*
X47786D01*
Y73199D01*
X48022D01*
Y73670D01*
X48257D01*
Y73906D01*
X48493D01*
Y74141D01*
X48729D01*
Y74377D01*
X48964D01*
Y74612D01*
X49200D01*
Y74848D01*
X49436D01*
Y75084D01*
X49671D01*
Y75319D01*
X49907D01*
Y75555D01*
X50143D01*
Y75791D01*
X50378D01*
Y76026D01*
X50614D01*
Y76262D01*
X50850D01*
Y76498D01*
X51085D01*
Y76733D01*
X51321D01*
Y76969D01*
X51792D01*
Y77205D01*
X52028D01*
Y77440D01*
X52263D01*
Y77912D01*
X52499D01*
Y78147D01*
X52735D01*
Y78383D01*
X52970D01*
Y78618D01*
X53206D01*
Y78854D01*
X53442D01*
Y79090D01*
X53677D01*
Y79325D01*
X53913D01*
Y79561D01*
X54149D01*
Y79797D01*
X54384D01*
Y80032D01*
X54620D01*
Y80268D01*
X54856D01*
Y80504D01*
X55091D01*
Y80739D01*
X55327D01*
Y80975D01*
X55563D01*
Y81211D01*
X55798D01*
Y81446D01*
X56034D01*
Y81682D01*
X56269D01*
Y81917D01*
X56505D01*
Y82153D01*
X56741D01*
Y82389D01*
X56976D01*
Y82624D01*
X57212D01*
Y82860D01*
X57448D01*
Y83096D01*
X57683D01*
Y83331D01*
X57919D01*
Y83567D01*
X58155D01*
Y83803D01*
X58390D01*
Y84038D01*
X58626D01*
Y84274D01*
X58861D01*
Y84510D01*
X59097D01*
Y84745D01*
X59333D01*
Y84981D01*
X59569D01*
Y85217D01*
X59804D01*
Y85452D01*
X60040D01*
Y85688D01*
X60275D01*
Y85923D01*
X60511D01*
Y86159D01*
X60982D01*
Y86395D01*
X61218D01*
Y86630D01*
X61689D01*
Y86866D01*
X62161D01*
Y87102D01*
X62396D01*
Y87337D01*
X62867D01*
Y87573D01*
X63339D01*
Y87809D01*
X63810D01*
Y88044D01*
X64281D01*
Y88280D01*
X64753D01*
Y88516D01*
X65224D01*
Y88751D01*
X65695D01*
Y88987D01*
X66167D01*
Y89222D01*
X66873D01*
Y89458D01*
X67345D01*
Y89694D01*
X67816D01*
Y89929D01*
X68523D01*
Y90165D01*
X68994D01*
Y90401D01*
X69701D01*
Y90636D01*
X70173D01*
Y90872D01*
X70879D01*
Y91108D01*
X71351D01*
Y91343D01*
X72058D01*
Y91579D01*
X72765D01*
Y91814D01*
X73236D01*
Y92050D01*
X73707D01*
Y92286D01*
X74414D01*
Y92521D01*
X74885D01*
Y92757D01*
X75357D01*
Y92993D01*
X75828D01*
Y93228D01*
X76535D01*
Y93464D01*
X77006D01*
Y93700D01*
X77477D01*
Y93935D01*
X77949D01*
Y94171D01*
X78656D01*
Y94407D01*
X79127D01*
Y94642D01*
X78891D01*
Y94878D01*
X78656D01*
Y95114D01*
X78184D01*
Y95349D01*
X77949D01*
Y95585D01*
X77713D01*
Y95821D01*
X77242D01*
Y96056D01*
X77006D01*
Y96292D01*
X76535D01*
Y96527D01*
X76299D01*
Y96763D01*
X75828D01*
Y96999D01*
X75592D01*
Y97234D01*
X75121D01*
Y97470D01*
X74885D01*
Y97706D01*
X74414D01*
Y97941D01*
X73943D01*
Y98177D01*
X73707D01*
Y98413D01*
X73471D01*
Y98648D01*
X73000D01*
Y98884D01*
X72765D01*
Y99120D01*
X72529D01*
Y99355D01*
X72293D01*
Y99591D01*
X72058D01*
Y99826D01*
X71822D01*
Y100062D01*
X71586D01*
Y100298D01*
X71351D01*
Y100533D01*
X71115D01*
Y100769D01*
X70879D01*
Y101005D01*
X70644D01*
Y101240D01*
X70408D01*
Y101476D01*
X70173D01*
Y101712D01*
X69937D01*
Y101947D01*
X69701D01*
Y102419D01*
X69465D01*
Y102654D01*
X69230D01*
Y102890D01*
X68994D01*
Y103125D01*
X68759D01*
Y103361D01*
X68523D01*
Y103832D01*
X68287D01*
Y104068D01*
X68052D01*
Y104304D01*
X67816D01*
Y104775D01*
X67580D01*
Y105011D01*
X67345D01*
Y105246D01*
X67109D01*
Y105718D01*
X66873D01*
Y105953D01*
X66638D01*
Y106425D01*
X66402D01*
Y106660D01*
X66167D01*
Y107131D01*
X65931D01*
Y107367D01*
X65695D01*
Y107838D01*
X65460D01*
Y108310D01*
X65224D01*
Y108781D01*
X64988D01*
Y109252D01*
X64753D01*
Y109488D01*
X64517D01*
Y109959D01*
X64281D01*
Y110430D01*
X64046D01*
Y111137D01*
X63810D01*
Y111609D01*
X63574D01*
Y112316D01*
X63339D01*
Y112787D01*
X63103D01*
Y113494D01*
X62867D01*
Y114201D01*
X62632D01*
Y114908D01*
X62396D01*
Y115615D01*
X62161D01*
Y116322D01*
X61925D01*
Y117029D01*
X61689D01*
Y117736D01*
X61454D01*
Y118678D01*
X61218D01*
Y119385D01*
X60982D01*
Y120328D01*
X60747D01*
Y121270D01*
X60511D01*
Y122213D01*
X60275D01*
Y123155D01*
X60040D01*
Y123862D01*
X59804D01*
Y125040D01*
X59569D01*
Y125747D01*
X59333D01*
Y127161D01*
X59097D01*
Y129046D01*
X58861D01*
Y131638D01*
X58626D01*
Y133759D01*
X58390D01*
Y136351D01*
X58155D01*
Y140593D01*
X57919D01*
Y145541D01*
X57683D01*
Y151197D01*
X57448D01*
Y155439D01*
X57212D01*
Y161330D01*
X57448D01*
Y170049D01*
X57683D01*
Y172876D01*
X57919D01*
Y175233D01*
X58155D01*
Y177825D01*
X58390D01*
Y179474D01*
X58626D01*
Y181360D01*
X58861D01*
Y183009D01*
X59097D01*
Y184423D01*
X59333D01*
Y186072D01*
X59569D01*
Y187251D01*
X59804D01*
Y188429D01*
X60040D01*
Y189607D01*
X60275D01*
Y190550D01*
X60511D01*
Y191492D01*
X60747D01*
Y192670D01*
X60982D01*
Y193849D01*
X61218D01*
Y194556D01*
X61454D01*
Y195263D01*
X61689D01*
Y195969D01*
X61925D01*
Y196676D01*
X62161D01*
Y197148D01*
X62396D01*
Y197855D01*
X62632D01*
Y198326D01*
X62867D01*
Y198797D01*
X63103D01*
Y199268D01*
X63339D01*
Y199740D01*
X63574D01*
Y199975D01*
X63810D01*
Y200447D01*
X64046D01*
Y200918D01*
X64281D01*
Y201389D01*
X64517D01*
Y201861D01*
X64753D01*
Y202332D01*
X64988D01*
Y202568D01*
X65224D01*
Y203039D01*
X65460D01*
Y203510D01*
X65695D01*
Y203981D01*
X65931D01*
Y204453D01*
X66167D01*
Y204924D01*
X66402D01*
Y205395D01*
X66638D01*
Y206102D01*
X66873D01*
Y206573D01*
X67109D01*
Y207045D01*
X67345D01*
Y207516D01*
X67580D01*
Y208223D01*
X67816D01*
Y208694D01*
X68052D01*
Y209165D01*
X68287D01*
Y209637D01*
X68523D01*
Y210344D01*
X68759D01*
Y210815D01*
X68994D01*
Y211286D01*
X69230D01*
Y211758D01*
X69465D01*
Y212465D01*
X69701D01*
Y212936D01*
X69937D01*
Y213407D01*
X70173D01*
Y213878D01*
X70408D01*
Y214114D01*
X70644D01*
Y214585D01*
X70879D01*
Y214821D01*
X71115D01*
Y215292D01*
X71351D01*
Y215528D01*
X71586D01*
Y215999D01*
X71822D01*
Y216235D01*
X72058D01*
Y216706D01*
X72293D01*
Y217177D01*
X72529D01*
Y217413D01*
X72765D01*
Y217884D01*
X73000D01*
Y218120D01*
X73236D01*
Y218591D01*
X73471D01*
Y219063D01*
X73707D01*
Y219298D01*
X73943D01*
Y219769D01*
X74178D01*
Y220005D01*
X74414D01*
Y220476D01*
X74650D01*
Y220712D01*
X74885D01*
Y221183D01*
X75121D01*
Y221419D01*
X75357D01*
Y221890D01*
X75592D01*
Y222126D01*
X75828D01*
Y222362D01*
X76064D01*
Y222597D01*
X76299D01*
Y223069D01*
X76535D01*
Y223304D01*
X76771D01*
Y223540D01*
X77006D01*
Y224011D01*
X77242D01*
Y224247D01*
X77477D01*
Y224482D01*
X77713D01*
Y224718D01*
X77949D01*
Y225189D01*
X78184D01*
Y225425D01*
X78420D01*
Y225661D01*
X78656D01*
Y226132D01*
X78891D01*
Y226368D01*
X79127D01*
Y226603D01*
X79363D01*
Y227075D01*
X79598D01*
Y227310D01*
X79834D01*
Y227546D01*
X80070D01*
Y227781D01*
X80305D01*
Y228017D01*
X80541D01*
Y228488D01*
X80777D01*
Y228724D01*
X81012D01*
Y228960D01*
X81483D01*
Y229195D01*
X81719D01*
Y229431D01*
X81955D01*
Y229667D01*
X82190D01*
Y229902D01*
X82426D01*
Y230138D01*
X82662D01*
Y230373D01*
X82897D01*
Y230609D01*
X83133D01*
Y230845D01*
X83369D01*
Y231080D01*
X83604D01*
Y231316D01*
X83840D01*
Y231552D01*
X84075D01*
Y231787D01*
X84547D01*
Y232023D01*
X84782D01*
Y232259D01*
X85018D01*
Y232494D01*
X85254D01*
Y232730D01*
X85489D01*
Y232966D01*
X85725D01*
Y233201D01*
X86196D01*
Y233437D01*
X86432D01*
Y233673D01*
X86668D01*
Y233908D01*
X87139D01*
Y234144D01*
X87374D01*
Y234380D01*
X87610D01*
Y234615D01*
X88081D01*
Y234851D01*
X88317D01*
Y235086D01*
X88553D01*
Y235322D01*
X88788D01*
Y235558D01*
X89024D01*
Y235793D01*
X89495D01*
Y236029D01*
X89731D01*
Y236265D01*
X89967D01*
Y236500D01*
X90202D01*
Y236736D01*
X90674D01*
Y236972D01*
X90909D01*
Y237207D01*
X91145D01*
Y237443D01*
X91381D01*
Y237679D01*
X91852D01*
Y237914D01*
X92087D01*
Y238150D01*
X92323D01*
Y238386D01*
X92794D01*
Y238621D01*
X93266D01*
Y238857D01*
X93501D01*
Y239092D01*
X93973D01*
Y239328D01*
X94444D01*
Y239564D01*
X94915D01*
Y239799D01*
X95151D01*
Y240035D01*
X95622D01*
Y240271D01*
X96093D01*
Y240506D01*
X96565D01*
Y240742D01*
X96800D01*
Y240977D01*
X97272D01*
Y241213D01*
X97743D01*
Y241449D01*
X98214D01*
Y241684D01*
X98450D01*
Y241920D01*
X98921D01*
Y242156D01*
X99392D01*
Y242391D01*
X99864D01*
Y242627D01*
X100099D01*
Y242863D01*
X100571D01*
Y243098D01*
X101042D01*
Y243334D01*
X101513D01*
Y243570D01*
X101749D01*
Y243805D01*
X102220D01*
Y244041D01*
X102691D01*
Y244277D01*
X103163D01*
Y244512D01*
X103634D01*
Y244748D01*
X104105D01*
Y244984D01*
X104577D01*
Y245219D01*
X105048D01*
Y245455D01*
X105519D01*
Y245690D01*
X105990D01*
Y245926D01*
X106462D01*
Y246162D01*
X107169D01*
Y246397D01*
X107640D01*
Y246633D01*
X108111D01*
Y246869D01*
X108818D01*
Y247104D01*
X109289D01*
Y247340D01*
X109761D01*
Y247576D01*
X110468D01*
Y247811D01*
X111175D01*
Y248047D01*
X111646D01*
Y248283D01*
X112353D01*
Y248518D01*
X113060D01*
Y248754D01*
X113767D01*
Y248989D01*
X114474D01*
Y249225D01*
X115181D01*
Y249461D01*
X115652D01*
Y249696D01*
X116359D01*
Y249932D01*
X117066D01*
Y250168D01*
X117537D01*
Y250403D01*
X118480D01*
Y250639D01*
X119422D01*
Y250875D01*
X120600D01*
Y251110D01*
X121543D01*
Y251346D01*
X122957D01*
Y251581D01*
X124606D01*
Y251817D01*
X126727D01*
Y252053D01*
X136389D01*
Y251817D01*
D02*
G37*
G36*
X254211Y57175D02*
X254447D01*
Y56939D01*
X254682D01*
Y56704D01*
X255153D01*
Y56232D01*
X255389D01*
Y55997D01*
X255153D01*
Y56232D01*
X254918D01*
Y55761D01*
X254682D01*
Y56232D01*
X254447D01*
Y56468D01*
X254211D01*
Y57175D01*
X253975D01*
Y57410D01*
X254211D01*
Y57175D01*
D02*
G37*
G36*
X255625Y55525D02*
X255389D01*
Y55761D01*
X255625D01*
Y55525D01*
D02*
G37*
G36*
X255153Y55290D02*
X255389D01*
Y55054D01*
X255153D01*
Y55290D01*
X254918D01*
Y55525D01*
X255153D01*
Y55290D01*
D02*
G37*
G36*
X255860Y55054D02*
X256096D01*
Y54583D01*
X256332D01*
Y54347D01*
X256567D01*
Y53876D01*
X256803D01*
Y53169D01*
X257039D01*
Y52698D01*
X257274D01*
Y52226D01*
X257510D01*
Y51755D01*
X257745D01*
Y51284D01*
X257981D01*
Y50812D01*
X258217D01*
Y50341D01*
X258452D01*
Y49870D01*
X258688D01*
Y49398D01*
X258924D01*
Y48927D01*
X259159D01*
Y48220D01*
X259395D01*
Y47749D01*
X259631D01*
Y47042D01*
X259866D01*
Y46571D01*
X260102D01*
Y45864D01*
X260338D01*
Y45393D01*
X260573D01*
Y44686D01*
X260809D01*
Y44450D01*
X259866D01*
Y44921D01*
X259631D01*
Y45393D01*
X259395D01*
Y45864D01*
X259159D01*
Y46571D01*
X258924D01*
Y47042D01*
X258688D01*
Y47513D01*
X258452D01*
Y47985D01*
X258217D01*
Y48692D01*
X257981D01*
Y49163D01*
X257745D01*
Y49634D01*
X257510D01*
Y50106D01*
X257274D01*
Y50577D01*
X257039D01*
Y51048D01*
X256803D01*
Y51519D01*
X256567D01*
Y51991D01*
X256332D01*
Y52462D01*
X256096D01*
Y52933D01*
X255860D01*
Y53169D01*
Y53404D01*
X255625D01*
Y53876D01*
X255389D01*
Y54583D01*
X255625D01*
Y55290D01*
X255860D01*
Y55054D01*
D02*
G37*
%LPC*%
G36*
X142280Y176411D02*
X140630D01*
Y176175D01*
X139923D01*
Y175940D01*
X137802D01*
Y176175D01*
X136860D01*
Y175940D01*
X136389D01*
Y175704D01*
X135917D01*
Y175468D01*
X134739D01*
Y175233D01*
X133561D01*
Y175468D01*
X131911D01*
Y175233D01*
X131440D01*
Y174997D01*
X130969D01*
Y174761D01*
X130733D01*
Y174526D01*
X130262D01*
Y174290D01*
X129790D01*
Y174055D01*
X129319D01*
Y173819D01*
X128141D01*
Y173583D01*
X127198D01*
Y173819D01*
X126020D01*
Y173583D01*
X125785D01*
Y173348D01*
X125549D01*
Y173112D01*
X125313D01*
Y172876D01*
X125078D01*
Y172641D01*
X124606D01*
Y172405D01*
X124371D01*
Y172169D01*
X123899D01*
Y171934D01*
X123664D01*
Y171462D01*
X123428D01*
Y170991D01*
X123193D01*
Y170520D01*
X122957D01*
Y170049D01*
X122721D01*
Y169813D01*
X122486D01*
Y169577D01*
X122250D01*
Y169106D01*
X122014D01*
Y168870D01*
X121543D01*
Y168635D01*
X121307D01*
Y168163D01*
X121072D01*
Y166278D01*
X121307D01*
Y164864D01*
X121072D01*
Y164629D01*
Y164157D01*
X120836D01*
Y163686D01*
X120600D01*
Y163215D01*
X120365D01*
Y162744D01*
X120129D01*
Y162272D01*
X119894D01*
Y161330D01*
X121779D01*
Y161565D01*
X122014D01*
Y162272D01*
X122250D01*
Y162508D01*
X122486D01*
Y162744D01*
X122721D01*
Y162979D01*
X122957D01*
Y163215D01*
X123428D01*
Y163451D01*
X124135D01*
Y163686D01*
X124842D01*
Y163922D01*
X125785D01*
Y164157D01*
X127198D01*
Y164393D01*
X128848D01*
Y164629D01*
X131204D01*
Y164864D01*
X137567D01*
Y164629D01*
X139452D01*
Y164393D01*
X141102D01*
Y164157D01*
X142280D01*
Y163922D01*
X143222D01*
Y163686D01*
X143929D01*
Y163451D01*
X144636D01*
Y163215D01*
X145107D01*
Y162979D01*
X145579D01*
Y162744D01*
X145814D01*
Y162508D01*
X146050D01*
Y162037D01*
X146286D01*
Y161330D01*
X146521D01*
Y161094D01*
X146757D01*
Y161330D01*
X147464D01*
Y161565D01*
X148406D01*
Y161801D01*
X152884D01*
Y161565D01*
X154062D01*
Y161330D01*
X154533D01*
Y161094D01*
X154769D01*
Y161330D01*
X155005D01*
Y162272D01*
X155240D01*
Y162744D01*
X155476D01*
Y162979D01*
X155711D01*
Y163215D01*
X155947D01*
Y163451D01*
X156654D01*
Y163686D01*
X157125D01*
Y163922D01*
X158068D01*
Y164157D01*
X159010D01*
Y164393D01*
X160189D01*
Y164629D01*
X161602D01*
Y164864D01*
X163488D01*
Y165100D01*
X172913D01*
Y164864D01*
X174563D01*
Y164629D01*
X175741D01*
Y164393D01*
X176684D01*
Y164157D01*
X177391D01*
Y163922D01*
X178098D01*
Y163686D01*
X178333D01*
Y163451D01*
X178805D01*
Y162979D01*
X179040D01*
Y162508D01*
X179276D01*
Y162037D01*
X179512D01*
Y161801D01*
X179747D01*
Y162037D01*
X180925D01*
Y162744D01*
X180690D01*
Y163451D01*
X180454D01*
Y164157D01*
X180219D01*
Y165100D01*
X179983D01*
Y167456D01*
X179747D01*
Y167928D01*
X179512D01*
Y168399D01*
X179276D01*
Y169106D01*
X179040D01*
Y169813D01*
X178805D01*
Y172169D01*
X178569D01*
Y172405D01*
X178333D01*
Y172641D01*
X175506D01*
Y172876D01*
X174563D01*
Y173112D01*
X174092D01*
Y173348D01*
X173620D01*
Y173583D01*
X173149D01*
Y173348D01*
X170793D01*
Y173583D01*
X170086D01*
Y173819D01*
X166787D01*
Y174055D01*
X166080D01*
Y174290D01*
X165609D01*
Y174526D01*
X165373D01*
Y174761D01*
X164902D01*
Y174997D01*
X164430D01*
Y175233D01*
X164195D01*
Y175468D01*
X163723D01*
Y175704D01*
X163252D01*
Y175940D01*
X162545D01*
Y176175D01*
X160896D01*
Y175940D01*
X160189D01*
Y175704D01*
X158775D01*
Y175468D01*
X158539D01*
Y175704D01*
X157597D01*
Y175940D01*
X157125D01*
Y176175D01*
X155711D01*
Y175940D01*
X154533D01*
Y175704D01*
X154062D01*
Y175940D01*
X152884D01*
Y176175D01*
X150998D01*
Y175940D01*
X150527D01*
Y175704D01*
X150056D01*
Y175468D01*
X149349D01*
Y175233D01*
X147935D01*
Y175468D01*
X146993D01*
Y175704D01*
X143694D01*
Y175940D01*
X142751D01*
Y176175D01*
X142280D01*
Y176411D01*
D02*
G37*
G36*
X136153Y164393D02*
X135917D01*
Y164157D01*
X135446D01*
Y164393D01*
X132618D01*
Y164157D01*
X129319D01*
Y163922D01*
X127905D01*
Y163686D01*
X126491D01*
Y163451D01*
X125078D01*
Y163215D01*
X124135D01*
Y162979D01*
X123428D01*
Y162744D01*
X123193D01*
Y162508D01*
X122957D01*
Y162272D01*
X122721D01*
Y162037D01*
X122486D01*
Y159916D01*
X122250D01*
Y158502D01*
X122486D01*
Y156617D01*
X122721D01*
Y155674D01*
X122957D01*
Y154732D01*
X123193D01*
Y154025D01*
X123428D01*
Y153318D01*
X123664D01*
Y152846D01*
X123899D01*
Y152375D01*
X124135D01*
Y152140D01*
X124371D01*
Y151904D01*
X125078D01*
Y151668D01*
X125785D01*
Y151433D01*
X126963D01*
Y151197D01*
X128377D01*
Y150961D01*
X130733D01*
Y150726D01*
X136624D01*
Y150961D01*
X138745D01*
Y151197D01*
X140159D01*
Y151433D01*
X141573D01*
Y151668D01*
X142515D01*
Y151904D01*
X142987D01*
Y152140D01*
X143222D01*
Y152375D01*
X143458D01*
Y152611D01*
X143694D01*
Y152846D01*
X143929D01*
Y153318D01*
X144165D01*
Y153789D01*
X144401D01*
Y154496D01*
X144636D01*
Y155203D01*
X144872D01*
Y155910D01*
X145107D01*
Y157088D01*
X145343D01*
Y158266D01*
X145579D01*
Y159445D01*
X145814D01*
Y161565D01*
X145579D01*
Y162272D01*
X145343D01*
Y162508D01*
X145107D01*
Y162744D01*
X144636D01*
Y162979D01*
X143929D01*
Y163215D01*
X143222D01*
Y163451D01*
X142044D01*
Y163686D01*
X141102D01*
Y163922D01*
X139452D01*
Y164157D01*
X136153D01*
Y164393D01*
D02*
G37*
G36*
X171735Y164629D02*
X164902D01*
Y164393D01*
X162309D01*
Y164157D01*
X160424D01*
Y163922D01*
X159246D01*
Y163686D01*
X158068D01*
Y163451D01*
X157125D01*
Y163215D01*
X156654D01*
Y162979D01*
X156183D01*
Y162744D01*
X155947D01*
Y162508D01*
X155711D01*
Y162037D01*
X155476D01*
Y159209D01*
X155711D01*
Y158266D01*
X155947D01*
Y157324D01*
X156183D01*
Y156617D01*
X156418D01*
Y155910D01*
X156654D01*
Y155203D01*
X156890D01*
Y154496D01*
X157125D01*
Y153789D01*
X157361D01*
Y153318D01*
X157597D01*
Y152846D01*
X157832D01*
Y152611D01*
X158303D01*
Y152375D01*
X158775D01*
Y152140D01*
X159246D01*
Y151904D01*
X160424D01*
Y151668D01*
X161602D01*
Y151433D01*
X163016D01*
Y151197D01*
X166315D01*
Y150961D01*
X167729D01*
Y151197D01*
X172206D01*
Y151433D01*
X174092D01*
Y151668D01*
X175270D01*
Y151904D01*
X175977D01*
Y152140D01*
X176448D01*
Y152375D01*
X176919D01*
Y152611D01*
X177155D01*
Y152846D01*
X177391D01*
Y153318D01*
X177626D01*
Y153789D01*
X177862D01*
Y154260D01*
X178098D01*
Y154967D01*
X178333D01*
Y155910D01*
X178569D01*
Y157088D01*
X178805D01*
Y158738D01*
X179040D01*
Y160152D01*
X178805D01*
Y162744D01*
X178569D01*
Y162979D01*
X178333D01*
Y163215D01*
X178098D01*
Y163451D01*
X177626D01*
Y163686D01*
X176684D01*
Y163922D01*
X175506D01*
Y164157D01*
X174092D01*
Y164393D01*
X171735D01*
Y164629D01*
D02*
G37*
G36*
X137567Y251110D02*
X125785D01*
Y250875D01*
X123899D01*
Y250639D01*
X122486D01*
Y250403D01*
X121307D01*
Y250168D01*
X120129D01*
Y249932D01*
X119186D01*
Y249696D01*
X118244D01*
Y249461D01*
X117537D01*
Y249225D01*
X117066D01*
Y248989D01*
X116359D01*
Y248754D01*
X115652D01*
Y248518D01*
X115181D01*
Y248283D01*
X114474D01*
Y248047D01*
X114002D01*
Y247811D01*
X113295D01*
Y247576D01*
X112589D01*
Y247340D01*
X112117D01*
Y247104D01*
X111410D01*
Y246869D01*
X110703D01*
Y246633D01*
X109996D01*
Y246397D01*
X109525D01*
Y246162D01*
X108818D01*
Y245926D01*
X108347D01*
Y245690D01*
X107640D01*
Y245455D01*
X107169D01*
Y245219D01*
X106697D01*
Y244984D01*
X106226D01*
Y244748D01*
X105755D01*
Y244512D01*
X105048D01*
Y244277D01*
X104577D01*
Y244041D01*
X104105D01*
Y243805D01*
X103634D01*
Y243570D01*
X103398D01*
Y243334D01*
X102927D01*
Y243098D01*
X102456D01*
Y242863D01*
X102220D01*
Y242627D01*
X101749D01*
Y242391D01*
X101278D01*
Y242156D01*
X100806D01*
Y241920D01*
X100571D01*
Y241684D01*
X100099D01*
Y241449D01*
X99628D01*
Y241213D01*
X99157D01*
Y240977D01*
X98686D01*
Y240742D01*
X98214D01*
Y240506D01*
X97978D01*
Y240271D01*
X97507D01*
Y240035D01*
X97036D01*
Y239799D01*
X96800D01*
Y239564D01*
X96329D01*
Y239328D01*
X95858D01*
Y239092D01*
X95386D01*
Y238857D01*
X95151D01*
Y238621D01*
X94679D01*
Y238386D01*
X94208D01*
Y238150D01*
X93737D01*
Y237914D01*
X93501D01*
Y237679D01*
X93030D01*
Y237443D01*
X92794D01*
Y237207D01*
X92323D01*
Y236972D01*
X92087D01*
Y236736D01*
X91616D01*
Y236500D01*
X91381D01*
Y236265D01*
X91145D01*
Y236029D01*
X90909D01*
Y235793D01*
X90674D01*
Y235558D01*
X90202D01*
Y235322D01*
X89967D01*
Y235086D01*
X89731D01*
Y234851D01*
X89495D01*
Y234615D01*
X89024D01*
Y234380D01*
X88788D01*
Y234144D01*
X88553D01*
Y233908D01*
X88317D01*
Y233673D01*
X88081D01*
Y233437D01*
X87610D01*
Y233201D01*
X87374D01*
Y232966D01*
X87139D01*
Y232730D01*
X86903D01*
Y232494D01*
X86432D01*
Y232259D01*
X86196D01*
Y232023D01*
X85961D01*
Y231787D01*
X85725D01*
Y231552D01*
X85489D01*
Y231316D01*
X85018D01*
Y231080D01*
X84782D01*
Y230845D01*
X84547D01*
Y230609D01*
X84311D01*
Y230373D01*
X84075D01*
Y230138D01*
X83604D01*
Y229902D01*
X83369D01*
Y229667D01*
X83133D01*
Y229431D01*
X82897D01*
Y229195D01*
X82662D01*
Y228960D01*
X82426D01*
Y228724D01*
X82190D01*
Y228488D01*
X81955D01*
Y228253D01*
X81719D01*
Y228017D01*
X81483D01*
Y227781D01*
X81248D01*
Y227546D01*
X81012D01*
Y227075D01*
X80777D01*
Y226839D01*
X80541D01*
Y226603D01*
X80305D01*
Y226368D01*
X80070D01*
Y226132D01*
X79834D01*
Y225896D01*
X79598D01*
Y225425D01*
X79363D01*
Y225189D01*
X79127D01*
Y224954D01*
X78891D01*
Y224482D01*
X78656D01*
Y224247D01*
X78420D01*
Y224011D01*
X78184D01*
Y223776D01*
X77949D01*
Y223304D01*
X77713D01*
Y223069D01*
X77477D01*
Y222833D01*
X77242D01*
Y222362D01*
X77006D01*
Y222126D01*
X76771D01*
Y221890D01*
X76535D01*
Y221419D01*
X76299D01*
Y221183D01*
X76064D01*
Y220712D01*
X75828D01*
Y220476D01*
X75592D01*
Y220005D01*
X75357D01*
Y219769D01*
X75121D01*
Y219534D01*
X74885D01*
Y219063D01*
X74650D01*
Y218827D01*
X74414D01*
Y218356D01*
X74178D01*
Y217884D01*
X73943D01*
Y217649D01*
X73707D01*
Y217177D01*
X73471D01*
Y216942D01*
X73236D01*
Y216471D01*
X73000D01*
Y215999D01*
X72765D01*
Y215764D01*
X72529D01*
Y215292D01*
X72293D01*
Y215057D01*
X72058D01*
Y214585D01*
X71822D01*
Y214350D01*
X71586D01*
Y213878D01*
X71351D01*
Y213407D01*
X71115D01*
Y213172D01*
X70879D01*
Y212700D01*
X70644D01*
Y212229D01*
X70408D01*
Y211758D01*
X70173D01*
Y211286D01*
X69937D01*
Y210815D01*
X69701D01*
Y210344D01*
X69465D01*
Y209637D01*
X69230D01*
Y209165D01*
X68994D01*
Y208694D01*
X68759D01*
Y207987D01*
X68523D01*
Y207516D01*
X68287D01*
Y207045D01*
X68052D01*
Y206573D01*
X67816D01*
Y205867D01*
X67580D01*
Y205395D01*
X67345D01*
Y204924D01*
X67109D01*
Y204453D01*
X66873D01*
Y203746D01*
X66638D01*
Y203274D01*
X66402D01*
Y202803D01*
X66167D01*
Y202332D01*
X65931D01*
Y201861D01*
X65695D01*
Y201389D01*
X65460D01*
Y200918D01*
X65224D01*
Y200682D01*
X64988D01*
Y200211D01*
X64753D01*
Y199740D01*
X64517D01*
Y199504D01*
X64281D01*
Y199033D01*
X64046D01*
Y198561D01*
X63810D01*
Y198090D01*
X63574D01*
Y197855D01*
X63339D01*
Y197148D01*
X63103D01*
Y196676D01*
X62867D01*
Y195969D01*
X62632D01*
Y195498D01*
X62396D01*
Y194556D01*
X62161D01*
Y193613D01*
X61925D01*
Y192670D01*
X61689D01*
Y191257D01*
X61454D01*
Y190314D01*
X61218D01*
Y189371D01*
X60982D01*
Y188429D01*
X60747D01*
Y187015D01*
X60511D01*
Y185837D01*
X60275D01*
Y184423D01*
X60040D01*
Y183245D01*
X59804D01*
Y181831D01*
X59569D01*
Y180181D01*
X59333D01*
Y178532D01*
X59097D01*
Y176647D01*
X58861D01*
Y173819D01*
X58626D01*
Y170991D01*
X58390D01*
Y166514D01*
X58155D01*
Y154732D01*
X58390D01*
Y149076D01*
X58626D01*
Y142949D01*
X58861D01*
Y138472D01*
X59097D01*
Y135173D01*
X59333D01*
Y133288D01*
X59569D01*
Y131167D01*
X59804D01*
Y129046D01*
X60040D01*
Y127397D01*
X60275D01*
Y126219D01*
X60511D01*
Y125276D01*
X60747D01*
Y124333D01*
X60982D01*
Y123391D01*
X61218D01*
Y122684D01*
X61454D01*
Y121977D01*
X61689D01*
Y120799D01*
X61925D01*
Y119621D01*
X62161D01*
Y118442D01*
X62396D01*
Y117500D01*
X62632D01*
Y116793D01*
X62867D01*
Y116086D01*
X63103D01*
Y115615D01*
X63339D01*
Y114908D01*
X63574D01*
Y114201D01*
X63810D01*
Y113494D01*
X64046D01*
Y113023D01*
X64281D01*
Y112316D01*
X64517D01*
Y111844D01*
X64753D01*
Y111373D01*
X64988D01*
Y110902D01*
X65224D01*
Y110430D01*
X65460D01*
Y109959D01*
X65695D01*
Y109488D01*
X65931D01*
Y109017D01*
X66167D01*
Y108545D01*
X66402D01*
Y108074D01*
X66638D01*
Y107838D01*
X66873D01*
Y107367D01*
X67109D01*
Y107131D01*
X67345D01*
Y106660D01*
X67580D01*
Y106189D01*
X67816D01*
Y105953D01*
X68052D01*
Y105718D01*
X68287D01*
Y105246D01*
X68523D01*
Y105011D01*
X68759D01*
Y104539D01*
X68994D01*
Y104304D01*
X69230D01*
Y104068D01*
X69465D01*
Y103597D01*
X69701D01*
Y103361D01*
X69937D01*
Y103125D01*
X70173D01*
Y102890D01*
X70408D01*
Y102654D01*
X70644D01*
Y102419D01*
X70879D01*
Y102183D01*
X71115D01*
Y101947D01*
X71351D01*
Y101712D01*
X71586D01*
Y101476D01*
X71822D01*
Y101240D01*
X72058D01*
Y101005D01*
X72293D01*
Y100769D01*
X72529D01*
Y100533D01*
X72765D01*
Y100298D01*
X73000D01*
Y100062D01*
X73236D01*
Y99826D01*
X73471D01*
Y99591D01*
X73707D01*
Y99355D01*
X73943D01*
Y99120D01*
X74414D01*
Y98884D01*
X74650D01*
Y98648D01*
X75121D01*
Y98413D01*
X75357D01*
Y98177D01*
X75828D01*
Y97941D01*
X76064D01*
Y97706D01*
X76535D01*
Y97470D01*
X76771D01*
Y97234D01*
X77242D01*
Y96999D01*
X77477D01*
Y96763D01*
X77949D01*
Y96527D01*
X78184D01*
Y96292D01*
X78656D01*
Y96056D01*
X78891D01*
Y95821D01*
X79363D01*
Y95585D01*
X79834D01*
Y95349D01*
X80070D01*
Y95114D01*
X80541D01*
Y94878D01*
X81248D01*
Y94642D01*
X81719D01*
Y94407D01*
X82190D01*
Y94171D01*
X82662D01*
Y93935D01*
X83133D01*
Y93700D01*
X83840D01*
Y93464D01*
X84311D01*
Y93228D01*
X84782D01*
Y92993D01*
X85489D01*
Y92757D01*
X86196D01*
Y92521D01*
X86903D01*
Y92286D01*
X87610D01*
Y92050D01*
X91616D01*
Y91814D01*
X92323D01*
Y91579D01*
X93266D01*
Y91343D01*
X99628D01*
Y91108D01*
X103163D01*
Y91343D01*
X106462D01*
Y91108D01*
X107404D01*
Y91343D01*
X108111D01*
Y91579D01*
X108818D01*
Y91814D01*
X109289D01*
Y92050D01*
X109525D01*
Y92286D01*
X110232D01*
Y92521D01*
X110939D01*
Y92757D01*
X112117D01*
Y92993D01*
X113295D01*
Y93228D01*
X114238D01*
Y93464D01*
X114945D01*
Y93700D01*
X115416D01*
Y93935D01*
X115887D01*
Y94171D01*
X116359D01*
Y94407D01*
X116830D01*
Y94642D01*
X117066D01*
Y94878D01*
X117301D01*
Y95114D01*
X117773D01*
Y95349D01*
X118244D01*
Y95585D01*
X118715D01*
Y95821D01*
X118951D01*
Y96056D01*
X119422D01*
Y96292D01*
X119658D01*
Y96527D01*
X120129D01*
Y96763D01*
X121072D01*
Y96999D01*
X121779D01*
Y97234D01*
X122250D01*
Y97470D01*
X122721D01*
Y97706D01*
X122957D01*
Y97941D01*
X123193D01*
Y98177D01*
X123428D01*
Y98413D01*
X123664D01*
Y98884D01*
X123899D01*
Y99355D01*
X124135D01*
Y99826D01*
X124371D01*
Y100533D01*
X124606D01*
Y101240D01*
X124842D01*
Y101947D01*
X125078D01*
Y102890D01*
X125313D01*
Y104068D01*
X125549D01*
Y105246D01*
X125785D01*
Y107367D01*
X125549D01*
Y108074D01*
X125313D01*
Y109017D01*
X125078D01*
Y112080D01*
X124842D01*
Y112551D01*
X124606D01*
Y113023D01*
X124371D01*
Y113494D01*
X124135D01*
Y113729D01*
X123899D01*
Y114201D01*
X123664D01*
Y114672D01*
X123428D01*
Y115143D01*
X123193D01*
Y115615D01*
X122957D01*
Y117971D01*
X123193D01*
Y119385D01*
X122957D01*
Y120799D01*
X122721D01*
Y122213D01*
X122486D01*
Y122920D01*
Y123155D01*
Y123627D01*
X122250D01*
Y124569D01*
X122014D01*
Y125040D01*
X121779D01*
Y125512D01*
X121543D01*
Y125983D01*
X121307D01*
Y126454D01*
X121072D01*
Y126690D01*
X120836D01*
Y127161D01*
X120600D01*
Y127633D01*
X120365D01*
Y127868D01*
X120129D01*
Y128339D01*
X119894D01*
Y128811D01*
X119658D01*
Y129046D01*
X119422D01*
Y129753D01*
X119186D01*
Y130460D01*
X119422D01*
Y133288D01*
X119186D01*
Y133995D01*
X118951D01*
Y135880D01*
X119186D01*
Y136823D01*
X119422D01*
Y137765D01*
X119186D01*
Y139650D01*
X119422D01*
Y140357D01*
X119658D01*
Y141064D01*
X119894D01*
Y143656D01*
X119658D01*
Y144599D01*
X119422D01*
Y145541D01*
X119186D01*
Y147662D01*
X118951D01*
Y148369D01*
X118715D01*
Y148841D01*
X118951D01*
Y149548D01*
X119186D01*
Y150019D01*
X119422D01*
Y150726D01*
X119658D01*
Y152846D01*
X119422D01*
Y153553D01*
X119186D01*
Y154496D01*
X118951D01*
Y155203D01*
X119186D01*
Y155674D01*
X119422D01*
Y156381D01*
X119658D01*
Y158973D01*
X119422D01*
Y160387D01*
X119186D01*
Y160858D01*
X118951D01*
Y161801D01*
X119186D01*
Y162508D01*
X119422D01*
Y162979D01*
X119658D01*
Y163686D01*
X119894D01*
Y164157D01*
X120129D01*
Y164864D01*
X120365D01*
Y166278D01*
X120129D01*
Y168399D01*
X120365D01*
Y168635D01*
X120600D01*
Y169106D01*
X120836D01*
Y169342D01*
X121072D01*
Y169577D01*
X121307D01*
Y169813D01*
X121543D01*
Y170049D01*
X121779D01*
Y170284D01*
X122014D01*
Y170520D01*
X122250D01*
Y170991D01*
X122486D01*
Y171462D01*
X122721D01*
Y171934D01*
X122957D01*
Y172405D01*
X123193D01*
Y172641D01*
X123428D01*
Y172876D01*
X123899D01*
Y173112D01*
X124371D01*
Y173348D01*
X124606D01*
Y173583D01*
X124842D01*
Y173819D01*
X125078D01*
Y174055D01*
X125313D01*
Y174290D01*
X125549D01*
Y174526D01*
X128612D01*
Y174761D01*
X129319D01*
Y174997D01*
X129790D01*
Y175233D01*
X130262D01*
Y175468D01*
X130498D01*
Y175704D01*
X130969D01*
Y175940D01*
X131204D01*
Y176175D01*
X131911D01*
Y176411D01*
X133090D01*
Y176175D01*
X134975D01*
Y176411D01*
X135917D01*
Y176647D01*
X136153D01*
Y176882D01*
X136624D01*
Y177118D01*
X138038D01*
Y176882D01*
X139688D01*
Y177118D01*
X140866D01*
Y177353D01*
X142280D01*
Y177118D01*
X142987D01*
Y176882D01*
X143694D01*
Y176647D01*
X146757D01*
Y176411D01*
X147464D01*
Y176175D01*
X149585D01*
Y176411D01*
X150056D01*
Y176647D01*
X150527D01*
Y176882D01*
X150998D01*
Y177118D01*
X152884D01*
Y176882D01*
X153591D01*
Y176647D01*
X154769D01*
Y176882D01*
X155476D01*
Y177118D01*
X157125D01*
Y176882D01*
X157597D01*
Y176647D01*
X158303D01*
Y176411D01*
X158775D01*
Y176647D01*
X159717D01*
Y176882D01*
X160896D01*
Y177118D01*
X162545D01*
Y176882D01*
X163488D01*
Y176647D01*
X163959D01*
Y176411D01*
X164195D01*
Y176175D01*
X164666D01*
Y175940D01*
X164902D01*
Y175704D01*
X165373D01*
Y175468D01*
X165844D01*
Y175233D01*
X166080D01*
Y174997D01*
X166551D01*
Y174761D01*
X167258D01*
Y174526D01*
X170557D01*
Y174290D01*
X171028D01*
Y174055D01*
X172913D01*
Y174290D01*
X173620D01*
Y174055D01*
X174327D01*
Y173819D01*
X175034D01*
Y173583D01*
X179983D01*
Y173348D01*
X180454D01*
Y172876D01*
X179512D01*
Y170756D01*
X179747D01*
Y169577D01*
X179983D01*
Y168870D01*
X180219D01*
Y168399D01*
X180454D01*
Y168163D01*
X180690D01*
Y167456D01*
X180925D01*
Y164864D01*
X181161D01*
Y163922D01*
X181397D01*
Y163451D01*
X181632D01*
Y162979D01*
X181868D01*
Y162508D01*
X182104D01*
Y162037D01*
X182339D01*
Y161565D01*
X182575D01*
Y160858D01*
X182339D01*
Y160152D01*
X182104D01*
Y159445D01*
X181868D01*
Y157088D01*
X182104D01*
Y156617D01*
X182339D01*
Y156145D01*
X182575D01*
Y154732D01*
X182811D01*
Y152375D01*
X182575D01*
Y147898D01*
X182811D01*
Y147427D01*
X183046D01*
Y144363D01*
X182811D01*
Y142714D01*
X183046D01*
Y141536D01*
X183282D01*
Y140593D01*
X183517D01*
Y139650D01*
X183282D01*
Y136351D01*
X183517D01*
Y132110D01*
X183282D01*
Y131167D01*
X183046D01*
Y130460D01*
X182811D01*
Y129753D01*
X182575D01*
Y128811D01*
X182339D01*
Y126926D01*
X182104D01*
Y125512D01*
X181868D01*
Y124805D01*
X181632D01*
Y124098D01*
X181397D01*
Y123627D01*
X181161D01*
Y122920D01*
X180925D01*
Y122213D01*
X180690D01*
Y120799D01*
X180454D01*
Y120092D01*
X180219D01*
Y119621D01*
X179983D01*
Y119149D01*
X179747D01*
Y118914D01*
X179512D01*
Y118442D01*
X179276D01*
Y117971D01*
X179040D01*
Y117029D01*
X178805D01*
Y116322D01*
X178569D01*
Y115850D01*
X178333D01*
Y115615D01*
X178098D01*
Y115379D01*
X177862D01*
Y115143D01*
X177626D01*
Y113729D01*
X177391D01*
Y113258D01*
X177155D01*
Y112551D01*
X176919D01*
Y110902D01*
X176684D01*
Y110195D01*
X176448D01*
Y109959D01*
X176213D01*
Y109488D01*
X175977D01*
Y108781D01*
X175741D01*
Y108074D01*
X175506D01*
Y105246D01*
X175270D01*
Y104775D01*
X175034D01*
Y103125D01*
X175270D01*
Y102654D01*
X175506D01*
Y101476D01*
X175741D01*
Y100298D01*
X175977D01*
Y99826D01*
X176448D01*
Y99591D01*
X176919D01*
Y99355D01*
X177155D01*
Y99120D01*
X177391D01*
Y98884D01*
X177626D01*
Y98648D01*
X177862D01*
Y98413D01*
X178098D01*
Y98177D01*
X178333D01*
Y97941D01*
X178569D01*
Y97706D01*
X179040D01*
Y97470D01*
X179276D01*
Y97234D01*
X179747D01*
Y96999D01*
X180219D01*
Y96763D01*
X180690D01*
Y96527D01*
X180925D01*
Y96292D01*
X181397D01*
Y96056D01*
X181632D01*
Y95821D01*
X181868D01*
Y95585D01*
X182339D01*
Y95349D01*
X182811D01*
Y95114D01*
X183517D01*
Y94878D01*
X184224D01*
Y94642D01*
X185167D01*
Y94407D01*
X185874D01*
Y94171D01*
X186581D01*
Y93935D01*
X187288D01*
Y93700D01*
X188230D01*
Y93464D01*
X189409D01*
Y93228D01*
X191058D01*
Y93464D01*
X192708D01*
Y93700D01*
X197185D01*
Y93935D01*
X198127D01*
Y94171D01*
X199070D01*
Y94407D01*
X201898D01*
Y94642D01*
X204490D01*
Y94878D01*
X205432D01*
Y95114D01*
X206375D01*
Y95349D01*
X207082D01*
Y95585D01*
X207789D01*
Y95821D01*
X208496D01*
Y96056D01*
X208967D01*
Y96292D01*
X209438D01*
Y96527D01*
X210145D01*
Y96763D01*
X210617D01*
Y96999D01*
X211088D01*
Y97234D01*
X211559D01*
Y97470D01*
X212031D01*
Y97706D01*
X212502D01*
Y97941D01*
X212737D01*
Y98177D01*
X213209D01*
Y98413D01*
X213680D01*
Y98648D01*
X213916D01*
Y98884D01*
X214387D01*
Y99120D01*
X214623D01*
Y99355D01*
X215094D01*
Y99591D01*
X215565D01*
Y99826D01*
X215801D01*
Y100062D01*
X216272D01*
Y100298D01*
X216508D01*
Y100533D01*
X216979D01*
Y100769D01*
X217450D01*
Y101005D01*
X218157D01*
Y101240D01*
X218393D01*
Y101476D01*
X219100D01*
Y101712D01*
X219571D01*
Y101947D01*
X220042D01*
Y102183D01*
X220514D01*
Y102419D01*
X220749D01*
Y102654D01*
X221221D01*
Y102890D01*
X221692D01*
Y103125D01*
X222163D01*
Y103361D01*
X222635D01*
Y103597D01*
X223106D01*
Y103832D01*
X223341D01*
Y104068D01*
X223813D01*
Y104304D01*
X224284D01*
Y104539D01*
X224520D01*
Y104775D01*
X224991D01*
Y105011D01*
X225227D01*
Y105246D01*
X225698D01*
Y105482D01*
X225933D01*
Y105718D01*
X226405D01*
Y105953D01*
X226640D01*
Y106189D01*
X226876D01*
Y106425D01*
X227112D01*
Y106660D01*
X227347D01*
Y106896D01*
X227583D01*
Y107131D01*
X227819D01*
Y107367D01*
X228054D01*
Y107603D01*
X228290D01*
Y107838D01*
X228526D01*
Y108074D01*
X228761D01*
Y108545D01*
X228997D01*
Y108781D01*
X229233D01*
Y109252D01*
X229468D01*
Y109488D01*
X229704D01*
Y109724D01*
X229939D01*
Y110195D01*
X230175D01*
Y110430D01*
X230411D01*
Y110666D01*
X230646D01*
Y110902D01*
X230882D01*
Y111137D01*
X231118D01*
Y111609D01*
X231353D01*
Y111844D01*
X231589D01*
Y112316D01*
X231825D01*
Y112787D01*
X232060D01*
Y113023D01*
X232296D01*
Y113729D01*
X232532D01*
Y114201D01*
X232767D01*
Y114672D01*
X233003D01*
Y115143D01*
X233239D01*
Y115850D01*
X233474D01*
Y116322D01*
X233710D01*
Y117029D01*
X233945D01*
Y117500D01*
X234181D01*
Y117971D01*
X234417D01*
Y118678D01*
X234652D01*
Y119149D01*
X234888D01*
Y119856D01*
X235124D01*
Y120799D01*
X235359D01*
Y121506D01*
X235595D01*
Y122448D01*
X235831D01*
Y123391D01*
X236066D01*
Y124333D01*
X236302D01*
Y125276D01*
X236537D01*
Y126454D01*
X236773D01*
Y127633D01*
X237009D01*
Y128811D01*
X237244D01*
Y129989D01*
X237480D01*
Y131167D01*
X237716D01*
Y132345D01*
X237951D01*
Y133524D01*
X238187D01*
Y134937D01*
X238423D01*
Y136351D01*
X238658D01*
Y138237D01*
X238894D01*
Y143421D01*
X239130D01*
Y147662D01*
X238894D01*
Y152611D01*
X238658D01*
Y157088D01*
X238423D01*
Y160623D01*
X238187D01*
Y161565D01*
X237951D01*
Y162744D01*
X237716D01*
Y163686D01*
X237480D01*
Y164629D01*
X237244D01*
Y165571D01*
X237009D01*
Y166514D01*
X236773D01*
Y167456D01*
X236537D01*
Y168399D01*
X236302D01*
Y169577D01*
X236066D01*
Y170520D01*
X235831D01*
Y171698D01*
X235595D01*
Y172641D01*
X235359D01*
Y173819D01*
X235124D01*
Y174761D01*
X234888D01*
Y175940D01*
X234652D01*
Y176882D01*
X234417D01*
Y177825D01*
X234181D01*
Y178767D01*
X233945D01*
Y179710D01*
X233710D01*
Y180653D01*
X233474D01*
Y181831D01*
X233239D01*
Y183009D01*
X233003D01*
Y184187D01*
X232767D01*
Y185365D01*
X232532D01*
Y186779D01*
X232296D01*
Y187957D01*
X232060D01*
Y189371D01*
X231825D01*
Y190550D01*
X231589D01*
Y192199D01*
X231353D01*
Y193613D01*
X231118D01*
Y194791D01*
X230882D01*
Y195734D01*
X230646D01*
Y196441D01*
X230411D01*
Y197383D01*
X230175D01*
Y197855D01*
X229939D01*
Y198561D01*
X229704D01*
Y199033D01*
X229468D01*
Y199504D01*
X229233D01*
Y199975D01*
X228997D01*
Y200447D01*
X228761D01*
Y200918D01*
X228526D01*
Y201389D01*
X228290D01*
Y201861D01*
X228054D01*
Y202096D01*
X227819D01*
Y202568D01*
X227583D01*
Y203039D01*
X227347D01*
Y203274D01*
X227112D01*
Y203746D01*
X226876D01*
Y203981D01*
X226640D01*
Y204217D01*
X226405D01*
Y204688D01*
X226169D01*
Y204924D01*
X225933D01*
Y205395D01*
X225698D01*
Y205631D01*
X225462D01*
Y206102D01*
X225227D01*
Y206573D01*
X224991D01*
Y207045D01*
X224755D01*
Y207516D01*
X224520D01*
Y207987D01*
X224284D01*
Y208459D01*
X224048D01*
Y208930D01*
X223813D01*
Y209401D01*
X223577D01*
Y209872D01*
X223341D01*
Y210344D01*
X223106D01*
Y210579D01*
X222870D01*
Y211051D01*
X222635D01*
Y211522D01*
X222399D01*
Y211993D01*
X222163D01*
Y212465D01*
X221928D01*
Y212936D01*
X221692D01*
Y213407D01*
X221456D01*
Y213878D01*
X221221D01*
Y214350D01*
X220985D01*
Y214821D01*
X220749D01*
Y215057D01*
X220514D01*
Y215528D01*
X220278D01*
Y215999D01*
X220042D01*
Y216235D01*
X219807D01*
Y216706D01*
X219571D01*
Y216942D01*
X219335D01*
Y217177D01*
X219100D01*
Y217649D01*
X218864D01*
Y217884D01*
X218629D01*
Y218120D01*
X218393D01*
Y218356D01*
X218157D01*
Y218591D01*
X217922D01*
Y218827D01*
X217686D01*
Y219298D01*
X217450D01*
Y219534D01*
X217215D01*
Y219769D01*
X216979D01*
Y220005D01*
X216743D01*
Y220476D01*
X216508D01*
Y220712D01*
X216272D01*
Y220948D01*
X216036D01*
Y221419D01*
X215801D01*
Y221655D01*
X215565D01*
Y221890D01*
X215329D01*
Y222126D01*
X215094D01*
Y222597D01*
X214858D01*
Y222833D01*
X214623D01*
Y223069D01*
X214387D01*
Y223304D01*
X214151D01*
Y223540D01*
X213916D01*
Y223776D01*
X213680D01*
Y224011D01*
X213444D01*
Y224247D01*
X213209D01*
Y224482D01*
X212973D01*
Y224718D01*
X212737D01*
Y224954D01*
X212502D01*
Y225189D01*
X212266D01*
Y225425D01*
X212031D01*
Y225661D01*
X211795D01*
Y225896D01*
X211324D01*
Y226132D01*
X211088D01*
Y226368D01*
X210852D01*
Y226603D01*
X210617D01*
Y226839D01*
X210381D01*
Y227075D01*
X210145D01*
Y227310D01*
X209910D01*
Y227546D01*
X209674D01*
Y227781D01*
X209438D01*
Y228017D01*
X209203D01*
Y228253D01*
X208967D01*
Y228488D01*
X208731D01*
Y228724D01*
X208496D01*
Y228960D01*
X208260D01*
Y229195D01*
X208025D01*
Y229431D01*
X207789D01*
Y229667D01*
X207318D01*
Y229902D01*
X207082D01*
Y230138D01*
X206846D01*
Y230373D01*
X206611D01*
Y230609D01*
X206375D01*
Y230845D01*
X206139D01*
Y231080D01*
X205668D01*
Y231316D01*
X205432D01*
Y231552D01*
X205197D01*
Y231787D01*
X204961D01*
Y232023D01*
X204490D01*
Y232259D01*
X204254D01*
Y232494D01*
X204019D01*
Y232730D01*
X203783D01*
Y232966D01*
X203312D01*
Y233201D01*
X203076D01*
Y233437D01*
X202840D01*
Y233673D01*
X202605D01*
Y233908D01*
X202133D01*
Y234144D01*
X201898D01*
Y234380D01*
X201662D01*
Y234615D01*
X201191D01*
Y234851D01*
X200720D01*
Y235086D01*
X200484D01*
Y235322D01*
X200013D01*
Y235558D01*
X199777D01*
Y235793D01*
X199306D01*
Y236029D01*
X199070D01*
Y236265D01*
X198599D01*
Y236500D01*
X198127D01*
Y236736D01*
X197656D01*
Y236972D01*
X197185D01*
Y237207D01*
X196949D01*
Y237443D01*
X196478D01*
Y237679D01*
X196007D01*
Y237914D01*
X195771D01*
Y238150D01*
X195535D01*
Y238386D01*
X195064D01*
Y238621D01*
X194593D01*
Y238857D01*
X194357D01*
Y239092D01*
X193886D01*
Y239328D01*
X193650D01*
Y239564D01*
X193414D01*
Y239799D01*
X192943D01*
Y240035D01*
X192472D01*
Y240271D01*
X192236D01*
Y240506D01*
X191765D01*
Y240742D01*
X191294D01*
Y240977D01*
X190823D01*
Y241213D01*
X190351D01*
Y241449D01*
X189880D01*
Y241684D01*
X189409D01*
Y241920D01*
X188937D01*
Y242156D01*
X188466D01*
Y242391D01*
X187995D01*
Y242627D01*
X187759D01*
Y242863D01*
X187288D01*
Y243098D01*
X186817D01*
Y243334D01*
X186345D01*
Y243570D01*
X185874D01*
Y243805D01*
X185403D01*
Y244041D01*
X184931D01*
Y244277D01*
X184460D01*
Y244512D01*
X184224D01*
Y244748D01*
X183753D01*
Y244984D01*
X183282D01*
Y245219D01*
X182811D01*
Y245455D01*
X182104D01*
Y245690D01*
X181632D01*
Y245926D01*
X180925D01*
Y246162D01*
X180219D01*
Y246397D01*
X179512D01*
Y246633D01*
X178805D01*
Y246869D01*
X178098D01*
Y247104D01*
X177391D01*
Y247340D01*
X176684D01*
Y247576D01*
X175977D01*
Y247811D01*
X175506D01*
Y248047D01*
X174799D01*
Y248283D01*
X173856D01*
Y248518D01*
X172913D01*
Y248754D01*
X171971D01*
Y248989D01*
X170557D01*
Y249225D01*
X168672D01*
Y249461D01*
X166787D01*
Y249696D01*
X164430D01*
Y249932D01*
X162545D01*
Y250168D01*
X160660D01*
Y250403D01*
X159246D01*
Y250639D01*
X156890D01*
Y250875D01*
X137567D01*
Y251110D01*
D02*
G37*
G36*
X115887Y92993D02*
X115652D01*
Y92757D01*
X115887D01*
Y92993D01*
D02*
G37*
G36*
X117773Y93935D02*
X117301D01*
Y93700D01*
X116830D01*
Y93464D01*
X116594D01*
Y92757D01*
X116830D01*
Y92521D01*
X117301D01*
Y92286D01*
X118244D01*
Y93228D01*
X118008D01*
Y93700D01*
X117773D01*
Y93935D01*
D02*
G37*
G36*
X114709Y92521D02*
X113767D01*
Y92286D01*
X113531D01*
Y92050D01*
X113767D01*
Y91579D01*
X114238D01*
Y91814D01*
X114474D01*
Y92050D01*
X114709D01*
Y92521D01*
D02*
G37*
G36*
X181397Y95114D02*
X180690D01*
Y94642D01*
X180925D01*
Y94171D01*
X181161D01*
Y93700D01*
X181397D01*
Y93228D01*
X181632D01*
Y92757D01*
X181868D01*
Y92050D01*
X182104D01*
Y91343D01*
X182339D01*
Y91108D01*
X182575D01*
Y92286D01*
X182811D01*
Y94171D01*
X182339D01*
Y94407D01*
X181868D01*
Y94642D01*
X181632D01*
Y94878D01*
X181397D01*
Y95114D01*
D02*
G37*
G36*
X106462Y90401D02*
X103163D01*
Y90165D01*
X99392D01*
Y90401D01*
X98686D01*
Y90165D01*
X98450D01*
Y89694D01*
X98214D01*
Y88987D01*
X97978D01*
Y88516D01*
X97743D01*
Y88044D01*
X97507D01*
Y87337D01*
X97272D01*
Y86866D01*
X97036D01*
Y86395D01*
X96800D01*
Y85688D01*
X96565D01*
Y85217D01*
X96329D01*
Y84745D01*
X96093D01*
Y84038D01*
X95858D01*
Y83567D01*
X95622D01*
Y83096D01*
X95386D01*
Y82624D01*
X95151D01*
Y82153D01*
X94915D01*
Y81682D01*
X94679D01*
Y80975D01*
X94444D01*
Y80504D01*
X94208D01*
Y80032D01*
X93973D01*
Y79561D01*
X93737D01*
Y79090D01*
X93501D01*
Y78618D01*
X93266D01*
Y78147D01*
X93030D01*
Y77676D01*
X92794D01*
Y77205D01*
X92559D01*
Y76733D01*
X92323D01*
Y76026D01*
X92087D01*
Y73906D01*
X92323D01*
Y73434D01*
X92559D01*
Y73199D01*
X92794D01*
Y72727D01*
X93030D01*
Y72492D01*
X93266D01*
Y72256D01*
X93737D01*
Y72020D01*
X93973D01*
Y71785D01*
X94444D01*
Y71549D01*
X94915D01*
Y71314D01*
X95622D01*
Y71078D01*
X96329D01*
Y70842D01*
X96800D01*
Y70606D01*
X97507D01*
Y70371D01*
X97978D01*
Y70135D01*
X98686D01*
Y69900D01*
X99392D01*
Y69664D01*
X99628D01*
Y69900D01*
X99864D01*
Y70135D01*
X100099D01*
Y70371D01*
X100335D01*
Y70842D01*
X100571D01*
Y71078D01*
X100806D01*
Y71549D01*
X101042D01*
Y71785D01*
X101278D01*
Y72020D01*
X101513D01*
Y72492D01*
X101749D01*
Y72727D01*
X101985D01*
Y73199D01*
X102220D01*
Y73670D01*
X102456D01*
Y74141D01*
X102691D01*
Y74612D01*
X102927D01*
Y75084D01*
X103163D01*
Y75555D01*
X103398D01*
Y76026D01*
X103634D01*
Y76733D01*
X103870D01*
Y77440D01*
X104105D01*
Y77912D01*
X104341D01*
Y78618D01*
X104577D01*
Y79561D01*
X104812D01*
Y80504D01*
X105048D01*
Y81211D01*
X105283D01*
Y82389D01*
X105519D01*
Y83567D01*
X105755D01*
Y84981D01*
X105990D01*
Y86395D01*
X106226D01*
Y87809D01*
X106462D01*
Y88044D01*
Y89458D01*
X106697D01*
Y90165D01*
X106462D01*
Y90401D01*
D02*
G37*
G36*
X114945Y91108D02*
X114002D01*
Y90401D01*
X114238D01*
Y90165D01*
X114474D01*
Y89929D01*
X116359D01*
Y90165D01*
X116594D01*
Y90636D01*
X116123D01*
Y90872D01*
X114945D01*
Y91108D01*
D02*
G37*
G36*
X116594Y92286D02*
X115652D01*
Y92050D01*
X115181D01*
Y91814D01*
X114945D01*
Y91343D01*
X116594D01*
Y91108D01*
X117066D01*
Y90872D01*
X117301D01*
Y90636D01*
X117537D01*
Y90401D01*
X117773D01*
Y90165D01*
X118008D01*
Y89929D01*
X118244D01*
Y89694D01*
X118480D01*
Y89458D01*
X118951D01*
Y89222D01*
X119186D01*
Y89458D01*
X119422D01*
Y90165D01*
X119186D01*
Y90401D01*
Y90636D01*
X118951D01*
Y90872D01*
X118715D01*
Y91108D01*
X118480D01*
Y91343D01*
X118244D01*
Y91579D01*
X118008D01*
Y91814D01*
X117301D01*
Y92050D01*
X116594D01*
Y92286D01*
D02*
G37*
G36*
X116359Y89458D02*
X116123D01*
Y89222D01*
X115181D01*
Y88751D01*
X115416D01*
Y88516D01*
X116123D01*
Y88751D01*
X116359D01*
Y88987D01*
X116594D01*
Y89222D01*
X116359D01*
Y89458D01*
D02*
G37*
G36*
X181161Y92521D02*
X180690D01*
Y91814D01*
X180454D01*
Y91343D01*
X180690D01*
Y90401D01*
X180925D01*
Y90165D01*
X181161D01*
Y89694D01*
X181397D01*
Y89222D01*
X181632D01*
Y88044D01*
X181868D01*
Y87337D01*
X182339D01*
Y90401D01*
X182104D01*
Y90636D01*
X181868D01*
Y90872D01*
X181632D01*
Y91108D01*
X181397D01*
Y91579D01*
Y91814D01*
X181161D01*
Y92521D01*
D02*
G37*
G36*
X114945Y88751D02*
X114709D01*
Y88280D01*
X114945D01*
Y87809D01*
X115181D01*
Y87102D01*
X115416D01*
Y86630D01*
X115652D01*
Y86395D01*
X116830D01*
Y86159D01*
X117066D01*
Y86395D01*
X118008D01*
Y86630D01*
X118480D01*
Y87102D01*
X118244D01*
Y87337D01*
X117301D01*
Y87573D01*
X116359D01*
Y87809D01*
X115887D01*
Y88044D01*
X115416D01*
Y88280D01*
X115181D01*
Y88516D01*
X114945D01*
Y88751D01*
D02*
G37*
G36*
X119422Y86395D02*
X118715D01*
Y86159D01*
X118480D01*
Y85923D01*
X119422D01*
Y86395D01*
D02*
G37*
G36*
X117773Y89222D02*
X117537D01*
Y88987D01*
X117066D01*
Y88751D01*
X116830D01*
Y88516D01*
X116594D01*
Y88044D01*
X117066D01*
Y87809D01*
X118244D01*
Y87573D01*
X118951D01*
Y87337D01*
X119186D01*
Y87102D01*
X119422D01*
Y86866D01*
X119658D01*
Y86630D01*
X119894D01*
Y86395D01*
X120129D01*
Y86159D01*
X120365D01*
Y85923D01*
X120836D01*
Y85688D01*
X121307D01*
Y86395D01*
X121072D01*
Y86866D01*
X120836D01*
Y87573D01*
X120600D01*
Y87809D01*
X120365D01*
Y88044D01*
X120129D01*
Y88280D01*
X119894D01*
Y88516D01*
X119422D01*
Y88751D01*
X118951D01*
Y88987D01*
X117773D01*
Y89222D01*
D02*
G37*
G36*
X211088Y96056D02*
X210617D01*
Y95821D01*
X210145D01*
Y95585D01*
X209674D01*
Y95349D01*
X209203D01*
Y95114D01*
X208731D01*
Y94878D01*
X208025D01*
Y94642D01*
X207318D01*
Y94407D01*
X206611D01*
Y94171D01*
X205668D01*
Y93935D01*
X204490D01*
Y93700D01*
X200248D01*
Y93464D01*
X198834D01*
Y93228D01*
X198363D01*
Y92521D01*
X198599D01*
Y92286D01*
X198834D01*
Y91814D01*
X199070D01*
Y91579D01*
X199306D01*
Y91343D01*
X199541D01*
Y90872D01*
X199777D01*
Y90636D01*
X200013D01*
Y90401D01*
X200248D01*
Y90165D01*
X200484D01*
Y89694D01*
X200720D01*
Y89458D01*
X200955D01*
Y89222D01*
X201191D01*
Y88987D01*
Y88751D01*
X201427D01*
Y88516D01*
X201662D01*
Y88044D01*
X201898D01*
Y87809D01*
X202133D01*
Y87337D01*
X202369D01*
Y87102D01*
X202605D01*
Y86630D01*
X202840D01*
Y86395D01*
X203076D01*
Y85923D01*
X203312D01*
Y85688D01*
X203547D01*
Y85217D01*
X203783D01*
Y84981D01*
X204725D01*
Y85217D01*
X205197D01*
Y85452D01*
X205668D01*
Y85688D01*
X206139D01*
Y85923D01*
X206846D01*
Y86159D01*
X207553D01*
Y86395D01*
X208260D01*
Y86630D01*
X208967D01*
Y86866D01*
X209910D01*
Y87102D01*
X210617D01*
Y87337D01*
X211088D01*
Y87573D01*
X211795D01*
Y87809D01*
X212502D01*
Y88044D01*
X213209D01*
Y88280D01*
X213680D01*
Y88516D01*
X214151D01*
Y88751D01*
X214623D01*
Y88987D01*
X215094D01*
Y89222D01*
X215565D01*
Y89458D01*
X215801D01*
Y89694D01*
X216272D01*
Y89929D01*
X216743D01*
Y90165D01*
X217450D01*
Y90401D01*
X217922D01*
Y90636D01*
X218393D01*
Y90872D01*
X219100D01*
Y91108D01*
X219571D01*
Y91343D01*
X220278D01*
Y91579D01*
X220749D01*
Y92050D01*
X220514D01*
Y92286D01*
X220042D01*
Y92521D01*
X219571D01*
Y92757D01*
X219100D01*
Y92993D01*
X218393D01*
Y93228D01*
X217922D01*
Y93464D01*
X217215D01*
Y93700D01*
X216743D01*
Y93935D01*
X216036D01*
Y94171D01*
X215329D01*
Y94407D01*
X214623D01*
Y94642D01*
X213916D01*
Y94878D01*
X213444D01*
Y95114D01*
X212737D01*
Y95349D01*
X212266D01*
Y95585D01*
X211795D01*
Y95821D01*
X211088D01*
Y96056D01*
D02*
G37*
G36*
X118480Y85923D02*
X117773D01*
Y85688D01*
X117066D01*
Y85217D01*
X117301D01*
Y84981D01*
X117537D01*
Y84745D01*
X117773D01*
Y84981D01*
X118008D01*
Y85217D01*
X118244D01*
Y85688D01*
X118480D01*
Y85923D01*
D02*
G37*
G36*
X180925Y89222D02*
X180454D01*
Y86866D01*
X180690D01*
Y86395D01*
X180925D01*
Y85923D01*
X181161D01*
Y84981D01*
X181397D01*
Y84274D01*
X181632D01*
Y83803D01*
X182104D01*
Y84510D01*
X182339D01*
Y85452D01*
X182104D01*
Y86395D01*
X181868D01*
Y86866D01*
X181632D01*
Y87337D01*
X181397D01*
Y87573D01*
X181161D01*
Y88280D01*
X180925D01*
Y88516D01*
Y89222D01*
D02*
G37*
G36*
X116359Y85688D02*
X115887D01*
Y85452D01*
X116123D01*
Y84981D01*
X116359D01*
Y84510D01*
X116594D01*
Y84038D01*
X116830D01*
Y83567D01*
X117066D01*
Y83096D01*
X117301D01*
Y82860D01*
X117537D01*
Y82624D01*
X118008D01*
Y82389D01*
X118951D01*
Y82624D01*
X119658D01*
Y82860D01*
X120129D01*
Y83331D01*
X119894D01*
Y83567D01*
X119422D01*
Y83803D01*
X118244D01*
Y84038D01*
X117537D01*
Y84274D01*
X117301D01*
Y84510D01*
X117066D01*
Y84745D01*
X116830D01*
Y84981D01*
X116594D01*
Y85452D01*
X116359D01*
Y85688D01*
D02*
G37*
G36*
X120365Y85452D02*
X119186D01*
Y85217D01*
X118715D01*
Y84981D01*
X118480D01*
Y84510D01*
X118715D01*
Y84274D01*
X119658D01*
Y84038D01*
X120365D01*
Y83803D01*
X120836D01*
Y83567D01*
X121072D01*
Y83331D01*
X121307D01*
Y83096D01*
X121543D01*
Y82860D01*
X121779D01*
Y82389D01*
X122014D01*
Y81917D01*
X122250D01*
Y81682D01*
X122721D01*
Y81446D01*
X123193D01*
Y82624D01*
X122957D01*
Y83331D01*
X122721D01*
Y83567D01*
X122486D01*
Y84038D01*
X122250D01*
Y84274D01*
X122014D01*
Y84510D01*
X121779D01*
Y84745D01*
X121307D01*
Y84981D01*
X121072D01*
Y85217D01*
X120365D01*
Y85452D01*
D02*
G37*
G36*
X120836Y82860D02*
X120600D01*
Y82389D01*
X119658D01*
Y82153D01*
X119186D01*
Y81917D01*
X118951D01*
Y81446D01*
X119186D01*
Y81211D01*
X119658D01*
Y81446D01*
X119894D01*
Y81682D01*
X120365D01*
Y81917D01*
X121307D01*
Y82389D01*
X121072D01*
Y82624D01*
X120836D01*
Y82860D01*
D02*
G37*
G36*
X180454Y85688D02*
X179983D01*
Y84274D01*
X180219D01*
Y83096D01*
X180454D01*
Y82624D01*
X180690D01*
Y81917D01*
X180925D01*
Y81211D01*
X181161D01*
Y80739D01*
Y80504D01*
Y80268D01*
X181397D01*
Y79797D01*
X181632D01*
Y80032D01*
X181868D01*
Y80739D01*
X182104D01*
Y81682D01*
X181868D01*
Y82624D01*
X181632D01*
Y83096D01*
X181397D01*
Y83567D01*
X181161D01*
Y84038D01*
X180925D01*
Y84745D01*
X180690D01*
Y85452D01*
X180454D01*
Y85688D01*
D02*
G37*
G36*
X117773Y82153D02*
X117537D01*
Y81917D01*
X117301D01*
Y81682D01*
X117537D01*
Y80975D01*
X117773D01*
Y80504D01*
X118008D01*
Y80032D01*
X118244D01*
Y79797D01*
X118480D01*
Y79561D01*
X118715D01*
Y79325D01*
X118951D01*
Y79090D01*
X119422D01*
Y78854D01*
X119894D01*
Y78618D01*
X121307D01*
Y78854D01*
X121779D01*
Y79090D01*
X122014D01*
Y79325D01*
X121779D01*
Y79561D01*
X120836D01*
Y79797D01*
X120365D01*
Y80032D01*
X119894D01*
Y80268D01*
X119658D01*
Y80504D01*
X119186D01*
Y80739D01*
X118951D01*
Y80975D01*
X118715D01*
Y81682D01*
X118480D01*
Y81917D01*
X117773D01*
Y82153D01*
D02*
G37*
G36*
X83604Y92757D02*
X83369D01*
Y92521D01*
X82897D01*
Y92286D01*
X82426D01*
Y92050D01*
X82190D01*
Y91814D01*
X81719D01*
Y91579D01*
X81483D01*
Y91343D01*
X81012D01*
Y91108D01*
X80541D01*
Y90872D01*
X80305D01*
Y90636D01*
X79834D01*
Y90401D01*
X79363D01*
Y90165D01*
X78891D01*
Y89929D01*
X78656D01*
Y89694D01*
X78184D01*
Y89458D01*
X77949D01*
Y89222D01*
X77477D01*
Y88987D01*
X77006D01*
Y88751D01*
X76771D01*
Y88516D01*
X76299D01*
Y88280D01*
X75828D01*
Y88044D01*
X75357D01*
Y87809D01*
X75121D01*
Y87573D01*
X74650D01*
Y87337D01*
X74178D01*
Y87102D01*
X73707D01*
Y86866D01*
X73236D01*
Y86630D01*
X73000D01*
Y86395D01*
X72529D01*
Y86159D01*
X72058D01*
Y85923D01*
X71822D01*
Y85688D01*
X71351D01*
Y85452D01*
X70879D01*
Y85217D01*
X70408D01*
Y84981D01*
X70173D01*
Y84745D01*
X69701D01*
Y84510D01*
X69230D01*
Y84274D01*
X68759D01*
Y84038D01*
X68287D01*
Y83803D01*
X68052D01*
Y83567D01*
X67816D01*
Y83331D01*
X68052D01*
Y83096D01*
X68759D01*
Y82860D01*
X69465D01*
Y82624D01*
X70173D01*
Y82389D01*
X71115D01*
Y82153D01*
X72058D01*
Y81917D01*
X72765D01*
Y81682D01*
X73707D01*
Y81446D01*
X74650D01*
Y81211D01*
X75592D01*
Y80975D01*
X76535D01*
Y80739D01*
X77477D01*
Y80504D01*
X78420D01*
Y80268D01*
X79127D01*
Y80032D01*
X79834D01*
Y79797D01*
X80777D01*
Y79561D01*
X81483D01*
Y79325D01*
X82662D01*
Y79090D01*
X83604D01*
Y78854D01*
X84782D01*
Y78618D01*
X85961D01*
Y78383D01*
X87846D01*
Y78147D01*
X89967D01*
Y77912D01*
X91616D01*
Y77676D01*
X92087D01*
Y78147D01*
X92323D01*
Y78854D01*
X92559D01*
Y79090D01*
X92794D01*
Y79797D01*
X93030D01*
Y80268D01*
X93266D01*
Y80739D01*
X93501D01*
Y81211D01*
X93737D01*
Y81682D01*
X93973D01*
Y82153D01*
X94208D01*
Y82624D01*
X94444D01*
Y83331D01*
X94679D01*
Y83803D01*
X94915D01*
Y84510D01*
X95151D01*
Y84981D01*
X95386D01*
Y85452D01*
X95622D01*
Y85923D01*
X95858D01*
Y86395D01*
X96093D01*
Y86866D01*
X96329D01*
Y87573D01*
X96565D01*
Y88044D01*
X96800D01*
Y88516D01*
X97036D01*
Y89222D01*
X97272D01*
Y89458D01*
X97507D01*
Y89929D01*
X97743D01*
Y90401D01*
X93266D01*
Y90636D01*
X92087D01*
Y90872D01*
X91381D01*
Y91108D01*
X90438D01*
Y91343D01*
X88788D01*
Y91108D01*
X88081D01*
Y91343D01*
X87139D01*
Y91579D01*
X86432D01*
Y91814D01*
X85725D01*
Y92050D01*
X85018D01*
Y92286D01*
X84311D01*
Y92521D01*
X83604D01*
Y92757D01*
D02*
G37*
G36*
X121307Y81446D02*
X120836D01*
Y81211D01*
X120129D01*
Y80739D01*
X120365D01*
Y80504D01*
X120836D01*
Y80268D01*
X121543D01*
Y80032D01*
X122014D01*
Y79797D01*
X122486D01*
Y79561D01*
X122721D01*
Y79325D01*
X122957D01*
Y79090D01*
X123193D01*
Y78618D01*
X123428D01*
Y78383D01*
X123664D01*
Y77912D01*
X123899D01*
Y77676D01*
X124135D01*
Y77440D01*
X124842D01*
Y77205D01*
X125078D01*
Y78618D01*
X124842D01*
Y79090D01*
X124606D01*
Y79561D01*
X124371D01*
Y79797D01*
X124135D01*
Y80032D01*
X123899D01*
Y80268D01*
X123664D01*
Y80504D01*
X123428D01*
Y80739D01*
X122957D01*
Y80975D01*
X122486D01*
Y81211D01*
X121307D01*
Y81446D01*
D02*
G37*
G36*
X122957Y78618D02*
X122486D01*
Y78383D01*
X121779D01*
Y78147D01*
X120836D01*
Y77676D01*
X121072D01*
Y77205D01*
X121307D01*
Y76969D01*
X121779D01*
Y77205D01*
X122014D01*
Y77440D01*
X122486D01*
Y77676D01*
X123193D01*
Y78383D01*
X122957D01*
Y78618D01*
D02*
G37*
G36*
X197185Y92993D02*
X196714D01*
Y92757D01*
X192236D01*
Y92521D01*
X188937D01*
Y91814D01*
X189173D01*
Y91108D01*
X189409D01*
Y90636D01*
X189644D01*
Y90165D01*
X189880D01*
Y89694D01*
X190116D01*
Y89222D01*
X190351D01*
Y88751D01*
X190587D01*
Y88280D01*
X190823D01*
Y87809D01*
X191058D01*
Y87337D01*
X191294D01*
Y86866D01*
X191529D01*
Y86630D01*
X191765D01*
Y86159D01*
X192001D01*
Y85688D01*
X192236D01*
Y85217D01*
X192472D01*
Y84745D01*
X192708D01*
Y84510D01*
X192943D01*
Y84038D01*
X193179D01*
Y83803D01*
X193414D01*
Y83331D01*
X193650D01*
Y83096D01*
X193886D01*
Y82860D01*
X194121D01*
Y82389D01*
X194357D01*
Y82153D01*
X194593D01*
Y81917D01*
X194828D01*
Y81682D01*
X195064D01*
Y81446D01*
X195300D01*
Y81211D01*
X195535D01*
Y80975D01*
X195771D01*
Y80739D01*
X196007D01*
Y80504D01*
X196242D01*
Y80032D01*
X196478D01*
Y79797D01*
X196714D01*
Y79561D01*
X196949D01*
Y79325D01*
X197185D01*
Y79090D01*
X197421D01*
Y78854D01*
X197656D01*
Y78618D01*
X197892D01*
Y78383D01*
X198127D01*
Y78147D01*
X198363D01*
Y77912D01*
X198599D01*
Y77676D01*
X198834D01*
Y77440D01*
X199070D01*
Y77205D01*
X199306D01*
Y76969D01*
X199541D01*
Y76498D01*
X200013D01*
Y76733D01*
X200484D01*
Y76969D01*
X200720D01*
Y77205D01*
X201191D01*
Y77440D01*
X201427D01*
Y77676D01*
X201662D01*
Y77912D01*
X202133D01*
Y78147D01*
X202369D01*
Y78383D01*
X202605D01*
Y78618D01*
X202840D01*
Y79090D01*
X203076D01*
Y79325D01*
X203312D01*
Y79561D01*
X203547D01*
Y80032D01*
X203783D01*
Y80504D01*
X204019D01*
Y80975D01*
X204254D01*
Y81682D01*
X204490D01*
Y81917D01*
X204254D01*
Y82860D01*
X204019D01*
Y83331D01*
X203783D01*
Y83803D01*
X203547D01*
Y84038D01*
X203312D01*
Y84510D01*
X203076D01*
Y84745D01*
X202840D01*
Y85217D01*
X202605D01*
Y85452D01*
X202369D01*
Y85688D01*
X202133D01*
Y86159D01*
X201898D01*
Y86395D01*
X201662D01*
Y86630D01*
X201427D01*
Y87102D01*
X201191D01*
Y87337D01*
X200955D01*
Y87809D01*
X200720D01*
Y88044D01*
X200484D01*
Y88516D01*
X200248D01*
Y88751D01*
X200013D01*
Y89222D01*
X199777D01*
Y89458D01*
X199541D01*
Y89929D01*
X199306D01*
Y90165D01*
X199070D01*
Y90401D01*
X198834D01*
Y90872D01*
X198599D01*
Y91108D01*
X198363D01*
Y91579D01*
X198127D01*
Y91814D01*
X197892D01*
Y92286D01*
X197656D01*
Y92521D01*
X197421D01*
Y92757D01*
X197185D01*
Y92993D01*
D02*
G37*
G36*
X179983Y82624D02*
X179747D01*
Y82153D01*
X179512D01*
Y79325D01*
X179747D01*
Y78618D01*
X179983D01*
Y78147D01*
X180219D01*
Y77676D01*
X180454D01*
Y76969D01*
X180690D01*
Y76733D01*
Y76498D01*
Y76262D01*
X180925D01*
Y75791D01*
X181161D01*
Y75555D01*
X181632D01*
Y76498D01*
X181868D01*
Y77440D01*
X181632D01*
Y78383D01*
X181397D01*
Y78854D01*
X181161D01*
Y79325D01*
X180925D01*
Y80032D01*
X180690D01*
Y80504D01*
X180454D01*
Y81446D01*
X180219D01*
Y82153D01*
X179983D01*
Y82624D01*
D02*
G37*
G36*
X119658Y78383D02*
X118951D01*
Y77440D01*
X119186D01*
Y77205D01*
Y76969D01*
Y76733D01*
X119422D01*
Y76262D01*
X119658D01*
Y76026D01*
X119894D01*
Y75791D01*
X120129D01*
Y75555D01*
X120365D01*
Y75319D01*
X120600D01*
Y75084D01*
X120836D01*
Y74848D01*
X121307D01*
Y74612D01*
X123193D01*
Y74848D01*
X123664D01*
Y75319D01*
X123428D01*
Y75555D01*
X122957D01*
Y75791D01*
X122250D01*
Y76026D01*
X121779D01*
Y76262D01*
X121307D01*
Y76498D01*
X121072D01*
Y76733D01*
X120836D01*
Y76969D01*
X120600D01*
Y77205D01*
X120365D01*
Y77676D01*
X120129D01*
Y78147D01*
X119658D01*
Y78383D01*
D02*
G37*
G36*
X123664Y77205D02*
X122721D01*
Y76969D01*
X122250D01*
Y76498D01*
X122721D01*
Y76262D01*
X123428D01*
Y76026D01*
X123899D01*
Y75791D01*
X124135D01*
Y75555D01*
X124371D01*
Y75319D01*
X124606D01*
Y75084D01*
X124842D01*
Y74848D01*
X125078D01*
Y74612D01*
X125313D01*
Y74141D01*
X125549D01*
Y73670D01*
X126020D01*
Y73434D01*
X126727D01*
Y74377D01*
X126491D01*
Y75084D01*
X126256D01*
Y75555D01*
X126020D01*
Y75791D01*
X125785D01*
Y76026D01*
X125549D01*
Y76262D01*
X125313D01*
Y76498D01*
X125078D01*
Y76733D01*
X124606D01*
Y76969D01*
X123664D01*
Y77205D01*
D02*
G37*
G36*
X124371Y74612D02*
X124135D01*
Y74377D01*
X123899D01*
Y74141D01*
X123193D01*
Y73906D01*
X122250D01*
Y73434D01*
X122486D01*
Y73199D01*
X122721D01*
Y72727D01*
X123193D01*
Y72963D01*
X123428D01*
Y73199D01*
X123899D01*
Y73434D01*
X124371D01*
Y73670D01*
X124842D01*
Y74141D01*
X124606D01*
Y74377D01*
X124371D01*
Y74612D01*
D02*
G37*
G36*
X179747Y77912D02*
X179512D01*
Y77676D01*
X179276D01*
Y76969D01*
X179040D01*
Y75084D01*
X179276D01*
Y74141D01*
X179512D01*
Y73906D01*
X179747D01*
Y73434D01*
X179983D01*
Y72492D01*
X180219D01*
Y71785D01*
X180454D01*
Y71314D01*
X180690D01*
Y71078D01*
X181161D01*
Y71549D01*
X181397D01*
Y72963D01*
Y73199D01*
Y73906D01*
X181161D01*
Y74612D01*
X180925D01*
Y75084D01*
X180690D01*
Y75555D01*
X180454D01*
Y76026D01*
X180219D01*
Y76969D01*
X179983D01*
Y77440D01*
X179747D01*
Y77912D01*
D02*
G37*
G36*
X121543Y74141D02*
X120836D01*
Y73199D01*
Y72963D01*
X121072D01*
Y72256D01*
X121307D01*
Y71785D01*
X121543D01*
Y71314D01*
X121779D01*
Y71078D01*
X122250D01*
Y70842D01*
X122486D01*
Y70606D01*
X123193D01*
Y70371D01*
X124371D01*
Y70606D01*
X125078D01*
Y70842D01*
X125313D01*
Y71314D01*
X124842D01*
Y71549D01*
X124135D01*
Y71785D01*
X123428D01*
Y72020D01*
X122957D01*
Y72256D01*
X122486D01*
Y72492D01*
X122250D01*
Y72727D01*
X122014D01*
Y73199D01*
X121779D01*
Y73906D01*
X121543D01*
Y74141D01*
D02*
G37*
G36*
X126020Y73199D02*
X124606D01*
Y72963D01*
X124135D01*
Y72727D01*
X123899D01*
Y72256D01*
X124371D01*
Y72020D01*
X125078D01*
Y71785D01*
X125549D01*
Y71549D01*
X126020D01*
Y71314D01*
X126491D01*
Y71078D01*
X126727D01*
Y70606D01*
X126963D01*
Y70371D01*
X127198D01*
Y69900D01*
X127434D01*
Y69664D01*
X127905D01*
Y69428D01*
X128612D01*
Y70135D01*
X128377D01*
Y71078D01*
X128141D01*
Y71549D01*
X127905D01*
Y71785D01*
X127670D01*
Y72020D01*
X127434D01*
Y72256D01*
X127198D01*
Y72492D01*
X126963D01*
Y72727D01*
X126727D01*
Y72963D01*
X126020D01*
Y73199D01*
D02*
G37*
G36*
X126491Y70606D02*
X125785D01*
Y70371D01*
X125549D01*
Y70135D01*
X125078D01*
Y69900D01*
X124371D01*
Y68957D01*
X124606D01*
Y68721D01*
X124842D01*
Y68957D01*
X125313D01*
Y69193D01*
X125549D01*
Y69428D01*
X125785D01*
Y69664D01*
X126727D01*
Y70135D01*
X126491D01*
Y70606D01*
D02*
G37*
G36*
X179040Y69193D02*
X178805D01*
Y68721D01*
X178569D01*
Y68486D01*
Y68250D01*
Y67543D01*
X178805D01*
Y67072D01*
X179276D01*
Y68957D01*
X179040D01*
Y69193D01*
D02*
G37*
G36*
X179276Y73670D02*
X178805D01*
Y73434D01*
X178569D01*
Y72727D01*
X178333D01*
Y71314D01*
X178569D01*
Y70842D01*
X178805D01*
Y70606D01*
X179040D01*
Y70135D01*
X179276D01*
Y69900D01*
X179512D01*
Y69428D01*
X179747D01*
Y67308D01*
Y67072D01*
X179512D01*
Y66601D01*
X178805D01*
Y66836D01*
X178569D01*
Y67308D01*
X178333D01*
Y67779D01*
X178098D01*
Y68721D01*
X178333D01*
Y69193D01*
X178569D01*
Y70135D01*
X178333D01*
Y70371D01*
X178098D01*
Y70135D01*
X177626D01*
Y69664D01*
X177391D01*
Y69193D01*
X177155D01*
Y67779D01*
X176919D01*
Y67308D01*
X177155D01*
Y66365D01*
X177391D01*
Y65894D01*
X177626D01*
Y65658D01*
X178098D01*
Y65422D01*
X179040D01*
Y65187D01*
X179276D01*
Y64715D01*
X179512D01*
Y62830D01*
X179276D01*
Y62595D01*
X178098D01*
Y62830D01*
X177862D01*
Y63066D01*
X177626D01*
Y63302D01*
X177391D01*
Y65422D01*
X177155D01*
Y65894D01*
X176684D01*
Y65422D01*
X176448D01*
Y64715D01*
X176213D01*
Y62830D01*
X176448D01*
Y62359D01*
X176684D01*
Y61888D01*
X176919D01*
Y61652D01*
X177155D01*
Y61416D01*
X177626D01*
Y61181D01*
X178333D01*
Y60945D01*
X178569D01*
Y60238D01*
X178805D01*
Y59767D01*
X179040D01*
Y59531D01*
X179276D01*
Y59060D01*
X179512D01*
Y58824D01*
X179983D01*
Y59296D01*
X180219D01*
Y61416D01*
X179983D01*
Y61888D01*
X179747D01*
Y62123D01*
X179983D01*
Y62359D01*
X180219D01*
Y62830D01*
X180454D01*
Y63537D01*
X180690D01*
Y65422D01*
X180454D01*
Y65894D01*
X180219D01*
Y66129D01*
X179983D01*
Y66601D01*
X180690D01*
Y66836D01*
X180925D01*
Y67308D01*
X181161D01*
Y69664D01*
X180925D01*
Y70135D01*
X180690D01*
Y70606D01*
X180454D01*
Y70842D01*
X180219D01*
Y71078D01*
X179983D01*
Y71549D01*
X179747D01*
Y72492D01*
X179512D01*
Y73434D01*
X179276D01*
Y73670D01*
D02*
G37*
G36*
X122957Y70135D02*
X122250D01*
Y69900D01*
X122486D01*
Y68957D01*
X122721D01*
Y68250D01*
X122957D01*
Y68014D01*
X123193D01*
Y67543D01*
X123428D01*
Y67308D01*
X123664D01*
Y67072D01*
X123899D01*
Y66836D01*
X124371D01*
Y66601D01*
X124842D01*
Y66365D01*
X126256D01*
Y66601D01*
X126963D01*
Y66836D01*
X127198D01*
Y67543D01*
X126727D01*
Y67779D01*
X125549D01*
Y68014D01*
X124842D01*
Y68250D01*
X124371D01*
Y68486D01*
X124135D01*
Y68721D01*
X123899D01*
Y69193D01*
X123664D01*
Y69664D01*
X123428D01*
Y69900D01*
X122957D01*
Y70135D01*
D02*
G37*
G36*
X126963Y69193D02*
X126727D01*
Y68957D01*
X126020D01*
Y68721D01*
X125785D01*
Y68250D01*
X126963D01*
Y68014D01*
X127434D01*
Y67779D01*
X127905D01*
Y67543D01*
X128141D01*
Y67308D01*
X128377D01*
Y67072D01*
X128612D01*
Y66601D01*
X128848D01*
Y65894D01*
X129084D01*
Y65658D01*
X129319D01*
Y65422D01*
X130026D01*
Y65187D01*
X130262D01*
Y66365D01*
X130026D01*
Y67072D01*
X129790D01*
Y67543D01*
X129555D01*
Y68014D01*
X129319D01*
Y68250D01*
X128848D01*
Y68486D01*
X128612D01*
Y68721D01*
X128141D01*
Y68957D01*
X126963D01*
Y69193D01*
D02*
G37*
G36*
X128141Y66836D02*
X127905D01*
Y66601D01*
X127434D01*
Y66365D01*
X126963D01*
Y66129D01*
X126727D01*
Y65894D01*
X126020D01*
Y64951D01*
X126256D01*
Y64715D01*
X126491D01*
Y64480D01*
X126727D01*
Y64715D01*
X126963D01*
Y64951D01*
X127434D01*
Y65187D01*
X127670D01*
Y65422D01*
X128377D01*
Y65658D01*
X128612D01*
Y65894D01*
X128377D01*
Y66365D01*
X128141D01*
Y66836D01*
D02*
G37*
G36*
X178333Y64951D02*
X177862D01*
Y64715D01*
Y63537D01*
X178098D01*
Y63302D01*
X178333D01*
Y63066D01*
X178805D01*
Y64715D01*
X178333D01*
Y64951D01*
D02*
G37*
G36*
X124606Y66129D02*
X124135D01*
Y65187D01*
X124371D01*
Y64244D01*
X124606D01*
Y63773D01*
X124842D01*
Y63302D01*
X125078D01*
Y63066D01*
X125313D01*
Y62830D01*
X125549D01*
Y62595D01*
X126020D01*
Y62359D01*
X126491D01*
Y62123D01*
X128141D01*
Y62359D01*
X128612D01*
Y62595D01*
X129084D01*
Y63066D01*
X128612D01*
Y63302D01*
X127198D01*
Y63537D01*
X126491D01*
Y63773D01*
X126256D01*
Y64008D01*
X126020D01*
Y64244D01*
X125785D01*
Y64480D01*
X125549D01*
Y64951D01*
X125313D01*
Y65894D01*
X124606D01*
Y66129D01*
D02*
G37*
G36*
X129555Y64951D02*
X128612D01*
Y64715D01*
X127905D01*
Y64480D01*
X127434D01*
Y64244D01*
X127198D01*
Y64008D01*
X127434D01*
Y63773D01*
X128848D01*
Y63537D01*
X129555D01*
Y63302D01*
X129790D01*
Y63066D01*
X130026D01*
Y62830D01*
X130262D01*
Y62595D01*
X130498D01*
Y62123D01*
X130733D01*
Y61652D01*
X130969D01*
Y61416D01*
X131204D01*
Y61181D01*
X131676D01*
Y60945D01*
X132147D01*
Y61888D01*
X131911D01*
Y62595D01*
X131676D01*
Y63066D01*
X131440D01*
Y63537D01*
X131204D01*
Y63773D01*
X130969D01*
Y64008D01*
X130733D01*
Y64244D01*
X130498D01*
Y64480D01*
X130262D01*
Y64715D01*
X129555D01*
Y64951D01*
D02*
G37*
G36*
X129790Y62595D02*
X129555D01*
Y62359D01*
X129319D01*
Y62123D01*
X129084D01*
Y61888D01*
X128612D01*
Y61652D01*
X127670D01*
Y61181D01*
X127905D01*
Y60710D01*
X128377D01*
Y60474D01*
X128612D01*
Y60710D01*
X129084D01*
Y60945D01*
X129555D01*
Y61181D01*
X130262D01*
Y61888D01*
X130026D01*
Y62359D01*
X129790D01*
Y62595D01*
D02*
G37*
G36*
X126491Y61888D02*
X126256D01*
Y60474D01*
X126491D01*
Y60002D01*
X126727D01*
Y59531D01*
X126963D01*
Y59296D01*
X127198D01*
Y59060D01*
X127434D01*
Y58824D01*
X127670D01*
Y58589D01*
X128141D01*
Y58353D01*
X129084D01*
Y58117D01*
X130262D01*
Y58353D01*
X130733D01*
Y59060D01*
X130026D01*
Y59296D01*
X129319D01*
Y59531D01*
X128848D01*
Y59767D01*
X128377D01*
Y60002D01*
X128141D01*
Y60238D01*
X127905D01*
Y60474D01*
X127670D01*
Y60710D01*
X127434D01*
Y61181D01*
X127198D01*
Y61652D01*
X126491D01*
Y61888D01*
D02*
G37*
G36*
X176213Y62359D02*
X175977D01*
Y62123D01*
X175741D01*
Y61652D01*
X175506D01*
Y60945D01*
X175270D01*
Y59296D01*
X175506D01*
Y58589D01*
X175741D01*
Y58353D01*
X175977D01*
Y58117D01*
X176213D01*
Y57882D01*
X176448D01*
Y57646D01*
X176684D01*
Y57410D01*
X177862D01*
Y57882D01*
X177626D01*
Y58353D01*
X177391D01*
Y58589D01*
X177155D01*
Y58824D01*
X176919D01*
Y59296D01*
X176684D01*
Y59531D01*
Y59767D01*
X176448D01*
Y60945D01*
X176684D01*
Y61652D01*
X176448D01*
Y61888D01*
X176213D01*
Y62359D01*
D02*
G37*
G36*
X131440Y60710D02*
X129790D01*
Y60474D01*
X129319D01*
Y60002D01*
X129790D01*
Y59767D01*
X130733D01*
Y59531D01*
X131204D01*
Y59296D01*
X131440D01*
Y59060D01*
X131911D01*
Y58824D01*
X132147D01*
Y58589D01*
X132383D01*
Y58117D01*
X132618D01*
Y57410D01*
X133325D01*
Y57175D01*
X134032D01*
Y58353D01*
X133797D01*
Y58824D01*
X133561D01*
Y59296D01*
X133325D01*
Y59531D01*
X133090D01*
Y59767D01*
X132854D01*
Y60002D01*
X132383D01*
Y60238D01*
X132147D01*
Y60474D01*
X131440D01*
Y60710D01*
D02*
G37*
G36*
X131676Y58353D02*
X131204D01*
Y58117D01*
X130969D01*
Y57882D01*
X130733D01*
Y57646D01*
X129790D01*
Y56939D01*
X130026D01*
Y56704D01*
Y56468D01*
X130262D01*
Y56232D01*
X130498D01*
Y56468D01*
X130733D01*
Y56704D01*
X130969D01*
Y56939D01*
X131204D01*
Y57175D01*
X131676D01*
Y57410D01*
X131911D01*
Y58117D01*
X131676D01*
Y58353D01*
D02*
G37*
G36*
X184224Y93935D02*
X183989D01*
Y93700D01*
X183753D01*
Y92757D01*
X183517D01*
Y91579D01*
X183282D01*
Y90872D01*
X183046D01*
Y88044D01*
X182811D01*
Y87102D01*
X182575D01*
Y86159D01*
X182811D01*
Y84038D01*
X182575D01*
Y83567D01*
X182339D01*
Y82153D01*
X182575D01*
Y80268D01*
X182339D01*
Y79797D01*
X182104D01*
Y79325D01*
X181868D01*
Y78854D01*
X182104D01*
Y78383D01*
X182339D01*
Y75555D01*
X182104D01*
Y75084D01*
X181868D01*
Y74848D01*
X181632D01*
Y74612D01*
X181868D01*
Y73906D01*
X182104D01*
Y71549D01*
X181868D01*
Y71078D01*
X181632D01*
Y70606D01*
X181397D01*
Y70135D01*
X181632D01*
Y69900D01*
X181868D01*
Y67543D01*
X181632D01*
Y66836D01*
X181397D01*
Y66601D01*
X181161D01*
Y65422D01*
X181397D01*
Y63773D01*
X181161D01*
Y62830D01*
X180925D01*
Y62359D01*
X180690D01*
Y61888D01*
X180454D01*
Y61652D01*
X180690D01*
Y60945D01*
X180925D01*
Y59531D01*
X180690D01*
Y58824D01*
X180454D01*
Y58353D01*
X180219D01*
Y57882D01*
X180454D01*
Y56468D01*
X180219D01*
Y55525D01*
X180454D01*
Y55761D01*
X180690D01*
Y55997D01*
X180925D01*
Y56232D01*
X181161D01*
Y56468D01*
X181397D01*
Y56704D01*
X181632D01*
Y56939D01*
X181868D01*
Y57175D01*
X182104D01*
Y57410D01*
X182339D01*
Y57646D01*
X182575D01*
Y57882D01*
X182811D01*
Y58117D01*
X183046D01*
Y58353D01*
X183282D01*
Y58589D01*
X183517D01*
Y58824D01*
X183753D01*
Y59060D01*
X183989D01*
Y59296D01*
X184224D01*
Y59531D01*
X184460D01*
Y59767D01*
X184696D01*
Y60002D01*
X184931D01*
Y60238D01*
X185167D01*
Y60710D01*
X185403D01*
Y60945D01*
X185638D01*
Y61181D01*
X185874D01*
Y61416D01*
X186110D01*
Y61652D01*
X186345D01*
Y61888D01*
X186581D01*
Y62123D01*
X186817D01*
Y62359D01*
X187052D01*
Y62595D01*
X187288D01*
Y62830D01*
X187523D01*
Y63066D01*
X187759D01*
Y63537D01*
X187995D01*
Y63773D01*
X188230D01*
Y64008D01*
X188466D01*
Y64244D01*
X188702D01*
Y64480D01*
X188937D01*
Y64715D01*
X189173D01*
Y64951D01*
X189409D01*
Y65187D01*
X189644D01*
Y65658D01*
X189880D01*
Y65894D01*
X190116D01*
Y66129D01*
X190351D01*
Y66365D01*
X190587D01*
Y66601D01*
X190823D01*
Y66836D01*
X191058D01*
Y67072D01*
X191294D01*
Y67308D01*
X191529D01*
Y67543D01*
X191765D01*
Y67779D01*
X192001D01*
Y68014D01*
X192236D01*
Y68250D01*
X192472D01*
Y68486D01*
X192708D01*
Y68957D01*
X192943D01*
Y69193D01*
X193179D01*
Y69428D01*
X193414D01*
Y69664D01*
X193650D01*
Y69900D01*
X193886D01*
Y70135D01*
X194121D01*
Y70371D01*
X194357D01*
Y70842D01*
X194593D01*
Y71078D01*
X194828D01*
Y71314D01*
X195064D01*
Y71549D01*
X195300D01*
Y71785D01*
X195535D01*
Y72256D01*
X195771D01*
Y72492D01*
X196007D01*
Y72727D01*
X196242D01*
Y72963D01*
X196478D01*
Y73434D01*
X196714D01*
Y73670D01*
X196949D01*
Y73906D01*
X197185D01*
Y74141D01*
X197421D01*
Y74377D01*
X197656D01*
Y74612D01*
X197892D01*
Y74848D01*
X198127D01*
Y75084D01*
X198363D01*
Y75319D01*
X198599D01*
Y75555D01*
X199070D01*
Y75791D01*
X199306D01*
Y76026D01*
X199070D01*
Y76262D01*
X198834D01*
Y76498D01*
X198599D01*
Y76733D01*
X198363D01*
Y76969D01*
X198127D01*
Y77205D01*
X197892D01*
Y77440D01*
X197656D01*
Y77676D01*
X197421D01*
Y77912D01*
X197185D01*
Y78147D01*
X196949D01*
Y78383D01*
X196714D01*
Y78618D01*
X196478D01*
Y78854D01*
X196242D01*
Y79090D01*
X196007D01*
Y79325D01*
X195771D01*
Y79561D01*
X195535D01*
Y79797D01*
X195300D01*
Y80032D01*
X195064D01*
Y80268D01*
X194828D01*
Y80504D01*
X194593D01*
Y80739D01*
X194357D01*
Y81211D01*
X194121D01*
Y81446D01*
X193886D01*
Y81682D01*
X193650D01*
Y81917D01*
X193414D01*
Y82153D01*
X193179D01*
Y82389D01*
X192943D01*
Y82860D01*
X192708D01*
Y83096D01*
X192472D01*
Y83567D01*
X192236D01*
Y83803D01*
X192001D01*
Y84274D01*
X191765D01*
Y84510D01*
X191529D01*
Y84981D01*
X191294D01*
Y85452D01*
X191058D01*
Y85923D01*
X190823D01*
Y86159D01*
X190587D01*
Y86630D01*
X190351D01*
Y87102D01*
X190116D01*
Y87573D01*
X189880D01*
Y88044D01*
X189644D01*
Y88751D01*
X189409D01*
Y89222D01*
X189173D01*
Y89694D01*
X188937D01*
Y90165D01*
X188702D01*
Y90872D01*
X188466D01*
Y91579D01*
X188230D01*
Y92286D01*
X187995D01*
Y92757D01*
X187523D01*
Y92993D01*
X186581D01*
Y93228D01*
X185874D01*
Y93464D01*
X185167D01*
Y93700D01*
X184224D01*
Y93935D01*
D02*
G37*
G36*
X177391Y56939D02*
X176213D01*
Y56704D01*
X175977D01*
Y56468D01*
Y55997D01*
X176213D01*
Y55761D01*
X176919D01*
Y55525D01*
X177626D01*
Y55290D01*
X177862D01*
Y55525D01*
X178098D01*
Y56704D01*
X177391D01*
Y56939D01*
D02*
G37*
G36*
X178098Y60710D02*
X177155D01*
Y59531D01*
X177391D01*
Y59060D01*
X177626D01*
Y58824D01*
X177862D01*
Y58589D01*
X178098D01*
Y58353D01*
X178333D01*
Y57646D01*
X178569D01*
Y55525D01*
X178333D01*
Y54583D01*
X178098D01*
Y54347D01*
X177862D01*
Y54111D01*
X177626D01*
Y54583D01*
X177391D01*
Y55054D01*
X176213D01*
Y55290D01*
X175977D01*
Y55525D01*
X175741D01*
Y55761D01*
X175506D01*
Y57175D01*
X175741D01*
Y57882D01*
X175506D01*
Y58117D01*
X174799D01*
Y57882D01*
X174563D01*
Y57175D01*
X174327D01*
Y55761D01*
X174563D01*
Y55054D01*
X174799D01*
Y54583D01*
X175034D01*
Y54347D01*
X175270D01*
Y54111D01*
X175506D01*
Y53876D01*
X175977D01*
Y53640D01*
X176448D01*
Y53404D01*
X177626D01*
Y51755D01*
X177862D01*
Y51519D01*
X178098D01*
Y51284D01*
X178333D01*
Y51048D01*
X178569D01*
Y51284D01*
X178805D01*
Y53404D01*
X179040D01*
Y53640D01*
Y53876D01*
X179276D01*
Y54111D01*
X179512D01*
Y55054D01*
X179747D01*
Y57882D01*
X179512D01*
Y58353D01*
X179276D01*
Y58589D01*
X179040D01*
Y59060D01*
X178805D01*
Y59296D01*
X178569D01*
Y59531D01*
X178333D01*
Y59767D01*
X178098D01*
Y60710D01*
D02*
G37*
G36*
X128612Y57882D02*
X128141D01*
Y57646D01*
X127905D01*
Y57410D01*
X128141D01*
Y56232D01*
X128377D01*
Y55525D01*
X128612D01*
Y55290D01*
X128848D01*
Y54818D01*
X129084D01*
Y54583D01*
X129555D01*
Y54347D01*
X129790D01*
Y54111D01*
X130733D01*
Y53876D01*
X131676D01*
Y54111D01*
X132383D01*
Y54347D01*
X132854D01*
Y54583D01*
X133090D01*
Y54818D01*
X132854D01*
Y55054D01*
X131911D01*
Y55290D01*
X130969D01*
Y55525D01*
X130498D01*
Y55761D01*
X130026D01*
Y55997D01*
X129790D01*
Y56232D01*
X129555D01*
Y56468D01*
Y56704D01*
X129319D01*
Y57175D01*
X129084D01*
Y57646D01*
X128612D01*
Y57882D01*
D02*
G37*
G36*
X134032Y56704D02*
X131676D01*
Y56468D01*
X131204D01*
Y56232D01*
X130969D01*
Y55997D01*
X131676D01*
Y55761D01*
X132618D01*
Y55525D01*
X133325D01*
Y55290D01*
X133561D01*
Y55054D01*
X133797D01*
Y54818D01*
X134032D01*
Y54583D01*
X134268D01*
Y54347D01*
X134503D01*
Y54111D01*
X134739D01*
Y53640D01*
X134975D01*
Y53404D01*
X135446D01*
Y53169D01*
X135682D01*
Y54583D01*
X135446D01*
Y55054D01*
X135210D01*
Y55525D01*
X134975D01*
Y55997D01*
X134739D01*
Y56232D01*
X134268D01*
Y56468D01*
X134032D01*
Y56704D01*
D02*
G37*
G36*
X133797Y54347D02*
X133325D01*
Y53876D01*
X132854D01*
Y53640D01*
X132618D01*
Y53404D01*
X131911D01*
Y52698D01*
X132147D01*
Y52462D01*
X132618D01*
Y52933D01*
X132854D01*
Y53169D01*
X133325D01*
Y53404D01*
X134032D01*
Y54111D01*
X133797D01*
Y54347D01*
D02*
G37*
G36*
X175741Y53169D02*
X175506D01*
Y52698D01*
X175270D01*
Y52226D01*
X176684D01*
Y51991D01*
X176919D01*
Y52226D01*
X177155D01*
Y52462D01*
X176919D01*
Y52933D01*
X175741D01*
Y53169D01*
D02*
G37*
G36*
X130969Y53404D02*
X130026D01*
Y52933D01*
X130262D01*
Y52226D01*
X130498D01*
Y51755D01*
X130733D01*
Y51519D01*
X130969D01*
Y51048D01*
X131204D01*
Y50812D01*
X131676D01*
Y50577D01*
X131911D01*
Y50341D01*
X132383D01*
Y50106D01*
X133325D01*
Y49870D01*
X133561D01*
Y50106D01*
X134503D01*
Y50341D01*
X134975D01*
Y51048D01*
X134739D01*
Y51284D01*
X134032D01*
Y51519D01*
X132618D01*
Y51755D01*
X132383D01*
Y51991D01*
X131911D01*
Y52226D01*
X131676D01*
Y52462D01*
X131440D01*
Y52933D01*
X131204D01*
Y53169D01*
X130969D01*
Y53404D01*
D02*
G37*
G36*
X174799Y54111D02*
X174092D01*
Y53876D01*
X173856D01*
Y53404D01*
X173620D01*
Y52698D01*
X173385D01*
Y51519D01*
X173620D01*
Y50812D01*
X173856D01*
Y50577D01*
X174092D01*
Y50341D01*
X174327D01*
Y50106D01*
X174563D01*
Y49870D01*
X175034D01*
Y49634D01*
X176448D01*
Y50577D01*
X176213D01*
Y51048D01*
X175977D01*
Y51284D01*
X175741D01*
Y51048D01*
X175506D01*
Y51284D01*
X175034D01*
Y52226D01*
X174799D01*
Y52462D01*
X175034D01*
Y53876D01*
X174799D01*
Y54111D01*
D02*
G37*
G36*
X135682Y52933D02*
X133561D01*
Y52698D01*
X133325D01*
Y52462D01*
X133090D01*
Y52226D01*
X133325D01*
Y51991D01*
X134032D01*
Y51755D01*
X134975D01*
Y51519D01*
X135446D01*
Y51284D01*
X135917D01*
Y51048D01*
X136153D01*
Y50577D01*
X136389D01*
Y50341D01*
X136624D01*
Y49870D01*
X136860D01*
Y49398D01*
X138274D01*
Y50106D01*
X138038D01*
Y50577D01*
X137802D01*
Y51048D01*
X137567D01*
Y51519D01*
X137331D01*
Y51755D01*
X137095D01*
Y51991D01*
X136860D01*
Y52226D01*
X136389D01*
Y52462D01*
X136153D01*
Y52698D01*
X135682D01*
Y52933D01*
D02*
G37*
G36*
X135917Y50341D02*
X135682D01*
Y50106D01*
X135446D01*
Y49870D01*
X134975D01*
Y49634D01*
X134503D01*
Y49398D01*
X133797D01*
Y48927D01*
X134032D01*
Y48692D01*
X134268D01*
Y48456D01*
X134503D01*
Y48220D01*
X134739D01*
Y48456D01*
Y48692D01*
X134975D01*
Y48927D01*
X135446D01*
Y49163D01*
X135917D01*
Y49398D01*
X136153D01*
Y49870D01*
X135917D01*
Y50341D01*
D02*
G37*
G36*
X113060Y92050D02*
X111882D01*
Y91814D01*
X110939D01*
Y91579D01*
X110232D01*
Y91343D01*
X109761D01*
Y91108D01*
X109289D01*
Y90872D01*
X109054D01*
Y90636D01*
X108347D01*
Y90401D01*
X107640D01*
Y89694D01*
X107404D01*
Y88044D01*
X107169D01*
Y86395D01*
X106933D01*
Y84745D01*
X106697D01*
Y83331D01*
X106462D01*
Y81917D01*
X106226D01*
Y80975D01*
X105990D01*
Y80268D01*
X105755D01*
Y79325D01*
X105519D01*
Y78854D01*
X105283D01*
Y77912D01*
X105048D01*
Y77205D01*
X104812D01*
Y76733D01*
X104577D01*
Y76026D01*
X104341D01*
Y75555D01*
X104105D01*
Y75084D01*
X103870D01*
Y74612D01*
X103634D01*
Y74141D01*
X103398D01*
Y73434D01*
X103163D01*
Y72963D01*
X102927D01*
Y72727D01*
X102691D01*
Y72256D01*
X102456D01*
Y71785D01*
X102220D01*
Y71549D01*
X101985D01*
Y71078D01*
X101749D01*
Y70842D01*
X101513D01*
Y70371D01*
X101278D01*
Y70135D01*
X101042D01*
Y69900D01*
X100806D01*
Y69664D01*
X100571D01*
Y69193D01*
X101042D01*
Y68957D01*
X101278D01*
Y68721D01*
X101513D01*
Y68486D01*
X101749D01*
Y68250D01*
X102220D01*
Y68014D01*
X102456D01*
Y67779D01*
X102691D01*
Y67543D01*
X102927D01*
Y67308D01*
X103163D01*
Y67072D01*
X103634D01*
Y66836D01*
X103870D01*
Y66601D01*
X104341D01*
Y66365D01*
X104577D01*
Y66129D01*
X105048D01*
Y65894D01*
X105519D01*
Y65658D01*
X105755D01*
Y65422D01*
X106226D01*
Y65187D01*
X106462D01*
Y64951D01*
X106933D01*
Y64715D01*
X107404D01*
Y64480D01*
X107640D01*
Y64244D01*
X108111D01*
Y64008D01*
X108582D01*
Y63773D01*
X108818D01*
Y63537D01*
X109289D01*
Y63302D01*
X109525D01*
Y63066D01*
X109996D01*
Y62830D01*
X110232D01*
Y62595D01*
X110468D01*
Y62359D01*
X110939D01*
Y62123D01*
X111175D01*
Y61888D01*
X111410D01*
Y61652D01*
X111882D01*
Y61416D01*
X112117D01*
Y61181D01*
X112353D01*
Y60945D01*
X112824D01*
Y60710D01*
X113060D01*
Y60474D01*
X113295D01*
Y60238D01*
X113531D01*
Y60002D01*
X113767D01*
Y59767D01*
X114238D01*
Y59531D01*
X114474D01*
Y59296D01*
X114709D01*
Y59060D01*
X115181D01*
Y58824D01*
X115416D01*
Y58589D01*
X115887D01*
Y58353D01*
X116123D01*
Y58117D01*
X116594D01*
Y57882D01*
X116830D01*
Y57646D01*
X117301D01*
Y57410D01*
X117773D01*
Y57175D01*
X118244D01*
Y56939D01*
X118480D01*
Y56704D01*
X118951D01*
Y56468D01*
X119422D01*
Y56232D01*
X119658D01*
Y55997D01*
X120129D01*
Y55761D01*
X120365D01*
Y55525D01*
X120836D01*
Y55290D01*
X121072D01*
Y55054D01*
X121307D01*
Y54818D01*
X121779D01*
Y54583D01*
X122014D01*
Y54347D01*
X122486D01*
Y54111D01*
X122721D01*
Y53876D01*
X123193D01*
Y53640D01*
X123428D01*
Y53404D01*
X123664D01*
Y53169D01*
X123899D01*
Y52933D01*
X124371D01*
Y52698D01*
X124606D01*
Y52462D01*
X124842D01*
Y52226D01*
X125313D01*
Y51991D01*
X125549D01*
Y51755D01*
X125785D01*
Y51519D01*
X126256D01*
Y51284D01*
X126727D01*
Y51048D01*
X126963D01*
Y50812D01*
X127434D01*
Y50577D01*
X127905D01*
Y50341D01*
X128377D01*
Y50106D01*
X128848D01*
Y49870D01*
X129319D01*
Y49634D01*
X129555D01*
Y49398D01*
X130026D01*
Y49163D01*
X130262D01*
Y48927D01*
X130733D01*
Y48692D01*
X130969D01*
Y48456D01*
X131204D01*
Y48220D01*
X131440D01*
Y47985D01*
X131911D01*
Y48220D01*
X131676D01*
Y48927D01*
X131440D01*
Y49870D01*
X131204D01*
Y50106D01*
X130969D01*
Y50341D01*
X130733D01*
Y50577D01*
X130498D01*
Y51048D01*
X130262D01*
Y51284D01*
X130026D01*
Y51755D01*
X129790D01*
Y52462D01*
X129555D01*
Y53640D01*
X129319D01*
Y53876D01*
X129084D01*
Y54111D01*
X128848D01*
Y54347D01*
X128612D01*
Y54583D01*
X128377D01*
Y54818D01*
Y55054D01*
X128141D01*
Y55290D01*
X127905D01*
Y55997D01*
X127670D01*
Y56704D01*
X127434D01*
Y58117D01*
X127198D01*
Y58353D01*
X126963D01*
Y58589D01*
X126727D01*
Y59060D01*
X126491D01*
Y59296D01*
X126256D01*
Y59531D01*
X126020D01*
Y60002D01*
X125785D01*
Y60710D01*
X125549D01*
Y61888D01*
X125313D01*
Y62359D01*
X124842D01*
Y62830D01*
X124606D01*
Y63066D01*
X124371D01*
Y63302D01*
X124135D01*
Y64008D01*
X123899D01*
Y64715D01*
X123664D01*
Y66601D01*
X123428D01*
Y66836D01*
X123193D01*
Y67072D01*
X122957D01*
Y67308D01*
X122721D01*
Y67779D01*
X122486D01*
Y68250D01*
X122250D01*
Y68721D01*
X122014D01*
Y69428D01*
X121779D01*
Y70606D01*
X121543D01*
Y70842D01*
X121307D01*
Y71078D01*
X121072D01*
Y71549D01*
X120836D01*
Y71785D01*
X120600D01*
Y72256D01*
X120365D01*
Y72963D01*
X120129D01*
Y74848D01*
X119894D01*
Y75084D01*
X119658D01*
Y75319D01*
X119422D01*
Y75791D01*
X119186D01*
Y76026D01*
X118951D01*
Y76498D01*
X118715D01*
Y77205D01*
X118480D01*
Y78383D01*
X118244D01*
Y78618D01*
X118008D01*
Y78854D01*
X117773D01*
Y79325D01*
X117537D01*
Y79561D01*
X117301D01*
Y80032D01*
X117066D01*
Y80504D01*
X116830D01*
Y81211D01*
X116594D01*
Y81917D01*
X116359D01*
Y82624D01*
X116123D01*
Y83096D01*
X115887D01*
Y83567D01*
X115652D01*
Y84274D01*
X115416D01*
Y84745D01*
X115181D01*
Y85217D01*
X114945D01*
Y85688D01*
X114709D01*
Y86395D01*
X114474D01*
Y87102D01*
X114238D01*
Y87573D01*
X114002D01*
Y88516D01*
X113767D01*
Y89458D01*
X113531D01*
Y90165D01*
X113295D01*
Y90872D01*
X113060D01*
Y92050D01*
D02*
G37*
G36*
X176448Y48927D02*
X176213D01*
Y48692D01*
X175741D01*
Y48456D01*
X175506D01*
Y48220D01*
X175270D01*
Y47985D01*
X174799D01*
Y47513D01*
X176213D01*
Y47985D01*
X176448D01*
Y48927D01*
D02*
G37*
G36*
X176684Y51755D02*
X176213D01*
Y51519D01*
X176448D01*
Y51048D01*
X176684D01*
Y50812D01*
X176919D01*
Y50106D01*
X177155D01*
Y48220D01*
X176919D01*
Y47513D01*
X176684D01*
Y47042D01*
X176919D01*
Y46806D01*
X177155D01*
Y46571D01*
X177862D01*
Y46806D01*
X178098D01*
Y47278D01*
X178333D01*
Y47985D01*
X178569D01*
Y50106D01*
X178333D01*
Y50577D01*
X178098D01*
Y50812D01*
X177862D01*
Y51048D01*
X177391D01*
Y51284D01*
X177155D01*
Y51519D01*
X176684D01*
Y51755D01*
D02*
G37*
G36*
X132618Y49634D02*
X131911D01*
Y49163D01*
X132147D01*
Y48456D01*
X132383D01*
Y47985D01*
X132618D01*
Y47513D01*
X132854D01*
Y47278D01*
X133090D01*
Y47042D01*
X133325D01*
Y46806D01*
X133561D01*
Y46571D01*
X134032D01*
Y46335D01*
X134268D01*
Y46100D01*
X134975D01*
Y45864D01*
X136153D01*
Y46100D01*
X136860D01*
Y46335D01*
X137095D01*
Y46806D01*
X136860D01*
Y47042D01*
X136153D01*
Y47278D01*
X135210D01*
Y47513D01*
X134503D01*
Y47749D01*
X134268D01*
Y47985D01*
X134032D01*
Y48220D01*
X133797D01*
Y48456D01*
X133561D01*
Y48692D01*
X133325D01*
Y49163D01*
X133090D01*
Y49398D01*
X132618D01*
Y49634D01*
D02*
G37*
G36*
X137567Y48927D02*
X136389D01*
Y48692D01*
X135917D01*
Y48456D01*
X135446D01*
Y48220D01*
X135210D01*
Y47985D01*
X135446D01*
Y47749D01*
X136860D01*
Y47513D01*
X137331D01*
Y47278D01*
X137567D01*
Y47042D01*
X137802D01*
Y46806D01*
X138274D01*
Y46335D01*
X138509D01*
Y46100D01*
X138745D01*
Y45864D01*
X138981D01*
Y45628D01*
X140159D01*
Y46335D01*
X139923D01*
Y46806D01*
X139688D01*
Y47278D01*
X139452D01*
Y47749D01*
X139216D01*
Y47985D01*
X138981D01*
Y48220D01*
X138745D01*
Y48456D01*
X138274D01*
Y48692D01*
X137567D01*
Y48927D01*
D02*
G37*
G36*
X138038Y46335D02*
X137567D01*
Y46100D01*
X137331D01*
Y45864D01*
X137095D01*
Y45628D01*
X136860D01*
Y45393D01*
X136153D01*
Y45157D01*
X136389D01*
Y44921D01*
X137095D01*
Y45157D01*
X137331D01*
Y45393D01*
X137802D01*
Y45628D01*
X138274D01*
Y46100D01*
X138038D01*
Y46335D01*
D02*
G37*
%LPD*%
G36*
X140866Y171462D02*
X142280D01*
Y171227D01*
X142515D01*
Y170520D01*
X142280D01*
Y170756D01*
X141808D01*
Y170991D01*
X134975D01*
Y170756D01*
X134032D01*
Y170520D01*
X133090D01*
Y170284D01*
X131911D01*
Y170049D01*
X130969D01*
Y169813D01*
X129790D01*
Y169577D01*
X129084D01*
Y169342D01*
X128612D01*
Y169106D01*
X128141D01*
Y168870D01*
X127670D01*
Y168635D01*
X127198D01*
Y168399D01*
X126491D01*
Y168635D01*
X126727D01*
Y168870D01*
X126963D01*
Y169106D01*
X127434D01*
Y169342D01*
X127905D01*
Y169577D01*
X128377D01*
Y169813D01*
X129084D01*
Y170049D01*
X129555D01*
Y170284D01*
X130498D01*
Y170520D01*
X131204D01*
Y170756D01*
X132383D01*
Y170991D01*
X133325D01*
Y171227D01*
X134032D01*
Y171462D01*
X135210D01*
Y171698D01*
X140866D01*
Y171462D01*
D02*
G37*
G36*
X168436Y171698D02*
X168908D01*
Y171462D01*
X169379D01*
Y171227D01*
X170086D01*
Y170991D01*
X171264D01*
Y170756D01*
X171500D01*
Y170520D01*
X171971D01*
Y170284D01*
X172442D01*
Y170049D01*
X172913D01*
Y169813D01*
X173149D01*
Y169577D01*
X173385D01*
Y169342D01*
X173856D01*
Y169106D01*
X174327D01*
Y168870D01*
X174563D01*
Y168635D01*
X174799D01*
Y168399D01*
X174092D01*
Y168635D01*
X173620D01*
Y168870D01*
X173385D01*
Y169106D01*
X172913D01*
Y169342D01*
X172678D01*
Y169577D01*
X172206D01*
Y169813D01*
X171500D01*
Y170049D01*
X171264D01*
Y170284D01*
X170321D01*
Y170520D01*
X169614D01*
Y170756D01*
X168908D01*
Y170991D01*
X168436D01*
Y171227D01*
X162781D01*
Y170991D01*
X162074D01*
Y170756D01*
X160896D01*
Y170520D01*
X160660D01*
Y170756D01*
X160189D01*
Y170991D01*
Y171227D01*
X160660D01*
Y171462D01*
X161838D01*
Y171698D01*
X162781D01*
Y171934D01*
X168436D01*
Y171698D01*
D02*
G37*
G36*
X143222Y167456D02*
X143458D01*
Y167221D01*
X143929D01*
Y166985D01*
X144165D01*
Y166749D01*
X144401D01*
Y166514D01*
X144636D01*
Y166043D01*
X144872D01*
Y165571D01*
X145107D01*
Y165100D01*
X145343D01*
Y164864D01*
X145107D01*
Y164629D01*
X144872D01*
Y165100D01*
X144636D01*
Y165336D01*
X144401D01*
Y165807D01*
X144165D01*
Y166043D01*
X143929D01*
Y166278D01*
X143694D01*
Y166514D01*
X143458D01*
Y166749D01*
X143222D01*
Y166985D01*
X142987D01*
Y167221D01*
X142751D01*
Y167692D01*
X143222D01*
Y167456D01*
D02*
G37*
G36*
X159717Y166985D02*
X159482D01*
Y166749D01*
X159010D01*
Y166514D01*
X158775D01*
Y166278D01*
X158539D01*
Y165807D01*
X158303D01*
Y165571D01*
X158068D01*
Y164864D01*
X157832D01*
Y164393D01*
X157597D01*
Y164629D01*
X157361D01*
Y165100D01*
X157597D01*
Y165807D01*
X157832D01*
Y166278D01*
X158068D01*
Y166514D01*
X158303D01*
Y166749D01*
X158539D01*
Y166985D01*
X158775D01*
Y167221D01*
X159717D01*
Y166985D01*
D02*
G37*
G36*
X136624Y162037D02*
X137331D01*
Y161801D01*
X137802D01*
Y161565D01*
X138274D01*
Y161330D01*
X138509D01*
Y161094D01*
X138981D01*
Y160858D01*
X139452D01*
Y160623D01*
X139923D01*
Y160387D01*
X140159D01*
Y160152D01*
X140630D01*
Y159916D01*
X141102D01*
Y159680D01*
X141573D01*
Y159445D01*
X142044D01*
Y159209D01*
X142280D01*
Y158973D01*
X142751D01*
Y158738D01*
X142987D01*
Y158266D01*
X143222D01*
Y158031D01*
X142987D01*
Y157559D01*
X142751D01*
Y157795D01*
X142515D01*
Y158031D01*
X142044D01*
Y158266D01*
X141808D01*
Y158502D01*
X141337D01*
Y158738D01*
X140866D01*
Y158973D01*
X140394D01*
Y159209D01*
X139923D01*
Y159445D01*
X139452D01*
Y159680D01*
X138981D01*
Y158266D01*
X138745D01*
Y157559D01*
X138509D01*
Y156617D01*
X138981D01*
Y156852D01*
X141573D01*
Y157088D01*
X141808D01*
Y157324D01*
X142044D01*
Y157559D01*
X142280D01*
Y157324D01*
X142515D01*
Y156381D01*
X142044D01*
Y156145D01*
X141337D01*
Y155910D01*
X138509D01*
Y155674D01*
X134975D01*
Y155439D01*
X132383D01*
Y155674D01*
X131676D01*
Y155910D01*
X131204D01*
Y156145D01*
X130969D01*
Y156381D01*
X130733D01*
Y156617D01*
X130498D01*
Y156852D01*
X130262D01*
Y157088D01*
X130026D01*
Y157324D01*
X129555D01*
Y157559D01*
X129319D01*
Y157795D01*
X129084D01*
Y158266D01*
X128848D01*
Y159445D01*
X129084D01*
Y159916D01*
X129319D01*
Y160387D01*
X129555D01*
Y161094D01*
X129319D01*
Y161330D01*
X129084D01*
Y161565D01*
X129319D01*
Y161801D01*
X129555D01*
Y162037D01*
X131204D01*
Y162272D01*
X136624D01*
Y162037D01*
D02*
G37*
%LPC*%
G36*
X133325Y161094D02*
X130733D01*
Y160623D01*
X130498D01*
Y160152D01*
X130262D01*
Y159916D01*
X130026D01*
Y159445D01*
X129790D01*
Y158502D01*
X130026D01*
Y158266D01*
X130262D01*
Y158031D01*
X130498D01*
Y157795D01*
X130733D01*
Y157559D01*
X131204D01*
Y157324D01*
X131440D01*
Y157088D01*
X131676D01*
Y156852D01*
X132147D01*
Y156617D01*
X133325D01*
Y156852D01*
X133090D01*
Y157324D01*
X132854D01*
Y157559D01*
X132618D01*
Y158502D01*
X132383D01*
Y158973D01*
X132618D01*
Y159916D01*
X132854D01*
Y160387D01*
X133090D01*
Y160858D01*
X133325D01*
Y161094D01*
D02*
G37*
%LPD*%
G36*
X171028Y161565D02*
X172442D01*
Y161330D01*
X172678D01*
Y160858D01*
X172913D01*
Y160623D01*
X172678D01*
Y160387D01*
X172442D01*
Y160623D01*
X172206D01*
Y159916D01*
X172442D01*
Y159445D01*
X172678D01*
Y157324D01*
X172442D01*
Y156852D01*
X172206D01*
Y156617D01*
X171971D01*
Y156145D01*
X171735D01*
Y155910D01*
X171500D01*
Y155674D01*
X171264D01*
Y155439D01*
X170793D01*
Y155203D01*
X170557D01*
Y154967D01*
X168908D01*
Y154732D01*
X168201D01*
Y154967D01*
X166315D01*
Y155203D01*
X164666D01*
Y155439D01*
X163723D01*
Y155674D01*
X162074D01*
Y155910D01*
X160189D01*
Y156145D01*
X159717D01*
Y156381D01*
X159482D01*
Y156852D01*
X159717D01*
Y157088D01*
X159246D01*
Y158031D01*
X159482D01*
Y158502D01*
X159717D01*
Y158973D01*
X159953D01*
Y159209D01*
X160189D01*
Y159445D01*
X160424D01*
Y159680D01*
X161131D01*
Y159916D01*
X161838D01*
Y160152D01*
X162781D01*
Y160387D01*
X163723D01*
Y160623D01*
X164430D01*
Y160858D01*
X165137D01*
Y161094D01*
X165609D01*
Y161330D01*
X166551D01*
Y161565D01*
X167258D01*
Y161801D01*
X171028D01*
Y161565D01*
D02*
G37*
%LPC*%
G36*
X163016Y159209D02*
X162074D01*
Y158973D01*
X161131D01*
Y158738D01*
X160896D01*
Y158502D01*
X160660D01*
Y158266D01*
X160424D01*
Y157559D01*
X160189D01*
Y157088D01*
X159953D01*
Y156852D01*
X162781D01*
Y156617D01*
X163252D01*
Y157088D01*
X163016D01*
Y159209D01*
D02*
G37*
G36*
X169614Y160858D02*
X168672D01*
Y160387D01*
X168908D01*
Y159916D01*
X169143D01*
Y158973D01*
X169379D01*
Y157559D01*
X169143D01*
Y156852D01*
X168908D01*
Y156381D01*
X168672D01*
Y155910D01*
X170086D01*
Y156145D01*
X170321D01*
Y156381D01*
X170793D01*
Y156852D01*
X171028D01*
Y157088D01*
X171264D01*
Y157324D01*
X171500D01*
Y157795D01*
X171735D01*
Y159209D01*
X171500D01*
Y160152D01*
X171264D01*
Y160623D01*
X169614D01*
Y160858D01*
D02*
G37*
G36*
X254682Y56704D02*
X254447D01*
Y56468D01*
X254682D01*
Y56704D01*
D02*
G37*
%LPD*%
D10*
X264880Y165240D02*
G03*
X264880Y165240I-1000J0D01*
G01*
X340950Y267340D02*
Y291460D01*
X319450Y267340D02*
Y291460D01*
X264750Y267340D02*
Y291460D01*
X243250Y267340D02*
Y291460D01*
X417150Y267340D02*
Y291460D01*
X395650Y267340D02*
Y291460D01*
X514990Y125050D02*
X539110D01*
X514990Y103550D02*
X539110D01*
X514990Y154350D02*
X539110D01*
X514990Y175850D02*
X539110D01*
X514990Y205150D02*
X539110D01*
X514990Y226650D02*
X539110D01*
X459509Y391750D02*
X483631D01*
X459509Y370250D02*
X483631D01*
X561000Y345100D02*
X582000D01*
X561000Y366100D02*
X582000D01*
X561000Y294300D02*
X582000D01*
X561000Y315300D02*
X582000D01*
X251140Y323700D02*
X256860D01*
X268500Y332469D02*
Y336700D01*
X239500D02*
X247360D01*
X260640D02*
X268500D01*
X239500Y332469D02*
Y336700D01*
X417150Y368940D02*
Y393060D01*
X395650Y368940D02*
Y393060D01*
X403540Y323700D02*
X409260D01*
X420900Y332469D02*
Y336700D01*
X391900D02*
X399760D01*
X413040D02*
X420900D01*
X391900Y332469D02*
Y336700D01*
X340950Y368940D02*
Y393060D01*
X319450Y368940D02*
Y393060D01*
X327340Y323700D02*
X333060D01*
X344700Y332469D02*
Y336700D01*
X315700D02*
X323560D01*
X336840D02*
X344700D01*
X315700Y332469D02*
Y336700D01*
X264750Y368940D02*
Y393060D01*
X243250Y368940D02*
Y393060D01*
D11*
X292380Y109740D02*
X327380D01*
Y122140D01*
X292380Y174740D02*
X327380D01*
Y162340D02*
Y174740D01*
X188559Y477957D02*
X189755D01*
X190952Y479155D01*
X190952Y480351D01*
X190354Y480950D01*
X189157Y480950D01*
X187960Y479753D01*
X186763Y479753D01*
X186165Y480351D01*
X186164Y481549D01*
X187362Y482745D01*
X188559D01*
X184968Y474367D02*
X186164D01*
X187362Y475564D01*
X187362Y476760D01*
X184968Y479155D01*
X183771D01*
X182574Y477957D01*
Y476760D01*
X184369Y472571D02*
X180778Y476162D01*
X178384Y473768D01*
X213958Y479227D02*
X215155D01*
X216352Y480424D01*
X216353Y481622D01*
X215754Y482220D01*
X214557Y482220D01*
X213360Y481023D01*
X212163Y481023D01*
X211565Y481622D01*
X211565Y482818D01*
X212761Y484015D01*
X213958D01*
X213360Y477432D02*
X209769Y481023D01*
X207974Y479227D01*
Y478031D01*
X210368Y475637D01*
X211565D01*
X213360Y477432D01*
X206178D02*
X208572Y475038D01*
Y472644D01*
X206178D01*
X203784Y475038D01*
X205580Y473243D01*
X207974Y475637D01*
X299939Y51107D02*
X301136Y52304D01*
X300538Y51705D01*
X304128Y48115D01*
X303530Y47516D01*
X304727Y48713D01*
X304727Y55895D02*
X303530Y54698D01*
X303530Y53501D01*
X305924Y51107D01*
X307121D01*
X308318Y52304D01*
Y53501D01*
X305924Y55895D01*
X304727D01*
X310113Y54099D02*
X306523Y57690D01*
X308318Y59486D01*
X309515D01*
X310712Y58289D01*
Y57092D01*
X308916Y55296D01*
X310113Y56493D02*
X312507D01*
Y63675D02*
X310113Y61281D01*
X313704Y57690D01*
X316098Y60084D01*
X311909Y59486D02*
X313106Y60683D01*
X316098Y67266D02*
X313704Y64872D01*
X315500Y63077D01*
X316697Y64274D01*
X315500Y63077D01*
X317295Y61281D01*
X330200Y47516D02*
X326609Y51107D01*
X328405Y52902D01*
X329602D01*
X330798Y51705D01*
X330798Y50508D01*
X329003Y48713D01*
X330200Y49910D02*
X332594D01*
Y57092D02*
X330200Y54698D01*
X333791Y51107D01*
X336185Y53501D01*
X331995Y52902D02*
X333192Y54099D01*
X336783Y60084D02*
X335586D01*
X334389Y58887D01*
Y57690D01*
X334988Y57092D01*
X336185Y57092D01*
X337382Y58289D01*
X338579Y58289D01*
X339177Y57690D01*
X339177Y56493D01*
X337980Y55296D01*
X336783D01*
X339776Y64274D02*
X337382Y61880D01*
X340973Y58289D01*
X343367Y60683D01*
X339177Y60084D02*
X340374Y61281D01*
X340973Y65471D02*
X343367Y67865D01*
X342170Y66668D01*
X345761Y63077D01*
X352607Y50508D02*
X352608Y51705D01*
X353805Y52902D01*
X355001D01*
X355600Y52304D01*
Y51107D01*
X355001Y50508D01*
X355600Y51107D01*
X356797Y51107D01*
X357395Y50508D01*
X357396Y49311D01*
X356199Y48115D01*
X355001D01*
X356797Y53501D02*
X360388Y52304D01*
X359191Y55895D01*
X359789Y57690D02*
Y58887D01*
X360986Y60084D01*
X362183D01*
X362782Y59486D01*
Y58289D01*
X362183Y57690D01*
X362782Y58289D01*
X363979Y58289D01*
X364577Y57690D01*
X364577Y56493D01*
X363380Y55296D01*
X362183D01*
X379803Y53501D02*
X377409Y51107D01*
X379204Y49311D01*
X379803Y51107D01*
X380401Y51705D01*
X381599D01*
X382795Y50508D01*
X382795Y49311D01*
X381599Y48115D01*
X380401D01*
X382197Y53501D02*
X385788Y52304D01*
X384591Y55895D01*
X405802Y52902D02*
X404605D01*
X403408Y51705D01*
X403408Y50508D01*
X405802Y48115D01*
X406998D01*
X408195Y49311D01*
X408195Y50508D01*
X406998Y51705D01*
X405802Y50508D01*
X409991Y51107D02*
X406400Y54698D01*
X412385Y53501D01*
X408794Y57092D01*
X409991Y58289D02*
X413582Y54698D01*
X415377Y56493D01*
X415377Y57690D01*
X412983Y60084D01*
X411786D01*
X409991Y58289D01*
X431202Y52902D02*
X430005D01*
X428808Y51705D01*
X428807Y50508D01*
X431202Y48115D01*
X432398D01*
X433596Y49311D01*
X433595Y50508D01*
X432398Y51705D01*
X431202Y50508D01*
X435391Y51107D02*
X431800Y54698D01*
X437785Y53501D01*
X434194Y57092D01*
X435391Y58289D02*
X438982Y54698D01*
X440777Y56493D01*
X440777Y57690D01*
X438383Y60084D01*
X437186D01*
X435391Y58289D01*
X453609Y51107D02*
X456003Y48713D01*
X458397D01*
Y51107D01*
X456003Y53501D01*
X460791Y51107D02*
X461988Y52304D01*
X461389Y51705D01*
X458996Y54099D01*
X458397Y53501D01*
X463783Y54099D02*
X461389Y56493D01*
X463185Y58289D01*
X464382D01*
X466177Y56493D01*
X508000Y47516D02*
X505606Y49910D01*
Y52304D01*
X508000D01*
X510394Y49910D01*
X508599Y51705D01*
X506204Y49311D01*
X508000Y54698D02*
X511591Y51107D01*
X513386Y52902D01*
Y54099D01*
X510992Y56493D01*
X509795D01*
X508000Y54698D01*
X512189Y57690D02*
Y58887D01*
X513386Y60084D01*
X514583D01*
X516977Y57690D01*
X516977Y56493D01*
X515780Y55296D01*
X514583D01*
X512189Y57690D01*
X533400Y47516D02*
X531006Y49910D01*
Y52304D01*
X533400D01*
X535794Y49910D01*
X533998Y51705D01*
X531604Y49311D01*
X533400Y54698D02*
X536991Y51107D01*
X538786Y52902D01*
Y54099D01*
X536392Y56493D01*
X535196D01*
X533400Y54698D01*
X540582D02*
X541779Y55895D01*
X541180Y55296D01*
X537589Y58887D01*
Y57690D01*
X558800Y47516D02*
X556406Y49910D01*
Y52304D01*
X558800D01*
X561194Y49910D01*
X559398Y51705D01*
X557005Y49311D01*
X558800Y54698D02*
X562391Y51107D01*
X564186Y52902D01*
Y54099D01*
X561792Y56493D01*
X560596D01*
X558800Y54698D01*
X568376Y57092D02*
X565982Y54698D01*
Y59486D01*
X565383Y60084D01*
X564186D01*
X562989Y58887D01*
Y57690D01*
X584200Y47516D02*
X581806Y49910D01*
Y52304D01*
X584200D01*
X586594Y49910D01*
X584799Y51705D01*
X582405Y49311D01*
X584200Y54698D02*
X587791Y51107D01*
X589586Y52902D01*
Y54099D01*
X587192Y56493D01*
X585995D01*
X584200Y54698D01*
X588389Y57690D02*
Y58887D01*
X589586Y60084D01*
X590783D01*
X591382Y59486D01*
Y58289D01*
X590783Y57690D01*
X591382Y58289D01*
X592579Y58289D01*
X593177Y57690D01*
X593177Y56493D01*
X591980Y55296D01*
X590783D01*
X609600Y47516D02*
X607206Y49910D01*
Y52304D01*
X609600D01*
X611994Y49910D01*
X610199Y51705D01*
X607804Y49311D01*
X609600Y54698D02*
X613191Y51107D01*
X614986Y52902D01*
Y54099D01*
X612592Y56493D01*
X611395D01*
X609600Y54698D01*
X618577Y56493D02*
X614986Y60084D01*
Y56493D01*
X617380Y58887D01*
X635000Y47516D02*
X632606Y49910D01*
Y52304D01*
X635000D01*
X637394Y49910D01*
X635598Y51705D01*
X633204Y49311D01*
X635000Y54698D02*
X638591Y51107D01*
X640386Y52902D01*
Y54099D01*
X637992Y56493D01*
X636796D01*
X635000Y54698D01*
X640985Y60683D02*
X638591Y58289D01*
X640386Y56493D01*
X640985Y58289D01*
X641583Y58887D01*
X642780D01*
X643977Y57690D01*
X643977Y56493D01*
X642780Y55296D01*
X641583D01*
X639861Y482293D02*
X638664Y481096D01*
X639262Y481694D01*
X635672Y485285D01*
X636270Y485884D01*
X635073Y484687D01*
X635073Y477505D02*
X636270Y478702D01*
X636270Y479899D01*
X633876Y482293D01*
X632679D01*
X631482Y481096D01*
Y479899D01*
X633876Y477505D01*
X635073D01*
X632679Y476308D02*
X632679Y475111D01*
X631482Y473914D01*
X630285D01*
X627891Y476308D01*
X627891Y477505D01*
X629088Y478702D01*
X630285D01*
X632679Y476308D01*
X614461Y482293D02*
X613264Y481096D01*
X613862Y481694D01*
X610271Y485285D01*
X610870Y485884D01*
X609673Y484687D01*
X609673Y477505D02*
X610870Y478702D01*
X610870Y479899D01*
X608476Y482293D01*
X607279D01*
X606082Y481096D01*
Y479899D01*
X608476Y477505D01*
X609673D01*
X604287Y479300D02*
X603090Y478104D01*
X603688Y478702D01*
X607279Y475111D01*
X607279Y476308D01*
X589061Y482293D02*
X587864Y481096D01*
X588462Y481694D01*
X584871Y485285D01*
X585470Y485884D01*
X584273Y484687D01*
X584273Y477505D02*
X585470Y478702D01*
X585470Y479899D01*
X583076Y482293D01*
X581879D01*
X580682Y481096D01*
Y479899D01*
X583076Y477505D01*
X584273D01*
X576493Y476907D02*
X578887Y479300D01*
Y474513D01*
X579485Y473914D01*
X580682D01*
X581879Y475111D01*
X581879Y476308D01*
X563661Y482293D02*
X562464Y481096D01*
X563062Y481694D01*
X559472Y485285D01*
X560070Y485884D01*
X558873Y484687D01*
X558873Y477505D02*
X560070Y478702D01*
X560070Y479899D01*
X557676Y482293D01*
X556479D01*
X555282Y481096D01*
Y479899D01*
X557676Y477505D01*
X558873D01*
X556479Y476308D02*
X556479Y475111D01*
X555282Y473914D01*
X554085D01*
X553487Y474513D01*
Y475710D01*
X554085Y476308D01*
X553487Y475710D01*
X552290Y475710D01*
X551691Y476308D01*
X551691Y477505D01*
X552888Y478702D01*
X554085D01*
X549297Y469126D02*
X549297Y467929D01*
X548100Y466732D01*
X548100Y465535D01*
X538261Y482293D02*
X537064Y481096D01*
X537662Y481694D01*
X534072Y485285D01*
X534670Y485884D01*
X533473Y484687D01*
X533473Y477505D02*
X534670Y478702D01*
X534670Y479899D01*
X532276Y482293D01*
X531079D01*
X529882Y481096D01*
Y479899D01*
X532276Y477505D01*
X533473D01*
X526291D02*
X529882Y473914D01*
Y477505D01*
X527488Y475111D01*
X512861Y482293D02*
X511664Y481096D01*
X512262Y481694D01*
X508671Y485285D01*
X509270Y485884D01*
X508073Y484687D01*
X508073Y477505D02*
X509270Y478702D01*
X509270Y479899D01*
X506876Y482293D01*
X505679D01*
X504482Y481096D01*
Y479899D01*
X506876Y477505D01*
X508073D01*
X503884Y473316D02*
X506278Y475710D01*
X504482Y477505D01*
X503884Y475710D01*
X503285Y475111D01*
X502088D01*
X500891Y476308D01*
X500891Y477505D01*
X502088Y478702D01*
X503285D01*
X498497Y469126D02*
X498497Y467929D01*
X497300Y466732D01*
X497300Y465535D01*
X487461Y482293D02*
X486264Y481096D01*
X486862Y481694D01*
X483271Y485285D01*
X483870Y485884D01*
X482673Y484687D01*
X482673Y477505D02*
X483870Y478702D01*
X483870Y479899D01*
X481476Y482293D01*
X480279D01*
X479082Y481096D01*
Y479899D01*
X481476Y477505D01*
X482673D01*
X478484Y473316D02*
X479082Y475111D01*
Y477505D01*
X477885Y478702D01*
X476688D01*
X475491Y477505D01*
X475491Y476308D01*
X476090Y475710D01*
X477287Y475710D01*
X479082Y477505D01*
X473097Y469126D02*
X473097Y467929D01*
X471900Y466732D01*
X471900Y465535D01*
X462061Y482293D02*
X460864Y481096D01*
X461462Y481694D01*
X457872Y485285D01*
X458470Y485884D01*
X457273Y484687D01*
X457273Y477505D02*
X458470Y478702D01*
X458470Y479899D01*
X456076Y482293D01*
X454879D01*
X453682Y481096D01*
Y479899D01*
X456076Y477505D01*
X457273D01*
X455477Y475710D02*
X453084Y473316D01*
X452485Y473914D01*
Y478702D01*
X451887Y479300D01*
X420151Y481549D02*
X418954Y480352D01*
X419552Y480951D01*
X415961Y484542D01*
X416560Y485140D01*
X415363Y483943D01*
X415363Y476761D02*
X416560Y477958D01*
X416560Y479155D01*
X414166Y481549D01*
X412969D01*
X411772Y480352D01*
Y479155D01*
X414166Y476761D01*
X415363D01*
X412969Y475564D02*
X412969Y474367D01*
X411772Y473170D01*
X410575D01*
X409977Y473769D01*
Y474966D01*
X408780Y474966D01*
X408181Y475564D01*
X408181Y476761D01*
X409378Y477958D01*
X410575D01*
X411174Y477360D01*
Y476163D01*
X412371Y476163D01*
X412969Y475564D01*
X411174Y476163D02*
X409977Y474966D01*
X394751Y481549D02*
X393554Y480352D01*
X394152Y480951D01*
X390561Y484542D01*
X391160Y485140D01*
X389963Y483943D01*
X389963Y476761D02*
X391160Y477958D01*
X391160Y479155D01*
X388766Y481549D01*
X387569D01*
X386372Y480352D01*
Y479155D01*
X388766Y476761D01*
X389963D01*
X385175Y477958D02*
X383978D01*
X382781Y476761D01*
X382781Y475564D01*
X385175Y473170D01*
X386372D01*
X387569Y474367D01*
X387569Y475564D01*
X386971Y476163D01*
X385774Y476163D01*
X383978Y474367D01*
X380387Y468382D02*
X380387Y467185D01*
X379190Y465988D01*
X379190Y464791D01*
X369351Y481549D02*
X368154Y480352D01*
X368752Y480951D01*
X365162Y484542D01*
X365760Y485140D01*
X364563Y483943D01*
X364563Y476761D02*
X365760Y477958D01*
X365760Y479155D01*
X363366Y481549D01*
X362169D01*
X360972Y480352D01*
Y479155D01*
X363366Y476761D01*
X364563D01*
X359177Y478557D02*
X357980Y477360D01*
X358578Y477958D01*
X362169Y474367D01*
X362169Y475564D01*
X359177Y472572D02*
Y471375D01*
X357980Y470178D01*
X356783D01*
X354389Y472572D01*
X354389Y473769D01*
X355586Y474966D01*
X356783D01*
X359177Y472572D01*
X351995Y465390D02*
X351995Y464193D01*
X350798Y462996D01*
X350798Y461799D01*
X343951Y479753D02*
X342754Y478556D01*
X343352Y479155D01*
X339762Y482745D01*
X340360Y483344D01*
X339163Y482147D01*
X339163Y474965D02*
X340360Y476162D01*
X340360Y477359D01*
X337966Y479753D01*
X336769D01*
X335572Y478556D01*
Y477359D01*
X337966Y474965D01*
X339163D01*
X333777Y476760D02*
X332580Y475564D01*
X333178Y476162D01*
X336769Y472571D01*
X336769Y473768D01*
X330784D02*
X329587Y472571D01*
X330186Y473170D01*
X333777Y469579D01*
Y470776D01*
X327193Y464192D02*
X327193Y462995D01*
X325996Y461798D01*
X325996Y460601D01*
X318551Y479753D02*
X317354Y478556D01*
X317952Y479155D01*
X314361Y482745D01*
X314960Y483344D01*
X313763Y482147D01*
X313763Y474965D02*
X314960Y476162D01*
X314960Y477359D01*
X312566Y479753D01*
X311369D01*
X310172Y478556D01*
Y477359D01*
X312566Y474965D01*
X313763D01*
X308377Y476760D02*
X307180Y475564D01*
X307778Y476162D01*
X311369Y472571D01*
X311369Y473768D01*
X302990Y471374D02*
X305384Y473768D01*
Y468980D01*
X305983Y468382D01*
X307180D01*
X308377Y469579D01*
Y470776D01*
X293151Y479753D02*
X291954Y478556D01*
X292552Y479155D01*
X288962Y482745D01*
X289560Y483344D01*
X288363Y482147D01*
X288363Y474965D02*
X289560Y476162D01*
X289560Y477359D01*
X287166Y479753D01*
X285969D01*
X284772Y478556D01*
Y477359D01*
X287166Y474965D01*
X288363D01*
X282977Y476760D02*
X281780Y475564D01*
X282378Y476162D01*
X285969Y472571D01*
X285969Y473768D01*
X282977Y470776D02*
Y469579D01*
X281780Y468382D01*
X280583D01*
X279984Y468980D01*
Y470177D01*
X280583Y470776D01*
X279984Y470177D01*
X278787Y470177D01*
X278189Y470776D01*
X278189Y471973D01*
X279386Y473170D01*
X280583D01*
X264758Y477957D02*
X265955D01*
X267152Y479155D01*
X267153Y480351D01*
X264758Y482745D01*
X263561D01*
X262365Y481549D01*
X262365Y480351D01*
X263561Y479155D01*
X264758Y480351D01*
X260569Y479753D02*
X264160Y476162D01*
X258175Y477359D01*
X261766Y473768D01*
X260569Y472571D02*
X256978Y476162D01*
X255183Y474367D01*
X255183Y473170D01*
X257577Y470776D01*
X258774D01*
X260569Y472571D01*
X238760Y483344D02*
X241154Y480950D01*
Y478556D01*
X238760D01*
X236366Y480950D01*
X238162Y479155D01*
X240555Y481549D01*
X235169Y479753D02*
X238760Y476162D01*
X236964Y474367D01*
X235768D01*
X234571Y475564D01*
Y476760D01*
X236366Y478556D01*
X235169Y477359D02*
X232775D01*
Y470177D02*
X235169Y472571D01*
X231578Y476162D01*
X229184Y473768D01*
X233374Y474367D02*
X232177Y473170D01*
X229184Y466586D02*
X231578Y468980D01*
X229783Y470776D01*
X228586Y469579D01*
X229783Y470776D01*
X227987Y472571D01*
D12*
X596900Y111760D02*
Y124460D01*
Y111760D02*
X609600D01*
X635000D02*
X647700D01*
Y124460D01*
X635000Y218440D02*
X647700D01*
Y205740D02*
Y218440D01*
X596900D02*
X609600D01*
X596900Y205740D02*
Y218440D01*
X495300Y25400D02*
Y38100D01*
X520700D01*
Y12700D02*
X647700D01*
Y38100D01*
X520700D02*
X647700D01*
X520700Y12700D02*
Y38100D01*
X495300Y12700D02*
X520700D01*
X495300D02*
Y25400D01*
X429260Y495300D02*
Y520700D01*
X403860Y495300D02*
X429260D01*
X403860D02*
Y520700D01*
X175260D02*
X403860D01*
X175260Y495300D02*
Y520700D01*
Y495300D02*
X403860D01*
Y520700D02*
X429260D01*
X647700Y495300D02*
Y520700D01*
X444500Y495300D02*
X647700D01*
X444500D02*
Y520700D01*
X647700D01*
X622300Y495300D02*
Y520700D01*
X469900Y12700D02*
Y38100D01*
X266700Y12700D02*
X469900D01*
X266700D02*
Y38100D01*
X469900D01*
X444500Y12700D02*
Y38100D01*
X623700Y240800D02*
X674500D01*
Y317000D01*
X623700Y291600D02*
X649100D01*
Y317000D01*
X623700Y240800D02*
Y310650D01*
X630050Y317000D01*
X674500D01*
X655320Y215900D02*
Y216323D01*
X655743D01*
Y215900D01*
X655320D01*
X459994Y400304D02*
Y415539D01*
X467612D01*
X470151Y413000D01*
Y407921D01*
X467612Y405382D01*
X459994D01*
X465072D02*
X470151Y400304D01*
X475229D02*
X480307D01*
X477768D01*
Y415539D01*
X475229Y413000D01*
X498082Y400304D02*
X487925D01*
X498082Y410461D01*
Y413000D01*
X495542Y415539D01*
X490464D01*
X487925Y413000D01*
X515620Y235204D02*
Y250439D01*
X523237D01*
X525777Y247900D01*
Y242822D01*
X523237Y240282D01*
X515620D01*
X520698D02*
X525777Y235204D01*
X530855D02*
X535933D01*
X533394D01*
Y250439D01*
X530855Y247900D01*
X543551Y235204D02*
X548629D01*
X546090D01*
Y250439D01*
X543551Y247900D01*
X515620Y184404D02*
Y199639D01*
X523237D01*
X525777Y197100D01*
Y192022D01*
X523237Y189482D01*
X515620D01*
X520698D02*
X525777Y184404D01*
X530855D02*
X535933D01*
X533394D01*
Y199639D01*
X530855Y197100D01*
X543551D02*
X546090Y199639D01*
X551169D01*
X553708Y197100D01*
Y186943D01*
X551169Y184404D01*
X546090D01*
X543551Y186943D01*
Y197100D01*
X515620Y133604D02*
Y148839D01*
X523237D01*
X525777Y146300D01*
Y141222D01*
X523237Y138682D01*
X515620D01*
X520698D02*
X525777Y133604D01*
X530855Y136143D02*
X533394Y133604D01*
X538473D01*
X541012Y136143D01*
Y146300D01*
X538473Y148839D01*
X533394D01*
X530855Y146300D01*
Y143761D01*
X533394Y141222D01*
X541012D01*
X589286Y96517D02*
Y83822D01*
X591825Y81283D01*
X596903D01*
X599442Y83822D01*
Y96517D01*
X604521Y93978D02*
X614678Y83822D01*
X604521D02*
X614678Y93978D01*
X604521Y88900D02*
X614678D01*
X609599Y83822D02*
Y93978D01*
X619756Y81283D02*
X624834D01*
X622295D01*
Y96517D01*
X619756Y93978D01*
X294643Y198118D02*
Y185422D01*
X297183Y182882D01*
X302261D01*
X304800Y185422D01*
Y198118D01*
X309878Y182882D02*
X314957D01*
X312418D01*
Y198118D01*
X309878Y195578D01*
X546100Y424178D02*
X543561Y426717D01*
X538483D01*
X535943Y424178D01*
Y421639D01*
X538483Y419100D01*
X543561D01*
X546100Y416561D01*
Y414022D01*
X543561Y411483D01*
X538483D01*
X535943Y414022D01*
X551178Y411483D02*
X556257D01*
X553718D01*
Y426717D01*
X551178Y424178D01*
X394970Y401193D02*
Y416428D01*
X402588D01*
X405127Y413889D01*
Y408811D01*
X402588Y406272D01*
X394970D01*
X400048D02*
X405127Y401193D01*
X410205Y413889D02*
X412744Y416428D01*
X417823D01*
X420362Y413889D01*
Y411350D01*
X417823Y408811D01*
X420362Y406272D01*
Y403732D01*
X417823Y401193D01*
X412744D01*
X410205Y403732D01*
Y406272D01*
X412744Y408811D01*
X410205Y411350D01*
Y413889D01*
X412744Y408811D02*
X417823D01*
X416556Y259207D02*
Y243972D01*
X408938D01*
X406399Y246511D01*
Y251589D01*
X408938Y254128D01*
X416556D01*
X411478D02*
X406399Y259207D01*
X401321Y243972D02*
X391164D01*
Y246511D01*
X401321Y256668D01*
Y259207D01*
X318770Y406802D02*
Y422038D01*
X326387D01*
X328927Y419498D01*
Y414420D01*
X326387Y411881D01*
X318770D01*
X323848D02*
X328927Y406802D01*
X344162Y422038D02*
X339083Y419498D01*
X334005Y414420D01*
Y409342D01*
X336544Y406802D01*
X341623D01*
X344162Y409342D01*
Y411881D01*
X341623Y414420D01*
X334005D01*
X340356Y253598D02*
Y238363D01*
X332738D01*
X330199Y240902D01*
Y245980D01*
X332738Y248519D01*
X340356D01*
X335277D02*
X330199Y253598D01*
X314964Y238363D02*
X325121D01*
Y245980D01*
X320042Y243441D01*
X317503D01*
X314964Y245980D01*
Y251058D01*
X317503Y253598D01*
X322582D01*
X325121Y251058D01*
X241304Y408942D02*
Y424178D01*
X248922D01*
X251461Y421638D01*
Y416560D01*
X248922Y414021D01*
X241304D01*
X246383D02*
X251461Y408942D01*
X264157D02*
Y424178D01*
X256539Y416560D01*
X266696D01*
X264156Y255268D02*
Y240032D01*
X256538D01*
X253999Y242572D01*
Y247650D01*
X256538Y250189D01*
X264156D01*
X259077D02*
X253999Y255268D01*
X248921Y242572D02*
X246382Y240032D01*
X241303D01*
X238764Y242572D01*
Y245111D01*
X241303Y247650D01*
X243843D01*
X241303D01*
X238764Y250189D01*
Y252728D01*
X241303Y255268D01*
X246382D01*
X248921Y252728D01*
X523854Y347982D02*
Y363218D01*
X531472D01*
X534011Y360678D01*
Y355600D01*
X531472Y353061D01*
X523854D01*
X528932D02*
X534011Y347982D01*
X549246D02*
X539089D01*
X549246Y358139D01*
Y360678D01*
X546707Y363218D01*
X541628D01*
X539089Y360678D01*
X526443Y297183D02*
Y312418D01*
X534061D01*
X536600Y309878D01*
Y304800D01*
X534061Y302261D01*
X526443D01*
X531522D02*
X536600Y297183D01*
X541678D02*
X546757D01*
X544218D01*
Y312418D01*
X541678Y309878D01*
X379728Y321311D02*
X369572D01*
X367033Y318772D01*
Y313693D01*
X369572Y311154D01*
X379728D01*
X382267Y313693D01*
Y318772D01*
X377189Y316232D02*
X382267Y321311D01*
Y318772D02*
X379728Y321311D01*
X369572Y326389D02*
X367033Y328928D01*
Y334007D01*
X369572Y336546D01*
X372111D01*
X374650Y334007D01*
Y331468D01*
Y334007D01*
X377189Y336546D01*
X379728D01*
X382267Y334007D01*
Y328928D01*
X379728Y326389D01*
X297919Y321311D02*
X287762D01*
X285223Y318772D01*
Y313693D01*
X287762Y311154D01*
X297919D01*
X300458Y313693D01*
Y318772D01*
X295380Y316232D02*
X300458Y321311D01*
Y318772D02*
X297919Y321311D01*
X300458Y336546D02*
Y326389D01*
X290301Y336546D01*
X287762D01*
X285223Y334007D01*
Y328928D01*
X287762Y326389D01*
X223389Y321311D02*
X213232D01*
X210693Y318772D01*
Y313693D01*
X213232Y311154D01*
X223389D01*
X225928Y313693D01*
Y318772D01*
X220850Y316232D02*
X225928Y321311D01*
Y318772D02*
X223389Y321311D01*
X225928Y326389D02*
Y331468D01*
Y328928D01*
X210693D01*
X213232Y326389D01*
X378203Y145284D02*
X375663Y147823D01*
X370585D01*
X368046Y145284D01*
Y135127D01*
X370585Y132588D01*
X375663D01*
X378203Y135127D01*
X393438Y132588D02*
X383281D01*
X393438Y142745D01*
Y145284D01*
X390899Y147823D01*
X385820D01*
X383281Y145284D01*
X427225D02*
X424686Y147823D01*
X419607D01*
X417068Y145284D01*
Y135127D01*
X419607Y132588D01*
X424686D01*
X427225Y135127D01*
X432303Y132588D02*
X437381D01*
X434842D01*
Y147823D01*
X432303Y145284D01*
X509270Y76200D02*
Y86357D01*
X514348Y91435D01*
X519427Y86357D01*
Y76200D01*
Y83818D01*
X509270D01*
X524505Y91435D02*
Y76200D01*
X532123D01*
X534662Y78739D01*
Y88896D01*
X532123Y91435D01*
X524505D01*
X539740Y76200D02*
X544818D01*
X542279D01*
Y91435D01*
X539740Y88896D01*
X600715Y247650D02*
Y252728D01*
Y250189D01*
X615950D01*
Y247650D01*
Y252728D01*
X603254Y270503D02*
X600715Y267963D01*
Y262885D01*
X603254Y260346D01*
X613411D01*
X615950Y262885D01*
Y267963D01*
X613411Y270503D01*
X603254Y285738D02*
X600715Y283199D01*
Y278120D01*
X603254Y275581D01*
X605793D01*
X608332Y278120D01*
Y283199D01*
X610872Y285738D01*
X613411D01*
X615950Y283199D01*
Y278120D01*
X613411Y275581D01*
X615950Y290816D02*
X600715D01*
Y298434D01*
X603254Y300973D01*
X608332D01*
X610872Y298434D01*
Y290816D01*
X615950Y306051D02*
Y311129D01*
Y308590D01*
X600715D01*
X603254Y306051D01*
X524510Y438155D02*
X519432D01*
X521971D01*
Y453390D01*
X524510D01*
X519432D01*
X504197Y438155D02*
X509275D01*
X511814Y440694D01*
Y450851D01*
X509275Y453390D01*
X504197D01*
X501657Y450851D01*
Y440694D01*
X504197Y438155D01*
X496579D02*
Y453390D01*
X486422D01*
X481344D02*
X476266D01*
X478805D01*
Y438155D01*
X481344Y440694D01*
X300990Y80010D02*
Y95245D01*
X308608D01*
X311147Y92706D01*
Y87627D01*
X308608Y85088D01*
X300990D01*
X323843Y95245D02*
X318764D01*
X316225Y92706D01*
Y82549D01*
X318764Y80010D01*
X323843D01*
X326382Y82549D01*
Y92706D01*
X323843Y95245D01*
X331460D02*
Y80010D01*
X336539Y85088D01*
X341617Y80010D01*
Y95245D01*
X356852D02*
X346695D01*
Y80010D01*
X356852D01*
X346695Y87627D02*
X351774D01*
X361930Y80010D02*
Y95245D01*
X369548D01*
X372087Y92706D01*
Y87627D01*
X369548Y85088D01*
X361930D01*
X367009D02*
X372087Y80010D01*
X377165D02*
X382244D01*
X379705D01*
Y95245D01*
X377165Y92706D01*
M02*
