G04*
G04 #@! TF.GenerationSoftware,Altium Limited,Altium Designer,26.2.0 (7)*
G04*
G04 Layer_Color=16711935*
%FSLAX44Y44*%
%MOMM*%
G71*
G04*
G04 #@! TF.SameCoordinates,138AD885-AACF-4A89-911C-20B3B9BD5497*
G04*
G04*
G04 #@! TF.FilePolarity,Negative*
G04*
G01*
G75*
%ADD22C,3.4032*%
%ADD23C,1.7272*%
%ADD24R,1.7272X1.7272*%
%ADD25C,1.9812*%
%ADD26C,1.4732*%
D22*
X660400Y355600D02*
D03*
X139700Y25400D02*
D03*
X152400Y508000D02*
D03*
X660400Y76200D02*
D03*
D23*
X609600Y127000D02*
D03*
Y203200D02*
D03*
X635000Y127000D02*
D03*
X355600Y25400D02*
D03*
X609600Y177800D02*
D03*
Y152400D02*
D03*
X635000Y203200D02*
D03*
Y177800D02*
D03*
Y152400D02*
D03*
X533400Y25400D02*
D03*
X558800D02*
D03*
X584200D02*
D03*
X609600D02*
D03*
X635000D02*
D03*
X391160Y508000D02*
D03*
X365760D02*
D03*
X340360D02*
D03*
X314960D02*
D03*
X289560D02*
D03*
X264160D02*
D03*
X238760D02*
D03*
X213360D02*
D03*
X187960D02*
D03*
X558800D02*
D03*
X533400D02*
D03*
X508000D02*
D03*
X482600D02*
D03*
X457200D02*
D03*
X609600D02*
D03*
X584200D02*
D03*
X381000Y25400D02*
D03*
X330200D02*
D03*
X304800D02*
D03*
X279400D02*
D03*
X431800D02*
D03*
X406400D02*
D03*
D24*
X508000D02*
D03*
X416560Y508000D02*
D03*
X635000D02*
D03*
X457200Y25400D02*
D03*
D25*
X636400Y304300D02*
D03*
X661800D02*
D03*
X636400Y278900D02*
D03*
X661800D02*
D03*
X636400Y253500D02*
D03*
X661800D02*
D03*
D26*
X462267Y113017D02*
D03*
X495300Y114300D02*
D03*
X584200Y152400D02*
D03*
X660400Y127000D02*
D03*
X285750Y222250D02*
D03*
Y285750D02*
D03*
X304800Y361950D02*
D03*
X431800Y298450D02*
D03*
X584200Y203200D02*
D03*
X381000Y298450D02*
D03*
X279400Y361950D02*
D03*
X368300Y63500D02*
D03*
X438150Y133350D02*
D03*
X361950Y139700D02*
D03*
X565150Y177800D02*
D03*
X279400Y387350D02*
D03*
X355600D02*
D03*
Y361950D02*
D03*
X430780Y389756D02*
D03*
X431800Y355600D02*
D03*
M02*
