G04*
G04 #@! TF.GenerationSoftware,Altium Limited,Altium Designer,26.2.0 (7)*
G04*
G04 Layer_Color=8388736*
%FSLAX44Y44*%
%MOMM*%
G71*
G04*
G04 #@! TF.SameCoordinates,138AD885-AACF-4A89-911C-20B3B9BD5497*
G04*
G04*
G04 #@! TF.FilePolarity,Negative*
G04*
G01*
G75*
%ADD13R,2.3532X1.1532*%
%ADD14R,2.3532X3.4532*%
%ADD15R,3.0032X1.2032*%
%ADD16R,1.2621X0.8081*%
%ADD17R,0.5780X1.5242*%
%ADD18R,1.4532X1.3032*%
G04:AMPARAMS|DCode=19|XSize=1.5242mm|YSize=0.578mm|CornerRadius=0.289mm|HoleSize=0mm|Usage=FLASHONLY|Rotation=90.000|XOffset=0mm|YOffset=0mm|HoleType=Round|Shape=RoundedRectangle|*
%AMROUNDEDRECTD19*
21,1,1.5242,0.0000,0,0,90.0*
21,1,0.9463,0.5780,0,0,90.0*
1,1,0.5780,0.0000,0.4731*
1,1,0.5780,0.0000,-0.4731*
1,1,0.5780,0.0000,-0.4731*
1,1,0.5780,0.0000,0.4731*
%
%ADD19ROUNDEDRECTD19*%
%ADD20R,0.7000X1.3000*%
%ADD21R,0.8081X1.2621*%
%ADD22C,3.4032*%
%ADD23C,1.7272*%
%ADD24R,1.7272X1.7272*%
%ADD25C,1.9812*%
%ADD26C,1.4732*%
D13*
X280880Y119240D02*
D03*
Y165240D02*
D03*
Y142240D02*
D03*
D14*
X338880D02*
D03*
D15*
X584200Y433700D02*
D03*
X642200D02*
D03*
Y393700D02*
D03*
X584200D02*
D03*
D16*
X330200Y271380D02*
D03*
Y287420D02*
D03*
X254000Y271380D02*
D03*
Y287420D02*
D03*
X406400Y271380D02*
D03*
Y287420D02*
D03*
Y372980D02*
D03*
Y389020D02*
D03*
X330200Y372980D02*
D03*
Y389020D02*
D03*
X254000Y372980D02*
D03*
Y389020D02*
D03*
D17*
X396900Y321098D02*
D03*
X320700D02*
D03*
X244500D02*
D03*
D18*
X442840Y114300D02*
D03*
X376700D02*
D03*
X393700D02*
D03*
X425840D02*
D03*
D19*
X339700Y321098D02*
D03*
X415900D02*
D03*
X263500D02*
D03*
X254000Y339302D02*
D03*
X406400D02*
D03*
X330200D02*
D03*
D20*
X562000Y304800D02*
D03*
X581000Y355600D02*
D03*
X562000D02*
D03*
X581000Y304800D02*
D03*
D21*
X535070Y114300D02*
D03*
X519030D02*
D03*
Y215900D02*
D03*
Y165100D02*
D03*
X535070D02*
D03*
Y215900D02*
D03*
X479590Y381000D02*
D03*
X463550D02*
D03*
D22*
X660400Y355600D02*
D03*
X139700Y25400D02*
D03*
X152400Y508000D02*
D03*
X660400Y76200D02*
D03*
D23*
X609600Y127000D02*
D03*
Y203200D02*
D03*
X635000Y127000D02*
D03*
X355600Y25400D02*
D03*
X609600Y177800D02*
D03*
Y152400D02*
D03*
X635000Y203200D02*
D03*
Y177800D02*
D03*
Y152400D02*
D03*
X533400Y25400D02*
D03*
X558800D02*
D03*
X584200D02*
D03*
X609600D02*
D03*
X635000D02*
D03*
X391160Y508000D02*
D03*
X365760D02*
D03*
X340360D02*
D03*
X314960D02*
D03*
X289560D02*
D03*
X264160D02*
D03*
X238760D02*
D03*
X213360D02*
D03*
X187960D02*
D03*
X558800D02*
D03*
X533400D02*
D03*
X508000D02*
D03*
X482600D02*
D03*
X457200D02*
D03*
X609600D02*
D03*
X584200D02*
D03*
X381000Y25400D02*
D03*
X330200D02*
D03*
X304800D02*
D03*
X279400D02*
D03*
X431800D02*
D03*
X406400D02*
D03*
D24*
X508000D02*
D03*
X416560Y508000D02*
D03*
X635000D02*
D03*
X457200Y25400D02*
D03*
D25*
X636400Y304300D02*
D03*
X661800D02*
D03*
X636400Y278900D02*
D03*
X661800D02*
D03*
X636400Y253500D02*
D03*
X661800D02*
D03*
D26*
X462267Y113017D02*
D03*
X495300Y114300D02*
D03*
X584200Y152400D02*
D03*
X660400Y127000D02*
D03*
X285750Y222250D02*
D03*
Y285750D02*
D03*
X304800Y361950D02*
D03*
X431800Y298450D02*
D03*
X584200Y203200D02*
D03*
X381000Y298450D02*
D03*
X279400Y361950D02*
D03*
X368300Y63500D02*
D03*
X438150Y133350D02*
D03*
X361950Y139700D02*
D03*
X565150Y177800D02*
D03*
X279400Y387350D02*
D03*
X355600D02*
D03*
Y361950D02*
D03*
X430780Y389756D02*
D03*
X431800Y355600D02*
D03*
M02*
