G04*
G04 #@! TF.GenerationSoftware,Altium Limited,Altium Designer,26.2.0 (7)*
G04*
G04 Layer_Color=8388736*
%FSLAX44Y44*%
%MOMM*%
G71*
G04*
G04 #@! TF.SameCoordinates,07046FA8-F61C-4276-8BF4-9B4F64F1D9A8*
G04*
G04*
G04 #@! TF.FilePolarity,Negative*
G04*
G01*
G75*
%ADD13R,1.2621X0.8081*%
G04:AMPARAMS|DCode=14|XSize=1.5242mm|YSize=0.578mm|CornerRadius=0.289mm|HoleSize=0mm|Usage=FLASHONLY|Rotation=90.000|XOffset=0mm|YOffset=0mm|HoleType=Round|Shape=RoundedRectangle|*
%AMROUNDEDRECTD14*
21,1,1.5242,0.0000,0,0,90.0*
21,1,0.9463,0.5780,0,0,90.0*
1,1,0.5780,0.0000,0.4731*
1,1,0.5780,0.0000,-0.4731*
1,1,0.5780,0.0000,-0.4731*
1,1,0.5780,0.0000,0.4731*
%
%ADD14ROUNDEDRECTD14*%
%ADD15R,0.5780X1.5242*%
%ADD16R,0.7000X1.3000*%
%ADD17R,1.4532X1.3032*%
%ADD18R,2.3532X3.4532*%
%ADD19R,2.3532X1.1532*%
%ADD20R,3.0032X1.2032*%
%ADD21R,0.8081X1.2621*%
%ADD22C,1.7272*%
%ADD23R,1.7272X1.7272*%
%ADD24C,3.6572*%
%ADD25C,1.9812*%
%ADD26C,0.8128*%
D13*
X406400Y287420D02*
D03*
Y271380D02*
D03*
X330200Y287420D02*
D03*
X406400Y389020D02*
D03*
X330200Y271380D02*
D03*
X254000D02*
D03*
Y287420D02*
D03*
Y389020D02*
D03*
X406400Y372980D02*
D03*
X330200D02*
D03*
Y389020D02*
D03*
X254000Y372980D02*
D03*
D14*
X406400Y339302D02*
D03*
X415900Y321098D02*
D03*
X339700D02*
D03*
X254000Y339302D02*
D03*
X263500Y321098D02*
D03*
X330200Y339302D02*
D03*
D15*
X396900Y321098D02*
D03*
X320700D02*
D03*
X244500D02*
D03*
D16*
X562000Y304800D02*
D03*
X581000Y355600D02*
D03*
X562000D02*
D03*
X581000Y304800D02*
D03*
D17*
X442840Y114300D02*
D03*
X393700D02*
D03*
X376700D02*
D03*
X425840D02*
D03*
D18*
X338880Y142240D02*
D03*
D19*
X280880D02*
D03*
Y119240D02*
D03*
Y165240D02*
D03*
D20*
X577850Y450850D02*
D03*
X635850D02*
D03*
Y410850D02*
D03*
X577850D02*
D03*
D21*
X535070Y114300D02*
D03*
X519030D02*
D03*
Y215900D02*
D03*
Y165100D02*
D03*
X535070D02*
D03*
Y215900D02*
D03*
X479590Y381000D02*
D03*
X463550D02*
D03*
D22*
X609600Y203200D02*
D03*
X584200Y508000D02*
D03*
X609600Y127000D02*
D03*
X635000D02*
D03*
X355600Y25400D02*
D03*
X609600Y177800D02*
D03*
Y152400D02*
D03*
X635000Y203200D02*
D03*
Y177800D02*
D03*
Y152400D02*
D03*
X533400Y25400D02*
D03*
X558800D02*
D03*
X584200D02*
D03*
X609600D02*
D03*
X635000D02*
D03*
X391160Y508000D02*
D03*
X365760D02*
D03*
X340360D02*
D03*
X314960D02*
D03*
X289560D02*
D03*
X264160D02*
D03*
X238760D02*
D03*
X213360D02*
D03*
X187960D02*
D03*
X558800D02*
D03*
X533400D02*
D03*
X508000D02*
D03*
X482600D02*
D03*
X457200D02*
D03*
X609600D02*
D03*
X381000Y25400D02*
D03*
X330200D02*
D03*
X304800D02*
D03*
X279400D02*
D03*
X431800D02*
D03*
X406400D02*
D03*
D23*
X635000Y508000D02*
D03*
X508000Y25400D02*
D03*
X416560Y508000D02*
D03*
X457200Y25400D02*
D03*
D24*
X660400Y355600D02*
D03*
X139700Y25400D02*
D03*
X152400Y508000D02*
D03*
X660400Y76200D02*
D03*
D25*
X636400Y304300D02*
D03*
X661800D02*
D03*
X636400Y278900D02*
D03*
X661800D02*
D03*
X636400Y253500D02*
D03*
X661800D02*
D03*
D26*
X666750Y127000D02*
D03*
X577850Y152400D02*
D03*
Y203200D02*
D03*
X558800Y177800D02*
D03*
X349250Y82550D02*
D03*
X444500Y88900D02*
D03*
Y355600D02*
D03*
X438150Y387350D02*
D03*
X368300D02*
D03*
Y361950D02*
D03*
X298450Y387350D02*
D03*
X285750Y361950D02*
D03*
X304800D02*
D03*
X444500Y298450D02*
D03*
X368300D02*
D03*
X438150Y152400D02*
D03*
X374650Y139700D02*
D03*
X285750Y285750D02*
D03*
Y222250D02*
D03*
X482600Y139700D02*
D03*
M02*
