G04*
G04 #@! TF.GenerationSoftware,Altium Limited,Altium Designer,26.2.0 (7)*
G04*
G04 Layer_Color=8421504*
%FSLAX44Y44*%
%MOMM*%
G71*
G04*
G04 #@! TF.SameCoordinates,A4CAF521-3D78-4456-87E8-59FBA2F2F1B8*
G04*
G04*
G04 #@! TF.FilePolarity,Positive*
G04*
G01*
G75*
%ADD13R,2.1500X0.9500*%
%ADD14R,2.1500X3.2500*%
%ADD15R,2.8000X1.0000*%
%ADD16R,1.2621X0.8081*%
%ADD17R,0.5780X1.5242*%
%ADD18R,1.2500X1.1000*%
G04:AMPARAMS|DCode=19|XSize=1.5242mm|YSize=0.578mm|CornerRadius=0.289mm|HoleSize=0mm|Usage=FLASHONLY|Rotation=90.000|XOffset=0mm|YOffset=0mm|HoleType=Round|Shape=RoundedRectangle|*
%AMROUNDEDRECTD19*
21,1,1.5242,0.0000,0,0,90.0*
21,1,0.9463,0.5780,0,0,90.0*
1,1,0.5780,0.0000,0.4731*
1,1,0.5780,0.0000,-0.4731*
1,1,0.5780,0.0000,-0.4731*
1,1,0.5780,0.0000,0.4731*
%
%ADD19ROUNDEDRECTD19*%
%ADD20R,0.7000X1.3000*%
%ADD21R,0.8081X1.2621*%
D13*
X280880Y119240D02*
D03*
Y165240D02*
D03*
Y142240D02*
D03*
D14*
X338880D02*
D03*
D15*
X584200Y433700D02*
D03*
X642200D02*
D03*
Y393700D02*
D03*
X584200D02*
D03*
D16*
X330200Y271380D02*
D03*
Y287420D02*
D03*
X254000Y271380D02*
D03*
Y287420D02*
D03*
X406400Y271380D02*
D03*
Y287420D02*
D03*
Y372980D02*
D03*
Y389020D02*
D03*
X330200Y372980D02*
D03*
Y389020D02*
D03*
X254000Y372980D02*
D03*
Y389020D02*
D03*
D17*
X396900Y321098D02*
D03*
X320700D02*
D03*
X244500D02*
D03*
D18*
X442840Y114300D02*
D03*
X376700D02*
D03*
X393700D02*
D03*
X425840D02*
D03*
D19*
X339700Y321098D02*
D03*
X415900D02*
D03*
X263500D02*
D03*
X254000Y339302D02*
D03*
X406400D02*
D03*
X330200D02*
D03*
D20*
X562000Y304800D02*
D03*
X581000Y355600D02*
D03*
X562000D02*
D03*
X581000Y304800D02*
D03*
D21*
X535070Y114300D02*
D03*
X519030D02*
D03*
Y215900D02*
D03*
Y165100D02*
D03*
X535070D02*
D03*
Y215900D02*
D03*
X479590Y381000D02*
D03*
X463550D02*
D03*
M02*
