G04*
G04 #@! TF.GenerationSoftware,Altium Limited,Altium Designer,26.2.0 (7)*
G04*
G04 Layer_Color=65535*
%FSLAX44Y44*%
%MOMM*%
G71*
G04*
G04 #@! TF.SameCoordinates,07046FA8-F61C-4276-8BF4-9B4F64F1D9A8*
G04*
G04*
G04 #@! TF.FilePolarity,Positive*
G04*
G01*
G75*
%ADD10C,0.2000*%
%ADD11C,0.1270*%
%ADD12C,0.2540*%
G36*
X156195Y139402D02*
X156666D01*
Y139167D01*
X156902D01*
Y138931D01*
X157138D01*
Y138224D01*
X156195D01*
Y138460D01*
X155724D01*
Y138695D01*
X153367D01*
Y138931D01*
Y139167D01*
Y139402D01*
X153839D01*
Y139638D01*
X156195D01*
Y139402D01*
D02*
G37*
G36*
X149126Y139167D02*
X149361D01*
Y138695D01*
X149126D01*
Y138460D01*
X146769D01*
Y138224D01*
X145827D01*
Y138460D01*
X145591D01*
Y138695D01*
X145827D01*
Y139167D01*
X146769D01*
Y139402D01*
X149126D01*
Y139167D01*
D02*
G37*
G36*
X155724Y155190D02*
X155960D01*
Y154012D01*
X156195D01*
Y153305D01*
X156431D01*
Y152834D01*
X156666D01*
Y151891D01*
X156902D01*
Y151656D01*
X157138D01*
Y151185D01*
X157373D01*
Y150949D01*
X157609D01*
Y150478D01*
X157845D01*
Y150242D01*
X158080D01*
Y150006D01*
X158316D01*
Y149771D01*
X158552D01*
Y149535D01*
X158787D01*
Y149064D01*
X159023D01*
Y148828D01*
X159258D01*
Y148593D01*
X159494D01*
Y148121D01*
X159730D01*
Y147886D01*
X159965D01*
Y147650D01*
X160201D01*
Y147414D01*
X160437D01*
Y147179D01*
X160672D01*
Y146943D01*
X160908D01*
Y146707D01*
X161144D01*
Y146236D01*
X161379D01*
Y145765D01*
X161615D01*
Y144351D01*
X161379D01*
Y143644D01*
X161144D01*
Y143173D01*
X160908D01*
Y142701D01*
X160672D01*
Y142230D01*
X160437D01*
Y141759D01*
X160201D01*
Y141287D01*
X159965D01*
Y140816D01*
X159730D01*
Y140581D01*
X159494D01*
Y138931D01*
X159258D01*
Y138224D01*
X159023D01*
Y137989D01*
X158787D01*
Y137753D01*
X157845D01*
Y137989D01*
X157609D01*
Y138460D01*
X157845D01*
Y138695D01*
X158316D01*
Y138931D01*
X158552D01*
Y141052D01*
X158787D01*
Y141287D01*
X159023D01*
Y141523D01*
X159258D01*
Y141994D01*
X159494D01*
Y142466D01*
X159730D01*
Y143173D01*
X159965D01*
Y143644D01*
X160201D01*
Y144351D01*
X160437D01*
Y145765D01*
X160201D01*
Y146236D01*
X159965D01*
Y146472D01*
X159730D01*
Y146707D01*
X159494D01*
Y146943D01*
X159258D01*
Y147414D01*
X159023D01*
Y147650D01*
X158787D01*
Y147886D01*
X158552D01*
Y148121D01*
X158316D01*
Y148357D01*
X158080D01*
Y148828D01*
X157845D01*
Y149064D01*
X157609D01*
Y149299D01*
X157373D01*
Y149535D01*
X157138D01*
Y149771D01*
X156902D01*
Y150006D01*
X156666D01*
Y150242D01*
X156431D01*
Y150713D01*
X156195D01*
Y150949D01*
X155960D01*
Y151656D01*
X155724D01*
Y152363D01*
X155488D01*
Y152834D01*
X155253D01*
Y153777D01*
X155017D01*
Y155190D01*
X154781D01*
Y156369D01*
X155017D01*
Y156604D01*
X155724D01*
Y155190D01*
D02*
G37*
G36*
X146769Y156840D02*
X147005D01*
Y156604D01*
X147241D01*
Y154248D01*
X147005D01*
Y152598D01*
X146769D01*
Y151891D01*
X146534D01*
Y151420D01*
X146298D01*
Y150949D01*
X146062D01*
Y150478D01*
X145827D01*
Y150006D01*
X145591D01*
Y149771D01*
X145356D01*
Y149299D01*
X145120D01*
Y149064D01*
X144884D01*
Y148828D01*
X144649D01*
Y148593D01*
X144413D01*
Y148357D01*
X144177D01*
Y148121D01*
X143942D01*
Y147886D01*
X143706D01*
Y147650D01*
X143470D01*
Y147414D01*
X143235D01*
Y147179D01*
X142999D01*
Y146707D01*
X142763D01*
Y146472D01*
X142528D01*
Y146236D01*
X142292D01*
Y146000D01*
Y145765D01*
X142056D01*
Y145529D01*
X141821D01*
Y144822D01*
X141585D01*
Y143408D01*
X141821D01*
Y142701D01*
X142056D01*
Y142230D01*
X142292D01*
Y141523D01*
X142528D01*
Y140345D01*
X142763D01*
Y140109D01*
X142999D01*
Y139638D01*
X143235D01*
Y139402D01*
X143470D01*
Y139167D01*
X143706D01*
Y138931D01*
X143942D01*
Y138695D01*
X144649D01*
Y138460D01*
X144884D01*
Y138224D01*
X144649D01*
Y137753D01*
X143706D01*
Y137989D01*
X143235D01*
Y138224D01*
X142999D01*
Y138460D01*
X142763D01*
Y138695D01*
X142528D01*
Y138931D01*
X142292D01*
Y139167D01*
X142056D01*
Y139638D01*
X141821D01*
Y140109D01*
X141585D01*
Y140816D01*
X141349D01*
Y141759D01*
X141114D01*
Y142466D01*
X140878D01*
Y142937D01*
X140643D01*
Y145294D01*
X140878D01*
Y145765D01*
X141114D01*
Y146236D01*
X141349D01*
Y146472D01*
X141585D01*
Y146707D01*
X141821D01*
Y147179D01*
X142056D01*
Y147414D01*
X142292D01*
Y147650D01*
X142528D01*
Y147886D01*
X142763D01*
Y148121D01*
X142999D01*
Y148357D01*
X143235D01*
Y148593D01*
X143470D01*
Y148828D01*
X143706D01*
Y149064D01*
X143942D01*
Y149299D01*
X144177D01*
Y149771D01*
X144413D01*
Y150242D01*
X144649D01*
Y150478D01*
X144884D01*
Y150949D01*
X145120D01*
Y151420D01*
X145356D01*
Y151891D01*
X145591D01*
Y152598D01*
X145827D01*
Y153541D01*
X146062D01*
Y155898D01*
X146298D01*
Y156840D01*
X146534D01*
Y157076D01*
X146769D01*
Y156840D01*
D02*
G37*
G36*
X142292Y129977D02*
X143235D01*
Y129741D01*
X144649D01*
Y129505D01*
X145827D01*
Y129270D01*
X147241D01*
Y129034D01*
X148654D01*
Y128798D01*
X154310D01*
Y129034D01*
X156431D01*
Y129270D01*
X159258D01*
Y129505D01*
X161379D01*
Y129270D01*
X161615D01*
Y129034D01*
X161851D01*
Y128798D01*
X162086D01*
Y128563D01*
X162322D01*
Y127385D01*
X161851D01*
Y127620D01*
X161379D01*
Y128091D01*
X161144D01*
Y128327D01*
X160908D01*
Y128563D01*
X159730D01*
Y128327D01*
X156902D01*
Y128091D01*
X154310D01*
Y127856D01*
X148183D01*
Y128091D01*
X146769D01*
Y128327D01*
X145591D01*
Y128563D01*
X144413D01*
Y128798D01*
X142528D01*
Y129034D01*
X141114D01*
Y128798D01*
X140407D01*
Y128563D01*
X139229D01*
Y129270D01*
X139464D01*
Y129505D01*
X139936D01*
Y129741D01*
X140407D01*
Y129977D01*
X141114D01*
Y130212D01*
X142292D01*
Y129977D01*
D02*
G37*
G36*
X170334Y116545D02*
X170098D01*
Y116781D01*
X170334D01*
Y116545D01*
D02*
G37*
G36*
X166092Y119137D02*
X165856D01*
Y118666D01*
X165621D01*
Y117959D01*
X165385D01*
Y117487D01*
X165150D01*
Y117252D01*
X164914D01*
Y116781D01*
X164678D01*
Y116309D01*
X164443D01*
Y116074D01*
X164207D01*
Y115602D01*
X163971D01*
Y115367D01*
X163736D01*
Y115131D01*
X163500D01*
Y114660D01*
X163264D01*
Y114424D01*
X163029D01*
Y114188D01*
X162793D01*
Y113953D01*
X162558D01*
Y113481D01*
X162322D01*
Y113246D01*
X162086D01*
Y113010D01*
X161851D01*
Y112774D01*
X161615D01*
Y112539D01*
X161379D01*
Y112303D01*
X160908D01*
Y112068D01*
X160672D01*
Y111832D01*
X160437D01*
Y111596D01*
X160201D01*
Y111361D01*
X159730D01*
Y111125D01*
X159258D01*
Y110889D01*
X158787D01*
Y110654D01*
X158080D01*
Y110418D01*
X157373D01*
Y110182D01*
X156431D01*
Y109947D01*
X155253D01*
Y109711D01*
X153367D01*
Y109475D01*
X148183D01*
Y109711D01*
X145591D01*
Y109947D01*
X143942D01*
Y110182D01*
X142999D01*
Y110418D01*
X142292D01*
Y110654D01*
X141585D01*
Y110889D01*
X140878D01*
Y111125D01*
X140407D01*
Y111361D01*
X139936D01*
Y111596D01*
X139700D01*
Y111832D01*
X139229D01*
Y112068D01*
X138993D01*
Y112303D01*
X138757D01*
Y112539D01*
X138522D01*
Y112774D01*
X138286D01*
Y113010D01*
X138050D01*
Y113246D01*
X137815D01*
Y113481D01*
X137579D01*
Y113717D01*
X137344D01*
Y113953D01*
X137108D01*
Y114188D01*
X136872D01*
Y114424D01*
X136637D01*
Y114660D01*
X136401D01*
Y114895D01*
X136165D01*
Y115367D01*
X135930D01*
Y115602D01*
X135694D01*
Y116074D01*
X135458D01*
Y116309D01*
X135223D01*
Y116781D01*
X134987D01*
Y117016D01*
X134752D01*
Y117487D01*
X134516D01*
Y117959D01*
X134987D01*
Y117723D01*
X135223D01*
Y117487D01*
X135458D01*
Y117252D01*
X135694D01*
Y117016D01*
X135930D01*
Y116781D01*
X136165D01*
Y116309D01*
X136401D01*
Y116074D01*
X136637D01*
Y115838D01*
X136872D01*
Y115602D01*
X137108D01*
Y115131D01*
X137344D01*
Y114895D01*
X137579D01*
Y114660D01*
X137815D01*
Y114424D01*
X138050D01*
Y113953D01*
X138286D01*
Y113717D01*
X138522D01*
Y113481D01*
X138993D01*
Y113246D01*
X139229D01*
Y113010D01*
X139464D01*
Y112774D01*
X139936D01*
Y112539D01*
X140171D01*
Y112303D01*
X140643D01*
Y112068D01*
X141114D01*
Y111832D01*
X141821D01*
Y111596D01*
X142528D01*
Y111361D01*
X143235D01*
Y111125D01*
X144177D01*
Y110889D01*
X145827D01*
Y110654D01*
X147948D01*
Y110418D01*
X153367D01*
Y110654D01*
X155017D01*
Y110889D01*
X156195D01*
Y111125D01*
X156902D01*
Y111361D01*
X157845D01*
Y111596D01*
X158316D01*
Y111832D01*
X159023D01*
Y112068D01*
X159258D01*
Y112303D01*
X159730D01*
Y112539D01*
X159965D01*
Y112774D01*
X160437D01*
Y113010D01*
X160672D01*
Y113246D01*
X160908D01*
Y113481D01*
X161144D01*
Y113717D01*
X161379D01*
Y113953D01*
X161615D01*
Y114188D01*
X161851D01*
Y114424D01*
X162086D01*
Y114895D01*
X162322D01*
Y115131D01*
X162558D01*
Y115367D01*
X162793D01*
Y115602D01*
X163029D01*
Y115838D01*
X163264D01*
Y116074D01*
X163500D01*
Y116545D01*
X163736D01*
Y116781D01*
X163971D01*
Y117016D01*
X164207D01*
Y117487D01*
X164443D01*
Y117723D01*
X164678D01*
Y117959D01*
X164914D01*
Y118430D01*
X165150D01*
Y118901D01*
X165385D01*
Y119137D01*
X165621D01*
Y119373D01*
X165856D01*
Y119608D01*
X166092D01*
Y119137D01*
D02*
G37*
G36*
X134280Y108533D02*
X134045D01*
Y108297D01*
X133573D01*
Y108062D01*
X133102D01*
Y107826D01*
X132631D01*
Y107590D01*
X132395D01*
Y107355D01*
X131924D01*
Y107119D01*
X131688D01*
Y106883D01*
X131217D01*
Y106648D01*
X130981D01*
Y106412D01*
X130745D01*
Y106176D01*
X130510D01*
Y105705D01*
X130274D01*
Y105234D01*
X130039D01*
Y104763D01*
X129803D01*
Y104291D01*
X129567D01*
Y103820D01*
X129332D01*
Y103584D01*
X129096D01*
Y103113D01*
X128860D01*
Y102877D01*
X128625D01*
Y102642D01*
X128389D01*
Y102406D01*
X128153D01*
Y102170D01*
X127918D01*
Y101935D01*
X127682D01*
Y101699D01*
X127446D01*
Y101464D01*
X126740D01*
Y101228D01*
X126268D01*
Y101464D01*
X126033D01*
Y101935D01*
X126740D01*
Y102170D01*
X127211D01*
Y102406D01*
X127446D01*
Y102642D01*
X127682D01*
Y102877D01*
X127918D01*
Y103113D01*
X128153D01*
Y103349D01*
X128389D01*
Y103820D01*
X128625D01*
Y104056D01*
X128860D01*
Y104527D01*
X129096D01*
Y104998D01*
X129332D01*
Y105234D01*
X129567D01*
Y105941D01*
X129803D01*
Y106176D01*
X130039D01*
Y106648D01*
X130274D01*
Y106883D01*
X130510D01*
Y107119D01*
X130745D01*
Y107355D01*
X130981D01*
Y107590D01*
X131452D01*
Y107826D01*
X131688D01*
Y108062D01*
X132159D01*
Y108297D01*
X132631D01*
Y108533D01*
X133102D01*
Y108769D01*
X133573D01*
Y109004D01*
X134280D01*
Y108533D01*
D02*
G37*
G36*
X170098Y107355D02*
X170334D01*
Y106883D01*
X170569D01*
Y105941D01*
X170805D01*
Y105234D01*
X171041D01*
Y104763D01*
X171276D01*
Y104527D01*
X171512D01*
Y104291D01*
X171983D01*
Y104056D01*
X172455D01*
Y103820D01*
X172926D01*
Y103584D01*
X173397D01*
Y103349D01*
X173869D01*
Y103113D01*
X174340D01*
Y102877D01*
X174575D01*
Y102642D01*
X174811D01*
Y102406D01*
X175047D01*
Y102170D01*
X175282D01*
Y101935D01*
X175518D01*
Y101699D01*
X175754D01*
Y101228D01*
X175989D01*
Y100757D01*
X175518D01*
Y100992D01*
X175047D01*
Y101464D01*
X174811D01*
Y101699D01*
X174575D01*
Y101935D01*
X174340D01*
Y102170D01*
X174104D01*
Y102406D01*
X173869D01*
Y102642D01*
X173397D01*
Y102877D01*
X172926D01*
Y103113D01*
X172455D01*
Y103349D01*
X171983D01*
Y103584D01*
X171512D01*
Y103820D01*
X171041D01*
Y104056D01*
X170805D01*
Y104291D01*
X170569D01*
Y104763D01*
X170334D01*
Y105234D01*
X170098D01*
Y106412D01*
X169862D01*
Y107355D01*
X169627D01*
Y108062D01*
X170098D01*
Y107355D01*
D02*
G37*
G36*
X159258Y96044D02*
X159494D01*
Y95808D01*
X157609D01*
Y95573D01*
X156902D01*
Y95337D01*
X156431D01*
Y95101D01*
X155960D01*
Y94866D01*
X155253D01*
Y94630D01*
X154781D01*
Y94394D01*
X154546D01*
Y94159D01*
X154074D01*
Y93687D01*
X153839D01*
Y93216D01*
X153603D01*
Y92745D01*
X153367D01*
Y92509D01*
X152896D01*
Y92273D01*
X149597D01*
Y92509D01*
X148654D01*
Y92980D01*
X148419D01*
Y93452D01*
X148183D01*
Y93923D01*
X147948D01*
Y94159D01*
X147712D01*
Y94394D01*
X147241D01*
Y94630D01*
X146769D01*
Y94866D01*
X146534D01*
Y95101D01*
X145827D01*
Y95337D01*
X145356D01*
Y95573D01*
X143942D01*
Y95808D01*
X142763D01*
Y96279D01*
X145120D01*
Y96044D01*
X145827D01*
Y95808D01*
X146298D01*
Y95573D01*
X146769D01*
Y95337D01*
X147241D01*
Y95101D01*
X147476D01*
Y94866D01*
X147712D01*
Y94630D01*
X148183D01*
Y94394D01*
X148419D01*
Y93923D01*
X148654D01*
Y93452D01*
X148890D01*
Y93216D01*
X149126D01*
Y92980D01*
X149833D01*
Y92745D01*
X152189D01*
Y92980D01*
X153132D01*
Y93216D01*
X153367D01*
Y93923D01*
X153603D01*
Y94394D01*
X154074D01*
Y94630D01*
X154310D01*
Y94866D01*
X154546D01*
Y95101D01*
X155017D01*
Y95337D01*
X155488D01*
Y95573D01*
X155960D01*
Y95808D01*
X156431D01*
Y96044D01*
X157138D01*
Y96279D01*
X159258D01*
Y96044D01*
D02*
G37*
G36*
X136401Y257696D02*
X155253D01*
Y257460D01*
X158316D01*
Y257225D01*
X160201D01*
Y256989D01*
X161851D01*
Y256753D01*
X163971D01*
Y256518D01*
X166092D01*
Y256282D01*
X168213D01*
Y256046D01*
X169862D01*
Y255811D01*
X171512D01*
Y255575D01*
X172926D01*
Y255339D01*
X173869D01*
Y255104D01*
X174811D01*
Y254868D01*
X175518D01*
Y254632D01*
X176460D01*
Y254397D01*
X176932D01*
Y254161D01*
X177639D01*
Y253926D01*
X178110D01*
Y253690D01*
X179053D01*
Y253454D01*
X179760D01*
Y253219D01*
X180466D01*
Y252983D01*
X181173D01*
Y252747D01*
X181645D01*
Y252512D01*
X182352D01*
Y252276D01*
X182823D01*
Y252040D01*
X183294D01*
Y251805D01*
X183766D01*
Y251569D01*
X184237D01*
Y251334D01*
X184708D01*
Y251098D01*
X184944D01*
Y250862D01*
X185415D01*
Y250627D01*
X185886D01*
Y250391D01*
X186358D01*
Y250155D01*
X186829D01*
Y249920D01*
X187300D01*
Y249684D01*
X187771D01*
Y249448D01*
X188243D01*
Y249213D01*
X188714D01*
Y248977D01*
X189185D01*
Y248741D01*
X189657D01*
Y248506D01*
X190128D01*
Y248270D01*
X190599D01*
Y248034D01*
X191070D01*
Y247799D01*
X191542D01*
Y247563D01*
X191777D01*
Y247327D01*
X192249D01*
Y247092D01*
X192720D01*
Y246856D01*
X192956D01*
Y246621D01*
X193427D01*
Y246385D01*
X193663D01*
Y246149D01*
X194134D01*
Y245914D01*
X194370D01*
Y245678D01*
X194841D01*
Y245442D01*
X195312D01*
Y245207D01*
X195548D01*
Y244971D01*
X196019D01*
Y244736D01*
X196490D01*
Y244500D01*
X196726D01*
Y244264D01*
X197197D01*
Y244028D01*
X197668D01*
Y243793D01*
X197904D01*
Y243557D01*
X198375D01*
Y243322D01*
X198847D01*
Y243086D01*
X199082D01*
Y242850D01*
X199554D01*
Y242615D01*
X199789D01*
Y242379D01*
X200261D01*
Y242143D01*
X200732D01*
Y241908D01*
X200968D01*
Y241672D01*
X201439D01*
Y241436D01*
X201674D01*
Y241201D01*
X202146D01*
Y240965D01*
X202381D01*
Y240730D01*
X202617D01*
Y240494D01*
X203088D01*
Y240258D01*
X203324D01*
Y240023D01*
X203560D01*
Y239787D01*
X204031D01*
Y239551D01*
X204267D01*
Y239316D01*
X204502D01*
Y239080D01*
X204974D01*
Y238844D01*
X205209D01*
Y238609D01*
X205445D01*
Y238373D01*
X205916D01*
Y238137D01*
X206152D01*
Y237902D01*
X206387D01*
Y237666D01*
X206623D01*
Y237430D01*
X206859D01*
Y237195D01*
X207094D01*
Y236959D01*
X207566D01*
Y236723D01*
X207801D01*
Y236488D01*
X208037D01*
Y236252D01*
X208273D01*
Y236017D01*
X208508D01*
Y235781D01*
X208744D01*
Y235545D01*
X208979D01*
Y235310D01*
X209215D01*
Y235074D01*
X209451D01*
Y234838D01*
X209686D01*
Y234603D01*
X210158D01*
Y234367D01*
X210393D01*
Y234131D01*
X210629D01*
Y233896D01*
X210865D01*
Y233660D01*
X211100D01*
Y233424D01*
X211336D01*
Y233189D01*
X211572D01*
Y232953D01*
X211807D01*
Y232718D01*
X212043D01*
Y232482D01*
X212278D01*
Y232246D01*
X212514D01*
Y232011D01*
X212750D01*
Y231775D01*
X212985D01*
Y231539D01*
X213221D01*
Y231304D01*
X213457D01*
Y231068D01*
X213692D01*
Y230832D01*
X213928D01*
Y230597D01*
X214164D01*
Y230361D01*
X214399D01*
Y230126D01*
X214635D01*
Y229890D01*
X214871D01*
Y229654D01*
X215106D01*
Y229419D01*
X215342D01*
Y229183D01*
X215578D01*
Y228947D01*
X215813D01*
Y228712D01*
X216049D01*
Y228476D01*
X216285D01*
Y228240D01*
X216520D01*
Y228005D01*
X216756D01*
Y227533D01*
X216991D01*
Y227062D01*
X217227D01*
Y226826D01*
X217463D01*
Y226591D01*
X217698D01*
Y226119D01*
X217934D01*
Y225884D01*
X218170D01*
Y225648D01*
X218405D01*
Y225413D01*
X218641D01*
Y224941D01*
X218876D01*
Y224706D01*
X219112D01*
Y224470D01*
X219348D01*
Y224234D01*
X219583D01*
Y223999D01*
X219819D01*
Y223527D01*
X220055D01*
Y223292D01*
X220290D01*
Y223056D01*
X220526D01*
Y222585D01*
X220762D01*
Y222349D01*
X220997D01*
Y222114D01*
X221233D01*
Y221642D01*
X221469D01*
Y221171D01*
X221704D01*
Y220935D01*
X221940D01*
Y220464D01*
X222176D01*
Y219993D01*
X222411D01*
Y219522D01*
X222647D01*
Y219050D01*
X222882D01*
Y218579D01*
X223118D01*
Y218108D01*
X223354D01*
Y217636D01*
X223589D01*
Y217165D01*
X223825D01*
Y216458D01*
X224061D01*
Y215987D01*
X224296D01*
Y215515D01*
X224532D01*
Y215280D01*
X224768D01*
Y214809D01*
X225003D01*
Y214337D01*
X225239D01*
Y213866D01*
X225475D01*
Y213630D01*
X225710D01*
Y213159D01*
X225946D01*
Y212688D01*
X226182D01*
Y212216D01*
X226417D01*
Y211981D01*
X226653D01*
Y211510D01*
X226889D01*
Y211038D01*
X227124D01*
Y210803D01*
X227360D01*
Y210331D01*
X227595D01*
Y210096D01*
X227831D01*
Y209624D01*
X228067D01*
Y209389D01*
X228302D01*
Y208918D01*
X228538D01*
Y208446D01*
X228774D01*
Y207975D01*
X229009D01*
Y207739D01*
X229245D01*
Y207268D01*
X229481D01*
Y206797D01*
X229716D01*
Y206325D01*
X229952D01*
Y205854D01*
X230187D01*
Y205383D01*
X230423D01*
Y204911D01*
X230659D01*
Y204440D01*
X230894D01*
Y203969D01*
X231130D01*
Y203262D01*
X231366D01*
Y202555D01*
X231601D01*
Y201612D01*
X231837D01*
Y200906D01*
X232073D01*
Y199492D01*
X232308D01*
Y197842D01*
X232544D01*
Y196428D01*
X232780D01*
Y195014D01*
X233015D01*
Y193836D01*
X233251D01*
Y192422D01*
X233486D01*
Y190773D01*
X233722D01*
Y189595D01*
X233958D01*
Y188416D01*
X234193D01*
Y187474D01*
X234429D01*
Y186531D01*
X234665D01*
Y185353D01*
X234900D01*
Y184175D01*
X235136D01*
Y183232D01*
X235372D01*
Y182290D01*
X235607D01*
Y181347D01*
X235843D01*
Y180404D01*
X236079D01*
Y179462D01*
X236314D01*
Y178519D01*
X236550D01*
Y177577D01*
X236786D01*
Y176634D01*
X237021D01*
Y175692D01*
X237257D01*
Y174749D01*
X237493D01*
Y173571D01*
X237728D01*
Y172393D01*
X237964D01*
Y171450D01*
X238199D01*
Y170272D01*
X238435D01*
Y169093D01*
X238671D01*
Y168151D01*
X238906D01*
Y166973D01*
X239142D01*
Y165559D01*
X239378D01*
Y159432D01*
X239613D01*
Y156840D01*
X239849D01*
Y145294D01*
X239613D01*
Y142701D01*
X239378D01*
Y141287D01*
X239142D01*
Y140109D01*
X238906D01*
Y138460D01*
X238671D01*
Y137282D01*
X238435D01*
Y136103D01*
X238199D01*
Y134689D01*
X237964D01*
Y133511D01*
X237728D01*
Y132097D01*
X237493D01*
Y130919D01*
X237257D01*
Y129977D01*
X237021D01*
Y128798D01*
X236786D01*
Y128091D01*
X236550D01*
Y127149D01*
X236314D01*
Y126442D01*
X236079D01*
Y125735D01*
X235843D01*
Y125028D01*
X235607D01*
Y124321D01*
X235372D01*
Y123850D01*
X235136D01*
Y123143D01*
X234900D01*
Y122672D01*
X234665D01*
Y122200D01*
X234429D01*
Y121493D01*
X234193D01*
Y121022D01*
X233958D01*
Y120551D01*
X233722D01*
Y120079D01*
X233486D01*
Y119373D01*
X233251D01*
Y118901D01*
X233015D01*
Y118194D01*
X232780D01*
Y117723D01*
X232544D01*
Y117487D01*
X232308D01*
Y117016D01*
X232073D01*
Y116781D01*
X231837D01*
Y116309D01*
X231601D01*
Y116074D01*
X231366D01*
Y115838D01*
X231130D01*
Y115602D01*
X230894D01*
Y115367D01*
X230659D01*
Y114895D01*
X230423D01*
Y114660D01*
X230187D01*
Y114424D01*
X229952D01*
Y114188D01*
X229716D01*
Y113717D01*
X229481D01*
Y113481D01*
X229245D01*
Y113246D01*
X229009D01*
Y113010D01*
X228774D01*
Y112539D01*
X228538D01*
Y112303D01*
X228302D01*
Y112068D01*
X228067D01*
Y111832D01*
X227831D01*
Y111596D01*
X227595D01*
Y111361D01*
X227360D01*
Y111125D01*
X227124D01*
Y110889D01*
X226653D01*
Y110654D01*
X226417D01*
Y110418D01*
X225946D01*
Y110182D01*
X225710D01*
Y109947D01*
X225239D01*
Y109711D01*
X224768D01*
Y109475D01*
X224532D01*
Y109240D01*
X224061D01*
Y109004D01*
X223589D01*
Y108769D01*
X223118D01*
Y108533D01*
X222647D01*
Y108297D01*
X222411D01*
Y108062D01*
X221940D01*
Y107826D01*
X221469D01*
Y107590D01*
X220997D01*
Y107355D01*
X220526D01*
Y107119D01*
X220055D01*
Y106883D01*
X219583D01*
Y106648D01*
X219112D01*
Y106412D01*
X218641D01*
Y106176D01*
X218405D01*
Y105941D01*
X217934D01*
Y105705D01*
X217463D01*
Y105470D01*
X216991D01*
Y105234D01*
X216520D01*
Y104998D01*
X216049D01*
Y104763D01*
X215813D01*
Y104527D01*
X215342D01*
Y104291D01*
X214871D01*
Y104056D01*
X214635D01*
Y103820D01*
X214164D01*
Y103584D01*
X213928D01*
Y103349D01*
X213457D01*
Y103113D01*
X212985D01*
Y102877D01*
X212514D01*
Y102642D01*
X212278D01*
Y102406D01*
X212514D01*
Y102170D01*
X212985D01*
Y101935D01*
X213692D01*
Y101699D01*
X214399D01*
Y101464D01*
X215106D01*
Y101228D01*
X215813D01*
Y100992D01*
X216520D01*
Y100757D01*
X216991D01*
Y100521D01*
X217698D01*
Y100285D01*
X218170D01*
Y100050D01*
X218641D01*
Y99814D01*
X219112D01*
Y99578D01*
X219583D01*
Y99343D01*
X220055D01*
Y99107D01*
X220526D01*
Y98871D01*
X220997D01*
Y98636D01*
X221233D01*
Y98400D01*
X221704D01*
Y98165D01*
X221940D01*
Y97929D01*
X222176D01*
Y97458D01*
X221940D01*
Y97222D01*
X222176D01*
Y96986D01*
X222882D01*
Y96751D01*
X223354D01*
Y96515D01*
X224061D01*
Y96279D01*
X224532D01*
Y96044D01*
X225003D01*
Y95808D01*
X225475D01*
Y95573D01*
X225946D01*
Y95337D01*
X226417D01*
Y95101D01*
X226889D01*
Y94866D01*
X227360D01*
Y94630D01*
X227595D01*
Y94394D01*
X228067D01*
Y94159D01*
X228302D01*
Y93923D01*
X228538D01*
Y93687D01*
X229009D01*
Y93452D01*
X229245D01*
Y93216D01*
X229481D01*
Y92980D01*
X229952D01*
Y92745D01*
X230423D01*
Y92509D01*
X230659D01*
Y92273D01*
X231130D01*
Y92038D01*
X231366D01*
Y91802D01*
X231837D01*
Y91566D01*
X232073D01*
Y91331D01*
X232308D01*
Y91095D01*
X232780D01*
Y90860D01*
X233015D01*
Y90624D01*
X233486D01*
Y90388D01*
X233722D01*
Y90153D01*
X234193D01*
Y89917D01*
X234429D01*
Y89681D01*
X234665D01*
Y89446D01*
X235136D01*
Y89210D01*
X235372D01*
Y88974D01*
X235607D01*
Y88739D01*
X236079D01*
Y88503D01*
X236314D01*
Y88267D01*
X236550D01*
Y88032D01*
X236786D01*
Y87796D01*
X237021D01*
Y87561D01*
X237493D01*
Y87325D01*
X237728D01*
Y87089D01*
X237964D01*
Y86854D01*
X238199D01*
Y86618D01*
X238435D01*
Y86382D01*
X238906D01*
Y86147D01*
X239142D01*
Y85911D01*
X239378D01*
Y85675D01*
X239613D01*
Y85440D01*
X239849D01*
Y85204D01*
X240085D01*
Y84969D01*
X240556D01*
Y84733D01*
X240791D01*
Y84497D01*
X241027D01*
Y84262D01*
X241263D01*
Y84026D01*
X241498D01*
Y83790D01*
X241734D01*
Y83555D01*
X241970D01*
Y83319D01*
X242205D01*
Y83083D01*
X242441D01*
Y82848D01*
X242677D01*
Y82376D01*
X242912D01*
Y82141D01*
X243148D01*
Y81905D01*
X243384D01*
Y81669D01*
X243619D01*
Y81434D01*
X243855D01*
Y80962D01*
X244090D01*
Y80727D01*
X244326D01*
Y80491D01*
X244562D01*
Y80020D01*
X244797D01*
Y79784D01*
X245033D01*
Y79549D01*
X245269D01*
Y79077D01*
X245504D01*
Y78842D01*
X245740D01*
Y78606D01*
X245976D01*
Y78370D01*
X246211D01*
Y78135D01*
X246447D01*
Y77663D01*
X246683D01*
Y77428D01*
X246918D01*
Y77192D01*
X247154D01*
Y76957D01*
X247390D01*
Y76485D01*
X247625D01*
Y76250D01*
X247861D01*
Y76014D01*
X248097D01*
Y75778D01*
X248332D01*
Y75543D01*
X248568D01*
Y75071D01*
X248803D01*
Y74836D01*
X249039D01*
Y74364D01*
X249275D01*
Y74129D01*
X249510D01*
Y73657D01*
X249746D01*
Y73422D01*
X249982D01*
Y72951D01*
X250217D01*
Y72715D01*
X250453D01*
Y72244D01*
X250689D01*
Y71772D01*
X250924D01*
Y71301D01*
X251160D01*
Y70830D01*
X251395D01*
Y70359D01*
X251631D01*
Y69887D01*
X251867D01*
Y69416D01*
X252102D01*
Y68945D01*
X252338D01*
Y68473D01*
X252574D01*
Y67766D01*
X252809D01*
Y67295D01*
X253045D01*
Y66588D01*
X253281D01*
Y66117D01*
X253045D01*
Y65881D01*
X253516D01*
Y65410D01*
X253752D01*
Y64939D01*
X253988D01*
Y64467D01*
X254223D01*
Y63996D01*
X254459D01*
Y63760D01*
Y63525D01*
X254694D01*
Y63053D01*
X254930D01*
Y62818D01*
X254694D01*
Y63053D01*
X254459D01*
Y63525D01*
X253752D01*
Y63760D01*
X253516D01*
Y64232D01*
X253752D01*
Y63996D01*
X253988D01*
Y64467D01*
X253752D01*
Y64703D01*
Y64939D01*
X253516D01*
Y64467D01*
X253281D01*
Y64703D01*
X253045D01*
Y65174D01*
X252809D01*
Y65410D01*
X253281D01*
Y65174D01*
X253516D01*
Y65410D01*
X253281D01*
Y65646D01*
X253045D01*
Y65881D01*
X252809D01*
Y65646D01*
X252574D01*
Y65881D01*
X252338D01*
Y66353D01*
X252102D01*
Y66824D01*
X251867D01*
Y67531D01*
X251631D01*
Y68002D01*
X251395D01*
Y68473D01*
X251160D01*
Y68945D01*
X250924D01*
Y69651D01*
X250689D01*
Y70123D01*
X250453D01*
Y70594D01*
X250217D01*
Y71065D01*
X249982D01*
Y71537D01*
X249746D01*
Y72008D01*
X249510D01*
Y72479D01*
X249275D01*
Y72715D01*
X249039D01*
Y73186D01*
X248803D01*
Y73657D01*
X248568D01*
Y73893D01*
X248332D01*
Y74129D01*
X248097D01*
Y74600D01*
X247861D01*
Y74836D01*
X247625D01*
Y75071D01*
X247390D01*
Y75307D01*
X247154D01*
Y75543D01*
X246918D01*
Y75778D01*
X246683D01*
Y76250D01*
X246447D01*
Y76485D01*
X246211D01*
Y76721D01*
X245976D01*
Y77192D01*
X245740D01*
Y77428D01*
X245504D01*
Y77663D01*
X245269D01*
Y77899D01*
X245033D01*
Y78370D01*
X244797D01*
Y78606D01*
X244562D01*
Y78842D01*
X244326D01*
Y79313D01*
X244090D01*
Y79549D01*
X243855D01*
Y79784D01*
X243619D01*
Y80020D01*
X243384D01*
Y80491D01*
X243148D01*
Y80727D01*
X242912D01*
Y80962D01*
X242677D01*
Y81434D01*
X242441D01*
Y81669D01*
X242205D01*
Y81905D01*
X241970D01*
Y82141D01*
X241734D01*
Y82376D01*
X241498D01*
Y82612D01*
X241263D01*
Y82848D01*
X241027D01*
Y83083D01*
X240791D01*
Y83319D01*
X240556D01*
Y83555D01*
X240320D01*
Y83790D01*
X240085D01*
Y84026D01*
X239849D01*
Y84262D01*
X239613D01*
Y84497D01*
X239378D01*
Y84733D01*
X238906D01*
Y84969D01*
X238671D01*
Y85204D01*
X238435D01*
Y85440D01*
X238199D01*
Y85675D01*
X237964D01*
Y85911D01*
X237728D01*
Y86147D01*
X237493D01*
Y86382D01*
X237021D01*
Y86618D01*
X236786D01*
Y86854D01*
X236550D01*
Y87089D01*
X236314D01*
Y87325D01*
X236079D01*
Y87561D01*
X235607D01*
Y87796D01*
X235372D01*
Y88032D01*
X235136D01*
Y88267D01*
X234900D01*
Y88503D01*
X234665D01*
Y88739D01*
X234193D01*
Y88974D01*
X233958D01*
Y89210D01*
X233486D01*
Y89446D01*
X233251D01*
Y89681D01*
X232780D01*
Y89917D01*
X232308D01*
Y90153D01*
X232073D01*
Y90388D01*
X231601D01*
Y90624D01*
X231366D01*
Y90860D01*
X231130D01*
Y91095D01*
X230659D01*
Y91331D01*
X230423D01*
Y91566D01*
X229952D01*
Y91802D01*
X229716D01*
Y92038D01*
X229245D01*
Y92273D01*
X229009D01*
Y92509D01*
X228774D01*
Y92745D01*
X228302D01*
Y92980D01*
X228067D01*
Y93216D01*
X227831D01*
Y93452D01*
X227360D01*
Y93687D01*
X227124D01*
Y93923D01*
X226653D01*
Y94159D01*
X226182D01*
Y94394D01*
X225710D01*
Y94630D01*
X225239D01*
Y94866D01*
X224768D01*
Y95101D01*
X224296D01*
Y95337D01*
X223589D01*
Y95573D01*
X223118D01*
Y95808D01*
X222411D01*
Y96044D01*
X221940D01*
Y96279D01*
X221469D01*
Y96515D01*
X220526D01*
Y96279D01*
X219819D01*
Y96044D01*
X219348D01*
Y95808D01*
X218641D01*
Y95573D01*
X218170D01*
Y95337D01*
X217698D01*
Y95101D01*
X217227D01*
Y94866D01*
X216520D01*
Y94630D01*
X216049D01*
Y94394D01*
X215813D01*
Y94159D01*
X215342D01*
Y93923D01*
X214871D01*
Y93687D01*
X214399D01*
Y93452D01*
X213928D01*
Y93216D01*
X213221D01*
Y92980D01*
X212514D01*
Y92745D01*
X211807D01*
Y92509D01*
X211336D01*
Y92273D01*
X210629D01*
Y92038D01*
X209922D01*
Y91802D01*
X209215D01*
Y91566D01*
X208508D01*
Y91331D01*
X207801D01*
Y91095D01*
X207094D01*
Y90860D01*
X206623D01*
Y90624D01*
X205916D01*
Y90388D01*
X205445D01*
Y90153D01*
X204974D01*
Y89917D01*
X204738D01*
Y89446D01*
X204974D01*
Y88974D01*
X205209D01*
Y86854D01*
X204974D01*
Y86147D01*
X204738D01*
Y85675D01*
X204502D01*
Y85204D01*
X204267D01*
Y84969D01*
X204031D01*
Y84497D01*
X203795D01*
Y84262D01*
X203560D01*
Y84026D01*
X203324D01*
Y83790D01*
X203088D01*
Y83555D01*
X202853D01*
Y83319D01*
X202617D01*
Y83083D01*
X202381D01*
Y82848D01*
X202146D01*
Y82612D01*
X201674D01*
Y82376D01*
X201439D01*
Y82141D01*
X200968D01*
Y81905D01*
X200732D01*
Y81669D01*
X200261D01*
Y81434D01*
X200025D01*
Y81198D01*
X199789D01*
Y80962D01*
X199554D01*
Y80727D01*
X199318D01*
Y80491D01*
X199082D01*
Y80256D01*
X198847D01*
Y80020D01*
X198611D01*
Y79784D01*
X198375D01*
Y79549D01*
X198140D01*
Y79313D01*
X197904D01*
Y79077D01*
X197668D01*
Y78842D01*
X197433D01*
Y78606D01*
X197197D01*
Y78135D01*
X196962D01*
Y77899D01*
X196726D01*
Y77663D01*
X196490D01*
Y77428D01*
X196255D01*
Y77192D01*
X196019D01*
Y76957D01*
X195783D01*
Y76485D01*
X195548D01*
Y76250D01*
X195312D01*
Y76014D01*
X195077D01*
Y75778D01*
X194841D01*
Y75543D01*
X194605D01*
Y75307D01*
X194370D01*
Y74836D01*
X194134D01*
Y74600D01*
X193898D01*
Y74364D01*
X193663D01*
Y74129D01*
X193427D01*
Y73893D01*
X193191D01*
Y73657D01*
X192956D01*
Y73422D01*
X192720D01*
Y73186D01*
X192484D01*
Y72951D01*
X192249D01*
Y72715D01*
X192013D01*
Y72244D01*
X191777D01*
Y72008D01*
X191542D01*
Y71772D01*
X191306D01*
Y71537D01*
X191070D01*
Y71301D01*
X190835D01*
Y71065D01*
X190599D01*
Y70830D01*
X190364D01*
Y70594D01*
X190128D01*
Y70359D01*
X189892D01*
Y70123D01*
X189657D01*
Y69887D01*
X189421D01*
Y69651D01*
X189185D01*
Y69416D01*
X188950D01*
Y68945D01*
X188714D01*
Y68709D01*
X188478D01*
Y68473D01*
X188243D01*
Y68238D01*
X188007D01*
Y68002D01*
X187771D01*
Y67766D01*
X187536D01*
Y67531D01*
X187300D01*
Y67059D01*
X187064D01*
Y66824D01*
X186829D01*
Y66588D01*
X186593D01*
Y66353D01*
X186358D01*
Y66117D01*
X186122D01*
Y65881D01*
X185886D01*
Y65646D01*
X185651D01*
Y65410D01*
X185415D01*
Y65174D01*
X185179D01*
Y64939D01*
X184944D01*
Y64467D01*
X184708D01*
Y64232D01*
X184473D01*
Y63996D01*
X184237D01*
Y63760D01*
X184001D01*
Y63525D01*
X183766D01*
Y63289D01*
X183530D01*
Y63053D01*
X183294D01*
Y62818D01*
X183059D01*
Y62582D01*
X182823D01*
Y62347D01*
X182587D01*
Y62111D01*
X182352D01*
Y61875D01*
X182116D01*
Y61640D01*
X181880D01*
Y61404D01*
X181645D01*
Y61168D01*
X181409D01*
Y60933D01*
X181173D01*
Y60697D01*
X180938D01*
Y60461D01*
X180702D01*
Y60226D01*
X180466D01*
Y59990D01*
X180231D01*
Y59755D01*
X179995D01*
Y59519D01*
X179760D01*
Y59283D01*
X179524D01*
Y58341D01*
X179288D01*
Y57162D01*
X179053D01*
Y56691D01*
X178817D01*
Y56220D01*
X179053D01*
Y53392D01*
X178817D01*
Y52921D01*
X178581D01*
Y52685D01*
X178346D01*
Y52214D01*
X178110D01*
Y51978D01*
X177874D01*
Y50329D01*
X177403D01*
Y51271D01*
X177167D01*
Y51978D01*
X176932D01*
Y52214D01*
X176696D01*
Y52449D01*
X176460D01*
Y52685D01*
X175989D01*
Y52921D01*
X174811D01*
Y52685D01*
X174104D01*
Y52921D01*
X173633D01*
Y53392D01*
X173397D01*
Y54099D01*
X173633D01*
Y54570D01*
X173869D01*
Y55042D01*
X174104D01*
Y55277D01*
X174340D01*
Y55513D01*
X174104D01*
Y55749D01*
X173869D01*
Y55984D01*
X173397D01*
Y55749D01*
X173162D01*
Y55277D01*
X172926D01*
Y55042D01*
X172690D01*
Y54335D01*
X172455D01*
Y53392D01*
X172219D01*
Y52685D01*
X172455D01*
Y52214D01*
X172690D01*
Y51978D01*
X172926D01*
Y51743D01*
X173162D01*
Y51507D01*
X173397D01*
Y51271D01*
X174811D01*
Y51743D01*
X175282D01*
Y51271D01*
X175518D01*
Y50800D01*
X175754D01*
Y50564D01*
X175518D01*
Y50329D01*
X175047D01*
Y50564D01*
X173162D01*
Y51036D01*
X172926D01*
Y51271D01*
X171983D01*
Y51036D01*
X171748D01*
Y50329D01*
X171041D01*
Y51036D01*
X171276D01*
Y51507D01*
X171748D01*
Y51743D01*
X171983D01*
Y52214D01*
X171748D01*
Y54099D01*
X171983D01*
Y54806D01*
X172219D01*
Y55277D01*
X172455D01*
Y55749D01*
X172690D01*
Y55984D01*
X172926D01*
Y56455D01*
X173162D01*
Y57162D01*
X172926D01*
Y58812D01*
X173162D01*
Y59519D01*
X173397D01*
Y59755D01*
X173633D01*
Y60226D01*
X173869D01*
Y60461D01*
X174104D01*
Y61404D01*
X173869D01*
Y63289D01*
X174104D01*
Y63996D01*
X174340D01*
Y64467D01*
X174575D01*
Y64703D01*
X174811D01*
Y67531D01*
X175047D01*
Y68002D01*
X175282D01*
Y68473D01*
X175518D01*
Y68709D01*
X175754D01*
Y69180D01*
X175518D01*
Y70594D01*
X175754D01*
Y71537D01*
X175989D01*
Y71772D01*
X176225D01*
Y72244D01*
X176460D01*
Y74836D01*
X176696D01*
Y75307D01*
X176932D01*
Y75778D01*
X177167D01*
Y76250D01*
X177403D01*
Y76485D01*
X177639D01*
Y76721D01*
X177874D01*
Y79077D01*
X178110D01*
Y79549D01*
X178346D01*
Y80020D01*
X178581D01*
Y80256D01*
X178817D01*
Y80491D01*
X178581D01*
Y83319D01*
X178817D01*
Y83790D01*
X179053D01*
Y84026D01*
X179288D01*
Y84733D01*
X179053D01*
Y86147D01*
X178581D01*
Y85911D01*
X178346D01*
Y85440D01*
X178110D01*
Y85204D01*
X177874D01*
Y84969D01*
X177639D01*
Y84497D01*
X177403D01*
Y84262D01*
X177167D01*
Y83790D01*
X176932D01*
Y83555D01*
X176696D01*
Y83319D01*
X176460D01*
Y82848D01*
X176225D01*
Y82612D01*
X175989D01*
Y82376D01*
X175754D01*
Y81905D01*
X175518D01*
Y81669D01*
X175282D01*
Y81434D01*
X175047D01*
Y81198D01*
X174811D01*
Y80727D01*
X174575D01*
Y80491D01*
X174340D01*
Y80256D01*
X174104D01*
Y80020D01*
X173869D01*
Y79549D01*
X173633D01*
Y79313D01*
X173397D01*
Y79077D01*
X173162D01*
Y78842D01*
X172926D01*
Y78370D01*
X172690D01*
Y78135D01*
X172455D01*
Y77899D01*
X172219D01*
Y77428D01*
X171983D01*
Y77192D01*
X171748D01*
Y76721D01*
X171512D01*
Y76485D01*
X171276D01*
Y76014D01*
X171041D01*
Y75778D01*
X170805D01*
Y75307D01*
X170569D01*
Y74836D01*
X170334D01*
Y74364D01*
X170098D01*
Y73893D01*
X169862D01*
Y73657D01*
X169627D01*
Y73186D01*
X169391D01*
Y72715D01*
X169156D01*
Y72244D01*
X168920D01*
Y72008D01*
X168684D01*
Y71537D01*
X168449D01*
Y71065D01*
X168213D01*
Y70594D01*
X167977D01*
Y70123D01*
X167742D01*
Y69651D01*
X167506D01*
Y69180D01*
X167270D01*
Y68709D01*
X167035D01*
Y68238D01*
X166799D01*
Y67766D01*
X166563D01*
Y67295D01*
X166328D01*
Y66824D01*
X166092D01*
Y66353D01*
X165856D01*
Y65881D01*
X165621D01*
Y65646D01*
X165385D01*
Y65174D01*
X165150D01*
Y64703D01*
X164914D01*
Y64232D01*
X164678D01*
Y63760D01*
X164443D01*
Y63289D01*
X164207D01*
Y62818D01*
X163971D01*
Y62111D01*
X163736D01*
Y61404D01*
X163500D01*
Y60697D01*
X163264D01*
Y59990D01*
X163029D01*
Y59283D01*
X162793D01*
Y58812D01*
X162558D01*
Y57869D01*
X162322D01*
Y57398D01*
X162086D01*
Y56691D01*
X161851D01*
Y55984D01*
X161615D01*
Y55277D01*
X161379D01*
Y54806D01*
X161144D01*
Y54099D01*
X160908D01*
Y53628D01*
X160672D01*
Y52921D01*
X160437D01*
Y52214D01*
X160201D01*
Y51743D01*
X159965D01*
Y51036D01*
X159730D01*
Y50329D01*
X158787D01*
Y50800D01*
X159023D01*
Y51507D01*
X159258D01*
Y52214D01*
X159494D01*
Y52921D01*
X159730D01*
Y53628D01*
X159965D01*
Y54570D01*
X160201D01*
Y55042D01*
X160437D01*
Y55749D01*
X160672D01*
Y56455D01*
X160908D01*
Y56927D01*
X161144D01*
Y57634D01*
X161379D01*
Y58341D01*
X161615D01*
Y58812D01*
X161851D01*
Y59519D01*
X162086D01*
Y60226D01*
X162322D01*
Y60697D01*
X162558D01*
Y61404D01*
X162793D01*
Y62111D01*
X163029D01*
Y62818D01*
X163264D01*
Y63289D01*
X163500D01*
Y63996D01*
X163736D01*
Y64467D01*
X163971D01*
Y64939D01*
X164207D01*
Y65410D01*
X164443D01*
Y65881D01*
X164678D01*
Y66353D01*
X164914D01*
Y66824D01*
X165150D01*
Y67295D01*
X165385D01*
Y67766D01*
X165621D01*
Y68238D01*
X165856D01*
Y68473D01*
X166092D01*
Y68945D01*
X166328D01*
Y69416D01*
X166563D01*
Y69887D01*
X166799D01*
Y70359D01*
X167035D01*
Y70830D01*
X167270D01*
Y71301D01*
X167506D01*
Y71772D01*
X167742D01*
Y72008D01*
X167977D01*
Y72479D01*
X168213D01*
Y72951D01*
X168449D01*
Y73186D01*
X168684D01*
Y73657D01*
X168920D01*
Y74129D01*
X169156D01*
Y74600D01*
X169391D01*
Y75071D01*
X169627D01*
Y75543D01*
X169862D01*
Y76014D01*
X170098D01*
Y76485D01*
X170334D01*
Y76721D01*
X170569D01*
Y77192D01*
X170805D01*
Y77428D01*
X171041D01*
Y77663D01*
X171276D01*
Y78135D01*
X171512D01*
Y78370D01*
X171748D01*
Y78606D01*
X171983D01*
Y79077D01*
X172219D01*
Y79313D01*
X172455D01*
Y79549D01*
X172690D01*
Y80020D01*
X172926D01*
Y80256D01*
X173162D01*
Y80491D01*
X173397D01*
Y80727D01*
X173633D01*
Y81198D01*
X173869D01*
Y81434D01*
X174104D01*
Y81669D01*
X174340D01*
Y81905D01*
X174575D01*
Y82376D01*
X174811D01*
Y82612D01*
X175047D01*
Y82848D01*
X175282D01*
Y83319D01*
X175518D01*
Y83555D01*
X175754D01*
Y83790D01*
X175989D01*
Y84262D01*
X176225D01*
Y84497D01*
X176460D01*
Y84733D01*
X176696D01*
Y85204D01*
X176932D01*
Y85440D01*
X177167D01*
Y85675D01*
X177403D01*
Y86147D01*
X177639D01*
Y86618D01*
X177874D01*
Y86854D01*
X178110D01*
Y87325D01*
X178346D01*
Y87796D01*
X178581D01*
Y88267D01*
X178817D01*
Y88739D01*
X179053D01*
Y89210D01*
X179288D01*
Y89681D01*
X179524D01*
Y91802D01*
X179760D01*
Y92273D01*
X179995D01*
Y92980D01*
X179760D01*
Y94866D01*
X179995D01*
Y95573D01*
X180231D01*
Y96279D01*
X179995D01*
Y98400D01*
X180231D01*
Y98636D01*
X180466D01*
Y98871D01*
X180702D01*
Y99578D01*
X180466D01*
Y100050D01*
X180231D01*
Y101228D01*
X180466D01*
Y101699D01*
X179995D01*
Y101935D01*
X179760D01*
Y102170D01*
X179288D01*
Y102406D01*
X178817D01*
Y102642D01*
X178346D01*
Y102877D01*
X178110D01*
Y103113D01*
X177874D01*
Y103349D01*
X177639D01*
Y103584D01*
X177403D01*
Y103820D01*
X177167D01*
Y104056D01*
X176932D01*
Y104291D01*
X176696D01*
Y104527D01*
X176225D01*
Y104763D01*
X175754D01*
Y104998D01*
X175518D01*
Y105234D01*
X175282D01*
Y105705D01*
X175047D01*
Y106176D01*
X174811D01*
Y107826D01*
X174575D01*
Y108769D01*
X174340D01*
Y109475D01*
X174104D01*
Y110418D01*
X174340D01*
Y110889D01*
X174575D01*
Y111596D01*
X174811D01*
Y114660D01*
X175047D01*
Y115367D01*
X175282D01*
Y115838D01*
X175518D01*
Y116309D01*
X175754D01*
Y116781D01*
X175989D01*
Y118430D01*
X176225D01*
Y119137D01*
X176460D01*
Y119608D01*
X176696D01*
Y120315D01*
X176932D01*
Y121493D01*
X177167D01*
Y121729D01*
X177403D01*
Y121965D01*
X177639D01*
Y122200D01*
X177874D01*
Y122672D01*
X178110D01*
Y123378D01*
X177874D01*
Y123143D01*
X177639D01*
Y122907D01*
X177403D01*
Y122672D01*
X177167D01*
Y122200D01*
X176932D01*
Y121965D01*
X176696D01*
Y121729D01*
X176460D01*
Y121493D01*
X176225D01*
Y121258D01*
X175989D01*
Y120786D01*
X175518D01*
Y120551D01*
X175282D01*
Y120315D01*
X175047D01*
Y120079D01*
X174811D01*
Y119844D01*
X174575D01*
Y119608D01*
X174340D01*
Y119373D01*
X174104D01*
Y119137D01*
X173869D01*
Y118901D01*
X173633D01*
Y118666D01*
X173397D01*
Y118430D01*
X172926D01*
Y118194D01*
X172690D01*
Y117959D01*
X172219D01*
Y117723D01*
X171983D01*
Y117487D01*
X171512D01*
Y117252D01*
X171276D01*
Y117016D01*
X170805D01*
Y116781D01*
X170334D01*
Y117016D01*
X170569D01*
Y117252D01*
X170805D01*
Y117487D01*
X171041D01*
Y117723D01*
X171276D01*
Y117959D01*
X171512D01*
Y118194D01*
X171748D01*
Y118430D01*
X171983D01*
Y118666D01*
X172219D01*
Y118901D01*
X172455D01*
Y119137D01*
X172926D01*
Y119373D01*
X173162D01*
Y119608D01*
X173397D01*
Y119844D01*
X173633D01*
Y120079D01*
X173869D01*
Y120315D01*
X174104D01*
Y120551D01*
X174340D01*
Y120786D01*
X174575D01*
Y121022D01*
X174811D01*
Y121258D01*
X175047D01*
Y121729D01*
X175282D01*
Y121965D01*
X175518D01*
Y122200D01*
X175754D01*
Y122436D01*
X175989D01*
Y122672D01*
X176225D01*
Y122907D01*
X176460D01*
Y123143D01*
X176696D01*
Y123378D01*
X176932D01*
Y123850D01*
X177167D01*
Y124086D01*
X177403D01*
Y124321D01*
X177639D01*
Y124557D01*
X177874D01*
Y125028D01*
X178110D01*
Y125264D01*
X178346D01*
Y125735D01*
X178581D01*
Y125971D01*
X178817D01*
Y126206D01*
X179053D01*
Y126678D01*
X179288D01*
Y127149D01*
X179524D01*
Y127620D01*
X179760D01*
Y128091D01*
X179995D01*
Y128563D01*
X180231D01*
Y129270D01*
X180466D01*
Y129977D01*
X180702D01*
Y130683D01*
X180938D01*
Y131390D01*
Y131626D01*
X181173D01*
Y133040D01*
X181409D01*
Y134454D01*
X181645D01*
Y135632D01*
X181880D01*
Y136339D01*
X182116D01*
Y137046D01*
X182352D01*
Y137989D01*
X182587D01*
Y139167D01*
X182823D01*
Y141759D01*
X182587D01*
Y142701D01*
X182352D01*
Y144586D01*
X182587D01*
Y146707D01*
X182352D01*
Y147650D01*
X182116D01*
Y150949D01*
X182352D01*
Y152598D01*
X182116D01*
Y153305D01*
X181880D01*
Y153777D01*
X181645D01*
Y158254D01*
X181880D01*
Y159197D01*
X182116D01*
Y159668D01*
X181880D01*
Y161317D01*
X181645D01*
Y161789D01*
X181409D01*
Y162260D01*
X181173D01*
Y163202D01*
X180938D01*
Y164852D01*
X181173D01*
Y166030D01*
X181409D01*
Y166501D01*
X180466D01*
Y166266D01*
X179524D01*
Y164616D01*
X179288D01*
Y162967D01*
X179053D01*
Y161553D01*
X178817D01*
Y160610D01*
X178581D01*
Y159903D01*
X178346D01*
Y159432D01*
X178110D01*
Y158725D01*
X177874D01*
Y158254D01*
X177639D01*
Y158018D01*
X177167D01*
Y157783D01*
X176696D01*
Y157547D01*
X176225D01*
Y157311D01*
X175518D01*
Y157076D01*
X174575D01*
Y156840D01*
X173162D01*
Y156604D01*
X171041D01*
Y156369D01*
X163736D01*
Y156604D01*
X162086D01*
Y156840D01*
X160908D01*
Y157076D01*
X159965D01*
Y157311D01*
X159023D01*
Y157547D01*
X158316D01*
Y157783D01*
X158080D01*
Y158018D01*
X157609D01*
Y158254D01*
X157373D01*
Y158490D01*
X157138D01*
Y158961D01*
X156902D01*
Y159432D01*
X156666D01*
Y159903D01*
X156431D01*
Y160610D01*
X156195D01*
Y161082D01*
X155960D01*
Y161789D01*
X155724D01*
Y162495D01*
X155488D01*
Y163438D01*
X155253D01*
Y164616D01*
X155017D01*
Y165795D01*
X154781D01*
Y166030D01*
X153839D01*
Y166266D01*
X153132D01*
Y166501D01*
X151718D01*
Y166737D01*
X148890D01*
Y166501D01*
X147948D01*
Y166266D01*
X147241D01*
Y166030D01*
X146769D01*
Y165795D01*
X146534D01*
Y165323D01*
X146298D01*
Y164145D01*
X146062D01*
Y163202D01*
X145827D01*
Y162260D01*
X145591D01*
Y161553D01*
X145356D01*
Y160846D01*
X145120D01*
Y160139D01*
X144884D01*
Y159432D01*
X144649D01*
Y158961D01*
X144413D01*
Y158725D01*
X144177D01*
Y158254D01*
X143942D01*
Y158018D01*
X143706D01*
Y157783D01*
X143470D01*
Y157547D01*
X143235D01*
Y157311D01*
X142763D01*
Y157076D01*
X142056D01*
Y156840D01*
X140878D01*
Y156604D01*
X139464D01*
Y156369D01*
X138050D01*
Y156133D01*
X134752D01*
Y155898D01*
X133102D01*
Y156133D01*
X129096D01*
Y156369D01*
X127682D01*
Y156604D01*
X126268D01*
Y156840D01*
X125326D01*
Y157076D01*
X124619D01*
Y157311D01*
X124148D01*
Y157547D01*
X123912D01*
Y157783D01*
X123676D01*
Y158254D01*
X123441D01*
Y158490D01*
X123205D01*
Y158961D01*
X122969D01*
Y159668D01*
X122734D01*
Y160375D01*
X122498D01*
Y161317D01*
X122262D01*
Y162260D01*
X122027D01*
Y164145D01*
X121791D01*
Y165795D01*
X120141D01*
Y165559D01*
X120377D01*
Y164852D01*
X120613D01*
Y162260D01*
X120377D01*
Y161553D01*
X120141D01*
Y161082D01*
X119906D01*
Y159903D01*
X120141D01*
Y159197D01*
X120377D01*
Y158254D01*
X120613D01*
Y157076D01*
X120377D01*
Y156133D01*
X120141D01*
Y155426D01*
X119906D01*
Y154955D01*
X119670D01*
Y154012D01*
X119906D01*
Y151656D01*
X120141D01*
Y150949D01*
X120377D01*
Y150242D01*
X120613D01*
Y149299D01*
X120848D01*
Y147179D01*
X120613D01*
Y146236D01*
X120377D01*
Y145765D01*
X120141D01*
Y145058D01*
X119906D01*
Y144351D01*
X120141D01*
Y142230D01*
X119906D01*
Y141287D01*
X119670D01*
Y140345D01*
X119906D01*
Y139638D01*
X120141D01*
Y138931D01*
X120377D01*
Y136810D01*
X120141D01*
Y135396D01*
X120377D01*
Y135161D01*
X120613D01*
Y134689D01*
X120848D01*
Y134454D01*
X121084D01*
Y133982D01*
X121320D01*
Y133511D01*
X121555D01*
Y133276D01*
X121791D01*
Y132804D01*
X122027D01*
Y132333D01*
X122262D01*
Y132097D01*
X122498D01*
Y131626D01*
X122734D01*
Y130919D01*
X122969D01*
Y129977D01*
X123205D01*
Y128798D01*
X123441D01*
Y126678D01*
X123676D01*
Y125735D01*
X123912D01*
Y123614D01*
X124148D01*
Y123378D01*
X124383D01*
Y123143D01*
X124619D01*
Y122907D01*
X124854D01*
Y122672D01*
X125090D01*
Y122436D01*
X125326D01*
Y122200D01*
X125561D01*
Y121965D01*
X125797D01*
Y121729D01*
X126033D01*
Y121493D01*
X126268D01*
Y121022D01*
X126504D01*
Y120786D01*
X126740D01*
Y120551D01*
X126975D01*
Y120315D01*
X127211D01*
Y120079D01*
X127446D01*
Y119844D01*
X127682D01*
Y119608D01*
X127918D01*
Y119373D01*
X128153D01*
Y119137D01*
X128389D01*
Y118901D01*
X128625D01*
Y118666D01*
X128860D01*
Y118430D01*
X129096D01*
Y118194D01*
X129332D01*
Y117959D01*
X129567D01*
Y117487D01*
X129332D01*
Y117723D01*
X128860D01*
Y117959D01*
X128625D01*
Y118194D01*
X128153D01*
Y118430D01*
X127918D01*
Y118666D01*
X127682D01*
Y118901D01*
X127211D01*
Y119137D01*
X126975D01*
Y119373D01*
X126740D01*
Y119608D01*
X126504D01*
Y119844D01*
X126268D01*
Y120079D01*
X126033D01*
Y120315D01*
X125797D01*
Y120551D01*
X125561D01*
Y120786D01*
X125326D01*
Y121022D01*
X125090D01*
Y121258D01*
X124854D01*
Y121493D01*
X124619D01*
Y121965D01*
X124383D01*
Y122200D01*
X124148D01*
Y122436D01*
X123912D01*
Y122672D01*
X123676D01*
Y121729D01*
X123912D01*
Y121258D01*
X124148D01*
Y120786D01*
X124383D01*
Y120551D01*
X124619D01*
Y120315D01*
X124854D01*
Y119844D01*
X125090D01*
Y119608D01*
X125326D01*
Y119137D01*
X125561D01*
Y118666D01*
X125797D01*
Y118194D01*
X126033D01*
Y115131D01*
X126268D01*
Y114188D01*
X126504D01*
Y113481D01*
X126740D01*
Y110889D01*
X126504D01*
Y109711D01*
X126268D01*
Y108533D01*
X126033D01*
Y107590D01*
X125797D01*
Y107119D01*
X125561D01*
Y106412D01*
X125326D01*
Y105705D01*
X125090D01*
Y105234D01*
X124854D01*
Y104763D01*
X124619D01*
Y104291D01*
X124383D01*
Y103820D01*
X124148D01*
Y103584D01*
X123912D01*
Y103349D01*
X123676D01*
Y103113D01*
X123441D01*
Y102877D01*
X123205D01*
Y102642D01*
X122734D01*
Y102406D01*
X122262D01*
Y102170D01*
X121791D01*
Y101935D01*
X120613D01*
Y101699D01*
X120141D01*
Y101464D01*
X119906D01*
Y101228D01*
X119670D01*
Y100992D01*
X119199D01*
Y100757D01*
X118963D01*
Y100521D01*
X118492D01*
Y100285D01*
X118256D01*
Y99814D01*
X118492D01*
Y99107D01*
X118728D01*
Y98165D01*
X118492D01*
Y97929D01*
X118728D01*
Y97693D01*
X118963D01*
Y97458D01*
X119199D01*
Y96986D01*
X119435D01*
Y96751D01*
X119670D01*
Y96279D01*
X119906D01*
Y94866D01*
X120141D01*
Y94630D01*
X120613D01*
Y94394D01*
X120848D01*
Y93923D01*
X121084D01*
Y93687D01*
X121320D01*
Y93216D01*
X121555D01*
Y92745D01*
X121791D01*
Y92038D01*
X122027D01*
Y90860D01*
X122262D01*
Y90624D01*
X122498D01*
Y90388D01*
X122734D01*
Y89917D01*
X122969D01*
Y89681D01*
X123205D01*
Y89210D01*
X123441D01*
Y88739D01*
X123676D01*
Y86854D01*
X123912D01*
Y86618D01*
X124148D01*
Y86382D01*
X124383D01*
Y86147D01*
X124619D01*
Y85911D01*
X124854D01*
Y85675D01*
X125090D01*
Y85440D01*
X125326D01*
Y84969D01*
X125561D01*
Y84262D01*
X125797D01*
Y82612D01*
X126033D01*
Y82376D01*
X126268D01*
Y82141D01*
X126504D01*
Y81905D01*
X126740D01*
Y81434D01*
X126975D01*
Y80727D01*
X127211D01*
Y78842D01*
X127446D01*
Y78606D01*
X127682D01*
Y78370D01*
X127918D01*
Y78135D01*
X128153D01*
Y77899D01*
X128389D01*
Y77663D01*
X128625D01*
Y77192D01*
X128860D01*
Y76250D01*
X129096D01*
Y74836D01*
X129332D01*
Y74600D01*
X129567D01*
Y74364D01*
X129803D01*
Y74129D01*
X130039D01*
Y73893D01*
X130274D01*
Y73422D01*
X130510D01*
Y72951D01*
X130745D01*
Y71772D01*
X130981D01*
Y71065D01*
X131217D01*
Y70594D01*
X131452D01*
Y70359D01*
X131688D01*
Y70123D01*
X131924D01*
Y69887D01*
X132159D01*
Y69416D01*
X132395D01*
Y69180D01*
X132631D01*
Y68945D01*
X132866D01*
Y68709D01*
X133102D01*
Y68238D01*
X133338D01*
Y68002D01*
X133573D01*
Y67766D01*
X133809D01*
Y67531D01*
X134045D01*
Y67295D01*
X134280D01*
Y67059D01*
X134516D01*
Y66824D01*
X134752D01*
Y66588D01*
X134987D01*
Y66353D01*
X135223D01*
Y66117D01*
X135458D01*
Y65881D01*
X135694D01*
Y65646D01*
X135930D01*
Y65174D01*
X136165D01*
Y64939D01*
X136401D01*
Y64703D01*
X136637D01*
Y64467D01*
X136872D01*
Y64232D01*
X137108D01*
Y63996D01*
X137344D01*
Y63525D01*
X137579D01*
Y63289D01*
X137815D01*
Y63053D01*
X138050D01*
Y62582D01*
X138286D01*
Y62347D01*
X138522D01*
Y62111D01*
X138757D01*
Y61875D01*
X138993D01*
Y61404D01*
X139229D01*
Y61168D01*
X139464D01*
Y60933D01*
X139700D01*
Y60697D01*
X139936D01*
Y60461D01*
X140171D01*
Y60226D01*
X140407D01*
Y59990D01*
X140643D01*
Y59755D01*
X140878D01*
Y59519D01*
X141114D01*
Y59283D01*
X141349D01*
Y59048D01*
X141585D01*
Y58576D01*
X141821D01*
Y58341D01*
X142056D01*
Y58105D01*
X142292D01*
Y57869D01*
X142528D01*
Y57634D01*
X142763D01*
Y57398D01*
X142999D01*
Y57162D01*
X143235D01*
Y56927D01*
X143470D01*
Y56691D01*
X143706D01*
Y56455D01*
X143942D01*
Y55984D01*
X144177D01*
Y55749D01*
X144413D01*
Y55513D01*
X144649D01*
Y55277D01*
X144884D01*
Y55042D01*
X145120D01*
Y54570D01*
X145356D01*
Y54335D01*
X145591D01*
Y54099D01*
X145827D01*
Y53863D01*
X146062D01*
Y53392D01*
X146298D01*
Y53156D01*
X146534D01*
Y52921D01*
X146769D01*
Y52685D01*
X147005D01*
Y52449D01*
X147241D01*
Y51978D01*
X147476D01*
Y51743D01*
X147712D01*
Y51507D01*
X147948D01*
Y50800D01*
X148183D01*
Y50329D01*
X147241D01*
Y50800D01*
X147005D01*
Y51036D01*
X146769D01*
Y51507D01*
X146534D01*
Y51743D01*
X146298D01*
Y51978D01*
X146062D01*
Y52214D01*
X145827D01*
Y52685D01*
X145591D01*
Y52921D01*
X145356D01*
Y53156D01*
X145120D01*
Y53392D01*
X144884D01*
Y53863D01*
X144649D01*
Y54099D01*
X144413D01*
Y54335D01*
X144177D01*
Y54570D01*
X143942D01*
Y55042D01*
X143706D01*
Y55277D01*
X143470D01*
Y55513D01*
X143235D01*
Y55749D01*
X142999D01*
Y55984D01*
X142763D01*
Y56220D01*
X142528D01*
Y56455D01*
X142292D01*
Y56691D01*
X142056D01*
Y57162D01*
X141821D01*
Y57398D01*
X141585D01*
Y57634D01*
X141349D01*
Y57869D01*
X141114D01*
Y58105D01*
X140878D01*
Y58341D01*
X140643D01*
Y58576D01*
X140407D01*
Y58812D01*
X140171D01*
Y59048D01*
X139936D01*
Y59283D01*
X139700D01*
Y59519D01*
X139464D01*
Y59990D01*
X139229D01*
Y60226D01*
X138993D01*
Y60461D01*
X138757D01*
Y60697D01*
X138522D01*
Y60933D01*
X138286D01*
Y61168D01*
X138050D01*
Y61640D01*
X137815D01*
Y61875D01*
X137579D01*
Y62111D01*
X137344D01*
Y62582D01*
X137108D01*
Y62818D01*
X136872D01*
Y63053D01*
X136637D01*
Y63289D01*
X136401D01*
Y63525D01*
X136165D01*
Y63760D01*
X135930D01*
Y63996D01*
X135694D01*
Y64467D01*
X135458D01*
Y64703D01*
X135223D01*
Y64939D01*
X134987D01*
Y65174D01*
X134752D01*
Y65410D01*
X134516D01*
Y65646D01*
X134280D01*
Y65881D01*
X134045D01*
Y66353D01*
X133809D01*
Y66588D01*
X133573D01*
Y66824D01*
X133338D01*
Y67059D01*
X133102D01*
Y67295D01*
X132866D01*
Y67059D01*
X132631D01*
Y66824D01*
X132866D01*
Y66353D01*
X133102D01*
Y66117D01*
X133338D01*
Y65881D01*
X133573D01*
Y65646D01*
X133809D01*
Y65410D01*
X134045D01*
Y64939D01*
X134280D01*
Y64232D01*
X134516D01*
Y62818D01*
X134752D01*
Y62582D01*
X134987D01*
Y62347D01*
X135223D01*
Y62111D01*
X135458D01*
Y61875D01*
X135694D01*
Y61640D01*
X135930D01*
Y61168D01*
X136165D01*
Y60461D01*
X136401D01*
Y58812D01*
X136872D01*
Y58576D01*
X137108D01*
Y58341D01*
X137344D01*
Y58105D01*
X137579D01*
Y57869D01*
X137815D01*
Y57398D01*
X138050D01*
Y57162D01*
X138286D01*
Y56691D01*
X138522D01*
Y56220D01*
X138757D01*
Y54806D01*
X138993D01*
Y54570D01*
X139229D01*
Y54335D01*
X139464D01*
Y54099D01*
X139700D01*
Y53863D01*
X139936D01*
Y53392D01*
X140171D01*
Y53156D01*
X140407D01*
Y52685D01*
X140643D01*
Y51978D01*
X140878D01*
Y51036D01*
X141114D01*
Y50800D01*
X141349D01*
Y50564D01*
X141585D01*
Y50329D01*
X140878D01*
Y50564D01*
X140643D01*
Y50800D01*
X139700D01*
Y51036D01*
X138286D01*
Y50800D01*
X137815D01*
Y50564D01*
X137579D01*
Y50329D01*
X135930D01*
Y50564D01*
X135694D01*
Y50800D01*
X135458D01*
Y51036D01*
X135223D01*
Y51271D01*
X134752D01*
Y51507D01*
X134280D01*
Y50329D01*
X134045D01*
Y50800D01*
X133809D01*
Y51036D01*
X133573D01*
Y51271D01*
X133102D01*
Y51507D01*
X132866D01*
Y51743D01*
X132631D01*
Y51978D01*
X132395D01*
Y52214D01*
X132159D01*
Y52449D01*
X131688D01*
Y52685D01*
X131452D01*
Y52921D01*
X131217D01*
Y53156D01*
X130981D01*
Y53392D01*
X130745D01*
Y53628D01*
X130274D01*
Y53863D01*
X130039D01*
Y54099D01*
X129803D01*
Y54335D01*
X129332D01*
Y54570D01*
X128860D01*
Y54806D01*
X128625D01*
Y55042D01*
X128153D01*
Y55277D01*
X127682D01*
Y55513D01*
X127211D01*
Y55749D01*
X126740D01*
Y55984D01*
X126504D01*
Y56220D01*
X126033D01*
Y56455D01*
X125797D01*
Y56691D01*
X125326D01*
Y56927D01*
X124854D01*
Y57162D01*
X124619D01*
Y57398D01*
X124383D01*
Y57634D01*
X124148D01*
Y57869D01*
X123676D01*
Y58105D01*
X123441D01*
Y58341D01*
X123205D01*
Y58576D01*
X122969D01*
Y58812D01*
X122498D01*
Y59048D01*
X122262D01*
Y59283D01*
X121791D01*
Y59519D01*
X121320D01*
Y59755D01*
X121084D01*
Y59990D01*
X120613D01*
Y60226D01*
X120377D01*
Y60461D01*
X120141D01*
Y60697D01*
X119670D01*
Y60933D01*
X119435D01*
Y61168D01*
X119199D01*
Y61404D01*
X118728D01*
Y61640D01*
X118492D01*
Y61875D01*
X118021D01*
Y62111D01*
X117549D01*
Y62347D01*
X117314D01*
Y62582D01*
X116842D01*
Y62818D01*
X116371D01*
Y63053D01*
X115900D01*
Y63289D01*
X115664D01*
Y63525D01*
X115193D01*
Y63760D01*
X114957D01*
Y63996D01*
X114486D01*
Y64232D01*
X114250D01*
Y64467D01*
X113779D01*
Y64703D01*
X113544D01*
Y64939D01*
X113308D01*
Y65174D01*
X113072D01*
Y65410D01*
X112601D01*
Y65646D01*
X112365D01*
Y65881D01*
X112130D01*
Y66117D01*
X111894D01*
Y66353D01*
X111658D01*
Y66588D01*
X111187D01*
Y66824D01*
X110951D01*
Y67059D01*
X110716D01*
Y67295D01*
X110244D01*
Y67531D01*
X110009D01*
Y67766D01*
X109773D01*
Y68002D01*
X109302D01*
Y68238D01*
X109066D01*
Y68473D01*
X108595D01*
Y68709D01*
X108359D01*
Y68945D01*
X107888D01*
Y69180D01*
X107417D01*
Y69416D01*
X107181D01*
Y69651D01*
X106710D01*
Y69887D01*
X106238D01*
Y70123D01*
X105767D01*
Y70359D01*
X105532D01*
Y70594D01*
X105060D01*
Y70830D01*
X104825D01*
Y71065D01*
X104353D01*
Y71301D01*
X104118D01*
Y71537D01*
X103646D01*
Y71772D01*
X103411D01*
Y72008D01*
X102939D01*
Y72244D01*
X102704D01*
Y72479D01*
X102468D01*
Y72715D01*
X102233D01*
Y72951D01*
X101761D01*
Y73186D01*
X101526D01*
Y73422D01*
X101290D01*
Y73657D01*
X101054D01*
Y73893D01*
X100819D01*
Y74129D01*
X100347D01*
Y74364D01*
X100112D01*
Y74600D01*
X99169D01*
Y74836D01*
X98462D01*
Y75071D01*
X97755D01*
Y75307D01*
X97048D01*
Y75543D01*
X96577D01*
Y75778D01*
X96106D01*
Y76014D01*
X95399D01*
Y76250D01*
X94928D01*
Y76485D01*
X94456D01*
Y76721D01*
X93985D01*
Y76957D01*
X93514D01*
Y77192D01*
X93278D01*
Y77428D01*
X92807D01*
Y77663D01*
X92571D01*
Y77899D01*
X92336D01*
Y78135D01*
X92100D01*
Y78370D01*
X91864D01*
Y78842D01*
X91629D01*
Y79077D01*
X91393D01*
Y79784D01*
X91157D01*
Y82141D01*
X91393D01*
Y82848D01*
X90450D01*
Y83083D01*
X88094D01*
Y83319D01*
X86444D01*
Y83555D01*
X84795D01*
Y83790D01*
X83617D01*
Y84026D01*
X82438D01*
Y84262D01*
X81496D01*
Y84497D01*
X80553D01*
Y84733D01*
X79611D01*
Y84969D01*
X78668D01*
Y85204D01*
X77961D01*
Y85440D01*
X77018D01*
Y85675D01*
X76076D01*
Y85911D01*
X75369D01*
Y86147D01*
X74426D01*
Y86382D01*
X73720D01*
Y86618D01*
X73013D01*
Y86854D01*
X72070D01*
Y87089D01*
X71363D01*
Y87325D01*
X70420D01*
Y87561D01*
X69714D01*
Y87796D01*
X68771D01*
Y88032D01*
X68064D01*
Y88267D01*
X67357D01*
Y88503D01*
X66886D01*
Y88739D01*
X66650D01*
Y88974D01*
X66414D01*
Y89681D01*
X66650D01*
Y89917D01*
X66886D01*
Y90153D01*
X67357D01*
Y90388D01*
X67593D01*
Y90624D01*
X68064D01*
Y90860D01*
X68535D01*
Y91095D01*
X69007D01*
Y91331D01*
X69242D01*
Y91566D01*
X69714D01*
Y91802D01*
X70185D01*
Y92038D01*
X70656D01*
Y92273D01*
X71127D01*
Y92509D01*
X71599D01*
Y92745D01*
X71834D01*
Y92980D01*
X72306D01*
Y93216D01*
X72777D01*
Y93452D01*
X73248D01*
Y93687D01*
X73720D01*
Y93923D01*
X73955D01*
Y94159D01*
X74426D01*
Y94394D01*
X74898D01*
Y94630D01*
X75133D01*
Y94866D01*
X75605D01*
Y95101D01*
X76076D01*
Y95337D01*
X76547D01*
Y95573D01*
X76783D01*
Y95808D01*
X77254D01*
Y96044D01*
X77726D01*
Y96279D01*
X77961D01*
Y96515D01*
X78432D01*
Y96751D01*
X78904D01*
Y96986D01*
X79139D01*
Y97222D01*
X79611D01*
Y97458D01*
X80082D01*
Y97693D01*
X80553D01*
Y97929D01*
X80789D01*
Y98165D01*
X81260D01*
Y98400D01*
X81731D01*
Y98636D01*
X81967D01*
Y98871D01*
X82438D01*
Y99107D01*
X82203D01*
Y99343D01*
X81496D01*
Y99578D01*
X81025D01*
Y99814D01*
X80082D01*
Y99578D01*
X79375D01*
Y99343D01*
X78668D01*
Y99107D01*
X78197D01*
Y98871D01*
X77490D01*
Y98636D01*
X77018D01*
Y98400D01*
X76547D01*
Y98165D01*
X76076D01*
Y97929D01*
X75605D01*
Y97693D01*
X75133D01*
Y97458D01*
X74662D01*
Y97222D01*
X73955D01*
Y96986D01*
X73484D01*
Y96751D01*
X73013D01*
Y96515D01*
X72306D01*
Y96279D01*
X71834D01*
Y96044D01*
X71127D01*
Y95808D01*
X70656D01*
Y95573D01*
X69949D01*
Y95337D01*
X69478D01*
Y95101D01*
X68771D01*
Y94866D01*
X68300D01*
Y94630D01*
X67593D01*
Y94394D01*
X66886D01*
Y94159D01*
X66414D01*
Y93923D01*
X65943D01*
Y93687D01*
X65472D01*
Y93452D01*
X65001D01*
Y93216D01*
X64529D01*
Y92980D01*
X64058D01*
Y92745D01*
X63587D01*
Y92509D01*
X63116D01*
Y92273D01*
X62644D01*
Y92038D01*
X62409D01*
Y91802D01*
X61937D01*
Y91566D01*
X61702D01*
Y91331D01*
X61466D01*
Y91095D01*
X61230D01*
Y90860D01*
X60759D01*
Y90624D01*
X60523D01*
Y90388D01*
X60288D01*
Y90153D01*
X60052D01*
Y89917D01*
X59816D01*
Y89681D01*
X59581D01*
Y89446D01*
X59345D01*
Y89210D01*
X58874D01*
Y88974D01*
X58638D01*
Y88739D01*
X58403D01*
Y88503D01*
X58167D01*
Y88267D01*
X57931D01*
Y88032D01*
X57696D01*
Y87796D01*
X57460D01*
Y87561D01*
X57224D01*
Y87089D01*
X56989D01*
Y86854D01*
X56753D01*
Y86618D01*
X56518D01*
Y86382D01*
X56282D01*
Y86147D01*
X56046D01*
Y85911D01*
X55810D01*
Y85440D01*
X55575D01*
Y85204D01*
X55339D01*
Y84969D01*
X54868D01*
Y84733D01*
X54632D01*
Y84497D01*
X54397D01*
Y84262D01*
X54161D01*
Y84026D01*
X53925D01*
Y83790D01*
X53690D01*
Y83555D01*
X53454D01*
Y83319D01*
X53218D01*
Y83083D01*
X52983D01*
Y82848D01*
X52747D01*
Y82612D01*
X52512D01*
Y82376D01*
X52276D01*
Y82141D01*
X52040D01*
Y81905D01*
X51805D01*
Y81669D01*
X51569D01*
Y81434D01*
X51333D01*
Y81198D01*
X51098D01*
Y80962D01*
X50862D01*
Y80727D01*
X50626D01*
Y80491D01*
X50391D01*
Y80256D01*
X50155D01*
Y80020D01*
X49919D01*
Y79784D01*
X49684D01*
Y79549D01*
X49448D01*
Y79313D01*
X49212D01*
Y79077D01*
X48977D01*
Y78842D01*
X48741D01*
Y78606D01*
X48506D01*
Y78370D01*
X48270D01*
Y77899D01*
X48034D01*
Y77663D01*
X47799D01*
Y77428D01*
X47563D01*
Y77192D01*
X47327D01*
Y76957D01*
X47092D01*
Y76721D01*
X46856D01*
Y76485D01*
X46620D01*
Y76014D01*
X46385D01*
Y75778D01*
X46149D01*
Y75543D01*
X45914D01*
Y75307D01*
X45678D01*
Y75071D01*
X45442D01*
Y74600D01*
X45206D01*
Y74364D01*
X44971D01*
Y74129D01*
X44735D01*
Y73893D01*
X44500D01*
Y73657D01*
X44264D01*
Y73186D01*
X44028D01*
Y72951D01*
X43793D01*
Y72479D01*
X43557D01*
Y72244D01*
X43321D01*
Y71772D01*
X43086D01*
Y71537D01*
X42850D01*
Y71065D01*
X42614D01*
Y70594D01*
X42379D01*
Y70359D01*
X42143D01*
Y69887D01*
X41908D01*
Y69416D01*
X41672D01*
Y68945D01*
X41436D01*
Y68473D01*
X41201D01*
Y68002D01*
X40965D01*
Y67531D01*
X40729D01*
Y67059D01*
X40494D01*
Y66824D01*
X40258D01*
Y66353D01*
X40022D01*
Y65881D01*
X39787D01*
Y65410D01*
X39551D01*
Y65174D01*
X39315D01*
Y64703D01*
X39080D01*
Y64232D01*
X38844D01*
Y63760D01*
X38609D01*
Y63525D01*
X38373D01*
Y63053D01*
X38137D01*
Y62582D01*
X37901D01*
Y62347D01*
X37666D01*
Y61875D01*
X37430D01*
Y61404D01*
X37195D01*
Y60933D01*
X36959D01*
Y60461D01*
X36723D01*
Y59990D01*
X36488D01*
Y59519D01*
X36252D01*
Y59048D01*
X36016D01*
Y58576D01*
X35781D01*
Y58105D01*
X35545D01*
Y57634D01*
X35310D01*
Y57162D01*
X35074D01*
Y56691D01*
X34838D01*
Y56455D01*
X34602D01*
Y55984D01*
X34367D01*
Y55513D01*
X34131D01*
Y55042D01*
X33896D01*
Y54806D01*
X33660D01*
Y54335D01*
X33424D01*
Y53628D01*
X33189D01*
Y53156D01*
X32953D01*
Y52685D01*
X32717D01*
Y52214D01*
X32482D01*
Y51507D01*
X32246D01*
Y51036D01*
X32011D01*
Y50564D01*
X31775D01*
Y50329D01*
X31068D01*
Y50800D01*
X31304D01*
Y51743D01*
X31539D01*
Y52449D01*
X31775D01*
Y52921D01*
X32011D01*
Y53392D01*
X32246D01*
Y53863D01*
X32482D01*
Y54335D01*
X32717D01*
Y54806D01*
X32953D01*
Y55277D01*
X33189D01*
Y55749D01*
X33424D01*
Y56220D01*
X33660D01*
Y56691D01*
X33896D01*
Y57162D01*
X34131D01*
Y57634D01*
X34367D01*
Y58105D01*
X34602D01*
Y58576D01*
X34838D01*
Y59048D01*
X35074D01*
Y59519D01*
X35310D01*
Y59990D01*
X35545D01*
Y60461D01*
X35781D01*
Y60697D01*
X36016D01*
Y61168D01*
X36252D01*
Y61640D01*
X36488D01*
Y62111D01*
X36723D01*
Y62582D01*
X36959D01*
Y62818D01*
X37195D01*
Y63289D01*
X37430D01*
Y63760D01*
X37666D01*
Y64232D01*
X37901D01*
Y64467D01*
X38137D01*
Y64939D01*
X38373D01*
Y65410D01*
X38609D01*
Y65881D01*
X38844D01*
Y66353D01*
X39080D01*
Y66588D01*
X39315D01*
Y67059D01*
X39551D01*
Y67531D01*
X39787D01*
Y68002D01*
X40022D01*
Y68473D01*
X40258D01*
Y68945D01*
X40494D01*
Y69416D01*
X40729D01*
Y69651D01*
X40965D01*
Y70123D01*
X41201D01*
Y70594D01*
X41436D01*
Y70830D01*
X41672D01*
Y71301D01*
X41908D01*
Y71772D01*
X42143D01*
Y72008D01*
X42379D01*
Y72479D01*
X42614D01*
Y72715D01*
X42850D01*
Y73186D01*
X43086D01*
Y73657D01*
X43321D01*
Y73893D01*
X43557D01*
Y74129D01*
X43793D01*
Y74600D01*
X44028D01*
Y74836D01*
X44264D01*
Y75307D01*
X44500D01*
Y75543D01*
X44735D01*
Y75778D01*
X44971D01*
Y76014D01*
X45206D01*
Y76485D01*
X45442D01*
Y76721D01*
X45678D01*
Y76957D01*
X45914D01*
Y77192D01*
X46149D01*
Y77428D01*
X46385D01*
Y77663D01*
X46620D01*
Y77899D01*
X46856D01*
Y78135D01*
X47092D01*
Y78370D01*
X47327D01*
Y78606D01*
X47563D01*
Y78842D01*
X47799D01*
Y79077D01*
X48034D01*
Y79549D01*
X48270D01*
Y79784D01*
X48506D01*
Y80020D01*
X48741D01*
Y80256D01*
X48977D01*
Y80491D01*
X49212D01*
Y80727D01*
X49448D01*
Y80962D01*
X49684D01*
Y81198D01*
X49919D01*
Y81434D01*
X50155D01*
Y81669D01*
X50391D01*
Y81905D01*
X50626D01*
Y82141D01*
X50862D01*
Y82376D01*
X51098D01*
Y82612D01*
X51333D01*
Y82848D01*
X51805D01*
Y83083D01*
X52040D01*
Y83319D01*
X52276D01*
Y83790D01*
X52512D01*
Y84026D01*
X52747D01*
Y84262D01*
X52983D01*
Y84497D01*
X53218D01*
Y84733D01*
X53454D01*
Y84969D01*
X53690D01*
Y85204D01*
X53925D01*
Y85440D01*
X54161D01*
Y85675D01*
X54397D01*
Y85911D01*
X54632D01*
Y86147D01*
X54868D01*
Y86382D01*
X55104D01*
Y86618D01*
X55339D01*
Y86854D01*
X55575D01*
Y87089D01*
X55810D01*
Y87325D01*
X56046D01*
Y87561D01*
X56282D01*
Y87796D01*
X56518D01*
Y88032D01*
X56753D01*
Y88267D01*
X56989D01*
Y88503D01*
X57224D01*
Y88739D01*
X57460D01*
Y88974D01*
X57696D01*
Y89210D01*
X57931D01*
Y89446D01*
X58167D01*
Y89681D01*
X58403D01*
Y89917D01*
X58638D01*
Y90153D01*
X58874D01*
Y90388D01*
X59110D01*
Y90624D01*
X59345D01*
Y90860D01*
X59581D01*
Y91095D01*
X59816D01*
Y91331D01*
X60052D01*
Y91566D01*
X60288D01*
Y91802D01*
X60523D01*
Y92038D01*
X60995D01*
Y92273D01*
X61230D01*
Y92509D01*
X61702D01*
Y92745D01*
X62173D01*
Y92980D01*
X62409D01*
Y93216D01*
X62880D01*
Y93452D01*
X63351D01*
Y93687D01*
X63822D01*
Y93923D01*
X64294D01*
Y94159D01*
X64765D01*
Y94394D01*
X65236D01*
Y94630D01*
X65708D01*
Y94866D01*
X66179D01*
Y95101D01*
X66886D01*
Y95337D01*
X67357D01*
Y95573D01*
X67828D01*
Y95808D01*
X68535D01*
Y96044D01*
X69007D01*
Y96279D01*
X69714D01*
Y96515D01*
X70185D01*
Y96751D01*
X70892D01*
Y96986D01*
X71363D01*
Y97222D01*
X72070D01*
Y97458D01*
X72777D01*
Y97693D01*
X73248D01*
Y97929D01*
X73720D01*
Y98165D01*
X74426D01*
Y98400D01*
X74898D01*
Y98636D01*
X75369D01*
Y98871D01*
X75840D01*
Y99107D01*
X76547D01*
Y99343D01*
X77018D01*
Y99578D01*
X77490D01*
Y99814D01*
X77961D01*
Y100050D01*
X78668D01*
Y100285D01*
X79139D01*
Y100521D01*
X78904D01*
Y100757D01*
X78668D01*
Y100992D01*
X78197D01*
Y101228D01*
X77961D01*
Y101464D01*
X77726D01*
Y101699D01*
X77254D01*
Y101935D01*
X77018D01*
Y102170D01*
X76547D01*
Y102406D01*
X76312D01*
Y102642D01*
X75840D01*
Y102877D01*
X75605D01*
Y103113D01*
X75133D01*
Y103349D01*
X74898D01*
Y103584D01*
X74426D01*
Y103820D01*
X73955D01*
Y104056D01*
X73720D01*
Y104291D01*
X73484D01*
Y104527D01*
X73013D01*
Y104763D01*
X72777D01*
Y104998D01*
X72541D01*
Y105234D01*
X72306D01*
Y105470D01*
X72070D01*
Y105705D01*
X71834D01*
Y105941D01*
X71599D01*
Y106176D01*
X71363D01*
Y106412D01*
X71127D01*
Y106648D01*
X70892D01*
Y106883D01*
X70656D01*
Y107119D01*
X70420D01*
Y107355D01*
X70185D01*
Y107590D01*
X69949D01*
Y107826D01*
X69714D01*
Y108297D01*
X69478D01*
Y108533D01*
X69242D01*
Y108769D01*
X69007D01*
Y109004D01*
X68771D01*
Y109240D01*
X68535D01*
Y109711D01*
X68300D01*
Y109947D01*
X68064D01*
Y110182D01*
X67828D01*
Y110654D01*
X67593D01*
Y110889D01*
X67357D01*
Y111125D01*
X67122D01*
Y111596D01*
X66886D01*
Y111832D01*
X66650D01*
Y112303D01*
X66414D01*
Y112539D01*
X66179D01*
Y113010D01*
X65943D01*
Y113246D01*
X65708D01*
Y113717D01*
X65472D01*
Y114188D01*
X65236D01*
Y114660D01*
X65001D01*
Y115131D01*
X64765D01*
Y115367D01*
X64529D01*
Y115838D01*
X64294D01*
Y116309D01*
X64058D01*
Y117016D01*
X63822D01*
Y117487D01*
X63587D01*
Y118194D01*
X63351D01*
Y118666D01*
X63116D01*
Y119373D01*
X62880D01*
Y120079D01*
X62644D01*
Y120786D01*
X62409D01*
Y121493D01*
X62173D01*
Y122200D01*
X61937D01*
Y122907D01*
X61702D01*
Y123614D01*
X61466D01*
Y124557D01*
X61230D01*
Y125264D01*
X60995D01*
Y126206D01*
X60759D01*
Y127149D01*
X60523D01*
Y128091D01*
X60288D01*
Y129034D01*
X60052D01*
Y129741D01*
X59816D01*
Y130919D01*
X59581D01*
Y131626D01*
X59345D01*
Y133040D01*
X59110D01*
Y134925D01*
X58874D01*
Y137517D01*
X58638D01*
Y139638D01*
X58403D01*
Y142230D01*
X58167D01*
Y146472D01*
X57931D01*
Y151420D01*
X57696D01*
Y157076D01*
X57460D01*
Y161317D01*
X57224D01*
Y167208D01*
X57460D01*
Y175927D01*
X57696D01*
Y178755D01*
X57931D01*
Y181111D01*
X58167D01*
Y183703D01*
X58403D01*
Y185353D01*
X58638D01*
Y187238D01*
X58874D01*
Y188888D01*
X59110D01*
Y190301D01*
X59345D01*
Y191951D01*
X59581D01*
Y193129D01*
X59816D01*
Y194307D01*
X60052D01*
Y195486D01*
X60288D01*
Y196428D01*
X60523D01*
Y197371D01*
X60759D01*
Y198549D01*
X60995D01*
Y199727D01*
X61230D01*
Y200434D01*
X61466D01*
Y201141D01*
X61702D01*
Y201848D01*
X61937D01*
Y202555D01*
X62173D01*
Y203026D01*
X62409D01*
Y203733D01*
X62644D01*
Y204205D01*
X62880D01*
Y204676D01*
X63116D01*
Y205147D01*
X63351D01*
Y205618D01*
X63587D01*
Y205854D01*
X63822D01*
Y206325D01*
X64058D01*
Y206797D01*
X64294D01*
Y207268D01*
X64529D01*
Y207739D01*
X64765D01*
Y208211D01*
X65001D01*
Y208446D01*
X65236D01*
Y208918D01*
X65472D01*
Y209389D01*
X65708D01*
Y209860D01*
X65943D01*
Y210331D01*
X66179D01*
Y210803D01*
X66414D01*
Y211274D01*
X66650D01*
Y211981D01*
X66886D01*
Y212452D01*
X67122D01*
Y212923D01*
X67357D01*
Y213395D01*
X67593D01*
Y214102D01*
X67828D01*
Y214573D01*
X68064D01*
Y215044D01*
X68300D01*
Y215515D01*
X68535D01*
Y216222D01*
X68771D01*
Y216694D01*
X69007D01*
Y217165D01*
X69242D01*
Y217636D01*
X69478D01*
Y218343D01*
X69714D01*
Y218815D01*
X69949D01*
Y219286D01*
X70185D01*
Y219757D01*
X70420D01*
Y219993D01*
X70656D01*
Y220464D01*
X70892D01*
Y220700D01*
X71127D01*
Y221171D01*
X71363D01*
Y221407D01*
X71599D01*
Y221878D01*
X71834D01*
Y222114D01*
X72070D01*
Y222585D01*
X72306D01*
Y223056D01*
X72541D01*
Y223292D01*
X72777D01*
Y223763D01*
X73013D01*
Y223999D01*
X73248D01*
Y224470D01*
X73484D01*
Y224941D01*
X73720D01*
Y225177D01*
X73955D01*
Y225648D01*
X74191D01*
Y225884D01*
X74426D01*
Y226355D01*
X74662D01*
Y226591D01*
X74898D01*
Y227062D01*
X75133D01*
Y227298D01*
X75369D01*
Y227769D01*
X75605D01*
Y228005D01*
X75840D01*
Y228240D01*
X76076D01*
Y228476D01*
X76312D01*
Y228947D01*
X76547D01*
Y229183D01*
X76783D01*
Y229419D01*
X77018D01*
Y229890D01*
X77254D01*
Y230126D01*
X77490D01*
Y230361D01*
X77726D01*
Y230597D01*
X77961D01*
Y231068D01*
X78197D01*
Y231304D01*
X78432D01*
Y231539D01*
X78668D01*
Y232011D01*
X78904D01*
Y232246D01*
X79139D01*
Y232482D01*
X79375D01*
Y232953D01*
X79611D01*
Y233189D01*
X79846D01*
Y233424D01*
X80082D01*
Y233660D01*
X80318D01*
Y233896D01*
X80553D01*
Y234367D01*
X80789D01*
Y234603D01*
X81025D01*
Y234838D01*
X81496D01*
Y235074D01*
X81731D01*
Y235310D01*
X81967D01*
Y235545D01*
X82203D01*
Y235781D01*
X82438D01*
Y236017D01*
X82674D01*
Y236252D01*
X82910D01*
Y236488D01*
X83145D01*
Y236723D01*
X83381D01*
Y236959D01*
X83617D01*
Y237195D01*
X83852D01*
Y237430D01*
X84088D01*
Y237666D01*
X84559D01*
Y237902D01*
X84795D01*
Y238137D01*
X85030D01*
Y238373D01*
X85266D01*
Y238609D01*
X85502D01*
Y238844D01*
X85737D01*
Y239080D01*
X86209D01*
Y239316D01*
X86444D01*
Y239551D01*
X86680D01*
Y239787D01*
X87151D01*
Y240023D01*
X87387D01*
Y240258D01*
X87623D01*
Y240494D01*
X88094D01*
Y240730D01*
X88329D01*
Y240965D01*
X88565D01*
Y241201D01*
X88801D01*
Y241436D01*
X89036D01*
Y241672D01*
X89508D01*
Y241908D01*
X89743D01*
Y242143D01*
X89979D01*
Y242379D01*
X90215D01*
Y242615D01*
X90686D01*
Y242850D01*
X90922D01*
Y243086D01*
X91157D01*
Y243322D01*
X91393D01*
Y243557D01*
X91864D01*
Y243793D01*
X92100D01*
Y244028D01*
X92336D01*
Y244264D01*
X92807D01*
Y244500D01*
X93278D01*
Y244736D01*
X93514D01*
Y244971D01*
X93985D01*
Y245207D01*
X94456D01*
Y245442D01*
X94928D01*
Y245678D01*
X95163D01*
Y245914D01*
X95634D01*
Y246149D01*
X96106D01*
Y246385D01*
X96577D01*
Y246621D01*
X96813D01*
Y246856D01*
X97284D01*
Y247092D01*
X97755D01*
Y247327D01*
X98226D01*
Y247563D01*
X98462D01*
Y247799D01*
X98933D01*
Y248034D01*
X99405D01*
Y248270D01*
X99876D01*
Y248506D01*
X100112D01*
Y248741D01*
X100583D01*
Y248977D01*
X101054D01*
Y249213D01*
X101526D01*
Y249448D01*
X101761D01*
Y249684D01*
X102233D01*
Y249920D01*
X102704D01*
Y250155D01*
X103175D01*
Y250391D01*
X103646D01*
Y250627D01*
X104118D01*
Y250862D01*
X104589D01*
Y251098D01*
X105060D01*
Y251334D01*
X105532D01*
Y251569D01*
X106003D01*
Y251805D01*
X106474D01*
Y252040D01*
X107181D01*
Y252276D01*
X107652D01*
Y252512D01*
X108124D01*
Y252747D01*
X108831D01*
Y252983D01*
X109302D01*
Y253219D01*
X109773D01*
Y253454D01*
X110480D01*
Y253690D01*
X111187D01*
Y253926D01*
X111658D01*
Y254161D01*
X112365D01*
Y254397D01*
X113072D01*
Y254632D01*
X113779D01*
Y254868D01*
X114486D01*
Y255104D01*
X115193D01*
Y255339D01*
X115664D01*
Y255575D01*
X116371D01*
Y255811D01*
X117078D01*
Y256046D01*
X117549D01*
Y256282D01*
X118492D01*
Y256518D01*
X119435D01*
Y256753D01*
X120613D01*
Y256989D01*
X121555D01*
Y257225D01*
X122969D01*
Y257460D01*
X124619D01*
Y257696D01*
X126740D01*
Y257931D01*
X136401D01*
Y257696D01*
D02*
G37*
G36*
X254223Y63053D02*
X254459D01*
Y62818D01*
X254694D01*
Y62582D01*
X255166D01*
Y62111D01*
X255401D01*
Y61875D01*
X255166D01*
Y62111D01*
X254930D01*
Y61640D01*
X254694D01*
Y62111D01*
X254459D01*
Y62347D01*
X254223D01*
Y63053D01*
X253988D01*
Y63289D01*
X254223D01*
Y63053D01*
D02*
G37*
G36*
X255637Y61404D02*
X255401D01*
Y61640D01*
X255637D01*
Y61404D01*
D02*
G37*
G36*
X255166Y61168D02*
X255401D01*
Y60933D01*
X255166D01*
Y61168D01*
X254930D01*
Y61404D01*
X255166D01*
Y61168D01*
D02*
G37*
G36*
X255873Y60933D02*
X256108D01*
Y60461D01*
X256344D01*
Y60226D01*
X256580D01*
Y59755D01*
X256815D01*
Y59048D01*
X257051D01*
Y58576D01*
X257287D01*
Y58105D01*
X257522D01*
Y57634D01*
X257758D01*
Y57162D01*
X257994D01*
Y56691D01*
X258229D01*
Y56220D01*
X258465D01*
Y55749D01*
X258701D01*
Y55277D01*
X258936D01*
Y54806D01*
X259172D01*
Y54099D01*
X259407D01*
Y53628D01*
X259643D01*
Y52921D01*
X259879D01*
Y52449D01*
X260114D01*
Y51743D01*
X260350D01*
Y51271D01*
X260586D01*
Y50564D01*
X260821D01*
Y50329D01*
X259879D01*
Y50800D01*
X259643D01*
Y51271D01*
X259407D01*
Y51743D01*
X259172D01*
Y52449D01*
X258936D01*
Y52921D01*
X258701D01*
Y53392D01*
X258465D01*
Y53863D01*
X258229D01*
Y54570D01*
X257994D01*
Y55042D01*
X257758D01*
Y55513D01*
X257522D01*
Y55984D01*
X257287D01*
Y56455D01*
X257051D01*
Y56927D01*
X256815D01*
Y57398D01*
X256580D01*
Y57869D01*
X256344D01*
Y58341D01*
X256108D01*
Y58812D01*
X255873D01*
Y59048D01*
Y59283D01*
X255637D01*
Y59755D01*
X255401D01*
Y60461D01*
X255637D01*
Y61168D01*
X255873D01*
Y60933D01*
D02*
G37*
%LPC*%
G36*
X142292Y182290D02*
X140643D01*
Y182054D01*
X139936D01*
Y181818D01*
X137815D01*
Y182054D01*
X136872D01*
Y181818D01*
X136401D01*
Y181583D01*
X135930D01*
Y181347D01*
X134752D01*
Y181111D01*
X133573D01*
Y181347D01*
X131924D01*
Y181111D01*
X131452D01*
Y180876D01*
X130981D01*
Y180640D01*
X130745D01*
Y180404D01*
X130274D01*
Y180169D01*
X129803D01*
Y179933D01*
X129332D01*
Y179698D01*
X128153D01*
Y179462D01*
X127211D01*
Y179698D01*
X126033D01*
Y179462D01*
X125797D01*
Y179226D01*
X125561D01*
Y178991D01*
X125326D01*
Y178755D01*
X125090D01*
Y178519D01*
X124619D01*
Y178284D01*
X124383D01*
Y178048D01*
X123912D01*
Y177812D01*
X123676D01*
Y177341D01*
X123441D01*
Y176870D01*
X123205D01*
Y176399D01*
X122969D01*
Y175927D01*
X122734D01*
Y175692D01*
X122498D01*
Y175456D01*
X122262D01*
Y174985D01*
X122027D01*
Y174749D01*
X121555D01*
Y174513D01*
X121320D01*
Y174042D01*
X121084D01*
Y172157D01*
X121320D01*
Y170743D01*
X121084D01*
Y170507D01*
Y170036D01*
X120848D01*
Y169565D01*
X120613D01*
Y169093D01*
X120377D01*
Y168622D01*
X120141D01*
Y168151D01*
X119906D01*
Y167208D01*
X121791D01*
Y167444D01*
X122027D01*
Y168151D01*
X122262D01*
Y168387D01*
X122498D01*
Y168622D01*
X122734D01*
Y168858D01*
X122969D01*
Y169093D01*
X123441D01*
Y169329D01*
X124148D01*
Y169565D01*
X124854D01*
Y169800D01*
X125797D01*
Y170036D01*
X127211D01*
Y170272D01*
X128860D01*
Y170507D01*
X131217D01*
Y170743D01*
X137579D01*
Y170507D01*
X139464D01*
Y170272D01*
X141114D01*
Y170036D01*
X142292D01*
Y169800D01*
X143235D01*
Y169565D01*
X143942D01*
Y169329D01*
X144649D01*
Y169093D01*
X145120D01*
Y168858D01*
X145591D01*
Y168622D01*
X145827D01*
Y168387D01*
X146062D01*
Y167915D01*
X146298D01*
Y167208D01*
X146534D01*
Y166973D01*
X146769D01*
Y167208D01*
X147476D01*
Y167444D01*
X148419D01*
Y167680D01*
X152896D01*
Y167444D01*
X154074D01*
Y167208D01*
X154546D01*
Y166973D01*
X154781D01*
Y167208D01*
X155017D01*
Y168151D01*
X155253D01*
Y168622D01*
X155488D01*
Y168858D01*
X155724D01*
Y169093D01*
X155960D01*
Y169329D01*
X156666D01*
Y169565D01*
X157138D01*
Y169800D01*
X158080D01*
Y170036D01*
X159023D01*
Y170272D01*
X160201D01*
Y170507D01*
X161615D01*
Y170743D01*
X163500D01*
Y170979D01*
X172926D01*
Y170743D01*
X174575D01*
Y170507D01*
X175754D01*
Y170272D01*
X176696D01*
Y170036D01*
X177403D01*
Y169800D01*
X178110D01*
Y169565D01*
X178346D01*
Y169329D01*
X178817D01*
Y168858D01*
X179053D01*
Y168387D01*
X179288D01*
Y167915D01*
X179524D01*
Y167680D01*
X179760D01*
Y167915D01*
X180938D01*
Y168622D01*
X180702D01*
Y169329D01*
X180466D01*
Y170036D01*
X180231D01*
Y170979D01*
X179995D01*
Y173335D01*
X179760D01*
Y173806D01*
X179524D01*
Y174278D01*
X179288D01*
Y174985D01*
X179053D01*
Y175692D01*
X178817D01*
Y178048D01*
X178581D01*
Y178284D01*
X178346D01*
Y178519D01*
X175518D01*
Y178755D01*
X174575D01*
Y178991D01*
X174104D01*
Y179226D01*
X173633D01*
Y179462D01*
X173162D01*
Y179226D01*
X170805D01*
Y179462D01*
X170098D01*
Y179698D01*
X166799D01*
Y179933D01*
X166092D01*
Y180169D01*
X165621D01*
Y180404D01*
X165385D01*
Y180640D01*
X164914D01*
Y180876D01*
X164443D01*
Y181111D01*
X164207D01*
Y181347D01*
X163736D01*
Y181583D01*
X163264D01*
Y181818D01*
X162558D01*
Y182054D01*
X160908D01*
Y181818D01*
X160201D01*
Y181583D01*
X158787D01*
Y181347D01*
X158552D01*
Y181583D01*
X157609D01*
Y181818D01*
X157138D01*
Y182054D01*
X155724D01*
Y181818D01*
X154546D01*
Y181583D01*
X154074D01*
Y181818D01*
X152896D01*
Y182054D01*
X151011D01*
Y181818D01*
X150540D01*
Y181583D01*
X150068D01*
Y181347D01*
X149361D01*
Y181111D01*
X147948D01*
Y181347D01*
X147005D01*
Y181583D01*
X143706D01*
Y181818D01*
X142763D01*
Y182054D01*
X142292D01*
Y182290D01*
D02*
G37*
G36*
X136165Y170272D02*
X135930D01*
Y170036D01*
X135458D01*
Y170272D01*
X132631D01*
Y170036D01*
X129332D01*
Y169800D01*
X127918D01*
Y169565D01*
X126504D01*
Y169329D01*
X125090D01*
Y169093D01*
X124148D01*
Y168858D01*
X123441D01*
Y168622D01*
X123205D01*
Y168387D01*
X122969D01*
Y168151D01*
X122734D01*
Y167915D01*
X122498D01*
Y165795D01*
X122262D01*
Y164381D01*
X122498D01*
Y162495D01*
X122734D01*
Y161553D01*
X122969D01*
Y160610D01*
X123205D01*
Y159903D01*
X123441D01*
Y159197D01*
X123676D01*
Y158725D01*
X123912D01*
Y158254D01*
X124148D01*
Y158018D01*
X124383D01*
Y157783D01*
X125090D01*
Y157547D01*
X125797D01*
Y157311D01*
X126975D01*
Y157076D01*
X128389D01*
Y156840D01*
X130745D01*
Y156604D01*
X136637D01*
Y156840D01*
X138757D01*
Y157076D01*
X140171D01*
Y157311D01*
X141585D01*
Y157547D01*
X142528D01*
Y157783D01*
X142999D01*
Y158018D01*
X143235D01*
Y158254D01*
X143470D01*
Y158490D01*
X143706D01*
Y158725D01*
X143942D01*
Y159197D01*
X144177D01*
Y159668D01*
X144413D01*
Y160375D01*
X144649D01*
Y161082D01*
X144884D01*
Y161789D01*
X145120D01*
Y162967D01*
X145356D01*
Y164145D01*
X145591D01*
Y165323D01*
X145827D01*
Y167444D01*
X145591D01*
Y168151D01*
X145356D01*
Y168387D01*
X145120D01*
Y168622D01*
X144649D01*
Y168858D01*
X143942D01*
Y169093D01*
X143235D01*
Y169329D01*
X142056D01*
Y169565D01*
X141114D01*
Y169800D01*
X139464D01*
Y170036D01*
X136165D01*
Y170272D01*
D02*
G37*
G36*
X171748Y170507D02*
X164914D01*
Y170272D01*
X162322D01*
Y170036D01*
X160437D01*
Y169800D01*
X159258D01*
Y169565D01*
X158080D01*
Y169329D01*
X157138D01*
Y169093D01*
X156666D01*
Y168858D01*
X156195D01*
Y168622D01*
X155960D01*
Y168387D01*
X155724D01*
Y167915D01*
X155488D01*
Y165088D01*
X155724D01*
Y164145D01*
X155960D01*
Y163202D01*
X156195D01*
Y162495D01*
X156431D01*
Y161789D01*
X156666D01*
Y161082D01*
X156902D01*
Y160375D01*
X157138D01*
Y159668D01*
X157373D01*
Y159197D01*
X157609D01*
Y158725D01*
X157845D01*
Y158490D01*
X158316D01*
Y158254D01*
X158787D01*
Y158018D01*
X159258D01*
Y157783D01*
X160437D01*
Y157547D01*
X161615D01*
Y157311D01*
X163029D01*
Y157076D01*
X166328D01*
Y156840D01*
X167742D01*
Y157076D01*
X172219D01*
Y157311D01*
X174104D01*
Y157547D01*
X175282D01*
Y157783D01*
X175989D01*
Y158018D01*
X176460D01*
Y158254D01*
X176932D01*
Y158490D01*
X177167D01*
Y158725D01*
X177403D01*
Y159197D01*
X177639D01*
Y159668D01*
X177874D01*
Y160139D01*
X178110D01*
Y160846D01*
X178346D01*
Y161789D01*
X178581D01*
Y162967D01*
X178817D01*
Y164616D01*
X179053D01*
Y166030D01*
X178817D01*
Y168622D01*
X178581D01*
Y168858D01*
X178346D01*
Y169093D01*
X178110D01*
Y169329D01*
X177639D01*
Y169565D01*
X176696D01*
Y169800D01*
X175518D01*
Y170036D01*
X174104D01*
Y170272D01*
X171748D01*
Y170507D01*
D02*
G37*
G36*
X137579Y256989D02*
X125797D01*
Y256753D01*
X123912D01*
Y256518D01*
X122498D01*
Y256282D01*
X121320D01*
Y256046D01*
X120141D01*
Y255811D01*
X119199D01*
Y255575D01*
X118256D01*
Y255339D01*
X117549D01*
Y255104D01*
X117078D01*
Y254868D01*
X116371D01*
Y254632D01*
X115664D01*
Y254397D01*
X115193D01*
Y254161D01*
X114486D01*
Y253926D01*
X114015D01*
Y253690D01*
X113308D01*
Y253454D01*
X112601D01*
Y253219D01*
X112130D01*
Y252983D01*
X111423D01*
Y252747D01*
X110716D01*
Y252512D01*
X110009D01*
Y252276D01*
X109537D01*
Y252040D01*
X108831D01*
Y251805D01*
X108359D01*
Y251569D01*
X107652D01*
Y251334D01*
X107181D01*
Y251098D01*
X106710D01*
Y250862D01*
X106238D01*
Y250627D01*
X105767D01*
Y250391D01*
X105060D01*
Y250155D01*
X104589D01*
Y249920D01*
X104118D01*
Y249684D01*
X103646D01*
Y249448D01*
X103411D01*
Y249213D01*
X102939D01*
Y248977D01*
X102468D01*
Y248741D01*
X102233D01*
Y248506D01*
X101761D01*
Y248270D01*
X101290D01*
Y248034D01*
X100819D01*
Y247799D01*
X100583D01*
Y247563D01*
X100112D01*
Y247327D01*
X99640D01*
Y247092D01*
X99169D01*
Y246856D01*
X98698D01*
Y246621D01*
X98226D01*
Y246385D01*
X97991D01*
Y246149D01*
X97520D01*
Y245914D01*
X97048D01*
Y245678D01*
X96813D01*
Y245442D01*
X96341D01*
Y245207D01*
X95870D01*
Y244971D01*
X95399D01*
Y244736D01*
X95163D01*
Y244500D01*
X94692D01*
Y244264D01*
X94221D01*
Y244028D01*
X93749D01*
Y243793D01*
X93514D01*
Y243557D01*
X93042D01*
Y243322D01*
X92807D01*
Y243086D01*
X92336D01*
Y242850D01*
X92100D01*
Y242615D01*
X91629D01*
Y242379D01*
X91393D01*
Y242143D01*
X91157D01*
Y241908D01*
X90922D01*
Y241672D01*
X90686D01*
Y241436D01*
X90215D01*
Y241201D01*
X89979D01*
Y240965D01*
X89743D01*
Y240730D01*
X89508D01*
Y240494D01*
X89036D01*
Y240258D01*
X88801D01*
Y240023D01*
X88565D01*
Y239787D01*
X88329D01*
Y239551D01*
X88094D01*
Y239316D01*
X87623D01*
Y239080D01*
X87387D01*
Y238844D01*
X87151D01*
Y238609D01*
X86916D01*
Y238373D01*
X86444D01*
Y238137D01*
X86209D01*
Y237902D01*
X85973D01*
Y237666D01*
X85737D01*
Y237430D01*
X85502D01*
Y237195D01*
X85030D01*
Y236959D01*
X84795D01*
Y236723D01*
X84559D01*
Y236488D01*
X84324D01*
Y236252D01*
X84088D01*
Y236017D01*
X83617D01*
Y235781D01*
X83381D01*
Y235545D01*
X83145D01*
Y235310D01*
X82910D01*
Y235074D01*
X82674D01*
Y234838D01*
X82438D01*
Y234603D01*
X82203D01*
Y234367D01*
X81967D01*
Y234131D01*
X81731D01*
Y233896D01*
X81496D01*
Y233660D01*
X81260D01*
Y233424D01*
X81025D01*
Y232953D01*
X80789D01*
Y232718D01*
X80553D01*
Y232482D01*
X80318D01*
Y232246D01*
X80082D01*
Y232011D01*
X79846D01*
Y231775D01*
X79611D01*
Y231304D01*
X79375D01*
Y231068D01*
X79139D01*
Y230832D01*
X78904D01*
Y230361D01*
X78668D01*
Y230126D01*
X78432D01*
Y229890D01*
X78197D01*
Y229654D01*
X77961D01*
Y229183D01*
X77726D01*
Y228947D01*
X77490D01*
Y228712D01*
X77254D01*
Y228240D01*
X77018D01*
Y228005D01*
X76783D01*
Y227769D01*
X76547D01*
Y227298D01*
X76312D01*
Y227062D01*
X76076D01*
Y226591D01*
X75840D01*
Y226355D01*
X75605D01*
Y225884D01*
X75369D01*
Y225648D01*
X75133D01*
Y225413D01*
X74898D01*
Y224941D01*
X74662D01*
Y224706D01*
X74426D01*
Y224234D01*
X74191D01*
Y223763D01*
X73955D01*
Y223527D01*
X73720D01*
Y223056D01*
X73484D01*
Y222820D01*
X73248D01*
Y222349D01*
X73013D01*
Y221878D01*
X72777D01*
Y221642D01*
X72541D01*
Y221171D01*
X72306D01*
Y220935D01*
X72070D01*
Y220464D01*
X71834D01*
Y220228D01*
X71599D01*
Y219757D01*
X71363D01*
Y219286D01*
X71127D01*
Y219050D01*
X70892D01*
Y218579D01*
X70656D01*
Y218108D01*
X70420D01*
Y217636D01*
X70185D01*
Y217165D01*
X69949D01*
Y216694D01*
X69714D01*
Y216222D01*
X69478D01*
Y215515D01*
X69242D01*
Y215044D01*
X69007D01*
Y214573D01*
X68771D01*
Y213866D01*
X68535D01*
Y213395D01*
X68300D01*
Y212923D01*
X68064D01*
Y212452D01*
X67828D01*
Y211745D01*
X67593D01*
Y211274D01*
X67357D01*
Y210803D01*
X67122D01*
Y210331D01*
X66886D01*
Y209624D01*
X66650D01*
Y209153D01*
X66414D01*
Y208682D01*
X66179D01*
Y208211D01*
X65943D01*
Y207739D01*
X65708D01*
Y207268D01*
X65472D01*
Y206797D01*
X65236D01*
Y206561D01*
X65001D01*
Y206090D01*
X64765D01*
Y205618D01*
X64529D01*
Y205383D01*
X64294D01*
Y204911D01*
X64058D01*
Y204440D01*
X63822D01*
Y203969D01*
X63587D01*
Y203733D01*
X63351D01*
Y203026D01*
X63116D01*
Y202555D01*
X62880D01*
Y201848D01*
X62644D01*
Y201377D01*
X62409D01*
Y200434D01*
X62173D01*
Y199492D01*
X61937D01*
Y198549D01*
X61702D01*
Y197135D01*
X61466D01*
Y196193D01*
X61230D01*
Y195250D01*
X60995D01*
Y194307D01*
X60759D01*
Y192894D01*
X60523D01*
Y191715D01*
X60288D01*
Y190301D01*
X60052D01*
Y189123D01*
X59816D01*
Y187710D01*
X59581D01*
Y186060D01*
X59345D01*
Y184410D01*
X59110D01*
Y182525D01*
X58874D01*
Y179698D01*
X58638D01*
Y176870D01*
X58403D01*
Y172393D01*
X58167D01*
Y160610D01*
X58403D01*
Y154955D01*
X58638D01*
Y148828D01*
X58874D01*
Y144351D01*
X59110D01*
Y141052D01*
X59345D01*
Y139167D01*
X59581D01*
Y137046D01*
X59816D01*
Y134925D01*
X60052D01*
Y133276D01*
X60288D01*
Y132097D01*
X60523D01*
Y131155D01*
X60759D01*
Y130212D01*
X60995D01*
Y129270D01*
X61230D01*
Y128563D01*
X61466D01*
Y127856D01*
X61702D01*
Y126678D01*
X61937D01*
Y125499D01*
X62173D01*
Y124321D01*
X62409D01*
Y123378D01*
X62644D01*
Y122672D01*
X62880D01*
Y121965D01*
X63116D01*
Y121493D01*
X63351D01*
Y120786D01*
X63587D01*
Y120079D01*
X63822D01*
Y119373D01*
X64058D01*
Y118901D01*
X64294D01*
Y118194D01*
X64529D01*
Y117723D01*
X64765D01*
Y117252D01*
X65001D01*
Y116781D01*
X65236D01*
Y116309D01*
X65472D01*
Y115838D01*
X65708D01*
Y115367D01*
X65943D01*
Y114895D01*
X66179D01*
Y114424D01*
X66414D01*
Y113953D01*
X66650D01*
Y113717D01*
X66886D01*
Y113246D01*
X67122D01*
Y113010D01*
X67357D01*
Y112539D01*
X67593D01*
Y112068D01*
X67828D01*
Y111832D01*
X68064D01*
Y111596D01*
X68300D01*
Y111125D01*
X68535D01*
Y110889D01*
X68771D01*
Y110418D01*
X69007D01*
Y110182D01*
X69242D01*
Y109947D01*
X69478D01*
Y109475D01*
X69714D01*
Y109240D01*
X69949D01*
Y109004D01*
X70185D01*
Y108769D01*
X70420D01*
Y108533D01*
X70656D01*
Y108297D01*
X70892D01*
Y108062D01*
X71127D01*
Y107826D01*
X71363D01*
Y107590D01*
X71599D01*
Y107355D01*
X71834D01*
Y107119D01*
X72070D01*
Y106883D01*
X72306D01*
Y106648D01*
X72541D01*
Y106412D01*
X72777D01*
Y106176D01*
X73013D01*
Y105941D01*
X73248D01*
Y105705D01*
X73484D01*
Y105470D01*
X73720D01*
Y105234D01*
X73955D01*
Y104998D01*
X74426D01*
Y104763D01*
X74662D01*
Y104527D01*
X75133D01*
Y104291D01*
X75369D01*
Y104056D01*
X75840D01*
Y103820D01*
X76076D01*
Y103584D01*
X76547D01*
Y103349D01*
X76783D01*
Y103113D01*
X77254D01*
Y102877D01*
X77490D01*
Y102642D01*
X77961D01*
Y102406D01*
X78197D01*
Y102170D01*
X78668D01*
Y101935D01*
X78904D01*
Y101699D01*
X79375D01*
Y101464D01*
X79846D01*
Y101228D01*
X80082D01*
Y100992D01*
X80553D01*
Y100757D01*
X81260D01*
Y100521D01*
X81731D01*
Y100285D01*
X82203D01*
Y100050D01*
X82674D01*
Y99814D01*
X83145D01*
Y99578D01*
X83852D01*
Y99343D01*
X84324D01*
Y99107D01*
X84795D01*
Y98871D01*
X85502D01*
Y98636D01*
X86209D01*
Y98400D01*
X86916D01*
Y98165D01*
X87623D01*
Y97929D01*
X91629D01*
Y97693D01*
X92336D01*
Y97458D01*
X93278D01*
Y97222D01*
X99640D01*
Y96986D01*
X103175D01*
Y97222D01*
X106474D01*
Y96986D01*
X107417D01*
Y97222D01*
X108124D01*
Y97458D01*
X108831D01*
Y97693D01*
X109302D01*
Y97929D01*
X109537D01*
Y98165D01*
X110244D01*
Y98400D01*
X110951D01*
Y98636D01*
X112130D01*
Y98871D01*
X113308D01*
Y99107D01*
X114250D01*
Y99343D01*
X114957D01*
Y99578D01*
X115429D01*
Y99814D01*
X115900D01*
Y100050D01*
X116371D01*
Y100285D01*
X116842D01*
Y100521D01*
X117078D01*
Y100757D01*
X117314D01*
Y100992D01*
X117785D01*
Y101228D01*
X118256D01*
Y101464D01*
X118728D01*
Y101699D01*
X118963D01*
Y101935D01*
X119435D01*
Y102170D01*
X119670D01*
Y102406D01*
X120141D01*
Y102642D01*
X121084D01*
Y102877D01*
X121791D01*
Y103113D01*
X122262D01*
Y103349D01*
X122734D01*
Y103584D01*
X122969D01*
Y103820D01*
X123205D01*
Y104056D01*
X123441D01*
Y104291D01*
X123676D01*
Y104763D01*
X123912D01*
Y105234D01*
X124148D01*
Y105705D01*
X124383D01*
Y106412D01*
X124619D01*
Y107119D01*
X124854D01*
Y107826D01*
X125090D01*
Y108769D01*
X125326D01*
Y109947D01*
X125561D01*
Y111125D01*
X125797D01*
Y113246D01*
X125561D01*
Y113953D01*
X125326D01*
Y114895D01*
X125090D01*
Y117959D01*
X124854D01*
Y118430D01*
X124619D01*
Y118901D01*
X124383D01*
Y119373D01*
X124148D01*
Y119608D01*
X123912D01*
Y120079D01*
X123676D01*
Y120551D01*
X123441D01*
Y121022D01*
X123205D01*
Y121493D01*
X122969D01*
Y123850D01*
X123205D01*
Y125264D01*
X122969D01*
Y126678D01*
X122734D01*
Y128091D01*
X122498D01*
Y128798D01*
Y129034D01*
Y129505D01*
X122262D01*
Y130448D01*
X122027D01*
Y130919D01*
X121791D01*
Y131390D01*
X121555D01*
Y131862D01*
X121320D01*
Y132333D01*
X121084D01*
Y132569D01*
X120848D01*
Y133040D01*
X120613D01*
Y133511D01*
X120377D01*
Y133747D01*
X120141D01*
Y134218D01*
X119906D01*
Y134689D01*
X119670D01*
Y134925D01*
X119435D01*
Y135632D01*
X119199D01*
Y136339D01*
X119435D01*
Y139167D01*
X119199D01*
Y139874D01*
X118963D01*
Y141759D01*
X119199D01*
Y142701D01*
X119435D01*
Y143644D01*
X119199D01*
Y145529D01*
X119435D01*
Y146236D01*
X119670D01*
Y146943D01*
X119906D01*
Y149535D01*
X119670D01*
Y150478D01*
X119435D01*
Y151420D01*
X119199D01*
Y153541D01*
X118963D01*
Y154248D01*
X118728D01*
Y154719D01*
X118963D01*
Y155426D01*
X119199D01*
Y155898D01*
X119435D01*
Y156604D01*
X119670D01*
Y158725D01*
X119435D01*
Y159432D01*
X119199D01*
Y160375D01*
X118963D01*
Y161082D01*
X119199D01*
Y161553D01*
X119435D01*
Y162260D01*
X119670D01*
Y164852D01*
X119435D01*
Y166266D01*
X119199D01*
Y166737D01*
X118963D01*
Y167680D01*
X119199D01*
Y168387D01*
X119435D01*
Y168858D01*
X119670D01*
Y169565D01*
X119906D01*
Y170036D01*
X120141D01*
Y170743D01*
X120377D01*
Y172157D01*
X120141D01*
Y174278D01*
X120377D01*
Y174513D01*
X120613D01*
Y174985D01*
X120848D01*
Y175220D01*
X121084D01*
Y175456D01*
X121320D01*
Y175692D01*
X121555D01*
Y175927D01*
X121791D01*
Y176163D01*
X122027D01*
Y176399D01*
X122262D01*
Y176870D01*
X122498D01*
Y177341D01*
X122734D01*
Y177812D01*
X122969D01*
Y178284D01*
X123205D01*
Y178519D01*
X123441D01*
Y178755D01*
X123912D01*
Y178991D01*
X124383D01*
Y179226D01*
X124619D01*
Y179462D01*
X124854D01*
Y179698D01*
X125090D01*
Y179933D01*
X125326D01*
Y180169D01*
X125561D01*
Y180404D01*
X128625D01*
Y180640D01*
X129332D01*
Y180876D01*
X129803D01*
Y181111D01*
X130274D01*
Y181347D01*
X130510D01*
Y181583D01*
X130981D01*
Y181818D01*
X131217D01*
Y182054D01*
X131924D01*
Y182290D01*
X133102D01*
Y182054D01*
X134987D01*
Y182290D01*
X135930D01*
Y182525D01*
X136165D01*
Y182761D01*
X136637D01*
Y182997D01*
X138050D01*
Y182761D01*
X139700D01*
Y182997D01*
X140878D01*
Y183232D01*
X142292D01*
Y182997D01*
X142999D01*
Y182761D01*
X143706D01*
Y182525D01*
X146769D01*
Y182290D01*
X147476D01*
Y182054D01*
X149597D01*
Y182290D01*
X150068D01*
Y182525D01*
X150540D01*
Y182761D01*
X151011D01*
Y182997D01*
X152896D01*
Y182761D01*
X153603D01*
Y182525D01*
X154781D01*
Y182761D01*
X155488D01*
Y182997D01*
X157138D01*
Y182761D01*
X157609D01*
Y182525D01*
X158316D01*
Y182290D01*
X158787D01*
Y182525D01*
X159730D01*
Y182761D01*
X160908D01*
Y182997D01*
X162558D01*
Y182761D01*
X163500D01*
Y182525D01*
X163971D01*
Y182290D01*
X164207D01*
Y182054D01*
X164678D01*
Y181818D01*
X164914D01*
Y181583D01*
X165385D01*
Y181347D01*
X165856D01*
Y181111D01*
X166092D01*
Y180876D01*
X166563D01*
Y180640D01*
X167270D01*
Y180404D01*
X170569D01*
Y180169D01*
X171041D01*
Y179933D01*
X172926D01*
Y180169D01*
X173633D01*
Y179933D01*
X174340D01*
Y179698D01*
X175047D01*
Y179462D01*
X179995D01*
Y179226D01*
X180466D01*
Y178755D01*
X179524D01*
Y176634D01*
X179760D01*
Y175456D01*
X179995D01*
Y174749D01*
X180231D01*
Y174278D01*
X180466D01*
Y174042D01*
X180702D01*
Y173335D01*
X180938D01*
Y170743D01*
X181173D01*
Y169800D01*
X181409D01*
Y169329D01*
X181645D01*
Y168858D01*
X181880D01*
Y168387D01*
X182116D01*
Y167915D01*
X182352D01*
Y167444D01*
X182587D01*
Y166737D01*
X182352D01*
Y166030D01*
X182116D01*
Y165323D01*
X181880D01*
Y162967D01*
X182116D01*
Y162495D01*
X182352D01*
Y162024D01*
X182587D01*
Y160610D01*
X182823D01*
Y158254D01*
X182587D01*
Y153777D01*
X182823D01*
Y153305D01*
X183059D01*
Y150242D01*
X182823D01*
Y148593D01*
X183059D01*
Y147414D01*
X183294D01*
Y146472D01*
X183530D01*
Y145529D01*
X183294D01*
Y142230D01*
X183530D01*
Y137989D01*
X183294D01*
Y137046D01*
X183059D01*
Y136339D01*
X182823D01*
Y135632D01*
X182587D01*
Y134689D01*
X182352D01*
Y132804D01*
X182116D01*
Y131390D01*
X181880D01*
Y130683D01*
X181645D01*
Y129977D01*
X181409D01*
Y129505D01*
X181173D01*
Y128798D01*
X180938D01*
Y128091D01*
X180702D01*
Y126678D01*
X180466D01*
Y125971D01*
X180231D01*
Y125499D01*
X179995D01*
Y125028D01*
X179760D01*
Y124792D01*
X179524D01*
Y124321D01*
X179288D01*
Y123850D01*
X179053D01*
Y122907D01*
X178817D01*
Y122200D01*
X178581D01*
Y121729D01*
X178346D01*
Y121493D01*
X178110D01*
Y121258D01*
X177874D01*
Y121022D01*
X177639D01*
Y119608D01*
X177403D01*
Y119137D01*
X177167D01*
Y118430D01*
X176932D01*
Y116781D01*
X176696D01*
Y116074D01*
X176460D01*
Y115838D01*
X176225D01*
Y115367D01*
X175989D01*
Y114660D01*
X175754D01*
Y113953D01*
X175518D01*
Y111125D01*
X175282D01*
Y110654D01*
X175047D01*
Y109004D01*
X175282D01*
Y108533D01*
X175518D01*
Y107355D01*
X175754D01*
Y106176D01*
X175989D01*
Y105705D01*
X176460D01*
Y105470D01*
X176932D01*
Y105234D01*
X177167D01*
Y104998D01*
X177403D01*
Y104763D01*
X177639D01*
Y104527D01*
X177874D01*
Y104291D01*
X178110D01*
Y104056D01*
X178346D01*
Y103820D01*
X178581D01*
Y103584D01*
X179053D01*
Y103349D01*
X179288D01*
Y103113D01*
X179760D01*
Y102877D01*
X180231D01*
Y102642D01*
X180702D01*
Y102406D01*
X180938D01*
Y102170D01*
X181409D01*
Y101935D01*
X181645D01*
Y101699D01*
X181880D01*
Y101464D01*
X182352D01*
Y101228D01*
X182823D01*
Y100992D01*
X183530D01*
Y100757D01*
X184237D01*
Y100521D01*
X185179D01*
Y100285D01*
X185886D01*
Y100050D01*
X186593D01*
Y99814D01*
X187300D01*
Y99578D01*
X188243D01*
Y99343D01*
X189421D01*
Y99107D01*
X191070D01*
Y99343D01*
X192720D01*
Y99578D01*
X197197D01*
Y99814D01*
X198140D01*
Y100050D01*
X199082D01*
Y100285D01*
X201910D01*
Y100521D01*
X204502D01*
Y100757D01*
X205445D01*
Y100992D01*
X206387D01*
Y101228D01*
X207094D01*
Y101464D01*
X207801D01*
Y101699D01*
X208508D01*
Y101935D01*
X208979D01*
Y102170D01*
X209451D01*
Y102406D01*
X210158D01*
Y102642D01*
X210629D01*
Y102877D01*
X211100D01*
Y103113D01*
X211572D01*
Y103349D01*
X212043D01*
Y103584D01*
X212514D01*
Y103820D01*
X212750D01*
Y104056D01*
X213221D01*
Y104291D01*
X213692D01*
Y104527D01*
X213928D01*
Y104763D01*
X214399D01*
Y104998D01*
X214635D01*
Y105234D01*
X215106D01*
Y105470D01*
X215578D01*
Y105705D01*
X215813D01*
Y105941D01*
X216285D01*
Y106176D01*
X216520D01*
Y106412D01*
X216991D01*
Y106648D01*
X217463D01*
Y106883D01*
X218170D01*
Y107119D01*
X218405D01*
Y107355D01*
X219112D01*
Y107590D01*
X219583D01*
Y107826D01*
X220055D01*
Y108062D01*
X220526D01*
Y108297D01*
X220762D01*
Y108533D01*
X221233D01*
Y108769D01*
X221704D01*
Y109004D01*
X222176D01*
Y109240D01*
X222647D01*
Y109475D01*
X223118D01*
Y109711D01*
X223354D01*
Y109947D01*
X223825D01*
Y110182D01*
X224296D01*
Y110418D01*
X224532D01*
Y110654D01*
X225003D01*
Y110889D01*
X225239D01*
Y111125D01*
X225710D01*
Y111361D01*
X225946D01*
Y111596D01*
X226417D01*
Y111832D01*
X226653D01*
Y112068D01*
X226889D01*
Y112303D01*
X227124D01*
Y112539D01*
X227360D01*
Y112774D01*
X227595D01*
Y113010D01*
X227831D01*
Y113246D01*
X228067D01*
Y113481D01*
X228302D01*
Y113717D01*
X228538D01*
Y113953D01*
X228774D01*
Y114424D01*
X229009D01*
Y114660D01*
X229245D01*
Y115131D01*
X229481D01*
Y115367D01*
X229716D01*
Y115602D01*
X229952D01*
Y116074D01*
X230187D01*
Y116309D01*
X230423D01*
Y116545D01*
X230659D01*
Y116781D01*
X230894D01*
Y117016D01*
X231130D01*
Y117487D01*
X231366D01*
Y117723D01*
X231601D01*
Y118194D01*
X231837D01*
Y118666D01*
X232073D01*
Y118901D01*
X232308D01*
Y119608D01*
X232544D01*
Y120079D01*
X232780D01*
Y120551D01*
X233015D01*
Y121022D01*
X233251D01*
Y121729D01*
X233486D01*
Y122200D01*
X233722D01*
Y122907D01*
X233958D01*
Y123378D01*
X234193D01*
Y123850D01*
X234429D01*
Y124557D01*
X234665D01*
Y125028D01*
X234900D01*
Y125735D01*
X235136D01*
Y126678D01*
X235372D01*
Y127385D01*
X235607D01*
Y128327D01*
X235843D01*
Y129270D01*
X236079D01*
Y130212D01*
X236314D01*
Y131155D01*
X236550D01*
Y132333D01*
X236786D01*
Y133511D01*
X237021D01*
Y134689D01*
X237257D01*
Y135868D01*
X237493D01*
Y137046D01*
X237728D01*
Y138224D01*
X237964D01*
Y139402D01*
X238199D01*
Y140816D01*
X238435D01*
Y142230D01*
X238671D01*
Y144115D01*
X238906D01*
Y149299D01*
X239142D01*
Y153541D01*
X238906D01*
Y158490D01*
X238671D01*
Y162967D01*
X238435D01*
Y166501D01*
X238199D01*
Y167444D01*
X237964D01*
Y168622D01*
X237728D01*
Y169565D01*
X237493D01*
Y170507D01*
X237257D01*
Y171450D01*
X237021D01*
Y172393D01*
X236786D01*
Y173335D01*
X236550D01*
Y174278D01*
X236314D01*
Y175456D01*
X236079D01*
Y176399D01*
X235843D01*
Y177577D01*
X235607D01*
Y178519D01*
X235372D01*
Y179698D01*
X235136D01*
Y180640D01*
X234900D01*
Y181818D01*
X234665D01*
Y182761D01*
X234429D01*
Y183703D01*
X234193D01*
Y184646D01*
X233958D01*
Y185589D01*
X233722D01*
Y186531D01*
X233486D01*
Y187710D01*
X233251D01*
Y188888D01*
X233015D01*
Y190066D01*
X232780D01*
Y191244D01*
X232544D01*
Y192658D01*
X232308D01*
Y193836D01*
X232073D01*
Y195250D01*
X231837D01*
Y196428D01*
X231601D01*
Y198078D01*
X231366D01*
Y199492D01*
X231130D01*
Y200670D01*
X230894D01*
Y201612D01*
X230659D01*
Y202319D01*
X230423D01*
Y203262D01*
X230187D01*
Y203733D01*
X229952D01*
Y204440D01*
X229716D01*
Y204911D01*
X229481D01*
Y205383D01*
X229245D01*
Y205854D01*
X229009D01*
Y206325D01*
X228774D01*
Y206797D01*
X228538D01*
Y207268D01*
X228302D01*
Y207739D01*
X228067D01*
Y207975D01*
X227831D01*
Y208446D01*
X227595D01*
Y208918D01*
X227360D01*
Y209153D01*
X227124D01*
Y209624D01*
X226889D01*
Y209860D01*
X226653D01*
Y210096D01*
X226417D01*
Y210567D01*
X226182D01*
Y210803D01*
X225946D01*
Y211274D01*
X225710D01*
Y211510D01*
X225475D01*
Y211981D01*
X225239D01*
Y212452D01*
X225003D01*
Y212923D01*
X224768D01*
Y213395D01*
X224532D01*
Y213866D01*
X224296D01*
Y214337D01*
X224061D01*
Y214809D01*
X223825D01*
Y215280D01*
X223589D01*
Y215751D01*
X223354D01*
Y216222D01*
X223118D01*
Y216458D01*
X222882D01*
Y216929D01*
X222647D01*
Y217401D01*
X222411D01*
Y217872D01*
X222176D01*
Y218343D01*
X221940D01*
Y218815D01*
X221704D01*
Y219286D01*
X221469D01*
Y219757D01*
X221233D01*
Y220228D01*
X220997D01*
Y220700D01*
X220762D01*
Y220935D01*
X220526D01*
Y221407D01*
X220290D01*
Y221878D01*
X220055D01*
Y222114D01*
X219819D01*
Y222585D01*
X219583D01*
Y222820D01*
X219348D01*
Y223056D01*
X219112D01*
Y223527D01*
X218876D01*
Y223763D01*
X218641D01*
Y223999D01*
X218405D01*
Y224234D01*
X218170D01*
Y224470D01*
X217934D01*
Y224706D01*
X217698D01*
Y225177D01*
X217463D01*
Y225413D01*
X217227D01*
Y225648D01*
X216991D01*
Y225884D01*
X216756D01*
Y226355D01*
X216520D01*
Y226591D01*
X216285D01*
Y226826D01*
X216049D01*
Y227298D01*
X215813D01*
Y227533D01*
X215578D01*
Y227769D01*
X215342D01*
Y228005D01*
X215106D01*
Y228476D01*
X214871D01*
Y228712D01*
X214635D01*
Y228947D01*
X214399D01*
Y229183D01*
X214164D01*
Y229419D01*
X213928D01*
Y229654D01*
X213692D01*
Y229890D01*
X213457D01*
Y230126D01*
X213221D01*
Y230361D01*
X212985D01*
Y230597D01*
X212750D01*
Y230832D01*
X212514D01*
Y231068D01*
X212278D01*
Y231304D01*
X212043D01*
Y231539D01*
X211807D01*
Y231775D01*
X211336D01*
Y232011D01*
X211100D01*
Y232246D01*
X210865D01*
Y232482D01*
X210629D01*
Y232718D01*
X210393D01*
Y232953D01*
X210158D01*
Y233189D01*
X209922D01*
Y233424D01*
X209686D01*
Y233660D01*
X209451D01*
Y233896D01*
X209215D01*
Y234131D01*
X208979D01*
Y234367D01*
X208744D01*
Y234603D01*
X208508D01*
Y234838D01*
X208273D01*
Y235074D01*
X208037D01*
Y235310D01*
X207801D01*
Y235545D01*
X207330D01*
Y235781D01*
X207094D01*
Y236017D01*
X206859D01*
Y236252D01*
X206623D01*
Y236488D01*
X206387D01*
Y236723D01*
X206152D01*
Y236959D01*
X205681D01*
Y237195D01*
X205445D01*
Y237430D01*
X205209D01*
Y237666D01*
X204974D01*
Y237902D01*
X204502D01*
Y238137D01*
X204267D01*
Y238373D01*
X204031D01*
Y238609D01*
X203795D01*
Y238844D01*
X203324D01*
Y239080D01*
X203088D01*
Y239316D01*
X202853D01*
Y239551D01*
X202617D01*
Y239787D01*
X202146D01*
Y240023D01*
X201910D01*
Y240258D01*
X201674D01*
Y240494D01*
X201203D01*
Y240730D01*
X200732D01*
Y240965D01*
X200496D01*
Y241201D01*
X200025D01*
Y241436D01*
X199789D01*
Y241672D01*
X199318D01*
Y241908D01*
X199082D01*
Y242143D01*
X198611D01*
Y242379D01*
X198140D01*
Y242615D01*
X197668D01*
Y242850D01*
X197197D01*
Y243086D01*
X196962D01*
Y243322D01*
X196490D01*
Y243557D01*
X196019D01*
Y243793D01*
X195783D01*
Y244028D01*
X195548D01*
Y244264D01*
X195077D01*
Y244500D01*
X194605D01*
Y244736D01*
X194370D01*
Y244971D01*
X193898D01*
Y245207D01*
X193663D01*
Y245442D01*
X193427D01*
Y245678D01*
X192956D01*
Y245914D01*
X192484D01*
Y246149D01*
X192249D01*
Y246385D01*
X191777D01*
Y246621D01*
X191306D01*
Y246856D01*
X190835D01*
Y247092D01*
X190364D01*
Y247327D01*
X189892D01*
Y247563D01*
X189421D01*
Y247799D01*
X188950D01*
Y248034D01*
X188478D01*
Y248270D01*
X188007D01*
Y248506D01*
X187771D01*
Y248741D01*
X187300D01*
Y248977D01*
X186829D01*
Y249213D01*
X186358D01*
Y249448D01*
X185886D01*
Y249684D01*
X185415D01*
Y249920D01*
X184944D01*
Y250155D01*
X184473D01*
Y250391D01*
X184237D01*
Y250627D01*
X183766D01*
Y250862D01*
X183294D01*
Y251098D01*
X182823D01*
Y251334D01*
X182116D01*
Y251569D01*
X181645D01*
Y251805D01*
X180938D01*
Y252040D01*
X180231D01*
Y252276D01*
X179524D01*
Y252512D01*
X178817D01*
Y252747D01*
X178110D01*
Y252983D01*
X177403D01*
Y253219D01*
X176696D01*
Y253454D01*
X175989D01*
Y253690D01*
X175518D01*
Y253926D01*
X174811D01*
Y254161D01*
X173869D01*
Y254397D01*
X172926D01*
Y254632D01*
X171983D01*
Y254868D01*
X170569D01*
Y255104D01*
X168684D01*
Y255339D01*
X166799D01*
Y255575D01*
X164443D01*
Y255811D01*
X162558D01*
Y256046D01*
X160672D01*
Y256282D01*
X159258D01*
Y256518D01*
X156902D01*
Y256753D01*
X137579D01*
Y256989D01*
D02*
G37*
G36*
X115900Y98871D02*
X115664D01*
Y98636D01*
X115900D01*
Y98871D01*
D02*
G37*
G36*
X117785Y99814D02*
X117314D01*
Y99578D01*
X116842D01*
Y99343D01*
X116607D01*
Y98636D01*
X116842D01*
Y98400D01*
X117314D01*
Y98165D01*
X118256D01*
Y99107D01*
X118021D01*
Y99578D01*
X117785D01*
Y99814D01*
D02*
G37*
G36*
X114722Y98400D02*
X113779D01*
Y98165D01*
X113544D01*
Y97929D01*
X113779D01*
Y97458D01*
X114250D01*
Y97693D01*
X114486D01*
Y97929D01*
X114722D01*
Y98400D01*
D02*
G37*
G36*
X181409Y100992D02*
X180702D01*
Y100521D01*
X180938D01*
Y100050D01*
X181173D01*
Y99578D01*
X181409D01*
Y99107D01*
X181645D01*
Y98636D01*
X181880D01*
Y97929D01*
X182116D01*
Y97222D01*
X182352D01*
Y96986D01*
X182587D01*
Y98165D01*
X182823D01*
Y100050D01*
X182352D01*
Y100285D01*
X181880D01*
Y100521D01*
X181645D01*
Y100757D01*
X181409D01*
Y100992D01*
D02*
G37*
G36*
X106474Y96279D02*
X103175D01*
Y96044D01*
X99405D01*
Y96279D01*
X98698D01*
Y96044D01*
X98462D01*
Y95573D01*
X98226D01*
Y94866D01*
X97991D01*
Y94394D01*
X97755D01*
Y93923D01*
X97520D01*
Y93216D01*
X97284D01*
Y92745D01*
X97048D01*
Y92273D01*
X96813D01*
Y91566D01*
X96577D01*
Y91095D01*
X96341D01*
Y90624D01*
X96106D01*
Y89917D01*
X95870D01*
Y89446D01*
X95634D01*
Y88974D01*
X95399D01*
Y88503D01*
X95163D01*
Y88032D01*
X94928D01*
Y87561D01*
X94692D01*
Y86854D01*
X94456D01*
Y86382D01*
X94221D01*
Y85911D01*
X93985D01*
Y85440D01*
X93749D01*
Y84969D01*
X93514D01*
Y84497D01*
X93278D01*
Y84026D01*
X93042D01*
Y83555D01*
X92807D01*
Y83083D01*
X92571D01*
Y82612D01*
X92336D01*
Y81905D01*
X92100D01*
Y79784D01*
X92336D01*
Y79313D01*
X92571D01*
Y79077D01*
X92807D01*
Y78606D01*
X93042D01*
Y78370D01*
X93278D01*
Y78135D01*
X93749D01*
Y77899D01*
X93985D01*
Y77663D01*
X94456D01*
Y77428D01*
X94928D01*
Y77192D01*
X95634D01*
Y76957D01*
X96341D01*
Y76721D01*
X96813D01*
Y76485D01*
X97520D01*
Y76250D01*
X97991D01*
Y76014D01*
X98698D01*
Y75778D01*
X99405D01*
Y75543D01*
X99640D01*
Y75778D01*
X99876D01*
Y76014D01*
X100112D01*
Y76250D01*
X100347D01*
Y76721D01*
X100583D01*
Y76957D01*
X100819D01*
Y77428D01*
X101054D01*
Y77663D01*
X101290D01*
Y77899D01*
X101526D01*
Y78370D01*
X101761D01*
Y78606D01*
X101997D01*
Y79077D01*
X102233D01*
Y79549D01*
X102468D01*
Y80020D01*
X102704D01*
Y80491D01*
X102939D01*
Y80962D01*
X103175D01*
Y81434D01*
X103411D01*
Y81905D01*
X103646D01*
Y82612D01*
X103882D01*
Y83319D01*
X104118D01*
Y83790D01*
X104353D01*
Y84497D01*
X104589D01*
Y85440D01*
X104825D01*
Y86382D01*
X105060D01*
Y87089D01*
X105296D01*
Y88267D01*
X105532D01*
Y89446D01*
X105767D01*
Y90860D01*
X106003D01*
Y92273D01*
X106238D01*
Y93687D01*
X106474D01*
Y93923D01*
Y95337D01*
X106710D01*
Y96044D01*
X106474D01*
Y96279D01*
D02*
G37*
G36*
X114957Y96986D02*
X114015D01*
Y96279D01*
X114250D01*
Y96044D01*
X114486D01*
Y95808D01*
X116371D01*
Y96044D01*
X116607D01*
Y96515D01*
X116136D01*
Y96751D01*
X114957D01*
Y96986D01*
D02*
G37*
G36*
X116607Y98165D02*
X115664D01*
Y97929D01*
X115193D01*
Y97693D01*
X114957D01*
Y97222D01*
X116607D01*
Y96986D01*
X117078D01*
Y96751D01*
X117314D01*
Y96515D01*
X117549D01*
Y96279D01*
X117785D01*
Y96044D01*
X118021D01*
Y95808D01*
X118256D01*
Y95573D01*
X118492D01*
Y95337D01*
X118963D01*
Y95101D01*
X119199D01*
Y95337D01*
X119435D01*
Y96044D01*
X119199D01*
Y96279D01*
Y96515D01*
X118963D01*
Y96751D01*
X118728D01*
Y96986D01*
X118492D01*
Y97222D01*
X118256D01*
Y97458D01*
X118021D01*
Y97693D01*
X117314D01*
Y97929D01*
X116607D01*
Y98165D01*
D02*
G37*
G36*
X116371Y95337D02*
X116136D01*
Y95101D01*
X115193D01*
Y94630D01*
X115429D01*
Y94394D01*
X116136D01*
Y94630D01*
X116371D01*
Y94866D01*
X116607D01*
Y95101D01*
X116371D01*
Y95337D01*
D02*
G37*
G36*
X181173Y98400D02*
X180702D01*
Y97693D01*
X180466D01*
Y97222D01*
X180702D01*
Y96279D01*
X180938D01*
Y96044D01*
X181173D01*
Y95573D01*
X181409D01*
Y95101D01*
X181645D01*
Y93923D01*
X181880D01*
Y93216D01*
X182352D01*
Y96279D01*
X182116D01*
Y96515D01*
X181880D01*
Y96751D01*
X181645D01*
Y96986D01*
X181409D01*
Y97458D01*
Y97693D01*
X181173D01*
Y98400D01*
D02*
G37*
G36*
X114957Y94630D02*
X114722D01*
Y94159D01*
X114957D01*
Y93687D01*
X115193D01*
Y92980D01*
X115429D01*
Y92509D01*
X115664D01*
Y92273D01*
X116842D01*
Y92038D01*
X117078D01*
Y92273D01*
X118021D01*
Y92509D01*
X118492D01*
Y92980D01*
X118256D01*
Y93216D01*
X117314D01*
Y93452D01*
X116371D01*
Y93687D01*
X115900D01*
Y93923D01*
X115429D01*
Y94159D01*
X115193D01*
Y94394D01*
X114957D01*
Y94630D01*
D02*
G37*
G36*
X119435Y92273D02*
X118728D01*
Y92038D01*
X118492D01*
Y91802D01*
X119435D01*
Y92273D01*
D02*
G37*
G36*
X117785Y95101D02*
X117549D01*
Y94866D01*
X117078D01*
Y94630D01*
X116842D01*
Y94394D01*
X116607D01*
Y93923D01*
X117078D01*
Y93687D01*
X118256D01*
Y93452D01*
X118963D01*
Y93216D01*
X119199D01*
Y92980D01*
X119435D01*
Y92745D01*
X119670D01*
Y92509D01*
X119906D01*
Y92273D01*
X120141D01*
Y92038D01*
X120377D01*
Y91802D01*
X120848D01*
Y91566D01*
X121320D01*
Y92273D01*
X121084D01*
Y92745D01*
X120848D01*
Y93452D01*
X120613D01*
Y93687D01*
X120377D01*
Y93923D01*
X120141D01*
Y94159D01*
X119906D01*
Y94394D01*
X119435D01*
Y94630D01*
X118963D01*
Y94866D01*
X117785D01*
Y95101D01*
D02*
G37*
G36*
X211100Y101935D02*
X210629D01*
Y101699D01*
X210158D01*
Y101464D01*
X209686D01*
Y101228D01*
X209215D01*
Y100992D01*
X208744D01*
Y100757D01*
X208037D01*
Y100521D01*
X207330D01*
Y100285D01*
X206623D01*
Y100050D01*
X205681D01*
Y99814D01*
X204502D01*
Y99578D01*
X200261D01*
Y99343D01*
X198847D01*
Y99107D01*
X198375D01*
Y98400D01*
X198611D01*
Y98165D01*
X198847D01*
Y97693D01*
X199082D01*
Y97458D01*
X199318D01*
Y97222D01*
X199554D01*
Y96751D01*
X199789D01*
Y96515D01*
X200025D01*
Y96279D01*
X200261D01*
Y96044D01*
X200496D01*
Y95573D01*
X200732D01*
Y95337D01*
X200968D01*
Y95101D01*
X201203D01*
Y94866D01*
Y94630D01*
X201439D01*
Y94394D01*
X201674D01*
Y93923D01*
X201910D01*
Y93687D01*
X202146D01*
Y93216D01*
X202381D01*
Y92980D01*
X202617D01*
Y92509D01*
X202853D01*
Y92273D01*
X203088D01*
Y91802D01*
X203324D01*
Y91566D01*
X203560D01*
Y91095D01*
X203795D01*
Y90860D01*
X204738D01*
Y91095D01*
X205209D01*
Y91331D01*
X205681D01*
Y91566D01*
X206152D01*
Y91802D01*
X206859D01*
Y92038D01*
X207566D01*
Y92273D01*
X208273D01*
Y92509D01*
X208979D01*
Y92745D01*
X209922D01*
Y92980D01*
X210629D01*
Y93216D01*
X211100D01*
Y93452D01*
X211807D01*
Y93687D01*
X212514D01*
Y93923D01*
X213221D01*
Y94159D01*
X213692D01*
Y94394D01*
X214164D01*
Y94630D01*
X214635D01*
Y94866D01*
X215106D01*
Y95101D01*
X215578D01*
Y95337D01*
X215813D01*
Y95573D01*
X216285D01*
Y95808D01*
X216756D01*
Y96044D01*
X217463D01*
Y96279D01*
X217934D01*
Y96515D01*
X218405D01*
Y96751D01*
X219112D01*
Y96986D01*
X219583D01*
Y97222D01*
X220290D01*
Y97458D01*
X220762D01*
Y97929D01*
X220526D01*
Y98165D01*
X220055D01*
Y98400D01*
X219583D01*
Y98636D01*
X219112D01*
Y98871D01*
X218405D01*
Y99107D01*
X217934D01*
Y99343D01*
X217227D01*
Y99578D01*
X216756D01*
Y99814D01*
X216049D01*
Y100050D01*
X215342D01*
Y100285D01*
X214635D01*
Y100521D01*
X213928D01*
Y100757D01*
X213457D01*
Y100992D01*
X212750D01*
Y101228D01*
X212278D01*
Y101464D01*
X211807D01*
Y101699D01*
X211100D01*
Y101935D01*
D02*
G37*
G36*
X118492Y91802D02*
X117785D01*
Y91566D01*
X117078D01*
Y91095D01*
X117314D01*
Y90860D01*
X117549D01*
Y90624D01*
X117785D01*
Y90860D01*
X118021D01*
Y91095D01*
X118256D01*
Y91566D01*
X118492D01*
Y91802D01*
D02*
G37*
G36*
X180938Y95101D02*
X180466D01*
Y92745D01*
X180702D01*
Y92273D01*
X180938D01*
Y91802D01*
X181173D01*
Y90860D01*
X181409D01*
Y90153D01*
X181645D01*
Y89681D01*
X182116D01*
Y90388D01*
X182352D01*
Y91331D01*
X182116D01*
Y92273D01*
X181880D01*
Y92745D01*
X181645D01*
Y93216D01*
X181409D01*
Y93452D01*
X181173D01*
Y94159D01*
X180938D01*
Y94394D01*
Y95101D01*
D02*
G37*
G36*
X116371Y91566D02*
X115900D01*
Y91331D01*
X116136D01*
Y90860D01*
X116371D01*
Y90388D01*
X116607D01*
Y89917D01*
X116842D01*
Y89446D01*
X117078D01*
Y88974D01*
X117314D01*
Y88739D01*
X117549D01*
Y88503D01*
X118021D01*
Y88267D01*
X118963D01*
Y88503D01*
X119670D01*
Y88739D01*
X120141D01*
Y89210D01*
X119906D01*
Y89446D01*
X119435D01*
Y89681D01*
X118256D01*
Y89917D01*
X117549D01*
Y90153D01*
X117314D01*
Y90388D01*
X117078D01*
Y90624D01*
X116842D01*
Y90860D01*
X116607D01*
Y91331D01*
X116371D01*
Y91566D01*
D02*
G37*
G36*
X120377Y91331D02*
X119199D01*
Y91095D01*
X118728D01*
Y90860D01*
X118492D01*
Y90388D01*
X118728D01*
Y90153D01*
X119670D01*
Y89917D01*
X120377D01*
Y89681D01*
X120848D01*
Y89446D01*
X121084D01*
Y89210D01*
X121320D01*
Y88974D01*
X121555D01*
Y88739D01*
X121791D01*
Y88267D01*
X122027D01*
Y87796D01*
X122262D01*
Y87561D01*
X122734D01*
Y87325D01*
X123205D01*
Y88503D01*
X122969D01*
Y89210D01*
X122734D01*
Y89446D01*
X122498D01*
Y89917D01*
X122262D01*
Y90153D01*
X122027D01*
Y90388D01*
X121791D01*
Y90624D01*
X121320D01*
Y90860D01*
X121084D01*
Y91095D01*
X120377D01*
Y91331D01*
D02*
G37*
G36*
X120848Y88739D02*
X120613D01*
Y88267D01*
X119670D01*
Y88032D01*
X119199D01*
Y87796D01*
X118963D01*
Y87325D01*
X119199D01*
Y87089D01*
X119670D01*
Y87325D01*
X119906D01*
Y87561D01*
X120377D01*
Y87796D01*
X121320D01*
Y88267D01*
X121084D01*
Y88503D01*
X120848D01*
Y88739D01*
D02*
G37*
G36*
X180466Y91566D02*
X179995D01*
Y90153D01*
X180231D01*
Y88974D01*
X180466D01*
Y88503D01*
X180702D01*
Y87796D01*
X180938D01*
Y87089D01*
X181173D01*
Y86618D01*
Y86382D01*
Y86147D01*
X181409D01*
Y85675D01*
X181645D01*
Y85911D01*
X181880D01*
Y86618D01*
X182116D01*
Y87561D01*
X181880D01*
Y88503D01*
X181645D01*
Y88974D01*
X181409D01*
Y89446D01*
X181173D01*
Y89917D01*
X180938D01*
Y90624D01*
X180702D01*
Y91331D01*
X180466D01*
Y91566D01*
D02*
G37*
G36*
X117785Y88032D02*
X117549D01*
Y87796D01*
X117314D01*
Y87561D01*
X117549D01*
Y86854D01*
X117785D01*
Y86382D01*
X118021D01*
Y85911D01*
X118256D01*
Y85675D01*
X118492D01*
Y85440D01*
X118728D01*
Y85204D01*
X118963D01*
Y84969D01*
X119435D01*
Y84733D01*
X119906D01*
Y84497D01*
X121320D01*
Y84733D01*
X121791D01*
Y84969D01*
X122027D01*
Y85204D01*
X121791D01*
Y85440D01*
X120848D01*
Y85675D01*
X120377D01*
Y85911D01*
X119906D01*
Y86147D01*
X119670D01*
Y86382D01*
X119199D01*
Y86618D01*
X118963D01*
Y86854D01*
X118728D01*
Y87561D01*
X118492D01*
Y87796D01*
X117785D01*
Y88032D01*
D02*
G37*
G36*
X83617Y98636D02*
X83381D01*
Y98400D01*
X82910D01*
Y98165D01*
X82438D01*
Y97929D01*
X82203D01*
Y97693D01*
X81731D01*
Y97458D01*
X81496D01*
Y97222D01*
X81025D01*
Y96986D01*
X80553D01*
Y96751D01*
X80318D01*
Y96515D01*
X79846D01*
Y96279D01*
X79375D01*
Y96044D01*
X78904D01*
Y95808D01*
X78668D01*
Y95573D01*
X78197D01*
Y95337D01*
X77961D01*
Y95101D01*
X77490D01*
Y94866D01*
X77018D01*
Y94630D01*
X76783D01*
Y94394D01*
X76312D01*
Y94159D01*
X75840D01*
Y93923D01*
X75369D01*
Y93687D01*
X75133D01*
Y93452D01*
X74662D01*
Y93216D01*
X74191D01*
Y92980D01*
X73720D01*
Y92745D01*
X73248D01*
Y92509D01*
X73013D01*
Y92273D01*
X72541D01*
Y92038D01*
X72070D01*
Y91802D01*
X71834D01*
Y91566D01*
X71363D01*
Y91331D01*
X70892D01*
Y91095D01*
X70420D01*
Y90860D01*
X70185D01*
Y90624D01*
X69714D01*
Y90388D01*
X69242D01*
Y90153D01*
X68771D01*
Y89917D01*
X68300D01*
Y89681D01*
X68064D01*
Y89446D01*
X67828D01*
Y89210D01*
X68064D01*
Y88974D01*
X68771D01*
Y88739D01*
X69478D01*
Y88503D01*
X70185D01*
Y88267D01*
X71127D01*
Y88032D01*
X72070D01*
Y87796D01*
X72777D01*
Y87561D01*
X73720D01*
Y87325D01*
X74662D01*
Y87089D01*
X75605D01*
Y86854D01*
X76547D01*
Y86618D01*
X77490D01*
Y86382D01*
X78432D01*
Y86147D01*
X79139D01*
Y85911D01*
X79846D01*
Y85675D01*
X80789D01*
Y85440D01*
X81496D01*
Y85204D01*
X82674D01*
Y84969D01*
X83617D01*
Y84733D01*
X84795D01*
Y84497D01*
X85973D01*
Y84262D01*
X87858D01*
Y84026D01*
X89979D01*
Y83790D01*
X91629D01*
Y83555D01*
X92100D01*
Y84026D01*
X92336D01*
Y84733D01*
X92571D01*
Y84969D01*
X92807D01*
Y85675D01*
X93042D01*
Y86147D01*
X93278D01*
Y86618D01*
X93514D01*
Y87089D01*
X93749D01*
Y87561D01*
X93985D01*
Y88032D01*
X94221D01*
Y88503D01*
X94456D01*
Y89210D01*
X94692D01*
Y89681D01*
X94928D01*
Y90388D01*
X95163D01*
Y90860D01*
X95399D01*
Y91331D01*
X95634D01*
Y91802D01*
X95870D01*
Y92273D01*
X96106D01*
Y92745D01*
X96341D01*
Y93452D01*
X96577D01*
Y93923D01*
X96813D01*
Y94394D01*
X97048D01*
Y95101D01*
X97284D01*
Y95337D01*
X97520D01*
Y95808D01*
X97755D01*
Y96279D01*
X93278D01*
Y96515D01*
X92100D01*
Y96751D01*
X91393D01*
Y96986D01*
X90450D01*
Y97222D01*
X88801D01*
Y96986D01*
X88094D01*
Y97222D01*
X87151D01*
Y97458D01*
X86444D01*
Y97693D01*
X85737D01*
Y97929D01*
X85030D01*
Y98165D01*
X84324D01*
Y98400D01*
X83617D01*
Y98636D01*
D02*
G37*
G36*
X121320Y87325D02*
X120848D01*
Y87089D01*
X120141D01*
Y86618D01*
X120377D01*
Y86382D01*
X120848D01*
Y86147D01*
X121555D01*
Y85911D01*
X122027D01*
Y85675D01*
X122498D01*
Y85440D01*
X122734D01*
Y85204D01*
X122969D01*
Y84969D01*
X123205D01*
Y84497D01*
X123441D01*
Y84262D01*
X123676D01*
Y83790D01*
X123912D01*
Y83555D01*
X124148D01*
Y83319D01*
X124854D01*
Y83083D01*
X125090D01*
Y84497D01*
X124854D01*
Y84969D01*
X124619D01*
Y85440D01*
X124383D01*
Y85675D01*
X124148D01*
Y85911D01*
X123912D01*
Y86147D01*
X123676D01*
Y86382D01*
X123441D01*
Y86618D01*
X122969D01*
Y86854D01*
X122498D01*
Y87089D01*
X121320D01*
Y87325D01*
D02*
G37*
G36*
X122969Y84497D02*
X122498D01*
Y84262D01*
X121791D01*
Y84026D01*
X120848D01*
Y83555D01*
X121084D01*
Y83083D01*
X121320D01*
Y82848D01*
X121791D01*
Y83083D01*
X122027D01*
Y83319D01*
X122498D01*
Y83555D01*
X123205D01*
Y84262D01*
X122969D01*
Y84497D01*
D02*
G37*
G36*
X197197Y98871D02*
X196726D01*
Y98636D01*
X192249D01*
Y98400D01*
X188950D01*
Y97693D01*
X189185D01*
Y96986D01*
X189421D01*
Y96515D01*
X189657D01*
Y96044D01*
X189892D01*
Y95573D01*
X190128D01*
Y95101D01*
X190364D01*
Y94630D01*
X190599D01*
Y94159D01*
X190835D01*
Y93687D01*
X191070D01*
Y93216D01*
X191306D01*
Y92745D01*
X191542D01*
Y92509D01*
X191777D01*
Y92038D01*
X192013D01*
Y91566D01*
X192249D01*
Y91095D01*
X192484D01*
Y90624D01*
X192720D01*
Y90388D01*
X192956D01*
Y89917D01*
X193191D01*
Y89681D01*
X193427D01*
Y89210D01*
X193663D01*
Y88974D01*
X193898D01*
Y88739D01*
X194134D01*
Y88267D01*
X194370D01*
Y88032D01*
X194605D01*
Y87796D01*
X194841D01*
Y87561D01*
X195077D01*
Y87325D01*
X195312D01*
Y87089D01*
X195548D01*
Y86854D01*
X195783D01*
Y86618D01*
X196019D01*
Y86382D01*
X196255D01*
Y85911D01*
X196490D01*
Y85675D01*
X196726D01*
Y85440D01*
X196962D01*
Y85204D01*
X197197D01*
Y84969D01*
X197433D01*
Y84733D01*
X197668D01*
Y84497D01*
X197904D01*
Y84262D01*
X198140D01*
Y84026D01*
X198375D01*
Y83790D01*
X198611D01*
Y83555D01*
X198847D01*
Y83319D01*
X199082D01*
Y83083D01*
X199318D01*
Y82848D01*
X199554D01*
Y82376D01*
X200025D01*
Y82612D01*
X200496D01*
Y82848D01*
X200732D01*
Y83083D01*
X201203D01*
Y83319D01*
X201439D01*
Y83555D01*
X201674D01*
Y83790D01*
X202146D01*
Y84026D01*
X202381D01*
Y84262D01*
X202617D01*
Y84497D01*
X202853D01*
Y84969D01*
X203088D01*
Y85204D01*
X203324D01*
Y85440D01*
X203560D01*
Y85911D01*
X203795D01*
Y86382D01*
X204031D01*
Y86854D01*
X204267D01*
Y87561D01*
X204502D01*
Y87796D01*
X204267D01*
Y88739D01*
X204031D01*
Y89210D01*
X203795D01*
Y89681D01*
X203560D01*
Y89917D01*
X203324D01*
Y90388D01*
X203088D01*
Y90624D01*
X202853D01*
Y91095D01*
X202617D01*
Y91331D01*
X202381D01*
Y91566D01*
X202146D01*
Y92038D01*
X201910D01*
Y92273D01*
X201674D01*
Y92509D01*
X201439D01*
Y92980D01*
X201203D01*
Y93216D01*
X200968D01*
Y93687D01*
X200732D01*
Y93923D01*
X200496D01*
Y94394D01*
X200261D01*
Y94630D01*
X200025D01*
Y95101D01*
X199789D01*
Y95337D01*
X199554D01*
Y95808D01*
X199318D01*
Y96044D01*
X199082D01*
Y96279D01*
X198847D01*
Y96751D01*
X198611D01*
Y96986D01*
X198375D01*
Y97458D01*
X198140D01*
Y97693D01*
X197904D01*
Y98165D01*
X197668D01*
Y98400D01*
X197433D01*
Y98636D01*
X197197D01*
Y98871D01*
D02*
G37*
G36*
X179995Y88503D02*
X179760D01*
Y88032D01*
X179524D01*
Y85204D01*
X179760D01*
Y84497D01*
X179995D01*
Y84026D01*
X180231D01*
Y83555D01*
X180466D01*
Y82848D01*
X180702D01*
Y82612D01*
Y82376D01*
Y82141D01*
X180938D01*
Y81669D01*
X181173D01*
Y81434D01*
X181645D01*
Y82376D01*
X181880D01*
Y83319D01*
X181645D01*
Y84262D01*
X181409D01*
Y84733D01*
X181173D01*
Y85204D01*
X180938D01*
Y85911D01*
X180702D01*
Y86382D01*
X180466D01*
Y87325D01*
X180231D01*
Y88032D01*
X179995D01*
Y88503D01*
D02*
G37*
G36*
X119670Y84262D02*
X118963D01*
Y83319D01*
X119199D01*
Y83083D01*
Y82848D01*
Y82612D01*
X119435D01*
Y82141D01*
X119670D01*
Y81905D01*
X119906D01*
Y81669D01*
X120141D01*
Y81434D01*
X120377D01*
Y81198D01*
X120613D01*
Y80962D01*
X120848D01*
Y80727D01*
X121320D01*
Y80491D01*
X123205D01*
Y80727D01*
X123676D01*
Y81198D01*
X123441D01*
Y81434D01*
X122969D01*
Y81669D01*
X122262D01*
Y81905D01*
X121791D01*
Y82141D01*
X121320D01*
Y82376D01*
X121084D01*
Y82612D01*
X120848D01*
Y82848D01*
X120613D01*
Y83083D01*
X120377D01*
Y83555D01*
X120141D01*
Y84026D01*
X119670D01*
Y84262D01*
D02*
G37*
G36*
X123676Y83083D02*
X122734D01*
Y82848D01*
X122262D01*
Y82376D01*
X122734D01*
Y82141D01*
X123441D01*
Y81905D01*
X123912D01*
Y81669D01*
X124148D01*
Y81434D01*
X124383D01*
Y81198D01*
X124619D01*
Y80962D01*
X124854D01*
Y80727D01*
X125090D01*
Y80491D01*
X125326D01*
Y80020D01*
X125561D01*
Y79549D01*
X126033D01*
Y79313D01*
X126740D01*
Y80256D01*
X126504D01*
Y80962D01*
X126268D01*
Y81434D01*
X126033D01*
Y81669D01*
X125797D01*
Y81905D01*
X125561D01*
Y82141D01*
X125326D01*
Y82376D01*
X125090D01*
Y82612D01*
X124619D01*
Y82848D01*
X123676D01*
Y83083D01*
D02*
G37*
G36*
X124383Y80491D02*
X124148D01*
Y80256D01*
X123912D01*
Y80020D01*
X123205D01*
Y79784D01*
X122262D01*
Y79313D01*
X122498D01*
Y79077D01*
X122734D01*
Y78606D01*
X123205D01*
Y78842D01*
X123441D01*
Y79077D01*
X123912D01*
Y79313D01*
X124383D01*
Y79549D01*
X124854D01*
Y80020D01*
X124619D01*
Y80256D01*
X124383D01*
Y80491D01*
D02*
G37*
G36*
X179760Y83790D02*
X179524D01*
Y83555D01*
X179288D01*
Y82848D01*
X179053D01*
Y80962D01*
X179288D01*
Y80020D01*
X179524D01*
Y79784D01*
X179760D01*
Y79313D01*
X179995D01*
Y78370D01*
X180231D01*
Y77663D01*
X180466D01*
Y77192D01*
X180702D01*
Y76957D01*
X181173D01*
Y77428D01*
X181409D01*
Y78842D01*
Y79077D01*
Y79784D01*
X181173D01*
Y80491D01*
X180938D01*
Y80962D01*
X180702D01*
Y81434D01*
X180466D01*
Y81905D01*
X180231D01*
Y82848D01*
X179995D01*
Y83319D01*
X179760D01*
Y83790D01*
D02*
G37*
G36*
X121555Y80020D02*
X120848D01*
Y79077D01*
Y78842D01*
X121084D01*
Y78135D01*
X121320D01*
Y77663D01*
X121555D01*
Y77192D01*
X121791D01*
Y76957D01*
X122262D01*
Y76721D01*
X122498D01*
Y76485D01*
X123205D01*
Y76250D01*
X124383D01*
Y76485D01*
X125090D01*
Y76721D01*
X125326D01*
Y77192D01*
X124854D01*
Y77428D01*
X124148D01*
Y77663D01*
X123441D01*
Y77899D01*
X122969D01*
Y78135D01*
X122498D01*
Y78370D01*
X122262D01*
Y78606D01*
X122027D01*
Y79077D01*
X121791D01*
Y79784D01*
X121555D01*
Y80020D01*
D02*
G37*
G36*
X126033Y79077D02*
X124619D01*
Y78842D01*
X124148D01*
Y78606D01*
X123912D01*
Y78135D01*
X124383D01*
Y77899D01*
X125090D01*
Y77663D01*
X125561D01*
Y77428D01*
X126033D01*
Y77192D01*
X126504D01*
Y76957D01*
X126740D01*
Y76485D01*
X126975D01*
Y76250D01*
X127211D01*
Y75778D01*
X127446D01*
Y75543D01*
X127918D01*
Y75307D01*
X128625D01*
Y76014D01*
X128389D01*
Y76957D01*
X128153D01*
Y77428D01*
X127918D01*
Y77663D01*
X127682D01*
Y77899D01*
X127446D01*
Y78135D01*
X127211D01*
Y78370D01*
X126975D01*
Y78606D01*
X126740D01*
Y78842D01*
X126033D01*
Y79077D01*
D02*
G37*
G36*
X126504Y76485D02*
X125797D01*
Y76250D01*
X125561D01*
Y76014D01*
X125090D01*
Y75778D01*
X124383D01*
Y74836D01*
X124619D01*
Y74600D01*
X124854D01*
Y74836D01*
X125326D01*
Y75071D01*
X125561D01*
Y75307D01*
X125797D01*
Y75543D01*
X126740D01*
Y76014D01*
X126504D01*
Y76485D01*
D02*
G37*
G36*
X179053Y75071D02*
X178817D01*
Y74600D01*
X178581D01*
Y74364D01*
Y74129D01*
Y73422D01*
X178817D01*
Y72951D01*
X179288D01*
Y74836D01*
X179053D01*
Y75071D01*
D02*
G37*
G36*
X179288Y79549D02*
X178817D01*
Y79313D01*
X178581D01*
Y78606D01*
X178346D01*
Y77192D01*
X178581D01*
Y76721D01*
X178817D01*
Y76485D01*
X179053D01*
Y76014D01*
X179288D01*
Y75778D01*
X179524D01*
Y75307D01*
X179760D01*
Y73186D01*
Y72951D01*
X179524D01*
Y72479D01*
X178817D01*
Y72715D01*
X178581D01*
Y73186D01*
X178346D01*
Y73657D01*
X178110D01*
Y74600D01*
X178346D01*
Y75071D01*
X178581D01*
Y76014D01*
X178346D01*
Y76250D01*
X178110D01*
Y76014D01*
X177639D01*
Y75543D01*
X177403D01*
Y75071D01*
X177167D01*
Y73657D01*
X176932D01*
Y73186D01*
X177167D01*
Y72244D01*
X177403D01*
Y71772D01*
X177639D01*
Y71537D01*
X178110D01*
Y71301D01*
X179053D01*
Y71065D01*
X179288D01*
Y70594D01*
X179524D01*
Y68709D01*
X179288D01*
Y68473D01*
X178110D01*
Y68709D01*
X177874D01*
Y68945D01*
X177639D01*
Y69180D01*
X177403D01*
Y71301D01*
X177167D01*
Y71772D01*
X176696D01*
Y71301D01*
X176460D01*
Y70594D01*
X176225D01*
Y68709D01*
X176460D01*
Y68238D01*
X176696D01*
Y67766D01*
X176932D01*
Y67531D01*
X177167D01*
Y67295D01*
X177639D01*
Y67059D01*
X178346D01*
Y66824D01*
X178581D01*
Y66117D01*
X178817D01*
Y65646D01*
X179053D01*
Y65410D01*
X179288D01*
Y64939D01*
X179524D01*
Y64703D01*
X179995D01*
Y65174D01*
X180231D01*
Y67295D01*
X179995D01*
Y67766D01*
X179760D01*
Y68002D01*
X179995D01*
Y68238D01*
X180231D01*
Y68709D01*
X180466D01*
Y69416D01*
X180702D01*
Y71301D01*
X180466D01*
Y71772D01*
X180231D01*
Y72008D01*
X179995D01*
Y72479D01*
X180702D01*
Y72715D01*
X180938D01*
Y73186D01*
X181173D01*
Y75543D01*
X180938D01*
Y76014D01*
X180702D01*
Y76485D01*
X180466D01*
Y76721D01*
X180231D01*
Y76957D01*
X179995D01*
Y77428D01*
X179760D01*
Y78370D01*
X179524D01*
Y79313D01*
X179288D01*
Y79549D01*
D02*
G37*
G36*
X122969Y76014D02*
X122262D01*
Y75778D01*
X122498D01*
Y74836D01*
X122734D01*
Y74129D01*
X122969D01*
Y73893D01*
X123205D01*
Y73422D01*
X123441D01*
Y73186D01*
X123676D01*
Y72951D01*
X123912D01*
Y72715D01*
X124383D01*
Y72479D01*
X124854D01*
Y72244D01*
X126268D01*
Y72479D01*
X126975D01*
Y72715D01*
X127211D01*
Y73422D01*
X126740D01*
Y73657D01*
X125561D01*
Y73893D01*
X124854D01*
Y74129D01*
X124383D01*
Y74364D01*
X124148D01*
Y74600D01*
X123912D01*
Y75071D01*
X123676D01*
Y75543D01*
X123441D01*
Y75778D01*
X122969D01*
Y76014D01*
D02*
G37*
G36*
X126975Y75071D02*
X126740D01*
Y74836D01*
X126033D01*
Y74600D01*
X125797D01*
Y74129D01*
X126975D01*
Y73893D01*
X127446D01*
Y73657D01*
X127918D01*
Y73422D01*
X128153D01*
Y73186D01*
X128389D01*
Y72951D01*
X128625D01*
Y72479D01*
X128860D01*
Y71772D01*
X129096D01*
Y71537D01*
X129332D01*
Y71301D01*
X130039D01*
Y71065D01*
X130274D01*
Y72244D01*
X130039D01*
Y72951D01*
X129803D01*
Y73422D01*
X129567D01*
Y73893D01*
X129332D01*
Y74129D01*
X128860D01*
Y74364D01*
X128625D01*
Y74600D01*
X128153D01*
Y74836D01*
X126975D01*
Y75071D01*
D02*
G37*
G36*
X128153Y72715D02*
X127918D01*
Y72479D01*
X127446D01*
Y72244D01*
X126975D01*
Y72008D01*
X126740D01*
Y71772D01*
X126033D01*
Y70830D01*
X126268D01*
Y70594D01*
X126504D01*
Y70359D01*
X126740D01*
Y70594D01*
X126975D01*
Y70830D01*
X127446D01*
Y71065D01*
X127682D01*
Y71301D01*
X128389D01*
Y71537D01*
X128625D01*
Y71772D01*
X128389D01*
Y72244D01*
X128153D01*
Y72715D01*
D02*
G37*
G36*
X178346Y70830D02*
X177874D01*
Y70594D01*
Y69416D01*
X178110D01*
Y69180D01*
X178346D01*
Y68945D01*
X178817D01*
Y70594D01*
X178346D01*
Y70830D01*
D02*
G37*
G36*
X124619Y72008D02*
X124148D01*
Y71065D01*
X124383D01*
Y70123D01*
X124619D01*
Y69651D01*
X124854D01*
Y69180D01*
X125090D01*
Y68945D01*
X125326D01*
Y68709D01*
X125561D01*
Y68473D01*
X126033D01*
Y68238D01*
X126504D01*
Y68002D01*
X128153D01*
Y68238D01*
X128625D01*
Y68473D01*
X129096D01*
Y68945D01*
X128625D01*
Y69180D01*
X127211D01*
Y69416D01*
X126504D01*
Y69651D01*
X126268D01*
Y69887D01*
X126033D01*
Y70123D01*
X125797D01*
Y70359D01*
X125561D01*
Y70830D01*
X125326D01*
Y71772D01*
X124619D01*
Y72008D01*
D02*
G37*
G36*
X129567Y70830D02*
X128625D01*
Y70594D01*
X127918D01*
Y70359D01*
X127446D01*
Y70123D01*
X127211D01*
Y69887D01*
X127446D01*
Y69651D01*
X128860D01*
Y69416D01*
X129567D01*
Y69180D01*
X129803D01*
Y68945D01*
X130039D01*
Y68709D01*
X130274D01*
Y68473D01*
X130510D01*
Y68002D01*
X130745D01*
Y67531D01*
X130981D01*
Y67295D01*
X131217D01*
Y67059D01*
X131688D01*
Y66824D01*
X132159D01*
Y67766D01*
X131924D01*
Y68473D01*
X131688D01*
Y68945D01*
X131452D01*
Y69416D01*
X131217D01*
Y69651D01*
X130981D01*
Y69887D01*
X130745D01*
Y70123D01*
X130510D01*
Y70359D01*
X130274D01*
Y70594D01*
X129567D01*
Y70830D01*
D02*
G37*
G36*
X129803Y68473D02*
X129567D01*
Y68238D01*
X129332D01*
Y68002D01*
X129096D01*
Y67766D01*
X128625D01*
Y67531D01*
X127682D01*
Y67059D01*
X127918D01*
Y66588D01*
X128389D01*
Y66353D01*
X128625D01*
Y66588D01*
X129096D01*
Y66824D01*
X129567D01*
Y67059D01*
X130274D01*
Y67766D01*
X130039D01*
Y68238D01*
X129803D01*
Y68473D01*
D02*
G37*
G36*
X126504Y67766D02*
X126268D01*
Y66353D01*
X126504D01*
Y65881D01*
X126740D01*
Y65410D01*
X126975D01*
Y65174D01*
X127211D01*
Y64939D01*
X127446D01*
Y64703D01*
X127682D01*
Y64467D01*
X128153D01*
Y64232D01*
X129096D01*
Y63996D01*
X130274D01*
Y64232D01*
X130745D01*
Y64939D01*
X130039D01*
Y65174D01*
X129332D01*
Y65410D01*
X128860D01*
Y65646D01*
X128389D01*
Y65881D01*
X128153D01*
Y66117D01*
X127918D01*
Y66353D01*
X127682D01*
Y66588D01*
X127446D01*
Y67059D01*
X127211D01*
Y67531D01*
X126504D01*
Y67766D01*
D02*
G37*
G36*
X176225Y68238D02*
X175989D01*
Y68002D01*
X175754D01*
Y67531D01*
X175518D01*
Y66824D01*
X175282D01*
Y65174D01*
X175518D01*
Y64467D01*
X175754D01*
Y64232D01*
X175989D01*
Y63996D01*
X176225D01*
Y63760D01*
X176460D01*
Y63525D01*
X176696D01*
Y63289D01*
X177874D01*
Y63760D01*
X177639D01*
Y64232D01*
X177403D01*
Y64467D01*
X177167D01*
Y64703D01*
X176932D01*
Y65174D01*
X176696D01*
Y65410D01*
Y65646D01*
X176460D01*
Y66824D01*
X176696D01*
Y67531D01*
X176460D01*
Y67766D01*
X176225D01*
Y68238D01*
D02*
G37*
G36*
X131452Y66588D02*
X129803D01*
Y66353D01*
X129332D01*
Y65881D01*
X129803D01*
Y65646D01*
X130745D01*
Y65410D01*
X131217D01*
Y65174D01*
X131452D01*
Y64939D01*
X131924D01*
Y64703D01*
X132159D01*
Y64467D01*
X132395D01*
Y63996D01*
X132631D01*
Y63289D01*
X133338D01*
Y63053D01*
X134045D01*
Y64232D01*
X133809D01*
Y64703D01*
X133573D01*
Y65174D01*
X133338D01*
Y65410D01*
X133102D01*
Y65646D01*
X132866D01*
Y65881D01*
X132395D01*
Y66117D01*
X132159D01*
Y66353D01*
X131452D01*
Y66588D01*
D02*
G37*
G36*
X131688Y64232D02*
X131217D01*
Y63996D01*
X130981D01*
Y63760D01*
X130745D01*
Y63525D01*
X129803D01*
Y62818D01*
X130039D01*
Y62582D01*
Y62347D01*
X130274D01*
Y62111D01*
X130510D01*
Y62347D01*
X130745D01*
Y62582D01*
X130981D01*
Y62818D01*
X131217D01*
Y63053D01*
X131688D01*
Y63289D01*
X131924D01*
Y63996D01*
X131688D01*
Y64232D01*
D02*
G37*
G36*
X184237Y99814D02*
X184001D01*
Y99578D01*
X183766D01*
Y98636D01*
X183530D01*
Y97458D01*
X183294D01*
Y96751D01*
X183059D01*
Y93923D01*
X182823D01*
Y92980D01*
X182587D01*
Y92038D01*
X182823D01*
Y89917D01*
X182587D01*
Y89446D01*
X182352D01*
Y88032D01*
X182587D01*
Y86147D01*
X182352D01*
Y85675D01*
X182116D01*
Y85204D01*
X181880D01*
Y84733D01*
X182116D01*
Y84262D01*
X182352D01*
Y81434D01*
X182116D01*
Y80962D01*
X181880D01*
Y80727D01*
X181645D01*
Y80491D01*
X181880D01*
Y79784D01*
X182116D01*
Y77428D01*
X181880D01*
Y76957D01*
X181645D01*
Y76485D01*
X181409D01*
Y76014D01*
X181645D01*
Y75778D01*
X181880D01*
Y73422D01*
X181645D01*
Y72715D01*
X181409D01*
Y72479D01*
X181173D01*
Y71301D01*
X181409D01*
Y69651D01*
X181173D01*
Y68709D01*
X180938D01*
Y68238D01*
X180702D01*
Y67766D01*
X180466D01*
Y67531D01*
X180702D01*
Y66824D01*
X180938D01*
Y65410D01*
X180702D01*
Y64703D01*
X180466D01*
Y64232D01*
X180231D01*
Y63760D01*
X180466D01*
Y62347D01*
X180231D01*
Y61404D01*
X180466D01*
Y61640D01*
X180702D01*
Y61875D01*
X180938D01*
Y62111D01*
X181173D01*
Y62347D01*
X181409D01*
Y62582D01*
X181645D01*
Y62818D01*
X181880D01*
Y63053D01*
X182116D01*
Y63289D01*
X182352D01*
Y63525D01*
X182587D01*
Y63760D01*
X182823D01*
Y63996D01*
X183059D01*
Y64232D01*
X183294D01*
Y64467D01*
X183530D01*
Y64703D01*
X183766D01*
Y64939D01*
X184001D01*
Y65174D01*
X184237D01*
Y65410D01*
X184473D01*
Y65646D01*
X184708D01*
Y65881D01*
X184944D01*
Y66117D01*
X185179D01*
Y66588D01*
X185415D01*
Y66824D01*
X185651D01*
Y67059D01*
X185886D01*
Y67295D01*
X186122D01*
Y67531D01*
X186358D01*
Y67766D01*
X186593D01*
Y68002D01*
X186829D01*
Y68238D01*
X187064D01*
Y68473D01*
X187300D01*
Y68709D01*
X187536D01*
Y68945D01*
X187771D01*
Y69416D01*
X188007D01*
Y69651D01*
X188243D01*
Y69887D01*
X188478D01*
Y70123D01*
X188714D01*
Y70359D01*
X188950D01*
Y70594D01*
X189185D01*
Y70830D01*
X189421D01*
Y71065D01*
X189657D01*
Y71537D01*
X189892D01*
Y71772D01*
X190128D01*
Y72008D01*
X190364D01*
Y72244D01*
X190599D01*
Y72479D01*
X190835D01*
Y72715D01*
X191070D01*
Y72951D01*
X191306D01*
Y73186D01*
X191542D01*
Y73422D01*
X191777D01*
Y73657D01*
X192013D01*
Y73893D01*
X192249D01*
Y74129D01*
X192484D01*
Y74364D01*
X192720D01*
Y74836D01*
X192956D01*
Y75071D01*
X193191D01*
Y75307D01*
X193427D01*
Y75543D01*
X193663D01*
Y75778D01*
X193898D01*
Y76014D01*
X194134D01*
Y76250D01*
X194370D01*
Y76721D01*
X194605D01*
Y76957D01*
X194841D01*
Y77192D01*
X195077D01*
Y77428D01*
X195312D01*
Y77663D01*
X195548D01*
Y78135D01*
X195783D01*
Y78370D01*
X196019D01*
Y78606D01*
X196255D01*
Y78842D01*
X196490D01*
Y79313D01*
X196726D01*
Y79549D01*
X196962D01*
Y79784D01*
X197197D01*
Y80020D01*
X197433D01*
Y80256D01*
X197668D01*
Y80491D01*
X197904D01*
Y80727D01*
X198140D01*
Y80962D01*
X198375D01*
Y81198D01*
X198611D01*
Y81434D01*
X199082D01*
Y81669D01*
X199318D01*
Y81905D01*
X199082D01*
Y82141D01*
X198847D01*
Y82376D01*
X198611D01*
Y82612D01*
X198375D01*
Y82848D01*
X198140D01*
Y83083D01*
X197904D01*
Y83319D01*
X197668D01*
Y83555D01*
X197433D01*
Y83790D01*
X197197D01*
Y84026D01*
X196962D01*
Y84262D01*
X196726D01*
Y84497D01*
X196490D01*
Y84733D01*
X196255D01*
Y84969D01*
X196019D01*
Y85204D01*
X195783D01*
Y85440D01*
X195548D01*
Y85675D01*
X195312D01*
Y85911D01*
X195077D01*
Y86147D01*
X194841D01*
Y86382D01*
X194605D01*
Y86618D01*
X194370D01*
Y87089D01*
X194134D01*
Y87325D01*
X193898D01*
Y87561D01*
X193663D01*
Y87796D01*
X193427D01*
Y88032D01*
X193191D01*
Y88267D01*
X192956D01*
Y88739D01*
X192720D01*
Y88974D01*
X192484D01*
Y89446D01*
X192249D01*
Y89681D01*
X192013D01*
Y90153D01*
X191777D01*
Y90388D01*
X191542D01*
Y90860D01*
X191306D01*
Y91331D01*
X191070D01*
Y91802D01*
X190835D01*
Y92038D01*
X190599D01*
Y92509D01*
X190364D01*
Y92980D01*
X190128D01*
Y93452D01*
X189892D01*
Y93923D01*
X189657D01*
Y94630D01*
X189421D01*
Y95101D01*
X189185D01*
Y95573D01*
X188950D01*
Y96044D01*
X188714D01*
Y96751D01*
X188478D01*
Y97458D01*
X188243D01*
Y98165D01*
X188007D01*
Y98636D01*
X187536D01*
Y98871D01*
X186593D01*
Y99107D01*
X185886D01*
Y99343D01*
X185179D01*
Y99578D01*
X184237D01*
Y99814D01*
D02*
G37*
G36*
X177403Y62818D02*
X176225D01*
Y62582D01*
X175989D01*
Y62347D01*
Y61875D01*
X176225D01*
Y61640D01*
X176932D01*
Y61404D01*
X177639D01*
Y61168D01*
X177874D01*
Y61404D01*
X178110D01*
Y62582D01*
X177403D01*
Y62818D01*
D02*
G37*
G36*
X178110Y66588D02*
X177167D01*
Y65410D01*
X177403D01*
Y64939D01*
X177639D01*
Y64703D01*
X177874D01*
Y64467D01*
X178110D01*
Y64232D01*
X178346D01*
Y63525D01*
X178581D01*
Y61404D01*
X178346D01*
Y60461D01*
X178110D01*
Y60226D01*
X177874D01*
Y59990D01*
X177639D01*
Y60461D01*
X177403D01*
Y60933D01*
X176225D01*
Y61168D01*
X175989D01*
Y61404D01*
X175754D01*
Y61640D01*
X175518D01*
Y63053D01*
X175754D01*
Y63760D01*
X175518D01*
Y63996D01*
X174811D01*
Y63760D01*
X174575D01*
Y63053D01*
X174340D01*
Y61640D01*
X174575D01*
Y60933D01*
X174811D01*
Y60461D01*
X175047D01*
Y60226D01*
X175282D01*
Y59990D01*
X175518D01*
Y59755D01*
X175989D01*
Y59519D01*
X176460D01*
Y59283D01*
X177639D01*
Y57634D01*
X177874D01*
Y57398D01*
X178110D01*
Y57162D01*
X178346D01*
Y56927D01*
X178581D01*
Y57162D01*
X178817D01*
Y59283D01*
X179053D01*
Y59519D01*
Y59755D01*
X179288D01*
Y59990D01*
X179524D01*
Y60933D01*
X179760D01*
Y63760D01*
X179524D01*
Y64232D01*
X179288D01*
Y64467D01*
X179053D01*
Y64939D01*
X178817D01*
Y65174D01*
X178581D01*
Y65410D01*
X178346D01*
Y65646D01*
X178110D01*
Y66588D01*
D02*
G37*
G36*
X128625Y63760D02*
X128153D01*
Y63525D01*
X127918D01*
Y63289D01*
X128153D01*
Y62111D01*
X128389D01*
Y61404D01*
X128625D01*
Y61168D01*
X128860D01*
Y60697D01*
X129096D01*
Y60461D01*
X129567D01*
Y60226D01*
X129803D01*
Y59990D01*
X130745D01*
Y59755D01*
X131688D01*
Y59990D01*
X132395D01*
Y60226D01*
X132866D01*
Y60461D01*
X133102D01*
Y60697D01*
X132866D01*
Y60933D01*
X131924D01*
Y61168D01*
X130981D01*
Y61404D01*
X130510D01*
Y61640D01*
X130039D01*
Y61875D01*
X129803D01*
Y62111D01*
X129567D01*
Y62347D01*
Y62582D01*
X129332D01*
Y63053D01*
X129096D01*
Y63525D01*
X128625D01*
Y63760D01*
D02*
G37*
G36*
X134045Y62582D02*
X131688D01*
Y62347D01*
X131217D01*
Y62111D01*
X130981D01*
Y61875D01*
X131688D01*
Y61640D01*
X132631D01*
Y61404D01*
X133338D01*
Y61168D01*
X133573D01*
Y60933D01*
X133809D01*
Y60697D01*
X134045D01*
Y60461D01*
X134280D01*
Y60226D01*
X134516D01*
Y59990D01*
X134752D01*
Y59519D01*
X134987D01*
Y59283D01*
X135458D01*
Y59048D01*
X135694D01*
Y60461D01*
X135458D01*
Y60933D01*
X135223D01*
Y61404D01*
X134987D01*
Y61875D01*
X134752D01*
Y62111D01*
X134280D01*
Y62347D01*
X134045D01*
Y62582D01*
D02*
G37*
G36*
X133809Y60226D02*
X133338D01*
Y59755D01*
X132866D01*
Y59519D01*
X132631D01*
Y59283D01*
X131924D01*
Y58576D01*
X132159D01*
Y58341D01*
X132631D01*
Y58812D01*
X132866D01*
Y59048D01*
X133338D01*
Y59283D01*
X134045D01*
Y59990D01*
X133809D01*
Y60226D01*
D02*
G37*
G36*
X175754Y59048D02*
X175518D01*
Y58576D01*
X175282D01*
Y58105D01*
X176696D01*
Y57869D01*
X176932D01*
Y58105D01*
X177167D01*
Y58341D01*
X176932D01*
Y58812D01*
X175754D01*
Y59048D01*
D02*
G37*
G36*
X130981Y59283D02*
X130039D01*
Y58812D01*
X130274D01*
Y58105D01*
X130510D01*
Y57634D01*
X130745D01*
Y57398D01*
X130981D01*
Y56927D01*
X131217D01*
Y56691D01*
X131688D01*
Y56455D01*
X131924D01*
Y56220D01*
X132395D01*
Y55984D01*
X133338D01*
Y55749D01*
X133573D01*
Y55984D01*
X134516D01*
Y56220D01*
X134987D01*
Y56927D01*
X134752D01*
Y57162D01*
X134045D01*
Y57398D01*
X132631D01*
Y57634D01*
X132395D01*
Y57869D01*
X131924D01*
Y58105D01*
X131688D01*
Y58341D01*
X131452D01*
Y58812D01*
X131217D01*
Y59048D01*
X130981D01*
Y59283D01*
D02*
G37*
G36*
X174811Y59990D02*
X174104D01*
Y59755D01*
X173869D01*
Y59283D01*
X173633D01*
Y58576D01*
X173397D01*
Y57398D01*
X173633D01*
Y56691D01*
X173869D01*
Y56455D01*
X174104D01*
Y56220D01*
X174340D01*
Y55984D01*
X174575D01*
Y55749D01*
X175047D01*
Y55513D01*
X176460D01*
Y56455D01*
X176225D01*
Y56927D01*
X175989D01*
Y57162D01*
X175754D01*
Y56927D01*
X175518D01*
Y57162D01*
X175047D01*
Y58105D01*
X174811D01*
Y58341D01*
X175047D01*
Y59755D01*
X174811D01*
Y59990D01*
D02*
G37*
G36*
X135694Y58812D02*
X133573D01*
Y58576D01*
X133338D01*
Y58341D01*
X133102D01*
Y58105D01*
X133338D01*
Y57869D01*
X134045D01*
Y57634D01*
X134987D01*
Y57398D01*
X135458D01*
Y57162D01*
X135930D01*
Y56927D01*
X136165D01*
Y56455D01*
X136401D01*
Y56220D01*
X136637D01*
Y55749D01*
X136872D01*
Y55277D01*
X138286D01*
Y55984D01*
X138050D01*
Y56455D01*
X137815D01*
Y56927D01*
X137579D01*
Y57398D01*
X137344D01*
Y57634D01*
X137108D01*
Y57869D01*
X136872D01*
Y58105D01*
X136401D01*
Y58341D01*
X136165D01*
Y58576D01*
X135694D01*
Y58812D01*
D02*
G37*
G36*
X135930Y56220D02*
X135694D01*
Y55984D01*
X135458D01*
Y55749D01*
X134987D01*
Y55513D01*
X134516D01*
Y55277D01*
X133809D01*
Y54806D01*
X134045D01*
Y54570D01*
X134280D01*
Y54335D01*
X134516D01*
Y54099D01*
X134752D01*
Y54335D01*
Y54570D01*
X134987D01*
Y54806D01*
X135458D01*
Y55042D01*
X135930D01*
Y55277D01*
X136165D01*
Y55749D01*
X135930D01*
Y56220D01*
D02*
G37*
G36*
X113072Y97929D02*
X111894D01*
Y97693D01*
X110951D01*
Y97458D01*
X110244D01*
Y97222D01*
X109773D01*
Y96986D01*
X109302D01*
Y96751D01*
X109066D01*
Y96515D01*
X108359D01*
Y96279D01*
X107652D01*
Y95573D01*
X107417D01*
Y93923D01*
X107181D01*
Y92273D01*
X106945D01*
Y90624D01*
X106710D01*
Y89210D01*
X106474D01*
Y87796D01*
X106238D01*
Y86854D01*
X106003D01*
Y86147D01*
X105767D01*
Y85204D01*
X105532D01*
Y84733D01*
X105296D01*
Y83790D01*
X105060D01*
Y83083D01*
X104825D01*
Y82612D01*
X104589D01*
Y81905D01*
X104353D01*
Y81434D01*
X104118D01*
Y80962D01*
X103882D01*
Y80491D01*
X103646D01*
Y80020D01*
X103411D01*
Y79313D01*
X103175D01*
Y78842D01*
X102939D01*
Y78606D01*
X102704D01*
Y78135D01*
X102468D01*
Y77663D01*
X102233D01*
Y77428D01*
X101997D01*
Y76957D01*
X101761D01*
Y76721D01*
X101526D01*
Y76250D01*
X101290D01*
Y76014D01*
X101054D01*
Y75778D01*
X100819D01*
Y75543D01*
X100583D01*
Y75071D01*
X101054D01*
Y74836D01*
X101290D01*
Y74600D01*
X101526D01*
Y74364D01*
X101761D01*
Y74129D01*
X102233D01*
Y73893D01*
X102468D01*
Y73657D01*
X102704D01*
Y73422D01*
X102939D01*
Y73186D01*
X103175D01*
Y72951D01*
X103646D01*
Y72715D01*
X103882D01*
Y72479D01*
X104353D01*
Y72244D01*
X104589D01*
Y72008D01*
X105060D01*
Y71772D01*
X105532D01*
Y71537D01*
X105767D01*
Y71301D01*
X106238D01*
Y71065D01*
X106474D01*
Y70830D01*
X106945D01*
Y70594D01*
X107417D01*
Y70359D01*
X107652D01*
Y70123D01*
X108124D01*
Y69887D01*
X108595D01*
Y69651D01*
X108831D01*
Y69416D01*
X109302D01*
Y69180D01*
X109537D01*
Y68945D01*
X110009D01*
Y68709D01*
X110244D01*
Y68473D01*
X110480D01*
Y68238D01*
X110951D01*
Y68002D01*
X111187D01*
Y67766D01*
X111423D01*
Y67531D01*
X111894D01*
Y67295D01*
X112130D01*
Y67059D01*
X112365D01*
Y66824D01*
X112837D01*
Y66588D01*
X113072D01*
Y66353D01*
X113308D01*
Y66117D01*
X113544D01*
Y65881D01*
X113779D01*
Y65646D01*
X114250D01*
Y65410D01*
X114486D01*
Y65174D01*
X114722D01*
Y64939D01*
X115193D01*
Y64703D01*
X115429D01*
Y64467D01*
X115900D01*
Y64232D01*
X116136D01*
Y63996D01*
X116607D01*
Y63760D01*
X116842D01*
Y63525D01*
X117314D01*
Y63289D01*
X117785D01*
Y63053D01*
X118256D01*
Y62818D01*
X118492D01*
Y62582D01*
X118963D01*
Y62347D01*
X119435D01*
Y62111D01*
X119670D01*
Y61875D01*
X120141D01*
Y61640D01*
X120377D01*
Y61404D01*
X120848D01*
Y61168D01*
X121084D01*
Y60933D01*
X121320D01*
Y60697D01*
X121791D01*
Y60461D01*
X122027D01*
Y60226D01*
X122498D01*
Y59990D01*
X122734D01*
Y59755D01*
X123205D01*
Y59519D01*
X123441D01*
Y59283D01*
X123676D01*
Y59048D01*
X123912D01*
Y58812D01*
X124383D01*
Y58576D01*
X124619D01*
Y58341D01*
X124854D01*
Y58105D01*
X125326D01*
Y57869D01*
X125561D01*
Y57634D01*
X125797D01*
Y57398D01*
X126268D01*
Y57162D01*
X126740D01*
Y56927D01*
X126975D01*
Y56691D01*
X127446D01*
Y56455D01*
X127918D01*
Y56220D01*
X128389D01*
Y55984D01*
X128860D01*
Y55749D01*
X129332D01*
Y55513D01*
X129567D01*
Y55277D01*
X130039D01*
Y55042D01*
X130274D01*
Y54806D01*
X130745D01*
Y54570D01*
X130981D01*
Y54335D01*
X131217D01*
Y54099D01*
X131452D01*
Y53863D01*
X131924D01*
Y54099D01*
X131688D01*
Y54806D01*
X131452D01*
Y55749D01*
X131217D01*
Y55984D01*
X130981D01*
Y56220D01*
X130745D01*
Y56455D01*
X130510D01*
Y56927D01*
X130274D01*
Y57162D01*
X130039D01*
Y57634D01*
X129803D01*
Y58341D01*
X129567D01*
Y59519D01*
X129332D01*
Y59755D01*
X129096D01*
Y59990D01*
X128860D01*
Y60226D01*
X128625D01*
Y60461D01*
X128389D01*
Y60697D01*
Y60933D01*
X128153D01*
Y61168D01*
X127918D01*
Y61875D01*
X127682D01*
Y62582D01*
X127446D01*
Y63996D01*
X127211D01*
Y64232D01*
X126975D01*
Y64467D01*
X126740D01*
Y64939D01*
X126504D01*
Y65174D01*
X126268D01*
Y65410D01*
X126033D01*
Y65881D01*
X125797D01*
Y66588D01*
X125561D01*
Y67766D01*
X125326D01*
Y68238D01*
X124854D01*
Y68709D01*
X124619D01*
Y68945D01*
X124383D01*
Y69180D01*
X124148D01*
Y69887D01*
X123912D01*
Y70594D01*
X123676D01*
Y72479D01*
X123441D01*
Y72715D01*
X123205D01*
Y72951D01*
X122969D01*
Y73186D01*
X122734D01*
Y73657D01*
X122498D01*
Y74129D01*
X122262D01*
Y74600D01*
X122027D01*
Y75307D01*
X121791D01*
Y76485D01*
X121555D01*
Y76721D01*
X121320D01*
Y76957D01*
X121084D01*
Y77428D01*
X120848D01*
Y77663D01*
X120613D01*
Y78135D01*
X120377D01*
Y78842D01*
X120141D01*
Y80727D01*
X119906D01*
Y80962D01*
X119670D01*
Y81198D01*
X119435D01*
Y81669D01*
X119199D01*
Y81905D01*
X118963D01*
Y82376D01*
X118728D01*
Y83083D01*
X118492D01*
Y84262D01*
X118256D01*
Y84497D01*
X118021D01*
Y84733D01*
X117785D01*
Y85204D01*
X117549D01*
Y85440D01*
X117314D01*
Y85911D01*
X117078D01*
Y86382D01*
X116842D01*
Y87089D01*
X116607D01*
Y87796D01*
X116371D01*
Y88503D01*
X116136D01*
Y88974D01*
X115900D01*
Y89446D01*
X115664D01*
Y90153D01*
X115429D01*
Y90624D01*
X115193D01*
Y91095D01*
X114957D01*
Y91566D01*
X114722D01*
Y92273D01*
X114486D01*
Y92980D01*
X114250D01*
Y93452D01*
X114015D01*
Y94394D01*
X113779D01*
Y95337D01*
X113544D01*
Y96044D01*
X113308D01*
Y96751D01*
X113072D01*
Y97929D01*
D02*
G37*
G36*
X176460Y54806D02*
X176225D01*
Y54570D01*
X175754D01*
Y54335D01*
X175518D01*
Y54099D01*
X175282D01*
Y53863D01*
X174811D01*
Y53392D01*
X176225D01*
Y53863D01*
X176460D01*
Y54806D01*
D02*
G37*
G36*
X176696Y57634D02*
X176225D01*
Y57398D01*
X176460D01*
Y56927D01*
X176696D01*
Y56691D01*
X176932D01*
Y55984D01*
X177167D01*
Y54099D01*
X176932D01*
Y53392D01*
X176696D01*
Y52921D01*
X176932D01*
Y52685D01*
X177167D01*
Y52449D01*
X177874D01*
Y52685D01*
X178110D01*
Y53156D01*
X178346D01*
Y53863D01*
X178581D01*
Y55984D01*
X178346D01*
Y56455D01*
X178110D01*
Y56691D01*
X177874D01*
Y56927D01*
X177403D01*
Y57162D01*
X177167D01*
Y57398D01*
X176696D01*
Y57634D01*
D02*
G37*
G36*
X132631Y55513D02*
X131924D01*
Y55042D01*
X132159D01*
Y54335D01*
X132395D01*
Y53863D01*
X132631D01*
Y53392D01*
X132866D01*
Y53156D01*
X133102D01*
Y52921D01*
X133338D01*
Y52685D01*
X133573D01*
Y52449D01*
X134045D01*
Y52214D01*
X134280D01*
Y51978D01*
X134987D01*
Y51743D01*
X136165D01*
Y51978D01*
X136872D01*
Y52214D01*
X137108D01*
Y52685D01*
X136872D01*
Y52921D01*
X136165D01*
Y53156D01*
X135223D01*
Y53392D01*
X134516D01*
Y53628D01*
X134280D01*
Y53863D01*
X134045D01*
Y54099D01*
X133809D01*
Y54335D01*
X133573D01*
Y54570D01*
X133338D01*
Y55042D01*
X133102D01*
Y55277D01*
X132631D01*
Y55513D01*
D02*
G37*
G36*
X137579Y54806D02*
X136401D01*
Y54570D01*
X135930D01*
Y54335D01*
X135458D01*
Y54099D01*
X135223D01*
Y53863D01*
X135458D01*
Y53628D01*
X136872D01*
Y53392D01*
X137344D01*
Y53156D01*
X137579D01*
Y52921D01*
X137815D01*
Y52685D01*
X138286D01*
Y52214D01*
X138522D01*
Y51978D01*
X138757D01*
Y51743D01*
X138993D01*
Y51507D01*
X140171D01*
Y52214D01*
X139936D01*
Y52685D01*
X139700D01*
Y53156D01*
X139464D01*
Y53628D01*
X139229D01*
Y53863D01*
X138993D01*
Y54099D01*
X138757D01*
Y54335D01*
X138286D01*
Y54570D01*
X137579D01*
Y54806D01*
D02*
G37*
G36*
X138050Y52214D02*
X137579D01*
Y51978D01*
X137344D01*
Y51743D01*
X137108D01*
Y51507D01*
X136872D01*
Y51271D01*
X136165D01*
Y51036D01*
X136401D01*
Y50800D01*
X137108D01*
Y51036D01*
X137344D01*
Y51271D01*
X137815D01*
Y51507D01*
X138286D01*
Y51978D01*
X138050D01*
Y52214D01*
D02*
G37*
%LPD*%
G36*
X140878Y177341D02*
X142292D01*
Y177106D01*
X142528D01*
Y176399D01*
X142292D01*
Y176634D01*
X141821D01*
Y176870D01*
X134987D01*
Y176634D01*
X134045D01*
Y176399D01*
X133102D01*
Y176163D01*
X131924D01*
Y175927D01*
X130981D01*
Y175692D01*
X129803D01*
Y175456D01*
X129096D01*
Y175220D01*
X128625D01*
Y174985D01*
X128153D01*
Y174749D01*
X127682D01*
Y174513D01*
X127211D01*
Y174278D01*
X126504D01*
Y174513D01*
X126740D01*
Y174749D01*
X126975D01*
Y174985D01*
X127446D01*
Y175220D01*
X127918D01*
Y175456D01*
X128389D01*
Y175692D01*
X129096D01*
Y175927D01*
X129567D01*
Y176163D01*
X130510D01*
Y176399D01*
X131217D01*
Y176634D01*
X132395D01*
Y176870D01*
X133338D01*
Y177106D01*
X134045D01*
Y177341D01*
X135223D01*
Y177577D01*
X140878D01*
Y177341D01*
D02*
G37*
G36*
X168449Y177577D02*
X168920D01*
Y177341D01*
X169391D01*
Y177106D01*
X170098D01*
Y176870D01*
X171276D01*
Y176634D01*
X171512D01*
Y176399D01*
X171983D01*
Y176163D01*
X172455D01*
Y175927D01*
X172926D01*
Y175692D01*
X173162D01*
Y175456D01*
X173397D01*
Y175220D01*
X173869D01*
Y174985D01*
X174340D01*
Y174749D01*
X174575D01*
Y174513D01*
X174811D01*
Y174278D01*
X174104D01*
Y174513D01*
X173633D01*
Y174749D01*
X173397D01*
Y174985D01*
X172926D01*
Y175220D01*
X172690D01*
Y175456D01*
X172219D01*
Y175692D01*
X171512D01*
Y175927D01*
X171276D01*
Y176163D01*
X170334D01*
Y176399D01*
X169627D01*
Y176634D01*
X168920D01*
Y176870D01*
X168449D01*
Y177106D01*
X162793D01*
Y176870D01*
X162086D01*
Y176634D01*
X160908D01*
Y176399D01*
X160672D01*
Y176634D01*
X160201D01*
Y176870D01*
Y177106D01*
X160672D01*
Y177341D01*
X161851D01*
Y177577D01*
X162793D01*
Y177812D01*
X168449D01*
Y177577D01*
D02*
G37*
G36*
X143235Y173335D02*
X143470D01*
Y173099D01*
X143942D01*
Y172864D01*
X144177D01*
Y172628D01*
X144413D01*
Y172393D01*
X144649D01*
Y171921D01*
X144884D01*
Y171450D01*
X145120D01*
Y170979D01*
X145356D01*
Y170743D01*
X145120D01*
Y170507D01*
X144884D01*
Y170979D01*
X144649D01*
Y171214D01*
X144413D01*
Y171686D01*
X144177D01*
Y171921D01*
X143942D01*
Y172157D01*
X143706D01*
Y172393D01*
X143470D01*
Y172628D01*
X143235D01*
Y172864D01*
X142999D01*
Y173099D01*
X142763D01*
Y173571D01*
X143235D01*
Y173335D01*
D02*
G37*
G36*
X159730Y172864D02*
X159494D01*
Y172628D01*
X159023D01*
Y172393D01*
X158787D01*
Y172157D01*
X158552D01*
Y171686D01*
X158316D01*
Y171450D01*
X158080D01*
Y170743D01*
X157845D01*
Y170272D01*
X157609D01*
Y170507D01*
X157373D01*
Y170979D01*
X157609D01*
Y171686D01*
X157845D01*
Y172157D01*
X158080D01*
Y172393D01*
X158316D01*
Y172628D01*
X158552D01*
Y172864D01*
X158787D01*
Y173099D01*
X159730D01*
Y172864D01*
D02*
G37*
G36*
X136637Y167915D02*
X137344D01*
Y167680D01*
X137815D01*
Y167444D01*
X138286D01*
Y167208D01*
X138522D01*
Y166973D01*
X138993D01*
Y166737D01*
X139464D01*
Y166501D01*
X139936D01*
Y166266D01*
X140171D01*
Y166030D01*
X140643D01*
Y165795D01*
X141114D01*
Y165559D01*
X141585D01*
Y165323D01*
X142056D01*
Y165088D01*
X142292D01*
Y164852D01*
X142763D01*
Y164616D01*
X142999D01*
Y164145D01*
X143235D01*
Y163909D01*
X142999D01*
Y163438D01*
X142763D01*
Y163674D01*
X142528D01*
Y163909D01*
X142056D01*
Y164145D01*
X141821D01*
Y164381D01*
X141349D01*
Y164616D01*
X140878D01*
Y164852D01*
X140407D01*
Y165088D01*
X139936D01*
Y165323D01*
X139464D01*
Y165559D01*
X138993D01*
Y164145D01*
X138757D01*
Y163438D01*
X138522D01*
Y162495D01*
X138993D01*
Y162731D01*
X141585D01*
Y162967D01*
X141821D01*
Y163202D01*
X142056D01*
Y163438D01*
X142292D01*
Y163202D01*
X142528D01*
Y162260D01*
X142056D01*
Y162024D01*
X141349D01*
Y161789D01*
X138522D01*
Y161553D01*
X134987D01*
Y161317D01*
X132395D01*
Y161553D01*
X131688D01*
Y161789D01*
X131217D01*
Y162024D01*
X130981D01*
Y162260D01*
X130745D01*
Y162495D01*
X130510D01*
Y162731D01*
X130274D01*
Y162967D01*
X130039D01*
Y163202D01*
X129567D01*
Y163438D01*
X129332D01*
Y163674D01*
X129096D01*
Y164145D01*
X128860D01*
Y165323D01*
X129096D01*
Y165795D01*
X129332D01*
Y166266D01*
X129567D01*
Y166973D01*
X129332D01*
Y167208D01*
X129096D01*
Y167444D01*
X129332D01*
Y167680D01*
X129567D01*
Y167915D01*
X131217D01*
Y168151D01*
X136637D01*
Y167915D01*
D02*
G37*
%LPC*%
G36*
X133338Y166973D02*
X130745D01*
Y166501D01*
X130510D01*
Y166030D01*
X130274D01*
Y165795D01*
X130039D01*
Y165323D01*
X129803D01*
Y164381D01*
X130039D01*
Y164145D01*
X130274D01*
Y163909D01*
X130510D01*
Y163674D01*
X130745D01*
Y163438D01*
X131217D01*
Y163202D01*
X131452D01*
Y162967D01*
X131688D01*
Y162731D01*
X132159D01*
Y162495D01*
X133338D01*
Y162731D01*
X133102D01*
Y163202D01*
X132866D01*
Y163438D01*
X132631D01*
Y164381D01*
X132395D01*
Y164852D01*
X132631D01*
Y165795D01*
X132866D01*
Y166266D01*
X133102D01*
Y166737D01*
X133338D01*
Y166973D01*
D02*
G37*
%LPD*%
G36*
X171041Y167444D02*
X172455D01*
Y167208D01*
X172690D01*
Y166737D01*
X172926D01*
Y166501D01*
X172690D01*
Y166266D01*
X172455D01*
Y166501D01*
X172219D01*
Y165795D01*
X172455D01*
Y165323D01*
X172690D01*
Y163202D01*
X172455D01*
Y162731D01*
X172219D01*
Y162495D01*
X171983D01*
Y162024D01*
X171748D01*
Y161789D01*
X171512D01*
Y161553D01*
X171276D01*
Y161317D01*
X170805D01*
Y161082D01*
X170569D01*
Y160846D01*
X168920D01*
Y160610D01*
X168213D01*
Y160846D01*
X166328D01*
Y161082D01*
X164678D01*
Y161317D01*
X163736D01*
Y161553D01*
X162086D01*
Y161789D01*
X160201D01*
Y162024D01*
X159730D01*
Y162260D01*
X159494D01*
Y162731D01*
X159730D01*
Y162967D01*
X159258D01*
Y163909D01*
X159494D01*
Y164381D01*
X159730D01*
Y164852D01*
X159965D01*
Y165088D01*
X160201D01*
Y165323D01*
X160437D01*
Y165559D01*
X161144D01*
Y165795D01*
X161851D01*
Y166030D01*
X162793D01*
Y166266D01*
X163736D01*
Y166501D01*
X164443D01*
Y166737D01*
X165150D01*
Y166973D01*
X165621D01*
Y167208D01*
X166563D01*
Y167444D01*
X167270D01*
Y167680D01*
X171041D01*
Y167444D01*
D02*
G37*
%LPC*%
G36*
X163029Y165088D02*
X162086D01*
Y164852D01*
X161144D01*
Y164616D01*
X160908D01*
Y164381D01*
X160672D01*
Y164145D01*
X160437D01*
Y163438D01*
X160201D01*
Y162967D01*
X159965D01*
Y162731D01*
X162793D01*
Y162495D01*
X163264D01*
Y162967D01*
X163029D01*
Y165088D01*
D02*
G37*
G36*
X169627Y166737D02*
X168684D01*
Y166266D01*
X168920D01*
Y165795D01*
X169156D01*
Y164852D01*
X169391D01*
Y163438D01*
X169156D01*
Y162731D01*
X168920D01*
Y162260D01*
X168684D01*
Y161789D01*
X170098D01*
Y162024D01*
X170334D01*
Y162260D01*
X170805D01*
Y162731D01*
X171041D01*
Y162967D01*
X171276D01*
Y163202D01*
X171512D01*
Y163674D01*
X171748D01*
Y165088D01*
X171512D01*
Y166030D01*
X171276D01*
Y166501D01*
X169627D01*
Y166737D01*
D02*
G37*
G36*
X254694Y62582D02*
X254459D01*
Y62347D01*
X254694D01*
Y62582D01*
D02*
G37*
%LPD*%
D10*
X264880Y165240D02*
G03*
X264880Y165240I-1000J0D01*
G01*
X395650Y267340D02*
Y291460D01*
X417150Y267340D02*
Y291460D01*
X391900Y332469D02*
Y336700D01*
X413040D02*
X420900D01*
X391900D02*
X399760D01*
X420900Y332469D02*
Y336700D01*
X403540Y323700D02*
X409260D01*
X243250Y267340D02*
Y291460D01*
X264750Y267340D02*
Y291460D01*
X239500Y332469D02*
Y336700D01*
X260640D02*
X268500D01*
X239500D02*
X247360D01*
X268500Y332469D02*
Y336700D01*
X251140Y323700D02*
X256860D01*
X340950Y267340D02*
Y291460D01*
X319450Y267340D02*
Y291460D01*
X514990Y125050D02*
X539110D01*
X514990Y103550D02*
X539110D01*
X514990Y154350D02*
X539110D01*
X514990Y175850D02*
X539110D01*
X514990Y205150D02*
X539110D01*
X514990Y226650D02*
X539110D01*
X459509Y391750D02*
X483631D01*
X459509Y370250D02*
X483631D01*
X561000Y345100D02*
X582000D01*
X561000Y366100D02*
X582000D01*
X561000Y294300D02*
X582000D01*
X561000Y315300D02*
X582000D01*
X417150Y368940D02*
Y393060D01*
X395650Y368940D02*
Y393060D01*
X340950Y368940D02*
Y393060D01*
X319450Y368940D02*
Y393060D01*
X327340Y323700D02*
X333060D01*
X344700Y332469D02*
Y336700D01*
X315700D02*
X323560D01*
X336840D02*
X344700D01*
X315700Y332469D02*
Y336700D01*
X264750Y368940D02*
Y393060D01*
X243250Y368940D02*
Y393060D01*
D11*
X292380Y109740D02*
X327380D01*
Y122140D01*
X292380Y174740D02*
X327380D01*
Y162340D02*
Y174740D01*
X188559Y477957D02*
X189755D01*
X190952Y479155D01*
X190952Y480351D01*
X190354Y480950D01*
X189157Y480950D01*
X187960Y479753D01*
X186763Y479753D01*
X186165Y480351D01*
X186164Y481549D01*
X187362Y482745D01*
X188559D01*
X184968Y474367D02*
X186164D01*
X187362Y475564D01*
X187362Y476760D01*
X184968Y479155D01*
X183771D01*
X182574Y477957D01*
Y476760D01*
X184369Y472571D02*
X180778Y476162D01*
X178384Y473768D01*
X213958Y479227D02*
X215155D01*
X216352Y480424D01*
X216353Y481622D01*
X215754Y482220D01*
X214557Y482220D01*
X213360Y481023D01*
X212163Y481023D01*
X211565Y481622D01*
X211565Y482818D01*
X212761Y484015D01*
X213958D01*
X213360Y477432D02*
X209769Y481023D01*
X207974Y479227D01*
Y478031D01*
X210368Y475637D01*
X211565D01*
X213360Y477432D01*
X206178D02*
X208572Y475038D01*
Y472644D01*
X206178D01*
X203784Y475038D01*
X205580Y473243D01*
X207974Y475637D01*
X299939Y51107D02*
X301136Y52304D01*
X300538Y51705D01*
X304128Y48115D01*
X303530Y47516D01*
X304727Y48713D01*
X304727Y55895D02*
X303530Y54698D01*
X303530Y53501D01*
X305924Y51107D01*
X307121D01*
X308318Y52304D01*
Y53501D01*
X305924Y55895D01*
X304727D01*
X310113Y54099D02*
X306523Y57690D01*
X308318Y59486D01*
X309515D01*
X310712Y58289D01*
Y57092D01*
X308916Y55296D01*
X310113Y56493D02*
X312507D01*
Y63675D02*
X310113Y61281D01*
X313704Y57690D01*
X316098Y60084D01*
X311909Y59486D02*
X313106Y60683D01*
X316098Y67266D02*
X313704Y64872D01*
X315500Y63077D01*
X316697Y64274D01*
X315500Y63077D01*
X317295Y61281D01*
X330200Y47516D02*
X326609Y51107D01*
X328405Y52902D01*
X329602D01*
X330798Y51705D01*
X330798Y50508D01*
X329003Y48713D01*
X330200Y49910D02*
X332594D01*
Y57092D02*
X330200Y54698D01*
X333791Y51107D01*
X336185Y53501D01*
X331995Y52902D02*
X333192Y54099D01*
X336783Y60084D02*
X335586D01*
X334389Y58887D01*
Y57690D01*
X334988Y57092D01*
X336185Y57092D01*
X337382Y58289D01*
X338579Y58289D01*
X339177Y57690D01*
X339177Y56493D01*
X337980Y55296D01*
X336783D01*
X339776Y64274D02*
X337382Y61880D01*
X340973Y58289D01*
X343367Y60683D01*
X339177Y60084D02*
X340374Y61281D01*
X340973Y65471D02*
X343367Y67865D01*
X342170Y66668D01*
X345761Y63077D01*
X352607Y50508D02*
X352608Y51705D01*
X353805Y52902D01*
X355001D01*
X355600Y52304D01*
Y51107D01*
X355001Y50508D01*
X355600Y51107D01*
X356797Y51107D01*
X357395Y50508D01*
X357396Y49311D01*
X356199Y48115D01*
X355001D01*
X356797Y53501D02*
X360388Y52304D01*
X359191Y55895D01*
X359789Y57690D02*
Y58887D01*
X360986Y60084D01*
X362183D01*
X362782Y59486D01*
Y58289D01*
X362183Y57690D01*
X362782Y58289D01*
X363979Y58289D01*
X364577Y57690D01*
X364577Y56493D01*
X363380Y55296D01*
X362183D01*
X379803Y53501D02*
X377409Y51107D01*
X379204Y49311D01*
X379803Y51107D01*
X380401Y51705D01*
X381599D01*
X382795Y50508D01*
X382795Y49311D01*
X381599Y48115D01*
X380401D01*
X382197Y53501D02*
X385788Y52304D01*
X384591Y55895D01*
X405802Y52902D02*
X404605D01*
X403408Y51705D01*
X403408Y50508D01*
X405802Y48115D01*
X406998D01*
X408195Y49311D01*
X408195Y50508D01*
X406998Y51705D01*
X405802Y50508D01*
X409991Y51107D02*
X406400Y54698D01*
X412385Y53501D01*
X408794Y57092D01*
X409991Y58289D02*
X413582Y54698D01*
X415377Y56493D01*
X415377Y57690D01*
X412983Y60084D01*
X411786D01*
X409991Y58289D01*
X431202Y52902D02*
X430005D01*
X428808Y51705D01*
X428807Y50508D01*
X431202Y48115D01*
X432398D01*
X433596Y49311D01*
X433595Y50508D01*
X432398Y51705D01*
X431202Y50508D01*
X435391Y51107D02*
X431800Y54698D01*
X437785Y53501D01*
X434194Y57092D01*
X435391Y58289D02*
X438982Y54698D01*
X440777Y56493D01*
X440777Y57690D01*
X438383Y60084D01*
X437186D01*
X435391Y58289D01*
X453609Y51107D02*
X456003Y48713D01*
X458397D01*
Y51107D01*
X456003Y53501D01*
X460791Y51107D02*
X461988Y52304D01*
X461389Y51705D01*
X458996Y54099D01*
X458397Y53501D01*
X463783Y54099D02*
X461389Y56493D01*
X463185Y58289D01*
X464382D01*
X466177Y56493D01*
X508000Y47516D02*
X505606Y49910D01*
Y52304D01*
X508000D01*
X510394Y49910D01*
X508599Y51705D01*
X506204Y49311D01*
X508000Y54698D02*
X511591Y51107D01*
X513386Y52902D01*
Y54099D01*
X510992Y56493D01*
X509795D01*
X508000Y54698D01*
X512189Y57690D02*
Y58887D01*
X513386Y60084D01*
X514583D01*
X516977Y57690D01*
X516977Y56493D01*
X515780Y55296D01*
X514583D01*
X512189Y57690D01*
X533400Y47516D02*
X531006Y49910D01*
Y52304D01*
X533400D01*
X535794Y49910D01*
X533998Y51705D01*
X531604Y49311D01*
X533400Y54698D02*
X536991Y51107D01*
X538786Y52902D01*
Y54099D01*
X536392Y56493D01*
X535196D01*
X533400Y54698D01*
X540582D02*
X541779Y55895D01*
X541180Y55296D01*
X537589Y58887D01*
Y57690D01*
X558800Y47516D02*
X556406Y49910D01*
Y52304D01*
X558800D01*
X561194Y49910D01*
X559398Y51705D01*
X557005Y49311D01*
X558800Y54698D02*
X562391Y51107D01*
X564186Y52902D01*
Y54099D01*
X561792Y56493D01*
X560596D01*
X558800Y54698D01*
X568376Y57092D02*
X565982Y54698D01*
Y59486D01*
X565383Y60084D01*
X564186D01*
X562989Y58887D01*
Y57690D01*
X584200Y47516D02*
X581806Y49910D01*
Y52304D01*
X584200D01*
X586594Y49910D01*
X584799Y51705D01*
X582405Y49311D01*
X584200Y54698D02*
X587791Y51107D01*
X589586Y52902D01*
Y54099D01*
X587192Y56493D01*
X585995D01*
X584200Y54698D01*
X588389Y57690D02*
Y58887D01*
X589586Y60084D01*
X590783D01*
X591382Y59486D01*
Y58289D01*
X590783Y57690D01*
X591382Y58289D01*
X592579Y58289D01*
X593177Y57690D01*
X593177Y56493D01*
X591980Y55296D01*
X590783D01*
X609600Y47516D02*
X607206Y49910D01*
Y52304D01*
X609600D01*
X611994Y49910D01*
X610199Y51705D01*
X607804Y49311D01*
X609600Y54698D02*
X613191Y51107D01*
X614986Y52902D01*
Y54099D01*
X612592Y56493D01*
X611395D01*
X609600Y54698D01*
X618577Y56493D02*
X614986Y60084D01*
Y56493D01*
X617380Y58887D01*
X635000Y47516D02*
X632606Y49910D01*
Y52304D01*
X635000D01*
X637394Y49910D01*
X635598Y51705D01*
X633204Y49311D01*
X635000Y54698D02*
X638591Y51107D01*
X640386Y52902D01*
Y54099D01*
X637992Y56493D01*
X636796D01*
X635000Y54698D01*
X640985Y60683D02*
X638591Y58289D01*
X640386Y56493D01*
X640985Y58289D01*
X641583Y58887D01*
X642780D01*
X643977Y57690D01*
X643977Y56493D01*
X642780Y55296D01*
X641583D01*
X639861Y482293D02*
X638664Y481096D01*
X639262Y481694D01*
X635672Y485285D01*
X636270Y485884D01*
X635073Y484687D01*
X635073Y477505D02*
X636270Y478702D01*
X636270Y479899D01*
X633876Y482293D01*
X632679D01*
X631482Y481096D01*
Y479899D01*
X633876Y477505D01*
X635073D01*
X632679Y476308D02*
X632679Y475111D01*
X631482Y473914D01*
X630285D01*
X627891Y476308D01*
X627891Y477505D01*
X629088Y478702D01*
X630285D01*
X632679Y476308D01*
X614461Y482293D02*
X613264Y481096D01*
X613862Y481694D01*
X610271Y485285D01*
X610870Y485884D01*
X609673Y484687D01*
X609673Y477505D02*
X610870Y478702D01*
X610870Y479899D01*
X608476Y482293D01*
X607279D01*
X606082Y481096D01*
Y479899D01*
X608476Y477505D01*
X609673D01*
X604287Y479300D02*
X603090Y478104D01*
X603688Y478702D01*
X607279Y475111D01*
X607279Y476308D01*
X589061Y482293D02*
X587864Y481096D01*
X588462Y481694D01*
X584871Y485285D01*
X585470Y485884D01*
X584273Y484687D01*
X584273Y477505D02*
X585470Y478702D01*
X585470Y479899D01*
X583076Y482293D01*
X581879D01*
X580682Y481096D01*
Y479899D01*
X583076Y477505D01*
X584273D01*
X576493Y476907D02*
X578887Y479300D01*
Y474513D01*
X579485Y473914D01*
X580682D01*
X581879Y475111D01*
X581879Y476308D01*
X563661Y482293D02*
X562464Y481096D01*
X563062Y481694D01*
X559472Y485285D01*
X560070Y485884D01*
X558873Y484687D01*
X558873Y477505D02*
X560070Y478702D01*
X560070Y479899D01*
X557676Y482293D01*
X556479D01*
X555282Y481096D01*
Y479899D01*
X557676Y477505D01*
X558873D01*
X556479Y476308D02*
X556479Y475111D01*
X555282Y473914D01*
X554085D01*
X553487Y474513D01*
Y475710D01*
X554085Y476308D01*
X553487Y475710D01*
X552290Y475710D01*
X551691Y476308D01*
X551691Y477505D01*
X552888Y478702D01*
X554085D01*
X549297Y469126D02*
X549297Y467929D01*
X548100Y466732D01*
X548100Y465535D01*
X538261Y482293D02*
X537064Y481096D01*
X537662Y481694D01*
X534072Y485285D01*
X534670Y485884D01*
X533473Y484687D01*
X533473Y477505D02*
X534670Y478702D01*
X534670Y479899D01*
X532276Y482293D01*
X531079D01*
X529882Y481096D01*
Y479899D01*
X532276Y477505D01*
X533473D01*
X526291D02*
X529882Y473914D01*
Y477505D01*
X527488Y475111D01*
X512861Y482293D02*
X511664Y481096D01*
X512262Y481694D01*
X508671Y485285D01*
X509270Y485884D01*
X508073Y484687D01*
X508073Y477505D02*
X509270Y478702D01*
X509270Y479899D01*
X506876Y482293D01*
X505679D01*
X504482Y481096D01*
Y479899D01*
X506876Y477505D01*
X508073D01*
X503884Y473316D02*
X506278Y475710D01*
X504482Y477505D01*
X503884Y475710D01*
X503285Y475111D01*
X502088D01*
X500891Y476308D01*
X500891Y477505D01*
X502088Y478702D01*
X503285D01*
X498497Y469126D02*
X498497Y467929D01*
X497300Y466732D01*
X497300Y465535D01*
X487461Y482293D02*
X486264Y481096D01*
X486862Y481694D01*
X483271Y485285D01*
X483870Y485884D01*
X482673Y484687D01*
X482673Y477505D02*
X483870Y478702D01*
X483870Y479899D01*
X481476Y482293D01*
X480279D01*
X479082Y481096D01*
Y479899D01*
X481476Y477505D01*
X482673D01*
X478484Y473316D02*
X479082Y475111D01*
Y477505D01*
X477885Y478702D01*
X476688D01*
X475491Y477505D01*
X475491Y476308D01*
X476090Y475710D01*
X477287Y475710D01*
X479082Y477505D01*
X473097Y469126D02*
X473097Y467929D01*
X471900Y466732D01*
X471900Y465535D01*
X462061Y482293D02*
X460864Y481096D01*
X461462Y481694D01*
X457872Y485285D01*
X458470Y485884D01*
X457273Y484687D01*
X457273Y477505D02*
X458470Y478702D01*
X458470Y479899D01*
X456076Y482293D01*
X454879D01*
X453682Y481096D01*
Y479899D01*
X456076Y477505D01*
X457273D01*
X455477Y475710D02*
X453084Y473316D01*
X452485Y473914D01*
Y478702D01*
X451887Y479300D01*
X420151Y481549D02*
X418954Y480352D01*
X419552Y480951D01*
X415961Y484542D01*
X416560Y485140D01*
X415363Y483943D01*
X415363Y476761D02*
X416560Y477958D01*
X416560Y479155D01*
X414166Y481549D01*
X412969D01*
X411772Y480352D01*
Y479155D01*
X414166Y476761D01*
X415363D01*
X412969Y475564D02*
X412969Y474367D01*
X411772Y473170D01*
X410575D01*
X409977Y473769D01*
Y474966D01*
X408780Y474966D01*
X408181Y475564D01*
X408181Y476761D01*
X409378Y477958D01*
X410575D01*
X411174Y477360D01*
Y476163D01*
X412371Y476163D01*
X412969Y475564D01*
X411174Y476163D02*
X409977Y474966D01*
X394751Y481549D02*
X393554Y480352D01*
X394152Y480951D01*
X390561Y484542D01*
X391160Y485140D01*
X389963Y483943D01*
X389963Y476761D02*
X391160Y477958D01*
X391160Y479155D01*
X388766Y481549D01*
X387569D01*
X386372Y480352D01*
Y479155D01*
X388766Y476761D01*
X389963D01*
X385175Y477958D02*
X383978D01*
X382781Y476761D01*
X382781Y475564D01*
X385175Y473170D01*
X386372D01*
X387569Y474367D01*
X387569Y475564D01*
X386971Y476163D01*
X385774Y476163D01*
X383978Y474367D01*
X380387Y468382D02*
X380387Y467185D01*
X379190Y465988D01*
X379190Y464791D01*
X369351Y481549D02*
X368154Y480352D01*
X368752Y480951D01*
X365162Y484542D01*
X365760Y485140D01*
X364563Y483943D01*
X364563Y476761D02*
X365760Y477958D01*
X365760Y479155D01*
X363366Y481549D01*
X362169D01*
X360972Y480352D01*
Y479155D01*
X363366Y476761D01*
X364563D01*
X359177Y478557D02*
X357980Y477360D01*
X358578Y477958D01*
X362169Y474367D01*
X362169Y475564D01*
X359177Y472572D02*
Y471375D01*
X357980Y470178D01*
X356783D01*
X354389Y472572D01*
X354389Y473769D01*
X355586Y474966D01*
X356783D01*
X359177Y472572D01*
X351995Y465390D02*
X351995Y464193D01*
X350798Y462996D01*
X350798Y461799D01*
X343951Y479753D02*
X342754Y478556D01*
X343352Y479155D01*
X339762Y482745D01*
X340360Y483344D01*
X339163Y482147D01*
X339163Y474965D02*
X340360Y476162D01*
X340360Y477359D01*
X337966Y479753D01*
X336769D01*
X335572Y478556D01*
Y477359D01*
X337966Y474965D01*
X339163D01*
X333777Y476760D02*
X332580Y475564D01*
X333178Y476162D01*
X336769Y472571D01*
X336769Y473768D01*
X330784D02*
X329587Y472571D01*
X330186Y473170D01*
X333777Y469579D01*
Y470776D01*
X327193Y464192D02*
X327193Y462995D01*
X325996Y461798D01*
X325996Y460601D01*
X318551Y479753D02*
X317354Y478556D01*
X317952Y479155D01*
X314361Y482745D01*
X314960Y483344D01*
X313763Y482147D01*
X313763Y474965D02*
X314960Y476162D01*
X314960Y477359D01*
X312566Y479753D01*
X311369D01*
X310172Y478556D01*
Y477359D01*
X312566Y474965D01*
X313763D01*
X308377Y476760D02*
X307180Y475564D01*
X307778Y476162D01*
X311369Y472571D01*
X311369Y473768D01*
X302990Y471374D02*
X305384Y473768D01*
Y468980D01*
X305983Y468382D01*
X307180D01*
X308377Y469579D01*
Y470776D01*
X293151Y479753D02*
X291954Y478556D01*
X292552Y479155D01*
X288962Y482745D01*
X289560Y483344D01*
X288363Y482147D01*
X288363Y474965D02*
X289560Y476162D01*
X289560Y477359D01*
X287166Y479753D01*
X285969D01*
X284772Y478556D01*
Y477359D01*
X287166Y474965D01*
X288363D01*
X282977Y476760D02*
X281780Y475564D01*
X282378Y476162D01*
X285969Y472571D01*
X285969Y473768D01*
X282977Y470776D02*
Y469579D01*
X281780Y468382D01*
X280583D01*
X279984Y468980D01*
Y470177D01*
X280583Y470776D01*
X279984Y470177D01*
X278787Y470177D01*
X278189Y470776D01*
X278189Y471973D01*
X279386Y473170D01*
X280583D01*
X264758Y477957D02*
X265955D01*
X267152Y479155D01*
X267153Y480351D01*
X264758Y482745D01*
X263561D01*
X262365Y481549D01*
X262365Y480351D01*
X263561Y479155D01*
X264758Y480351D01*
X260569Y479753D02*
X264160Y476162D01*
X258175Y477359D01*
X261766Y473768D01*
X260569Y472571D02*
X256978Y476162D01*
X255183Y474367D01*
X255183Y473170D01*
X257577Y470776D01*
X258774D01*
X260569Y472571D01*
X238760Y483344D02*
X241154Y480950D01*
Y478556D01*
X238760D01*
X236366Y480950D01*
X238162Y479155D01*
X240555Y481549D01*
X235169Y479753D02*
X238760Y476162D01*
X236964Y474367D01*
X235768D01*
X234571Y475564D01*
Y476760D01*
X236366Y478556D01*
X235169Y477359D02*
X232775D01*
Y470177D02*
X235169Y472571D01*
X231578Y476162D01*
X229184Y473768D01*
X233374Y474367D02*
X232177Y473170D01*
X229184Y466586D02*
X231578Y468980D01*
X229783Y470776D01*
X228586Y469579D01*
X229783Y470776D01*
X227987Y472571D01*
D12*
X596900Y111760D02*
Y124460D01*
Y111760D02*
X609600D01*
X635000D02*
X647700D01*
Y124460D01*
X635000Y218440D02*
X647700D01*
Y205740D02*
Y218440D01*
X596900D02*
X609600D01*
X596900Y205740D02*
Y218440D01*
X495300Y25400D02*
Y38100D01*
X520700D01*
Y12700D02*
X647700D01*
Y38100D01*
X520700D02*
X647700D01*
X520700Y12700D02*
Y38100D01*
X495300Y12700D02*
X520700D01*
X495300D02*
Y25400D01*
X429260Y495300D02*
Y520700D01*
X403860Y495300D02*
X429260D01*
X403860D02*
Y520700D01*
X175260D02*
X403860D01*
X175260Y495300D02*
Y520700D01*
Y495300D02*
X403860D01*
Y520700D02*
X429260D01*
X647700Y495300D02*
Y520700D01*
X444500Y495300D02*
X647700D01*
X444500D02*
Y520700D01*
X647700D01*
X622300Y495300D02*
Y520700D01*
X469900Y12700D02*
Y38100D01*
X266700Y12700D02*
X469900D01*
X266700D02*
Y38100D01*
X469900D01*
X444500Y12700D02*
Y38100D01*
X623700Y240800D02*
X674500D01*
Y317000D01*
X623700Y291600D02*
X649100D01*
Y317000D01*
X623700Y240800D02*
Y310650D01*
X630050Y317000D01*
X674500D01*
X416556Y259207D02*
Y243972D01*
X408938D01*
X406399Y246511D01*
Y251589D01*
X408938Y254128D01*
X416556D01*
X411478D02*
X406399Y259207D01*
X401321Y243972D02*
X391164D01*
Y246511D01*
X401321Y256668D01*
Y259207D01*
X379728Y321311D02*
X369572D01*
X367033Y318772D01*
Y313693D01*
X369572Y311154D01*
X379728D01*
X382267Y313693D01*
Y318772D01*
X377189Y316232D02*
X382267Y321311D01*
Y318772D02*
X379728Y321311D01*
X369572Y326389D02*
X367033Y328928D01*
Y334007D01*
X369572Y336546D01*
X372111D01*
X374650Y334007D01*
Y331468D01*
Y334007D01*
X377189Y336546D01*
X379728D01*
X382267Y334007D01*
Y328928D01*
X379728Y326389D01*
X264156Y255268D02*
Y240032D01*
X256538D01*
X253999Y242572D01*
Y247650D01*
X256538Y250189D01*
X264156D01*
X259077D02*
X253999Y255268D01*
X248921Y242572D02*
X246382Y240032D01*
X241303D01*
X238764Y242572D01*
Y245111D01*
X241303Y247650D01*
X243843D01*
X241303D01*
X238764Y250189D01*
Y252728D01*
X241303Y255268D01*
X246382D01*
X248921Y252728D01*
X223389Y321311D02*
X213232D01*
X210693Y318772D01*
Y313693D01*
X213232Y311154D01*
X223389D01*
X225928Y313693D01*
Y318772D01*
X220850Y316232D02*
X225928Y321311D01*
Y318772D02*
X223389Y321311D01*
X225928Y326389D02*
Y331468D01*
Y328928D01*
X210693D01*
X213232Y326389D01*
X392364Y132781D02*
X391094Y134051D01*
X388555D01*
X387285Y132781D01*
Y127703D01*
X388555Y126433D01*
X391094D01*
X392364Y127703D01*
X399981Y126433D02*
X394903D01*
X399981Y131511D01*
Y132781D01*
X398712Y134051D01*
X396172D01*
X394903Y132781D01*
X419100Y135889D02*
X417830Y137159D01*
X415291D01*
X414022Y135889D01*
Y130811D01*
X415291Y129541D01*
X417830D01*
X419100Y130811D01*
X421639Y129541D02*
X424178D01*
X422909D01*
Y137159D01*
X421639Y135889D01*
X655320Y215900D02*
Y216323D01*
X655743D01*
Y215900D01*
X655320D01*
X459994Y400304D02*
Y415539D01*
X467612D01*
X470151Y413000D01*
Y407921D01*
X467612Y405382D01*
X459994D01*
X465072D02*
X470151Y400304D01*
X475229D02*
X480307D01*
X477768D01*
Y415539D01*
X475229Y413000D01*
X498082Y400304D02*
X487925D01*
X498082Y410461D01*
Y413000D01*
X495542Y415539D01*
X490464D01*
X487925Y413000D01*
X515620Y235204D02*
Y250439D01*
X523237D01*
X525777Y247900D01*
Y242822D01*
X523237Y240282D01*
X515620D01*
X520698D02*
X525777Y235204D01*
X530855D02*
X535933D01*
X533394D01*
Y250439D01*
X530855Y247900D01*
X543551Y235204D02*
X548629D01*
X546090D01*
Y250439D01*
X543551Y247900D01*
X515620Y184404D02*
Y199639D01*
X523237D01*
X525777Y197100D01*
Y192022D01*
X523237Y189482D01*
X515620D01*
X520698D02*
X525777Y184404D01*
X530855D02*
X535933D01*
X533394D01*
Y199639D01*
X530855Y197100D01*
X543551D02*
X546090Y199639D01*
X551169D01*
X553708Y197100D01*
Y186943D01*
X551169Y184404D01*
X546090D01*
X543551Y186943D01*
Y197100D01*
X515620Y133604D02*
Y148839D01*
X523237D01*
X525777Y146300D01*
Y141222D01*
X523237Y138682D01*
X515620D01*
X520698D02*
X525777Y133604D01*
X530855Y136143D02*
X533394Y133604D01*
X538473D01*
X541012Y136143D01*
Y146300D01*
X538473Y148839D01*
X533394D01*
X530855Y146300D01*
Y143761D01*
X533394Y141222D01*
X541012D01*
X589286Y96517D02*
Y83822D01*
X591825Y81283D01*
X596903D01*
X599442Y83822D01*
Y96517D01*
X604521Y93978D02*
X614678Y83822D01*
X604521D02*
X614678Y93978D01*
X604521Y88900D02*
X614678D01*
X609599Y83822D02*
Y93978D01*
X619756Y81283D02*
X624834D01*
X622295D01*
Y96517D01*
X619756Y93978D01*
X294643Y198118D02*
Y185422D01*
X297183Y182882D01*
X302261D01*
X304800Y185422D01*
Y198118D01*
X309878Y182882D02*
X314957D01*
X312418D01*
Y198118D01*
X309878Y195578D01*
X539750Y441328D02*
X537211Y443868D01*
X532132D01*
X529593Y441328D01*
Y438789D01*
X532132Y436250D01*
X537211D01*
X539750Y433711D01*
Y431172D01*
X537211Y428633D01*
X532132D01*
X529593Y431172D01*
X544828Y428633D02*
X549907D01*
X547368D01*
Y443868D01*
X544828Y441328D01*
X394970Y401193D02*
Y416428D01*
X402588D01*
X405127Y413889D01*
Y408811D01*
X402588Y406272D01*
X394970D01*
X400048D02*
X405127Y401193D01*
X410205Y413889D02*
X412744Y416428D01*
X417823D01*
X420362Y413889D01*
Y411350D01*
X417823Y408811D01*
X420362Y406272D01*
Y403732D01*
X417823Y401193D01*
X412744D01*
X410205Y403732D01*
Y406272D01*
X412744Y408811D01*
X410205Y411350D01*
Y413889D01*
X412744Y408811D02*
X417823D01*
X318770Y406802D02*
Y422038D01*
X326387D01*
X328927Y419498D01*
Y414420D01*
X326387Y411881D01*
X318770D01*
X323848D02*
X328927Y406802D01*
X344162Y422038D02*
X339083Y419498D01*
X334005Y414420D01*
Y409342D01*
X336544Y406802D01*
X341623D01*
X344162Y409342D01*
Y411881D01*
X341623Y414420D01*
X334005D01*
X340356Y253598D02*
Y238363D01*
X332738D01*
X330199Y240902D01*
Y245980D01*
X332738Y248519D01*
X340356D01*
X335277D02*
X330199Y253598D01*
X314964Y238363D02*
X325121D01*
Y245980D01*
X320042Y243441D01*
X317503D01*
X314964Y245980D01*
Y251058D01*
X317503Y253598D01*
X322582D01*
X325121Y251058D01*
X241304Y408942D02*
Y424178D01*
X248922D01*
X251461Y421638D01*
Y416560D01*
X248922Y414021D01*
X241304D01*
X246383D02*
X251461Y408942D01*
X264157D02*
Y424178D01*
X256539Y416560D01*
X266696D01*
X523854Y347982D02*
Y363218D01*
X531472D01*
X534011Y360678D01*
Y355600D01*
X531472Y353061D01*
X523854D01*
X528932D02*
X534011Y347982D01*
X549246D02*
X539089D01*
X549246Y358139D01*
Y360678D01*
X546707Y363218D01*
X541628D01*
X539089Y360678D01*
X526443Y297183D02*
Y312418D01*
X534061D01*
X536600Y309878D01*
Y304800D01*
X534061Y302261D01*
X526443D01*
X531522D02*
X536600Y297183D01*
X541678D02*
X546757D01*
X544218D01*
Y312418D01*
X541678Y309878D01*
X297919Y321311D02*
X287762D01*
X285223Y318772D01*
Y313693D01*
X287762Y311154D01*
X297919D01*
X300458Y313693D01*
Y318772D01*
X295380Y316232D02*
X300458Y321311D01*
Y318772D02*
X297919Y321311D01*
X300458Y336546D02*
Y326389D01*
X290301Y336546D01*
X287762D01*
X285223Y334007D01*
Y328928D01*
X287762Y326389D01*
X509270Y76200D02*
Y86357D01*
X514348Y91435D01*
X519427Y86357D01*
Y76200D01*
Y83818D01*
X509270D01*
X524505Y91435D02*
Y76200D01*
X532123D01*
X534662Y78739D01*
Y88896D01*
X532123Y91435D01*
X524505D01*
X539740Y76200D02*
X544818D01*
X542279D01*
Y91435D01*
X539740Y88896D01*
X600715Y247650D02*
Y252728D01*
Y250189D01*
X615950D01*
Y247650D01*
Y252728D01*
X603254Y270503D02*
X600715Y267963D01*
Y262885D01*
X603254Y260346D01*
X613411D01*
X615950Y262885D01*
Y267963D01*
X613411Y270503D01*
X603254Y285738D02*
X600715Y283199D01*
Y278120D01*
X603254Y275581D01*
X605793D01*
X608332Y278120D01*
Y283199D01*
X610872Y285738D01*
X613411D01*
X615950Y283199D01*
Y278120D01*
X613411Y275581D01*
X615950Y290816D02*
X600715D01*
Y298434D01*
X603254Y300973D01*
X608332D01*
X610872Y298434D01*
Y290816D01*
X615950Y306051D02*
Y311129D01*
Y308590D01*
X600715D01*
X603254Y306051D01*
X524510Y438155D02*
X519432D01*
X521971D01*
Y453390D01*
X524510D01*
X519432D01*
X504197Y438155D02*
X509275D01*
X511814Y440694D01*
Y450851D01*
X509275Y453390D01*
X504197D01*
X501657Y450851D01*
Y440694D01*
X504197Y438155D01*
X496579D02*
Y453390D01*
X486422D01*
X481344D02*
X476266D01*
X478805D01*
Y438155D01*
X481344Y440694D01*
X292100Y88900D02*
Y104135D01*
X299718D01*
X302257Y101596D01*
Y96517D01*
X299718Y93978D01*
X292100D01*
X314953Y104135D02*
X309874D01*
X307335Y101596D01*
Y91439D01*
X309874Y88900D01*
X314953D01*
X317492Y91439D01*
Y101596D01*
X314953Y104135D01*
X322570D02*
Y88900D01*
X327649Y93978D01*
X332727Y88900D01*
Y104135D01*
X347962D02*
X337805D01*
Y88900D01*
X347962D01*
X337805Y96517D02*
X342884D01*
X353040Y88900D02*
Y104135D01*
X360658D01*
X363197Y101596D01*
Y96517D01*
X360658Y93978D01*
X353040D01*
X358119D02*
X363197Y88900D01*
X368275D02*
X373354D01*
X370815D01*
Y104135D01*
X368275Y101596D01*
M02*
