G04*
G04 #@! TF.GenerationSoftware,Altium Limited,Altium Designer,26.2.0 (7)*
G04*
G04 Layer_Physical_Order=1*
G04 Layer_Color=255*
%FSLAX44Y44*%
%MOMM*%
G71*
G04*
G04 #@! TF.SameCoordinates,07046FA8-F61C-4276-8BF4-9B4F64F1D9A8*
G04*
G04*
G04 #@! TF.FilePolarity,Positive*
G04*
G01*
G75*
%ADD13R,1.2621X0.8081*%
G04:AMPARAMS|DCode=14|XSize=1.5242mm|YSize=0.578mm|CornerRadius=0.289mm|HoleSize=0mm|Usage=FLASHONLY|Rotation=90.000|XOffset=0mm|YOffset=0mm|HoleType=Round|Shape=RoundedRectangle|*
%AMROUNDEDRECTD14*
21,1,1.5242,0.0000,0,0,90.0*
21,1,0.9463,0.5780,0,0,90.0*
1,1,0.5780,0.0000,0.4731*
1,1,0.5780,0.0000,-0.4731*
1,1,0.5780,0.0000,-0.4731*
1,1,0.5780,0.0000,0.4731*
%
%ADD14ROUNDEDRECTD14*%
%ADD15R,0.5780X1.5242*%
%ADD16R,0.7000X1.3000*%
%ADD21R,0.8081X1.2621*%
%ADD27R,1.2500X1.1000*%
%ADD28R,2.1500X3.2500*%
%ADD29R,2.1500X0.9500*%
%ADD30R,2.8000X1.0000*%
%ADD31C,0.3810*%
%ADD32C,1.5240*%
%ADD33R,1.5240X1.5240*%
%ADD34C,3.4540*%
%ADD35C,1.7780*%
%ADD36C,0.6096*%
D13*
X406400Y287420D02*
D03*
Y271380D02*
D03*
X330200Y287420D02*
D03*
X406400Y389020D02*
D03*
X330200Y271380D02*
D03*
X254000D02*
D03*
Y287420D02*
D03*
Y389020D02*
D03*
X406400Y372980D02*
D03*
X330200D02*
D03*
Y389020D02*
D03*
X254000Y372980D02*
D03*
D14*
X406400Y339302D02*
D03*
X415900Y321098D02*
D03*
X339700D02*
D03*
X254000Y339302D02*
D03*
X263500Y321098D02*
D03*
X330200Y339302D02*
D03*
D15*
X396900Y321098D02*
D03*
X320700D02*
D03*
X244500D02*
D03*
D16*
X562000Y304800D02*
D03*
X581000Y355600D02*
D03*
X562000D02*
D03*
X581000Y304800D02*
D03*
D21*
X535070Y114300D02*
D03*
X519030D02*
D03*
Y215900D02*
D03*
Y165100D02*
D03*
X535070D02*
D03*
Y215900D02*
D03*
X479590Y381000D02*
D03*
X463550D02*
D03*
D27*
X442840Y114300D02*
D03*
X393700D02*
D03*
X376700D02*
D03*
X425840D02*
D03*
D28*
X338880Y142240D02*
D03*
D29*
X280880D02*
D03*
Y119240D02*
D03*
Y165240D02*
D03*
D30*
X577850Y450850D02*
D03*
X635850D02*
D03*
Y410850D02*
D03*
X577850D02*
D03*
D31*
Y450850D02*
X635850D01*
X562000Y355600D02*
Y387997D01*
X560421Y389576D02*
X562000Y387997D01*
X560421Y389576D02*
Y417378D01*
X577850Y434807D01*
Y450850D01*
X636812Y402367D02*
Y409888D01*
X623065Y388620D02*
X636812Y402367D01*
X635850Y410850D02*
X636812Y409888D01*
X623065Y247977D02*
Y388620D01*
X577850Y410850D02*
X635850D01*
X643255Y103505D02*
X666750Y127000D01*
X490829Y103505D02*
X643255D01*
X578368Y152400D02*
X584305Y158338D01*
X577850Y152400D02*
X578368D01*
X584305Y158338D02*
X589495D01*
X594995Y163838D01*
X574686Y141605D02*
X588671D01*
X551191Y165100D02*
X574686Y141605D01*
X535070Y165100D02*
X551191D01*
X533181Y247869D02*
X577850Y203200D01*
X488950Y298450D02*
X533181Y254219D01*
Y247869D02*
Y254219D01*
X535070Y201530D02*
X558800Y177800D01*
X535070Y201530D02*
Y215900D01*
X355600Y25400D02*
Y76200D01*
X349250Y82550D02*
X355600Y76200D01*
X443481Y113658D02*
X455436D01*
X458130Y110964D01*
X442840Y114300D02*
X443481Y113658D01*
X444500Y88900D02*
X458130Y102530D01*
Y110964D01*
X406400Y339302D02*
X428202D01*
X444500Y355600D01*
X464755Y413955D02*
Y423731D01*
X438150Y387350D02*
X464755Y413955D01*
X406400Y389020D02*
X407235Y388185D01*
X437315D02*
X438150Y387350D01*
X407235Y388185D02*
X437315D01*
X464755Y423731D02*
X489659Y448635D01*
X524835D01*
X330200Y389020D02*
X331035Y388185D01*
X367465D01*
X368300Y387350D01*
X348117Y361950D02*
X368300D01*
X298450Y387350D02*
X300856D01*
X347035Y454985D02*
X497448D01*
X317243Y399793D02*
Y425193D01*
X254835Y388185D02*
X297615D01*
X317243Y425193D02*
X347035Y454985D01*
X300856Y387350D02*
X307559Y394053D01*
X297615Y388185D02*
X298450Y387350D01*
X307559Y394053D02*
X311503D01*
X317243Y399793D01*
X254000Y389020D02*
X254835Y388185D01*
X304800Y361950D02*
X315830Y372980D01*
X254000Y339302D02*
Y344033D01*
X271917Y361950D02*
X285750D01*
X254000Y344033D02*
X271917Y361950D01*
X396900Y316367D02*
Y321098D01*
Y316367D02*
X400050Y313217D01*
Y302238D02*
Y313217D01*
X404130Y271380D02*
X406400D01*
X395644Y279866D02*
X404130Y271380D01*
X395644Y297832D02*
X400050Y302238D01*
X395644Y279866D02*
Y297832D01*
X406400Y287420D02*
X408670D01*
X419100Y297850D01*
X415900Y316350D02*
Y321098D01*
Y316350D02*
X419100Y313150D01*
Y297850D02*
Y313150D01*
X444500Y298450D02*
X488950D01*
X339700Y294650D02*
Y321098D01*
X330200Y287420D02*
X332470D01*
X357270D02*
X368300Y298450D01*
X332470Y287420D02*
X357270D01*
X332470D02*
X339700Y294650D01*
X415900Y321098D02*
X477904D01*
X494202Y304800D01*
X562000D01*
X524835Y448635D02*
X584200Y508000D01*
X254000Y271380D02*
X327930D01*
X254000Y163120D02*
X274880Y142240D01*
X251730Y271380D02*
X254000D01*
X438150Y130944D02*
Y152400D01*
Y130944D02*
X442840Y126255D01*
Y114300D02*
Y126255D01*
X320700Y299088D02*
Y321098D01*
X319444Y279866D02*
X327930Y271380D01*
X319444Y297832D02*
X320700Y299088D01*
X319444Y279866D02*
Y297832D01*
X327930Y271380D02*
X330200D01*
X404130D01*
X244500Y299088D02*
Y321098D01*
X243244Y297832D02*
X244500Y299088D01*
X243244Y279866D02*
Y297832D01*
Y279866D02*
X251730Y271380D01*
X254000Y163120D02*
Y271380D01*
X341420Y139700D02*
X374650D01*
X280880Y142240D02*
X338880D01*
X341420Y139700D01*
X274880Y142240D02*
X280880D01*
X263500Y296920D02*
Y321098D01*
X258406Y291826D02*
X263500Y296920D01*
X256270Y287420D02*
X258406Y289555D01*
Y291826D01*
X254000Y287420D02*
X256270D01*
X497448Y454985D02*
X545465Y503003D01*
X589198Y520065D02*
X596900Y512363D01*
Y503638D02*
X604603Y495935D01*
X596900Y503638D02*
Y512363D01*
X553802Y520065D02*
X589198D01*
X545465Y511727D02*
X553802Y520065D01*
X545465Y503003D02*
Y511727D01*
X622935Y495935D02*
X635000Y508000D01*
X604603Y495935D02*
X622935D01*
X284080Y287420D02*
X285750Y285750D01*
Y222250D02*
X383566D01*
X448945Y145389D02*
Y156871D01*
X383566Y222250D02*
X448945Y156871D01*
Y145389D02*
X490829Y103505D01*
X254000Y287420D02*
X284080D01*
X330200Y344033D02*
X348117Y361950D01*
X482600Y139700D02*
X508000Y114300D01*
X519030D01*
X280880Y165240D02*
X374510D01*
X393633Y146117D01*
Y114367D02*
Y146117D01*
X406400Y372980D02*
X457800D01*
X330200D02*
X406400D01*
X579837Y114300D02*
X604603Y139065D01*
X535070Y114300D02*
X579837D01*
X588671Y141605D02*
X596637Y149571D01*
X581000Y256464D02*
Y355600D01*
X604603Y139065D02*
X621665D01*
X635000Y152400D01*
X519030Y114300D02*
Y165100D01*
X596637Y156500D02*
X605872Y165735D01*
X622935D02*
X635000Y177800D01*
X596637Y149571D02*
Y156500D01*
X605872Y165735D02*
X622935D01*
X594995Y163838D02*
Y242469D01*
X519030Y165100D02*
Y215900D01*
X623065Y247977D02*
X635000Y236042D01*
Y203200D02*
Y236042D01*
X406400Y25400D02*
X431800D01*
X376700Y114300D02*
X377405D01*
X381000Y110705D01*
Y25400D02*
Y110705D01*
X393633Y114367D02*
X393700Y114300D01*
X315830Y372980D02*
X330200D01*
X254000D02*
X315830D01*
X393700Y114300D02*
X425840D01*
X291820D02*
X376700D01*
X581000Y256464D02*
X594995Y242469D01*
X393700Y38100D02*
X406400Y25400D01*
X393700Y38100D02*
Y114300D01*
X280880Y119240D02*
X286880D01*
X291820Y114300D01*
X479590Y378730D02*
Y381000D01*
Y378730D02*
X502720Y355600D01*
X562000D01*
X330200Y339302D02*
Y344033D01*
X463550Y378730D02*
Y381000D01*
X457800Y372980D02*
X463550Y378730D01*
D32*
X609600Y203200D02*
D03*
X584200Y508000D02*
D03*
X609600Y127000D02*
D03*
X635000D02*
D03*
X355600Y25400D02*
D03*
X609600Y177800D02*
D03*
Y152400D02*
D03*
X635000Y203200D02*
D03*
Y177800D02*
D03*
Y152400D02*
D03*
X533400Y25400D02*
D03*
X558800D02*
D03*
X584200D02*
D03*
X609600D02*
D03*
X635000D02*
D03*
X391160Y508000D02*
D03*
X365760D02*
D03*
X340360D02*
D03*
X314960D02*
D03*
X289560D02*
D03*
X264160D02*
D03*
X238760D02*
D03*
X213360D02*
D03*
X187960D02*
D03*
X558800D02*
D03*
X533400D02*
D03*
X508000D02*
D03*
X482600D02*
D03*
X457200D02*
D03*
X609600D02*
D03*
X381000Y25400D02*
D03*
X330200D02*
D03*
X304800D02*
D03*
X279400D02*
D03*
X431800D02*
D03*
X406400D02*
D03*
D33*
X635000Y508000D02*
D03*
X508000Y25400D02*
D03*
X416560Y508000D02*
D03*
X457200Y25400D02*
D03*
D34*
X660400Y355600D02*
D03*
X139700Y25400D02*
D03*
X152400Y508000D02*
D03*
X660400Y76200D02*
D03*
D35*
X636400Y304300D02*
D03*
X661800D02*
D03*
X636400Y278900D02*
D03*
X661800D02*
D03*
X636400Y253500D02*
D03*
X661800D02*
D03*
D36*
X666750Y127000D02*
D03*
X577850Y152400D02*
D03*
Y203200D02*
D03*
X558800Y177800D02*
D03*
X349250Y82550D02*
D03*
X444500Y88900D02*
D03*
Y355600D02*
D03*
X438150Y387350D02*
D03*
X368300D02*
D03*
Y361950D02*
D03*
X298450Y387350D02*
D03*
X285750Y361950D02*
D03*
X304800D02*
D03*
X444500Y298450D02*
D03*
X368300D02*
D03*
X438150Y152400D02*
D03*
X374650Y139700D02*
D03*
X285750Y285750D02*
D03*
Y222250D02*
D03*
X482600Y139700D02*
D03*
M02*
